<?xml version="1.0" encoding="iso-8859-1"?>
<!-- Generator: Adobe Illustrator 23.0.3, SVG Export Plug-In . SVG Version: 6.00 Build 0)  -->
<svg version="1.1" id="Capa_1" xmlns="http://www.w3.org/2000/svg" xmlns:xlink="http://www.w3.org/1999/xlink" x="0px" y="0px"
	 viewBox="0 0 512 512" style="enable-background:new 0 0 512 512;" xml:space="preserve">
<g>
	<linearGradient id="SVGID_1_" gradientUnits="userSpaceOnUse" x1="206.8671" y1="253.5018" x2="802.4096" y2="253.5018">
		<stop  offset="7.011211e-04" style="stop-color:#FFF0D5"/>
		<stop  offset="0.5112" style="stop-color:#FFDFFF"/>
		<stop  offset="1" style="stop-color:#D9CEFF"/>
	</linearGradient>
	<path style="fill:url(#SVGID_1_);" d="M382.606,171.518c-0.192-0.001-0.385-0.002-0.577-0.002
		c-32.034-0.05-62.385-13.844-83.44-37.986c-31.366-35.964-77.6-58.622-129.121-58.393C75.956,75.551-1.195,154.117,0.014,247.622
		c1.203,92.986,76.955,167.995,170.227,167.995c26.343,0,51.286-5.987,73.547-16.672c19.194-9.213,42.065-6.784,58.968,6.161
		c21.863,16.745,49.19,26.713,78.846,26.763c71.382,0.119,129.981-58.02,130.396-129.401
		C512.416,230.419,454.556,171.941,382.606,171.518z"/>
	<g>
		<g>
			<g>
				<g>
					<g>
						<g>
							<g>
								<g>
									<g>
										<path style="opacity:0.1;fill:#590BB2;" d="M396.259,55.529v374.946c0,8.289-6.738,15.027-15.027,15.027H130.768
											c-8.289,0-15.027-6.738-15.027-15.027V55.529c0-8.289,6.738-15.027,15.027-15.027h250.465
											C389.521,40.502,396.259,47.239,396.259,55.529z"/>
										<path style="fill:#F5F4F9;" d="M396.259,76.529v374.946c0,8.289-6.738,15.027-15.027,15.027H130.768
											c-8.289,0-15.027-6.738-15.027-15.027V76.529c0-8.289,6.738-15.027,15.027-15.027h250.465
											C389.521,61.502,396.259,68.239,396.259,76.529z"/>
										<rect x="115.74" y="108.784" style="fill:#E2CCFF;" width="280.52" height="130.217"/>
										<path style="fill:#FFF4C5;" d="M329.343,238.893c4.207-6.568,6.656-14.371,6.656-22.75c0-23.334-18.916-42.25-42.25-42.25
											s-42.25,18.916-42.25,42.25c0,8.379,2.449,16.182,6.656,22.75H329.343z"/>
										<path style="fill:#FFA052;" d="M396.26,216.622v22.38H115.74v-31.2l93.66-39.367c2.896-1.217,6.196-1.003,8.91,0.579
											l77.189,44.988l43.276-26.323c3.207-1.95,7.235-1.941,10.433,0.024L396.26,216.622z"/>
										<path style="fill:#C182F9;" d="M396.257,109.765V76.533c0-8.299-6.728-15.028-15.028-15.028H130.77
											c-8.299,0-15.028,6.728-15.028,15.028v33.232H396.257z"/>
									</g>
									<g>
										<path style="fill:#590BB2;" d="M153.894,90.708c-2.761,0-5-2.239-5-5v-0.146c0-2.761,2.239-5,5-5s5,2.239,5,5v0.146
											C158.894,88.47,156.656,90.708,153.894,90.708z"/>
										<path style="fill:#590BB2;" d="M173.255,90.708c-2.761,0-5-2.239-5-5v-0.146c0-2.761,2.239-5,5-5s5,2.239,5,5v0.146
											C178.255,88.47,176.016,90.708,173.255,90.708z"/>
										<path style="fill:#590BB2;" d="M192.615,90.708c-2.761,0-5-2.239-5-5v-0.146c0-2.761,2.239-5,5-5s5,2.239,5,5v0.146
											C197.615,88.47,195.376,90.708,192.615,90.708z"/>
									</g>
								</g>
							</g>
							<path style="fill:#590BB2;" d="M381.229,56.506H130.77c-11.043,0-20.028,8.984-20.028,20.027v285.365c0,2.761,2.239,5,5,5
								s5-2.239,5-5V114.765h248.146c2.761,0,5-2.239,5-5s-2.239-5-5-5H120.743V76.533c0-5.529,4.499-10.027,10.028-10.027h250.459
								c5.529,0,10.028,4.498,10.028,10.027v374.938c0,5.529-4.499,10.027-10.028,10.027H130.77
								c-5.529,0-10.028-4.498-10.028-10.027v-62.032c0-2.761-2.239-5-5-5s-5,2.239-5,5v62.032c0,11.043,8.984,20.027,20.028,20.027
								h250.459c11.043,0,20.028-8.984,20.028-20.027V76.533C401.257,65.49,392.273,56.506,381.229,56.506z"/>
						</g>
					</g>
				</g>
			</g>
			<g>
				<g>
					<g>
						<path style="fill:#DDD9E4;" d="M190.931,332.849h-35.077c-2.765,0-5.007,2.242-5.007,5.007l0,0
							c0,2.765,2.242,5.007,5.007,5.007h35.292c2.928,0,5.269-2.513,4.984-5.499C195.881,334.761,193.546,332.849,190.931,332.849z"
							/>
					</g>
					<g>
						<circle style="fill:#FFBE92;" cx="173.5" cy="292.549" r="25.966"/>
						<g>
							<g>
								<path style="fill:#F5F4F9;" d="M167.517,307.537c-0.733,0-1.475-0.183-2.158-0.569c-2.116-1.195-2.863-3.878-1.668-5.993
									l11.958-21.176c1.194-2.115,3.878-2.862,5.992-1.668c2.116,1.195,2.863,3.878,1.668,5.993L171.351,305.3
									C170.543,306.732,169.052,307.537,167.517,307.537z"/>
							</g>
						</g>
					</g>
				</g>
				<g>
					<g>
						<path style="fill:#DDD9E4;" d="M273.431,332.849h-35.077c-2.765,0-5.007,2.242-5.007,5.007l0,0
							c0,2.765,2.242,5.007,5.007,5.007h35.292c2.928,0,5.269-2.513,4.984-5.499C278.381,334.761,276.046,332.849,273.431,332.849z"
							/>
					</g>
					<g>
						<path style="fill:#FFF4C5;" d="M210.552,128.122h-65.077c-2.765,0-5.007,2.242-5.007,5.007l0,0
							c0,2.765,2.242,5.007,5.007,5.007h65.292c2.928,0,5.269-2.513,4.984-5.499C215.503,130.033,213.167,128.122,210.552,128.122z"
							/>
					</g>
					<g>
						<path style="fill:#FFF4C5;" d="M181.978,148.64l-23.077,0c-2.765,0-5.007,2.242-5.007,5.007v0
							c0,2.765,2.242,5.007,5.007,5.007h23.292c2.928,0,5.269-2.513,4.984-5.499C186.929,150.551,184.593,148.64,181.978,148.64z"/>
					</g>
					<g>
						<path style="fill:#FFF4C5;" d="M359.244,147.625h-35.077c-2.765,0-5.007,2.242-5.007,5.007v0c0,2.765,2.242,5.007,5.007,5.007
							h35.292c2.928,0,5.269-2.513,4.984-5.499C364.194,149.537,361.859,147.625,359.244,147.625z"/>
					</g>
					<g>
						<circle style="fill:#FFBE92;" cx="256" cy="292.549" r="25.966"/>
						<g>
							<g>
								<path style="fill:#F5F4F9;" d="M250.017,307.537c-0.733,0-1.475-0.183-2.158-0.569c-2.116-1.195-2.863-3.878-1.668-5.993
									l11.958-21.176c1.194-2.115,3.878-2.862,5.993-1.668c2.116,1.195,2.863,3.878,1.668,5.993L253.851,305.3
									C253.043,306.732,251.552,307.537,250.017,307.537z"/>
							</g>
						</g>
					</g>
				</g>
				<g>
					<g>
						<path style="fill:#DDD9E4;" d="M355.931,332.849h-35.077c-2.765,0-5.007,2.242-5.007,5.007l0,0
							c0,2.765,2.242,5.007,5.007,5.007h35.292c2.928,0,5.269-2.513,4.984-5.499C360.881,334.761,358.546,332.849,355.931,332.849z"
							/>
					</g>
					<g>
						<circle style="fill:#FFBE92;" cx="338.5" cy="292.549" r="25.966"/>
						<g>
							<g>
								<path style="fill:#F5F4F9;" d="M332.517,307.537c-0.733,0-1.475-0.183-2.158-0.569c-2.116-1.195-2.863-3.878-1.668-5.993
									l11.957-21.176c1.194-2.115,3.878-2.862,5.993-1.668c2.116,1.195,2.863,3.878,1.668,5.993L336.351,305.3
									C335.543,306.732,334.052,307.537,332.517,307.537z"/>
							</g>
						</g>
					</g>
				</g>
			</g>
			<g>
				<g>
					<g>
						<path style="fill:#DDD9E4;" d="M291.047,388.771H171.067c-2.829,0-5.123-2.294-5.123-5.123c0-2.829,2.293-5.123,5.123-5.123
							h119.981c2.829,0,5.123,2.294,5.123,5.123C296.17,386.477,293.877,388.771,291.047,388.771z"/>
					</g>
					<g>
						<path style="fill:#FFBE92;" d="M340.933,388.771h-24.577c-2.829,0-5.123-2.294-5.123-5.123c0-2.829,2.293-5.123,5.123-5.123
							h24.577c2.829,0,5.123,2.294,5.123,5.123C346.056,386.477,343.762,388.771,340.933,388.771z"/>
					</g>
					<g>
						<path style="fill:#DDD9E4;" d="M340.933,409.091H171.067c-2.829,0-5.123-2.294-5.123-5.123s2.293-5.123,5.123-5.123h169.866
							c2.829,0,5.123,2.294,5.123,5.123S343.762,409.091,340.933,409.091z"/>
					</g>
				</g>
				<g>
					<g>
						<path style="fill:#DDD9E4;" d="M340.933,429.41H171.067c-2.829,0-5.123-2.294-5.123-5.123c0-2.829,2.293-5.123,5.123-5.123
							h169.866c2.829,0,5.123,2.294,5.123,5.123C346.056,427.117,343.762,429.41,340.933,429.41z"/>
					</g>
				</g>
			</g>
		</g>
		<g>
			<path style="fill:#C182F9;" d="M455.009,360.854c-2.761,0-5-2.239-5-5c0-3.313-2.696-6.009-6.009-6.009c-2.761,0-5-2.239-5-5
				s2.239-5,5-5c3.313,0,6.009-2.696,6.009-6.009c0-2.761,2.239-5,5-5s5,2.239,5,5c0,3.313,2.695,6.009,6.009,6.009
				c2.761,0,5,2.239,5,5s-2.239,5-5,5c-3.313,0-6.009,2.695-6.009,6.009C460.009,358.615,457.77,360.854,455.009,360.854z"/>
			<path style="fill:#FFA052;" d="M56.991,257.138c-2.761,0-5-2.239-5-5c0-3.313-2.696-6.009-6.009-6.009c-2.761,0-5-2.239-5-5
				s2.239-5,5-5c3.313,0,6.009-2.695,6.009-6.009c0-2.761,2.239-5,5-5s5,2.239,5,5c0,3.313,2.695,6.009,6.009,6.009
				c2.761,0,5,2.239,5,5s-2.239,5-5,5c-3.313,0-6.009,2.696-6.009,6.009C61.991,254.899,59.752,257.138,56.991,257.138z"/>
			<path style="fill:#C182F9;" d="M80.009,197.318c-2.761,0-5-2.239-5-5c0-3.313-2.696-6.009-6.009-6.009c-2.761,0-5-2.239-5-5
				s2.239-5,5-5c3.313,0,6.009-2.696,6.009-6.009c0-2.761,2.239-5,5-5s5,2.239,5,5c0,3.313,2.695,6.009,6.009,6.009
				c2.761,0,5,2.239,5,5s-2.239,5-5,5c-3.313,0-6.009,2.695-6.009,6.009C85.009,195.079,82.77,197.318,80.009,197.318z"/>
			<path style="fill:#FFE783;" d="M432,163.181c-1.28,0-2.559-0.488-3.536-1.464l-11.016-11.016c-1.953-1.953-1.953-5.119,0-7.071
				l11.016-11.016c1.953-1.952,5.118-1.952,7.071,0l11.016,11.016c1.953,1.953,1.953,5.119,0,7.071l-11.016,11.016
				C434.559,162.693,433.28,163.181,432,163.181z M428.056,147.165L432,151.11l3.944-3.944L432,143.221L428.056,147.165z"/>
		</g>
	</g>
</g>
<g>
</g>
<g>
</g>
<g>
</g>
<g>
</g>
<g>
</g>
<g>
</g>
<g>
</g>
<g>
</g>
<g>
</g>
<g>
</g>
<g>
</g>
<g>
</g>
<g>
</g>
<g>
</g>
<g>
</g>
</svg>
