<?xml version="1.0" encoding="iso-8859-1"?>
<!-- Generator: Adobe Illustrator 23.0.3, SVG Export Plug-In . SVG Version: 6.00 Build 0)  -->
<svg version="1.1" id="Capa_1" xmlns="http://www.w3.org/2000/svg" xmlns:xlink="http://www.w3.org/1999/xlink" x="0px" y="0px"
	 viewBox="0 0 512 512" style="enable-background:new 0 0 512 512;" xml:space="preserve">
<g>
	<linearGradient id="SVGID_1_" gradientUnits="userSpaceOnUse" x1="206.8671" y1="256.0023" x2="802.4096" y2="256.0023">
		<stop  offset="7.011211e-04" style="stop-color:#FFF0D5"/>
		<stop  offset="0.5112" style="stop-color:#FFDFFF"/>
		<stop  offset="1" style="stop-color:#D9CEFF"/>
	</linearGradient>
	<path style="fill:url(#SVGID_1_);" d="M382.606,174.018c-0.192-0.001-0.385-0.002-0.577-0.002
		c-32.034-0.05-62.385-13.844-83.44-37.986c-31.366-35.964-77.6-58.622-129.121-58.393C75.956,78.052-1.195,156.618,0.014,250.123
		c1.203,92.986,76.955,167.995,170.227,167.995c26.343,0,51.286-5.987,73.547-16.672c19.194-9.213,42.065-6.784,58.968,6.161
		c21.863,16.745,49.19,26.713,78.846,26.763c71.382,0.119,129.981-58.02,130.396-129.401
		C512.416,232.919,454.556,174.442,382.606,174.018z"/>
	<g>
		<g>
			<g>
				<g>
					<g>
						<path style="opacity:0.1;fill:#590BB2;" d="M455.491,145.639c0-43.968-35.643-79.612-79.612-79.612
							c-33.531,0-62.199,20.74-73.931,50.082H62.433c-9.357,0-16.942,7.585-16.942,16.941v220.846
							c0,9.357,7.585,16.942,16.942,16.942H370.88c9.357,0,16.942-7.585,16.942-16.942v-129.54
							C426.124,218.594,455.491,185.548,455.491,145.639z"/>
						<g>
							<g>
								<g>
									<g>
										<polygon style="fill:#AFABC6;" points="267.477,456.994 165.835,456.994 179.082,404.478 186.161,376.426 
											247.151,376.426 254.23,404.478 										"/>
										<polygon style="fill:#8E8CA8;" points="254.23,404.478 179.082,404.478 186.161,376.426 247.151,376.426 										"/>
										<g>
											<path style="fill:#F5F4F9;" d="M370.88,391.838H62.433c-9.357,0-16.942-7.585-16.942-16.941V154.051
												c0-9.357,7.585-16.941,16.942-16.941H370.88c9.357,0,16.942,7.585,16.942,16.941v220.846
												C387.822,384.253,380.237,391.838,370.88,391.838z"/>
											<path style="fill:#FFD5B8;" d="M370.88,137.109H259.991v254.729H370.88c9.357,0,16.942-7.585,16.942-16.942V154.051
												C387.822,144.694,380.237,137.109,370.88,137.109z"/>
											<g>
												<g>
													<path style="fill:#DDD9E4;" d="M165.704,333.452h-29.981c-2.829,0-5.123-2.294-5.123-5.123s2.293-5.123,5.123-5.123
														h29.981c2.829,0,5.123,2.294,5.123,5.123S168.533,333.452,165.704,333.452z"/>
													<path style="fill:#FFBE92;" d="M203.589,333.452h-12.577c-2.829,0-5.123-2.294-5.123-5.123s2.293-5.123,5.123-5.123
														h12.577c2.829,0,5.123,2.294,5.123,5.123S206.419,333.452,203.589,333.452z"/>
													<path style="fill:#DDD9E4;" d="M203.589,353.772h-67.866c-2.829,0-5.123-2.294-5.123-5.123
														c0-2.829,2.293-5.123,5.123-5.123h67.866c2.829,0,5.123,2.294,5.123,5.123
														C208.712,351.478,206.419,353.772,203.589,353.772z"/>
												</g>
												<path style="fill:#B557FF;" d="M89.409,349.023c-1.326,0-2.598-0.527-3.535-1.464l-6.978-6.978
													c-1.953-1.953-1.953-5.119,0-7.071c1.951-1.952,5.119-1.952,7.07,0l3.442,3.442l12.28-12.28
													c1.951-1.952,5.119-1.952,7.07,0c1.953,1.953,1.953,5.119,0,7.071l-15.815,15.816
													C92.007,348.496,90.735,349.023,89.409,349.023z"/>
											</g>
											<path style="fill:#C182F9;" d="M387.822,180.278v-26.227c0-9.357-7.585-16.942-16.942-16.942H62.433
												c-9.356,0-16.942,7.585-16.942,16.942v26.227H387.822z"/>
											<path style="fill:#CECAE0;" d="M45.491,346.681v28.215c0,9.357,7.585,16.941,16.942,16.941H370.88
												c9.356,0,16.942-7.585,16.942-16.941v-28.215H45.491z"/>
										</g>
										<g>
											<path style="fill:#590BB2;" d="M79.619,163.759c-2.762,0-5-2.239-5-5v-0.13c0-2.761,2.238-5,5-5s5,2.239,5,5v0.13
												C84.619,161.52,82.381,163.759,79.619,163.759z"/>
											<path style="fill:#590BB2;" d="M96.936,163.759c-2.762,0-5-2.239-5-5v-0.13c0-2.761,2.238-5,5-5s5,2.239,5,5v0.13
												C101.936,161.52,99.698,163.759,96.936,163.759z"/>
											<path style="fill:#590BB2;" d="M114.255,163.759c-2.762,0-5-2.239-5-5v-0.13c0-2.761,2.238-5,5-5s5,2.239,5,5v0.13
												C119.255,161.52,117.016,163.759,114.255,163.759z"/>
										</g>
									</g>
								</g>
								<g>
									<path style="fill:#FFA052;" d="M413.217,218.437v135.19c0,7.98-8.88,12.75-15.53,8.34l-16.28-10.8
										c-3.35-2.22-7.7-2.22-11.05,0l-16.29,10.8c-6.64,4.41-15.52-0.36-15.52-8.34v-135.19H413.217z"/>
									<path style="fill:#FF8736;" d="M413.217,218.437v32.94c-11.42,5.06-24.06,7.87-37.34,7.87c-13.27,0-25.9-2.81-37.33-7.87
										v-32.94H413.217z"/>
									<circle style="fill:#FFE783;" cx="375.88" cy="166.639" r="79.612"/>
									<circle style="fill:#FFF4C5;" cx="375.88" cy="166.639" r="58.625"/>
									<g>
										<g>
											<path style="fill:#FFA052;" d="M367.538,186.67h-5.331c-6.508,0-11.803-5.295-11.803-11.803V158.41
												c0-6.508,5.295-11.802,11.803-11.802h5.331c6.508,0,11.803,5.294,11.803,11.802v16.457
												C379.341,181.375,374.046,186.67,367.538,186.67z M362.207,156.608c-0.994,0-1.803,0.809-1.803,1.802v16.457
												c0,0.994,0.809,1.803,1.803,1.803h5.331c0.994,0,1.803-0.809,1.803-1.803V158.41c0-0.994-0.809-1.802-1.803-1.802
												H362.207z"/>
										</g>
										<g>
											<path style="fill:#FFA052;" d="M396.355,186.67c-2.762,0-5-2.239-5-5v-25.062h-0.444c-2.762,0-5-2.239-5-5s2.238-5,5-5
												h5.444c2.762,0,5,2.239,5,5v30.062C401.355,184.431,399.117,186.67,396.355,186.67z"/>
										</g>
									</g>
								</g>
							</g>
						</g>
					</g>
				</g>
				<path style="fill:#590BB2;" d="M375.88,318.007c2.762,0,5-2.239,5-5V251.09c44.335-2.598,79.611-39.476,79.611-84.451
					c0-46.655-37.956-84.612-84.611-84.612c-34.359,0-63.978,20.597-77.215,50.082H62.432c-12.099,0-21.941,9.843-21.941,21.941
					v26.228c0,2.761,2.238,5,5,5h247.872c5.254,23.268,20.112,42.922,40.184,54.573v101.83H50.491V208.448c0-2.761-2.238-5-5-5
					s-5,2.239-5,5v166.449c0,12.099,9.843,21.941,21.941,21.941h113.422l-13.917,55.151h-13.329c-2.762,0-5,2.239-5,5s2.238,5,5,5
					h136.097c2.762,0,5-2.239,5-5s-2.238-5-5-5h-13.329l-13.917-55.151H370.88c12.099,0,21.942-9.843,21.942-21.941v-10.158
					l2.103,1.394c4.613,3.059,10.508,3.331,15.383,0.714c4.876-2.618,7.905-7.682,7.905-13.216v-89.158c0-2.761-2.238-5-5-5
					s-5,2.239-5,5v89.158c0,2.7-1.843,3.98-2.635,4.405c-0.793,0.426-2.876,1.255-5.128-0.238l-16.281-10.795
					c-5.035-3.338-11.543-3.338-16.578,0l-16.282,10.795c-2.246,1.49-4.334,0.664-5.126,0.238c-0.793-0.425-2.636-1.706-2.636-4.405
					V244.816c8.505,3.531,17.704,5.71,27.333,6.274v61.917C370.88,315.768,373.118,318.007,375.88,318.007z M261.063,451.99H172.25
					l13.917-55.151h60.98L261.063,451.99z M348.548,368.635c2.895,0,5.781-0.84,8.287-2.501l16.281-10.795
					c1.68-1.113,3.848-1.113,5.527,0l4.179,2.771v16.788c0,6.584-5.357,11.941-11.942,11.941H62.432
					c-6.585,0-11.941-5.357-11.941-11.941v-23.215h283.056v1.95c0,5.535,3.029,10.599,7.905,13.216
					C343.679,368.042,346.116,368.635,348.548,368.635z M50.491,175.278v-21.228c0-6.584,5.356-11.941,11.941-11.941h232.475
					c-2.358,7.769-3.639,16.001-3.639,24.53c0,2.916,0.148,5.798,0.438,8.639H50.491z M301.268,166.639
					c0-9.454,1.786-18.493,5.007-26.824c0.35-0.541,0.595-1.152,0.715-1.81c11.252-26.97,37.889-45.978,68.889-45.978
					c41.141,0,74.611,33.471,74.611,74.612c0,41.141-33.471,74.611-74.611,74.611S301.268,207.78,301.268,166.639z"/>
				<g>
					<g>
						<path style="fill:#DDD9E4;" d="M165.704,215.731h-29.981c-2.829,0-5.123-2.294-5.123-5.123c0-2.829,2.293-5.123,5.123-5.123
							h29.981c2.829,0,5.123,2.294,5.123,5.123C170.826,213.437,168.533,215.731,165.704,215.731z"/>
						<path style="fill:#FFBE92;" d="M203.589,215.731h-12.577c-2.829,0-5.123-2.294-5.123-5.123c0-2.829,2.293-5.123,5.123-5.123
							h12.577c2.829,0,5.123,2.294,5.123,5.123C208.712,213.437,206.419,215.731,203.589,215.731z"/>
						<path style="fill:#DDD9E4;" d="M203.589,236.05h-67.866c-2.829,0-5.123-2.294-5.123-5.123s2.293-5.123,5.123-5.123h67.866
							c2.829,0,5.123,2.294,5.123,5.123S206.419,236.05,203.589,236.05z"/>
					</g>
					<path style="fill:#B557FF;" d="M89.409,231.301c-1.326,0-2.598-0.527-3.535-1.464l-6.978-6.978
						c-1.953-1.953-1.953-5.119,0-7.071c1.951-1.952,5.119-1.952,7.07,0l3.442,3.442l12.28-12.28c1.951-1.952,5.119-1.952,7.07,0
						c1.953,1.953,1.953,5.119,0,7.071l-15.815,15.816C92.007,230.774,90.735,231.301,89.409,231.301z"/>
				</g>
				<g>
					<g>
						<path style="fill:#DDD9E4;" d="M165.704,274.591h-29.981c-2.829,0-5.123-2.294-5.123-5.123c0-2.829,2.293-5.123,5.123-5.123
							h29.981c2.829,0,5.123,2.294,5.123,5.123C170.826,272.298,168.533,274.591,165.704,274.591z"/>
						<path style="fill:#FFBE92;" d="M203.589,274.591h-12.577c-2.829,0-5.123-2.294-5.123-5.123c0-2.829,2.293-5.123,5.123-5.123
							h12.577c2.829,0,5.123,2.294,5.123,5.123C208.712,272.298,206.419,274.591,203.589,274.591z"/>
						<path style="fill:#DDD9E4;" d="M203.589,294.911h-67.866c-2.829,0-5.123-2.294-5.123-5.123s2.293-5.123,5.123-5.123h67.866
							c2.829,0,5.123,2.294,5.123,5.123S206.419,294.911,203.589,294.911z"/>
					</g>
					<path style="fill:#B557FF;" d="M89.409,290.162c-1.326,0-2.598-0.527-3.535-1.464l-6.978-6.978
						c-1.953-1.953-1.953-5.119,0-7.071c1.951-1.952,5.119-1.952,7.07,0l3.442,3.442l12.28-12.28c1.951-1.952,5.119-1.952,7.07,0
						c1.953,1.953,1.953,5.119,0,7.071l-15.815,15.816C92.007,289.635,90.735,290.162,89.409,290.162z"/>
				</g>
			</g>
			<g>
				<path style="fill:#590BB2;" d="M296.651,275.187c-1.279,0-2.559-0.488-3.535-1.464c-1.953-1.953-1.953-5.118-0.001-7.071
					l2.306-2.305l-2.306-2.306c-1.952-1.953-1.952-5.119,0.001-7.071c1.953-1.952,5.118-1.953,7.071,0l5.84,5.841
					c1.952,1.953,1.952,5.118,0,7.07l-5.84,5.84C299.211,274.699,297.931,275.187,296.651,275.187z"/>
			</g>
			<path style="fill:#FFE783;" d="M248.473,218.482h23.038c1.66,0,3.005,1.345,3.005,3.005v85.973c0,1.66-1.345,3.005-3.005,3.005
				h-23.038c-1.66,0-3.005-1.345-3.005-3.005v-85.973C245.468,219.827,246.813,218.482,248.473,218.482z"/>
		</g>
		<path style="fill:#FFA052;" d="M267.477,96.211c-1.279,0-2.559-0.488-3.535-1.464l-11.019-11.018
			c-0.938-0.938-1.465-2.209-1.465-3.536s0.526-2.598,1.465-3.536l11.019-11.018c0.938-0.938,2.209-1.464,3.535-1.464l0,0
			c1.326,0,2.598,0.527,3.535,1.464l11.018,11.018c1.953,1.953,1.953,5.119,0,7.071l-11.018,11.018
			C270.037,95.722,268.757,96.211,267.477,96.211z M263.53,80.193l3.947,3.947l3.946-3.947l-3.946-3.947L263.53,80.193z"/>
		<path style="fill:#FFA052;" d="M110.224,461.99L110.224,461.99c-1.326,0-2.598-0.527-3.535-1.464l-11.018-11.018
			c-1.953-1.953-1.953-5.119,0-7.071l11.018-11.018c0.938-0.938,2.209-1.464,3.535-1.464s2.598,0.527,3.535,1.464l11.019,11.018
			c0.938,0.938,1.465,2.209,1.465,3.536s-0.526,2.598-1.465,3.536l-11.019,11.018C112.822,461.463,111.551,461.99,110.224,461.99z
			 M106.278,445.972l3.946,3.947l3.947-3.947l-3.947-3.947L106.278,445.972z"/>
		<path style="fill:#C182F9;" d="M455.491,260.055c-2.762,0-5-2.239-5-5c0-3.318-2.699-6.017-6.017-6.017c-2.762,0-5-2.239-5-5
			s2.238-5,5-5c3.317,0,6.017-2.699,6.017-6.017c0-2.761,2.238-5,5-5s5,2.239,5,5c0,3.318,2.699,6.017,6.018,6.017
			c2.762,0,5,2.239,5,5s-2.238,5-5,5c-3.318,0-6.018,2.699-6.018,6.017C460.491,257.816,458.253,260.055,455.491,260.055z"/>
		<path style="fill:#FFE783;" d="M221.999,82.044c-2.762,0-5-2.239-5-5c0-3.318-2.699-6.017-6.018-6.017c-2.762,0-5-2.239-5-5
			s2.238-5,5-5c3.318,0,6.018-2.699,6.018-6.017c0-2.761,2.238-5,5-5s5,2.239,5,5c0,3.318,2.699,6.017,6.017,6.017
			c2.762,0,5,2.239,5,5s-2.238,5-5,5c-3.317,0-6.017,2.699-6.017,6.017C226.999,79.805,224.761,82.044,221.999,82.044z"/>
	</g>
</g>
<g>
</g>
<g>
</g>
<g>
</g>
<g>
</g>
<g>
</g>
<g>
</g>
<g>
</g>
<g>
</g>
<g>
</g>
<g>
</g>
<g>
</g>
<g>
</g>
<g>
</g>
<g>
</g>
<g>
</g>
</svg>
