<?xml version="1.0" encoding="iso-8859-1"?>
<!-- Generator: Adobe Illustrator 23.0.3, SVG Export Plug-In . SVG Version: 6.00 Build 0)  -->
<svg version="1.1" id="Capa_1" xmlns="http://www.w3.org/2000/svg" xmlns:xlink="http://www.w3.org/1999/xlink" x="0px" y="0px"
	 viewBox="0 0 512 512" style="enable-background:new 0 0 512 512;" xml:space="preserve">
<g>
	<linearGradient id="SVGID_1_" gradientUnits="userSpaceOnUse" x1="215.7087" y1="256" x2="852.3452" y2="256">
		<stop  offset="7.011211e-04" style="stop-color:#FFF0D5"/>
		<stop  offset="0.5112" style="stop-color:#FFDFFF"/>
		<stop  offset="1" style="stop-color:#D9CEFF"/>
	</linearGradient>
	<path style="fill:url(#SVGID_1_);" d="M408.228,154.262c-23.697-9.236-43.717-26.089-55.961-48.381
		c-20.59-37.487-60.43-62.898-106.221-62.898c-47.53,0-88.646,27.377-108.477,67.219c-12.146,24.401-32.814,43.56-58.09,53.761
		c-37.349,15.074-68.703,49.524-78.653,103.382c-1.092,5.91-1.108,11.986-0.016,17.896c15.448,83.572,82.399,120.435,143.334,110.66
		c34.126-5.474,68.672,5.909,93.967,29.462c51.434,47.892,133.884,62.907,213.923,11.57c9.377-6.014,21.957-18.634,27.966-28.015
		C548.967,301.248,497.879,189.204,408.228,154.262z"/>
	<g>
		<g>
			<g>
				<path style="opacity:0.1;fill:#590BB2;" d="M456,100.581v254.25c0,8.28-6.72,15-15,15H71c-8.28,0-15-6.72-15-15v-254.25
					c0-8.28,6.72-15,15-15h370C449.28,85.581,456,92.301,456,100.581z"/>
				<g>
					<g>
						<polygon style="fill:#AFABC6;" points="312.71,463.509 199.289,463.509 214.071,404.906 221.971,373.604 290.028,373.604 
							297.928,404.906 						"/>
						<polygon style="fill:#8E8CA8;" points="297.928,404.906 214.071,404.906 221.971,373.604 290.028,373.604 						"/>
						<g>
							<path style="fill:#F5F4F9;" d="M456,121.552v254.25c0,8.28-6.72,15-15,15H71c-8.28,0-15-6.72-15-15v-254.25
								c0-8.28,6.72-15,15-15h370C449.28,106.552,456,113.272,456,121.552z"/>
							<path style="fill:#E2CCFF;" d="M456,260.612v115.19c0,8.284-6.716,15-15,15H276.22v-127.19c0-1.657,1.343-3,3-3H456z"/>
							<path style="fill:#C182F9;" d="M456,154.726v-33.171c0-8.284-6.716-15-15-15H71c-8.284,0-15,6.716-15,15v33.171H456z"/>
							<path style="fill:#CECAE0;" d="M56,340.412v35.39c0,8.284,6.716,15,15,15h370c8.284,0,15-6.716,15-15v-35.39H56z"/>
						</g>
						<g>
							<path style="fill:#590BB2;" d="M94.082,135.713c2.761,0,5-2.239,5-5v-0.145c0-2.761-2.239-5-5-5s-5,2.239-5,5v0.145
								C89.082,133.474,91.321,135.713,94.082,135.713z"/>
							<path style="fill:#590BB2;" d="M113.407,135.713c2.761,0,5-2.239,5-5v-0.145c0-2.761-2.239-5-5-5s-5,2.239-5,5v0.145
								C108.407,133.474,110.646,135.713,113.407,135.713z"/>
							<path style="fill:#590BB2;" d="M132.731,135.713c2.761,0,5-2.239,5-5v-0.145c0-2.761-2.239-5-5-5s-5,2.239-5,5v0.145
								C127.731,133.474,129.97,135.713,132.731,135.713z"/>
							<path style="fill:#590BB2;" d="M61,159.726h395c2.761,0,5-2.239,5-5v-33.171c0-11.028-8.972-20-20-20H71
								c-11.028,0-20,8.972-20,20v254.247c0,11.028,8.972,20,20,20h219.474l15.822,62.701H205.704l10.406-41.239
								c0.675-2.677-0.947-5.396-3.625-6.071c-2.676-0.677-5.396,0.947-6.071,3.625l-11.023,43.685h-15.325c-2.761,0-5,2.239-5,5
								s2.239,5,5,5h19.22h113.429h19.22c2.761,0,5-2.239,5-5s-2.239-5-5-5h-15.325l-15.822-62.701H441c11.028,0,20-8.972,20-20
								V182.267c0-2.761-2.239-5-5-5s-5,2.239-5,5v153.146H61V159.726z M71,111.555h370c5.514,0,10,4.486,10,10v28.171H61v-28.171
								C61,116.041,65.486,111.555,71,111.555z M451,345.412v30.39c0,5.514-4.486,10-10,10H71c-5.514,0-10-4.486-10-10v-30.39H451z"
								/>
						</g>
					</g>
				</g>
			</g>
			<g>
				<g>
					<path style="fill:#DDD9E4;" d="M235.832,312.654H99.09c-2.766,0-5.008-2.242-5.008-5.008c0-2.766,2.242-5.008,5.008-5.008
						h136.742c2.766,0,5.008,2.242,5.008,5.008C240.841,310.412,238.599,312.654,235.832,312.654z"/>
				</g>
			</g>
			<g>
				<g>
					<path style="fill:#DDD9E4;" d="M235.832,293.554H99.09c-2.766,0-5.008-2.242-5.008-5.008c0-2.766,2.242-5.008,5.008-5.008
						h136.742c2.766,0,5.008,2.242,5.008,5.008C240.841,291.312,238.599,293.554,235.832,293.554z"/>
				</g>
			</g>
			<g>
				<g>
					<path style="fill:#C182F9;" d="M121.832,274.454H99.09c-2.766,0-5.008-2.242-5.008-5.008s2.242-5.008,5.008-5.008h22.742
						c2.766,0,5.008,2.242,5.008,5.008S124.599,274.454,121.832,274.454z"/>
				</g>
			</g>
			<g>
				<g>
					<path style="fill:#D6B0FF;" d="M235.832,274.454H144.09c-2.766,0-5.008-2.242-5.008-5.008s2.242-5.008,5.008-5.008h91.742
						c2.766,0,5.008,2.242,5.008,5.008S238.599,274.454,235.832,274.454z"/>
				</g>
			</g>
			<g>
				<g>
					<path style="fill:#DDD9E4;" d="M145.832,241.489H99.09c-2.766,0-5.008-2.242-5.008-5.008c0-2.766,2.242-5.008,5.008-5.008
						h46.742c2.766,0,5.008,2.242,5.008,5.008C150.841,239.246,148.599,241.489,145.832,241.489z"/>
				</g>
			</g>
			<g>
				<path style="fill:#FDD250;" d="M316.928,312.046h-16c-1.657,0-3-1.343-3-3V248.18c0-1.657,1.343-3,3-3h16c1.657,0,3,1.343,3,3
					v60.866C319.928,310.703,318.585,312.046,316.928,312.046z"/>
				<path style="fill:#FFE783;" d="M284.215,312.046h-16c-1.657,0-3-1.343-3-3v-37.657c0-1.657,1.343-3,3-3h16c1.657,0,3,1.343,3,3
					v37.657C287.215,310.703,285.872,312.046,284.215,312.046z"/>
				<path style="fill:#FFBE92;" d="M349.64,312.046h-16c-1.657,0-3-1.343-3-3v-78.34c0-1.657,1.343-3,3-3h16c1.657,0,3,1.343,3,3
					v78.34C352.64,310.703,351.297,312.046,349.64,312.046z"/>
				<path style="fill:#FFA052;" d="M382.353,312.046h-16c-1.657,0-3-1.343-3-3V212.18c0-1.657,1.343-3,3-3h16c1.657,0,3,1.343,3,3
					v96.866C385.353,310.703,384.01,312.046,382.353,312.046z"/>
				<path style="fill:#FF8736;" d="M415.066,312.046h-16c-1.657,0-3-1.343-3-3v-114.34c0-1.657,1.343-3,3-3h16c1.657,0,3,1.343,3,3
					v114.34C418.066,310.703,416.723,312.046,415.066,312.046z"/>
			</g>
			<g>
				<path style="fill:#C182F9;" d="M117.683,213.479c-1.818,0-3.51-0.992-4.391-2.61l-2.979-5.476l-2.979,5.476
					c-0.955,1.753-2.866,2.773-4.848,2.589c-1.988-0.182-3.677-1.529-4.297-3.427l-6.86-21.01c-0.857-2.625,0.576-5.448,3.201-6.305
					c2.624-0.857,5.447,0.576,6.305,3.201l3.26,9.983l1.828-3.358c0.875-1.608,2.56-2.61,4.392-2.61s3.517,1.001,4.392,2.61
					l1.827,3.357l3.26-9.983c0.857-2.625,3.68-4.06,6.305-3.201c2.625,0.857,4.059,3.68,3.201,6.305l-6.86,21.01
					c-0.62,1.898-2.309,3.245-4.297,3.427C117.987,213.472,117.834,213.479,117.683,213.479z"/>
				<path style="fill:#C182F9;" d="M160.484,213.479c-1.818,0-3.51-0.992-4.39-2.61l-2.98-5.476l-2.98,5.476
					c-0.954,1.753-2.861,2.773-4.848,2.589c-1.988-0.182-3.677-1.529-4.297-3.427l-6.86-21.01c-0.857-2.625,0.576-5.448,3.201-6.305
					c2.625-0.857,5.448,0.576,6.305,3.201l3.26,9.983l1.828-3.358c0.875-1.608,2.56-2.61,4.392-2.61s3.517,1.001,4.392,2.61
					l1.827,3.357l3.26-9.983c0.857-2.625,3.68-4.06,6.305-3.201c2.625,0.857,4.059,3.68,3.201,6.305l-6.86,21.01
					c-0.62,1.898-2.309,3.245-4.297,3.427C160.789,213.472,160.636,213.479,160.484,213.479z"/>
				<path style="fill:#C182F9;" d="M203.285,213.479c-1.818,0-3.51-0.992-4.391-2.61l-2.979-5.476l-2.979,5.476
					c-0.955,1.753-2.863,2.773-4.848,2.589c-1.988-0.182-3.677-1.529-4.297-3.427l-6.86-21.01c-0.857-2.625,0.576-5.448,3.201-6.305
					c2.625-0.857,5.448,0.576,6.305,3.201l3.26,9.983l1.828-3.358c0.875-1.608,2.56-2.61,4.392-2.61s3.517,1.001,4.392,2.61
					l1.827,3.357l3.26-9.983c0.857-2.625,3.68-4.06,6.305-3.201c2.625,0.857,4.059,3.68,3.201,6.305l-6.86,21.01
					c-0.62,1.898-2.309,3.245-4.297,3.427C203.59,213.472,203.437,213.479,203.285,213.479z"/>
			</g>
			<g>
				<g>
					<circle style="fill:#FF8736;" cx="318.84" cy="188.294" r="5.59"/>
					<circle style="fill:#FF8736;" cx="335.75" cy="188.294" r="5.59"/>
					<circle style="fill:#FF8736;" cx="352.66" cy="188.294" r="5.59"/>
				</g>
			</g>
			<path style="fill:#B557FF;" d="M293.149,199.082c0-9.161-7.453-16.613-16.613-16.613s-16.613,7.453-16.613,16.613
				c0,4.518,1.818,8.615,4.755,11.613c-2.936,2.998-4.755,7.095-4.755,11.613c0,2.761,2.239,5,5,5s5-2.239,5-5
				c0-3.646,2.967-6.613,6.613-6.613s6.613,2.967,6.613,6.613c0,2.761,2.239,5,5,5s5-2.239,5-5c0-4.518-1.818-8.615-4.755-11.613
				C291.331,207.697,293.149,203.599,293.149,199.082z M276.536,192.468c3.646,0,6.613,2.967,6.613,6.613s-2.967,6.613-6.613,6.613
				s-6.613-2.967-6.613-6.613S272.889,192.468,276.536,192.468z"/>
		</g>
		<path style="fill:#FFE783;" d="M134.064,449.332c-1.28,0-2.559-0.488-3.536-1.464l-11.018-11.018
			c-0.938-0.938-1.464-2.209-1.464-3.536s0.527-2.598,1.464-3.536l11.018-11.018c1.953-1.952,5.118-1.952,7.071,0l11.018,11.018
			c0.938,0.938,1.464,2.209,1.464,3.536s-0.527,2.598-1.464,3.536L137.6,447.867C136.623,448.843,135.344,449.332,134.064,449.332z
			 M130.117,433.313l3.947,3.947l3.947-3.947l-3.947-3.947L130.117,433.313z"/>
		<path style="fill:#FFA052;" d="M366.11,437.118c-1.28,0-2.559-0.488-3.536-1.464l-11.018-11.018
			c-0.938-0.938-1.464-2.209-1.464-3.536s0.527-2.598,1.464-3.536l11.018-11.018c1.953-1.952,5.118-1.952,7.071,0l11.018,11.018
			c0.938,0.938,1.464,2.209,1.464,3.536s-0.527,2.598-1.464,3.536l-11.018,11.018C368.669,436.629,367.39,437.118,366.11,437.118z
			 M362.163,421.1l3.947,3.947l3.947-3.947l-3.947-3.947L362.163,421.1z"/>
		<path style="fill:#C182F9;" d="M429.982,464.332c-1.28,0-2.559-0.488-3.536-1.464l-11.018-11.018
			c-0.938-0.938-1.464-2.209-1.464-3.536s0.527-2.598,1.464-3.536l11.018-11.018c1.953-1.952,5.118-1.952,7.071,0l11.018,11.018
			c0.938,0.938,1.464,2.209,1.464,3.536s-0.527,2.598-1.464,3.536l-11.018,11.018C432.541,463.843,431.262,464.332,429.982,464.332z
			 M426.035,448.313l3.947,3.947l3.947-3.947l-3.947-3.947L426.035,448.313z"/>
		<path style="fill:#C182F9;" d="M202.425,75.527c-2.761,0-5-2.239-5-5c0-3.318-2.7-6.018-6.018-6.018c-2.761,0-5-2.239-5-5
			s2.239-5,5-5c3.318,0,6.018-2.7,6.018-6.018c0-2.761,2.239-5,5-5s5,2.239,5,5c0,3.318,2.7,6.018,6.018,6.018c2.761,0,5,2.239,5,5
			s-2.239,5-5,5c-3.318,0-6.018,2.7-6.018,6.018C207.425,73.289,205.186,75.527,202.425,75.527z"/>
	</g>
</g>
<g>
</g>
<g>
</g>
<g>
</g>
<g>
</g>
<g>
</g>
<g>
</g>
<g>
</g>
<g>
</g>
<g>
</g>
<g>
</g>
<g>
</g>
<g>
</g>
<g>
</g>
<g>
</g>
<g>
</g>
</svg>
