<?xml version="1.0" encoding="iso-8859-1"?>
<!-- Generator: Adobe Illustrator 23.0.3, SVG Export Plug-In . SVG Version: 6.00 Build 0)  -->
<svg version="1.1" id="Capa_1" xmlns="http://www.w3.org/2000/svg" xmlns:xlink="http://www.w3.org/1999/xlink" x="0px" y="0px"
	 viewBox="0 0 512 512" style="enable-background:new 0 0 512 512;" xml:space="preserve">
<g>
	<linearGradient id="SVGID_1_" gradientUnits="userSpaceOnUse" x1="206.8671" y1="253.4998" x2="802.4096" y2="253.4998">
		<stop  offset="7.011211e-04" style="stop-color:#FFF0D5"/>
		<stop  offset="0.5112" style="stop-color:#FFDFFF"/>
		<stop  offset="1" style="stop-color:#D9CEFF"/>
	</linearGradient>
	<path style="fill:url(#SVGID_1_);" d="M382.606,171.516c-0.192-0.001-0.385-0.002-0.577-0.002
		c-32.034-0.05-62.385-13.844-83.44-37.986c-31.366-35.964-77.6-58.622-129.121-58.393C75.956,75.549-1.195,154.115,0.014,247.62
		c1.203,92.986,76.955,167.995,170.227,167.995c26.343,0,51.286-5.987,73.547-16.672c19.194-9.213,42.065-6.784,58.968,6.161
		c21.863,16.745,49.19,26.713,78.846,26.763c71.382,0.119,129.981-58.02,130.396-129.401
		C512.416,230.417,454.556,171.939,382.606,171.516z"/>
	<g>
		<g>
			<g>
				<path style="opacity:0.1;fill:#590BB2;" d="M488.256,295.826l-30.139-8.582c-2.952-12.032-7.702-23.364-13.956-33.675
					l15.249-27.39c1.293-2.329,0.888-5.241-0.997-7.126l-20.599-20.599c-1.885-1.885-4.797-2.29-7.126-0.997l-27.39,15.249
					c-10.311-6.254-21.643-11.004-33.675-13.956l-8.582-30.139c-0.732-2.57-3.076-4.338-5.747-4.338h-29.127
					c-2.671,0-5.015,1.768-5.747,4.338l-8.582,30.139c-12.032,2.952-23.364,7.702-33.675,13.956l-27.39-15.249
					c-2.329-1.293-5.241-0.888-7.126,0.997l-20.599,20.599c-1.885,1.885-2.29,4.797-0.997,7.126l15.249,27.39
					c-6.254,10.311-11.004,21.643-13.956,33.675l-30.139,8.582c-2.57,0.732-4.338,3.076-4.338,5.747V330.7
					c0,2.671,1.768,5.015,4.338,5.747l30.139,8.582c2.952,12.032,7.702,23.364,13.956,33.675l-15.249,27.39
					c-1.293,2.329-0.888,5.241,0.997,7.126l20.599,20.599c1.885,1.885,4.797,2.29,7.126,0.997l27.39-15.249
					c10.311,6.254,21.642,11.004,33.675,13.956l8.582,30.139c0.732,2.57,3.076,4.338,5.747,4.338h29.127
					c2.671,0,5.015-1.768,5.747-4.338l8.582-30.139c12.032-2.952,23.364-7.702,33.675-13.956l27.39,15.249
					c2.329,1.293,5.241,0.888,7.126-0.997l20.599-20.599c1.885-1.885,2.29-4.797,0.997-7.126l-15.249-27.39
					c6.254-10.311,11.004-21.643,13.956-33.675l30.139-8.582c2.57-0.732,4.338-3.076,4.338-5.747v-29.127
					C492.594,298.902,490.826,296.558,488.256,295.826z M340.73,390.892c-41.283,0-74.756-33.472-74.756-74.756
					s33.472-74.756,74.756-74.756s74.756,33.472,74.756,74.756S382.014,390.892,340.73,390.892z"/>
				<path style="opacity:0.1;fill:#590BB2;" d="M181.07,249.76l-16.274-4.634c-1.594-6.497-4.159-12.616-7.536-18.184l8.234-14.79
					c0.698-1.257,0.479-2.83-0.538-3.848l-11.123-11.123c-1.018-1.018-2.59-1.236-3.848-0.538l-14.79,8.234
					c-5.568-3.377-11.687-5.942-18.184-7.536l-4.634-16.274c-0.395-1.388-1.661-2.342-3.104-2.342H93.545
					c-1.442,0-2.708,0.955-3.104,2.342l-4.634,16.274c-6.497,1.594-12.616,4.159-18.184,7.536l-14.79-8.234
					c-1.257-0.698-2.83-0.479-3.848,0.538l-11.123,11.123c-1.018,1.018-1.236,2.59-0.538,3.848l8.234,14.79
					c-3.377,5.568-5.942,11.687-7.536,18.184l-16.274,4.634c-1.388,0.395-2.342,1.661-2.342,3.104v15.728
					c0,1.442,0.955,2.708,2.342,3.103l16.274,4.634c1.594,6.497,4.159,12.616,7.536,18.184l-8.234,14.79
					c-0.698,1.257-0.479,2.83,0.538,3.848l11.123,11.123c1.018,1.018,2.59,1.236,3.848,0.538l14.79-8.234
					c5.568,3.377,11.687,5.942,18.184,7.536l4.634,16.274c0.395,1.388,1.661,2.342,3.104,2.342h15.728
					c1.442,0,2.708-0.955,3.104-2.342l4.634-16.274c6.497-1.594,12.616-4.159,18.184-7.536l14.79,8.234
					c1.257,0.698,2.83,0.479,3.848-0.538l11.123-11.123c1.018-1.018,1.236-2.59,0.538-3.848l-8.234-14.79
					c3.377-5.568,5.942-11.686,7.536-18.184l16.274-4.634c1.388-0.395,2.342-1.661,2.342-3.103v-15.728
					C183.412,251.421,182.458,250.155,181.07,249.76z M101.409,286.52c-14.244,0-25.793-11.549-25.793-25.793
					c0-14.244,11.549-25.793,25.793-25.793s25.793,11.549,25.793,25.793C127.202,274.971,115.653,286.52,101.409,286.52z"/>
				<path style="opacity:0.1;fill:#590BB2;" d="M290.498,94.497l-17.526-4.991c-1.716-6.997-4.479-13.586-8.115-19.582l8.867-15.927
					c0.752-1.354,0.516-3.048-0.58-4.144l-11.978-11.978c-1.096-1.096-2.79-1.331-4.144-0.58l-15.927,8.867
					c-5.996-3.636-12.585-6.399-19.582-8.115l-4.991-17.526c-0.426-1.494-1.789-2.522-3.342-2.522h-16.937
					c-1.553,0-2.916,1.028-3.342,2.522l-4.991,17.526c-6.997,1.716-13.586,4.479-19.582,8.115l-15.927-8.867
					c-1.354-0.752-3.048-0.516-4.144,0.58L136.28,49.854c-1.096,1.096-1.331,2.79-0.58,4.144l8.867,15.927
					c-3.636,5.996-6.399,12.585-8.115,19.582l-17.526,4.991c-1.494,0.426-2.522,1.789-2.522,3.342v16.937
					c0,1.553,1.028,2.916,2.522,3.342l17.526,4.991c1.716,6.997,4.479,13.586,8.115,19.582l-8.867,15.927
					c-0.752,1.354-0.516,3.048,0.58,4.144l11.978,11.978c1.096,1.096,2.79,1.331,4.144,0.58l15.927-8.867
					c5.996,3.637,12.585,6.399,19.582,8.115l4.991,17.526c0.426,1.494,1.789,2.522,3.342,2.522h16.937
					c1.553,0,2.916-1.028,3.342-2.522l4.991-17.526c6.997-1.716,13.586-4.479,19.582-8.115l15.927,8.867
					c1.354,0.752,3.048,0.516,4.144-0.58l11.978-11.978c1.096-1.096,1.331-2.79,0.58-4.144l-8.867-15.927
					c3.636-5.996,6.399-12.585,8.115-19.582l17.526-4.991c1.494-0.426,2.522-1.789,2.522-3.342V97.839
					C293.02,96.286,291.992,94.923,290.498,94.497z M204.712,140.659c-18.97,0-34.351-15.381-34.351-34.351
					s15.381-34.351,34.351-34.351s34.351,15.381,34.351,34.351S223.682,140.659,204.712,140.659z"/>
			</g>
			<path style="fill:#D6B0FF;" d="M488.256,316.826l-30.139-8.582c-2.952-12.032-7.702-23.364-13.956-33.675l15.249-27.39
				c1.293-2.329,0.888-5.241-0.997-7.126l-20.599-20.599c-1.885-1.885-4.797-2.29-7.126-0.997l-27.39,15.249
				c-10.311-6.254-21.643-11.004-33.675-13.956l-8.582-30.139c-0.732-2.57-3.076-4.338-5.747-4.338h-29.127
				c-2.671,0-5.015,1.768-5.747,4.338l-8.582,30.139c-12.032,2.952-23.364,7.702-33.675,13.956l-27.39-15.249
				c-2.329-1.293-5.241-0.888-7.126,0.997l-20.599,20.599c-1.885,1.885-2.29,4.797-0.997,7.126l15.249,27.39
				c-6.254,10.311-11.004,21.642-13.956,33.675l-30.139,8.582c-2.57,0.732-4.338,3.076-4.338,5.747V351.7
				c0,2.671,1.768,5.015,4.338,5.747l30.139,8.582c2.952,12.032,7.702,23.364,13.956,33.675l-15.249,27.39
				c-1.293,2.329-0.888,5.241,0.997,7.126l20.599,20.599c1.885,1.885,4.797,2.29,7.126,0.997l27.39-15.249
				c10.311,6.254,21.642,11.004,33.675,13.956l8.582,30.139c0.732,2.57,3.076,4.338,5.747,4.338h29.127
				c2.671,0,5.015-1.768,5.747-4.338l8.582-30.139c12.032-2.952,23.364-7.702,33.675-13.956l27.39,15.249
				c2.329,1.293,5.241,0.888,7.126-0.997l20.599-20.599c1.885-1.885,2.29-4.797,0.997-7.126l-15.249-27.39
				c6.254-10.311,11.004-21.643,13.956-33.675l30.139-8.582c2.57-0.732,4.338-3.076,4.338-5.747v-29.127
				C492.594,319.902,490.826,317.558,488.256,316.826z M340.73,411.892c-41.283,0-74.756-33.472-74.756-74.756
				s33.472-74.756,74.756-74.756s74.756,33.472,74.756,74.756S382.014,411.892,340.73,411.892z"/>
			<path style="fill:#FFA052;" d="M181.07,270.76l-16.274-4.634c-1.594-6.497-4.159-12.616-7.536-18.184l8.234-14.79
				c0.698-1.257,0.479-2.83-0.538-3.848l-11.123-11.123c-1.018-1.018-2.59-1.236-3.848-0.538l-14.79,8.234
				c-5.568-3.377-11.687-5.942-18.184-7.536l-4.634-16.274c-0.395-1.388-1.661-2.342-3.104-2.342H93.545
				c-1.442,0-2.708,0.955-3.104,2.342l-4.634,16.274c-6.497,1.594-12.616,4.159-18.184,7.536l-14.79-8.234
				c-1.257-0.698-2.83-0.479-3.848,0.538l-11.123,11.123c-1.018,1.018-1.236,2.59-0.538,3.848l8.234,14.79
				c-3.377,5.568-5.942,11.687-7.536,18.184l-16.274,4.634c-1.388,0.395-2.342,1.661-2.342,3.103v15.728
				c0,1.442,0.955,2.708,2.342,3.103l16.274,4.634c1.594,6.497,4.159,12.616,7.536,18.184l-8.234,14.79
				c-0.698,1.257-0.479,2.83,0.538,3.848l11.123,11.123c1.018,1.018,2.59,1.236,3.848,0.538l14.79-8.234
				c5.568,3.377,11.687,5.942,18.184,7.536l4.634,16.274c0.395,1.388,1.661,2.342,3.104,2.342h15.728
				c1.442,0,2.708-0.955,3.104-2.342l4.634-16.274c6.497-1.594,12.616-4.159,18.184-7.536l14.79,8.234
				c1.257,0.698,2.83,0.479,3.848-0.538l11.123-11.123c1.018-1.018,1.236-2.59,0.538-3.848l-8.234-14.79
				c3.377-5.568,5.942-11.686,7.536-18.184l16.274-4.634c1.388-0.395,2.342-1.661,2.342-3.103v-15.728
				C183.412,272.421,182.458,271.155,181.07,270.76z M101.409,307.52c-14.244,0-25.793-11.549-25.793-25.793
				c0-14.244,11.549-25.793,25.793-25.793s25.793,11.549,25.793,25.793C127.202,295.971,115.653,307.52,101.409,307.52z"/>
			<path style="fill:#FFE783;" d="M290.498,115.497l-17.526-4.991c-1.716-6.997-4.479-13.586-8.115-19.582l8.867-15.927
				c0.752-1.354,0.516-3.048-0.58-4.144l-11.978-11.978c-1.096-1.096-2.79-1.331-4.144-0.58l-15.927,8.867
				c-5.996-3.636-12.585-6.399-19.582-8.115l-4.991-17.526c-0.426-1.494-1.789-2.522-3.342-2.522h-16.937
				c-1.553,0-2.916,1.028-3.342,2.522l-4.991,17.526c-6.997,1.716-13.586,4.479-19.582,8.115l-15.927-8.867
				c-1.354-0.752-3.048-0.516-4.144,0.58L136.28,70.854c-1.096,1.096-1.331,2.79-0.58,4.144l8.867,15.927
				c-3.636,5.996-6.399,12.585-8.115,19.582l-17.526,4.991c-1.494,0.426-2.522,1.789-2.522,3.342v16.937
				c0,1.553,1.028,2.916,2.522,3.342l17.526,4.991c1.716,6.997,4.479,13.586,8.115,19.582l-8.867,15.927
				c-0.752,1.354-0.516,3.048,0.58,4.144l11.978,11.978c1.096,1.096,2.79,1.331,4.144,0.58l15.927-8.867
				c5.996,3.637,12.585,6.399,19.582,8.115l4.991,17.526c0.426,1.494,1.789,2.522,3.342,2.522h16.937
				c1.553,0,2.916-1.028,3.342-2.522l4.991-17.526c6.997-1.716,13.586-4.479,19.582-8.115l15.927,8.867
				c1.354,0.752,3.048,0.516,4.144-0.58l11.978-11.978c1.096-1.096,1.331-2.79,0.58-4.144l-8.867-15.927
				c3.636-5.996,6.399-12.585,8.115-19.582l17.526-4.991c1.494-0.426,2.522-1.789,2.522-3.342v-16.937
				C293.02,117.286,291.992,115.923,290.498,115.497z M204.712,161.659c-18.97,0-34.351-15.381-34.351-34.351
				s15.381-34.351,34.351-34.351s34.351,15.381,34.351,34.351S223.682,161.659,204.712,161.659z"/>
			<path style="fill:#590BB2;" d="M355.294,494h-29.126c-4.879,0-9.22-3.277-10.556-7.968l-7.797-27.383
				c-10.405-2.811-20.379-6.944-29.724-12.318l-24.885,13.854c-4.266,2.369-9.648,1.615-13.094-1.83l-20.599-20.599
				c-3.444-3.445-4.198-8.827-1.833-13.088l13.857-24.89c-5.374-9.345-9.508-19.319-12.318-29.724l-27.382-7.798
				c-4.692-1.336-7.969-5.677-7.969-10.556v-29.127c0-4.878,3.276-9.219,7.967-10.556l27.384-7.797
				c2.811-10.405,6.944-20.379,12.318-29.724l-13.854-24.884c-2.368-4.267-1.614-9.649,1.83-13.094l20.599-20.599
				c3.445-3.446,8.827-4.198,13.089-1.833l24.89,13.856c9.345-5.374,19.319-9.507,29.724-12.318l7.797-27.382
				c1.336-4.692,5.677-7.969,10.557-7.969h29.126c4.878,0,9.219,3.276,10.556,7.968l7.797,27.383
				c10.406,2.811,20.38,6.945,29.724,12.318l24.884-13.854c4.267-2.369,9.65-1.615,13.094,1.83l20.599,20.599
				c3.445,3.445,4.198,8.828,1.833,13.089l-13.856,24.889c5.374,9.344,9.507,19.318,12.318,29.724l27.382,7.797c0,0,0.001,0,0.001,0
				c4.69,1.337,7.967,5.678,7.967,10.556V351.7c0,4.879-3.276,9.22-7.968,10.556l-27.383,7.798
				c-2.811,10.405-6.945,20.379-12.318,29.724l13.854,24.884c2.369,4.266,1.615,9.648-1.83,13.094l-20.599,20.599
				c-3.445,3.445-8.827,4.199-13.089,1.833l-24.889-13.857c-9.345,5.374-19.319,9.507-29.724,12.318l-7.797,27.382
				C364.513,490.723,360.172,494,355.294,494z M278.163,435.567c0.899,0,1.797,0.242,2.593,0.725
				c10.027,6.082,20.886,10.582,32.273,13.375c1.745,0.428,3.125,1.759,3.617,3.487l8.583,30.139
				c0.12,0.423,0.498,0.707,0.938,0.707h29.126c0.441,0,0.818-0.285,0.939-0.708l8.582-30.138c0.492-1.728,1.873-3.059,3.618-3.487
				c11.388-2.793,22.246-7.293,32.273-13.375c1.537-0.932,3.456-0.967,5.025-0.093l27.39,15.249
				c0.374,0.208,0.852,0.142,1.158-0.164l20.6-20.599c0.306-0.305,0.372-0.784,0.161-1.163l-15.246-27.385
				c-0.874-1.57-0.838-3.488,0.093-5.025c6.082-10.028,10.582-20.886,13.375-32.273c0.428-1.745,1.759-3.125,3.487-3.617
				l30.139-8.583c0.422-0.12,0.707-0.497,0.707-0.938v-29.127c0-0.441-0.285-0.818-0.708-0.939l-30.138-8.582
				c-1.728-0.492-3.059-1.873-3.487-3.618c-2.794-11.388-7.294-22.247-13.375-32.273c-0.932-1.536-0.968-3.455-0.094-5.025
				l15.249-27.39c0.208-0.375,0.142-0.853-0.164-1.158l-20.599-20.599c-0.306-0.306-0.783-0.372-1.163-0.161l-27.385,15.246
				c-1.569,0.874-3.488,0.839-5.025-0.094c-10.027-6.081-20.885-10.581-32.273-13.375c-1.745-0.428-3.125-1.759-3.617-3.487
				l-8.582-30.139c-0.121-0.422-0.498-0.707-0.939-0.707h-29.126c-0.441,0-0.818,0.284-0.938,0.708l-8.583,30.138
				c-0.492,1.728-1.873,3.059-3.617,3.487c-11.388,2.793-22.246,7.293-32.273,13.375c-1.537,0.933-3.456,0.968-5.025,0.094
				l-27.39-15.249c-0.375-0.208-0.853-0.142-1.158,0.164l-20.599,20.599c-0.306,0.305-0.372,0.784-0.161,1.164l15.246,27.384
				c0.874,1.57,0.838,3.488-0.093,5.025c-6.082,10.027-10.582,20.885-13.375,32.273c-0.428,1.745-1.759,3.125-3.487,3.618
				l-30.139,8.582c-0.422,0.121-0.707,0.498-0.707,0.939V351.7c0,0.441,0.284,0.818,0.708,0.938l30.139,8.583
				c1.728,0.492,3.059,1.873,3.487,3.617c2.793,11.387,7.293,22.246,13.375,32.273c0.932,1.537,0.967,3.455,0.093,5.025
				l-15.249,27.39c-0.208,0.374-0.142,0.853,0.164,1.158l20.599,20.599c0.305,0.306,0.784,0.373,1.163,0.161l27.385-15.246
				C276.488,435.777,277.326,435.567,278.163,435.567z M340.73,416.892c-43.977,0-79.755-35.778-79.755-79.755
				c0-15.73,4.587-30.958,13.266-44.036c1.527-2.301,4.63-2.928,6.931-1.401c2.301,1.527,2.928,4.63,1.401,6.931
				c-7.587,11.434-11.598,24.75-11.598,38.506c0,38.463,31.292,69.755,69.755,69.755s69.756-31.292,69.756-69.755
				s-31.292-69.756-69.756-69.756c-14.517,0-28.446,4.436-40.282,12.827c-2.253,1.598-5.374,1.065-6.971-1.187
				c-1.597-2.253-1.066-5.374,1.187-6.971c13.536-9.597,29.465-14.67,46.066-14.67c43.978,0,79.756,35.778,79.756,79.756
				C420.486,381.114,384.708,416.892,340.73,416.892z"/>
			<path style="fill:#590BB2;" d="M109.273,368.73H93.545c-3.658,0-6.911-2.457-7.913-5.973l-3.858-13.548
				c-4.937-1.434-9.691-3.404-14.196-5.883l-12.313,6.854c-3.2,1.775-7.234,1.21-9.816-1.372l-11.123-11.123
				c-2.583-2.582-3.148-6.616-1.374-9.811l6.857-12.317c-2.479-4.504-4.45-9.259-5.883-14.196l-13.548-3.858
				c-3.517-1.001-5.973-4.255-5.973-7.913v-15.728c0-3.658,2.457-6.911,5.973-7.913l13.548-3.858
				c1.434-4.938,3.404-9.693,5.883-14.196l-6.854-12.313c-1.776-3.199-1.211-7.233,1.372-9.816l11.123-11.123
				c2.584-2.582,6.619-3.146,9.812-1.374l12.317,6.857c4.504-2.479,9.259-4.45,14.196-5.883l3.858-13.548
				c1.001-3.517,4.255-5.974,7.913-5.974h15.728c3.658,0,6.912,2.457,7.913,5.974l3.858,13.547
				c4.937,1.434,9.692,3.404,14.196,5.883l12.313-6.854c3.199-1.775,7.232-1.211,9.815,1.37l11.124,11.124
				c2.582,2.582,3.147,6.616,1.375,9.81l-6.858,12.318c2.479,4.504,4.45,9.259,5.883,14.196l13.548,3.858
				c3.517,1.001,5.973,4.255,5.973,7.913v15.728c0,3.658-2.457,6.911-5.973,7.913l-13.548,3.858
				c-1.434,4.937-3.404,9.691-5.883,14.196l6.854,12.313c1.776,3.2,1.21,7.234-1.373,9.816l-11.122,11.122
				c-2.582,2.583-6.616,3.148-9.81,1.375l-12.318-6.858c-4.505,2.479-9.26,4.45-14.196,5.883l-3.858,13.548
				C116.184,366.274,112.93,368.73,109.273,368.73z M94.884,358.73h13.051l4.268-14.986c0.492-1.728,1.873-3.059,3.617-3.487
				c5.921-1.453,11.567-3.792,16.782-6.955c1.537-0.932,3.456-0.967,5.025-0.093l13.618,7.581l9.228-9.229l-7.581-13.617
				c-0.874-1.57-0.838-3.488,0.093-5.025c3.163-5.215,5.502-10.861,6.955-16.782c0.428-1.745,1.759-3.125,3.487-3.617l14.986-4.268
				v-13.051l-14.986-4.268c-1.728-0.492-3.059-1.873-3.487-3.617c-1.453-5.921-3.792-11.568-6.955-16.782
				c-0.932-1.537-0.967-3.455-0.093-5.025l7.581-13.618l-9.228-9.229l-13.618,7.582c-1.569,0.875-3.488,0.838-5.025-0.093
				c-5.214-3.163-10.86-5.502-16.782-6.955c-1.745-0.428-3.125-1.759-3.617-3.487l-4.268-14.986H94.884l-4.268,14.986
				c-0.492,1.728-1.873,3.059-3.617,3.487c-5.922,1.453-11.568,3.792-16.782,6.955c-1.537,0.932-3.455,0.967-5.025,0.093
				l-13.618-7.582l-9.228,9.229l7.581,13.618c0.874,1.57,0.838,3.489-0.094,5.025c-3.162,5.213-5.501,10.859-6.955,16.782
				c-0.428,1.745-1.759,3.125-3.487,3.617l-14.986,4.268v13.051l14.986,4.268c1.728,0.492,3.059,1.873,3.487,3.617
				c1.453,5.922,3.792,11.568,6.955,16.782c0.932,1.536,0.967,3.455,0.093,5.025l-7.581,13.617l9.228,9.229l13.618-7.581
				c1.57-0.874,3.488-0.838,5.025,0.093c5.215,3.163,10.861,5.502,16.782,6.955c1.745,0.428,3.125,1.759,3.617,3.487L94.884,358.73z
				 M179.701,275.569h0.01H179.701z M179.695,275.568c0.002,0,0.003,0.001,0.005,0.001v0L179.695,275.568z"/>
			<path style="fill:#590BB2;" d="M101.409,312.52c-16.979,0-30.793-13.813-30.793-30.793s13.813-30.793,30.793-30.793
				s30.793,13.813,30.793,30.793S118.389,312.52,101.409,312.52z M101.409,260.934c-11.465,0-20.793,9.328-20.793,20.793
				s9.328,20.793,20.793,20.793s20.793-9.328,20.793-20.793S112.874,260.934,101.409,260.934z"/>
			<path style="fill:#590BB2;" d="M213.18,220.616h-16.937c-3.767,0-7.119-2.53-8.15-6.153l-4.213-14.795
				c-5.431-1.56-10.658-3.726-15.6-6.465l-13.445,7.485c-3.296,1.829-7.452,1.247-10.111-1.413l-11.979-11.979
				c-2.66-2.66-3.242-6.815-1.416-10.105l7.488-13.451c-2.739-4.942-4.905-10.169-6.465-15.6l-14.795-4.213
				c-3.623-1.032-6.153-4.384-6.153-8.151v-16.937c0-3.767,2.53-7.119,6.153-8.15l14.795-4.213c1.56-5.431,3.726-10.658,6.465-15.6
				l-7.485-13.445c-1.829-3.296-1.247-7.452,1.413-10.111l11.979-11.979c2.66-2.66,6.816-3.242,10.105-1.416l13.451,7.488
				c4.942-2.739,10.169-4.905,15.6-6.465l4.213-14.795c1.032-3.623,4.383-6.153,8.15-6.153h16.937c3.767,0,7.119,2.53,8.151,6.153
				l4.213,14.795c5.431,1.56,10.658,3.726,15.6,6.465l13.445-7.485c3.296-1.829,7.452-1.247,10.111,1.413l11.979,11.979
				c2.66,2.66,3.242,6.815,1.416,10.105l-7.488,13.451c2.739,4.942,4.905,10.169,6.465,15.6l14.795,4.213l0,0
				c3.623,1.032,6.153,4.383,6.153,8.15v16.937c0,3.767-2.53,7.119-6.153,8.151l-14.795,4.213c-1.56,5.431-3.726,10.658-6.465,15.6
				l7.485,13.445c1.829,3.296,1.247,7.452-1.413,10.111l-11.979,11.979c-2.659,2.66-6.815,3.241-10.105,1.416l-13.451-7.488
				c-4.942,2.739-10.169,4.905-15.6,6.465l-4.213,14.795C220.3,218.086,216.948,220.616,213.18,220.616z M197.395,210.616h14.635
				l4.675-16.417c0.492-1.728,1.873-3.059,3.618-3.487c6.416-1.574,12.532-4.109,18.18-7.534c1.537-0.933,3.456-0.968,5.025-0.094
				l14.918,8.306l10.348-10.348l-8.306-14.918c-0.874-1.57-0.838-3.489,0.094-5.025c3.425-5.647,5.96-11.764,7.534-18.18
				c0.428-1.745,1.759-3.125,3.487-3.618l16.417-4.675v-14.635l-16.417-4.675c-1.728-0.492-3.059-1.873-3.487-3.618
				c-1.574-6.416-4.109-12.532-7.534-18.18c-0.932-1.537-0.968-3.455-0.094-5.025l8.306-14.918l-10.348-10.348l-14.918,8.306
				c-1.57,0.874-3.489,0.838-5.025-0.094c-5.647-3.425-11.764-5.96-18.18-7.534c-1.745-0.428-3.125-1.759-3.618-3.487L212.03,44
				h-14.635l-4.675,16.417c-0.492,1.728-1.873,3.059-3.618,3.487c-6.416,1.574-12.532,4.109-18.18,7.534
				c-1.537,0.933-3.456,0.967-5.025,0.094l-14.918-8.306l-10.348,10.348l8.306,14.918c0.874,1.57,0.838,3.489-0.094,5.025
				c-3.425,5.647-5.96,11.764-7.534,18.18c-0.428,1.745-1.759,3.125-3.487,3.618l-16.417,4.675v14.635l16.417,4.675
				c1.728,0.492,3.059,1.873,3.487,3.618c1.574,6.416,4.109,12.532,7.534,18.18c0.932,1.537,0.968,3.455,0.094,5.025l-8.306,14.918
				l10.348,10.348l14.918-8.306c1.57-0.874,3.489-0.839,5.025,0.094c5.647,3.425,11.764,5.96,18.18,7.534
				c1.745,0.428,3.125,1.759,3.618,3.487L197.395,210.616z M204.712,166.659c-5.272,0-10.395-1.029-15.227-3.059
				c-2.546-1.069-3.743-4-2.674-6.546c1.07-2.546,4.001-3.742,6.546-2.674c3.6,1.512,7.42,2.278,11.355,2.278
				c16.184,0,29.351-13.167,29.351-29.351s-13.167-29.351-29.351-29.351s-29.351,13.167-29.351,29.351
				c0,3.461,0.596,6.848,1.771,10.066c0.948,2.594-0.387,5.464-2.981,6.412c-2.594,0.95-5.464-0.387-6.412-2.981
				c-1.579-4.321-2.379-8.862-2.379-13.497c0-21.698,17.653-39.351,39.351-39.351s39.351,17.653,39.351,39.351
				S226.41,166.659,204.712,166.659z"/>
		</g>
		<g>
			<g>
				<g>
					<path style="fill:#9526DD;" d="M317.387,354.144c-1.277,0-2.555-0.487-3.53-1.462l-12.016-12.016c-1.95-1.949-1.95-5.11,0-7.06
						l12.016-12.016c1.948-1.949,5.111-1.949,7.059,0c1.95,1.95,1.95,5.11,0,7.06l-8.485,8.486l8.485,8.486
						c1.95,1.95,1.95,5.11,0,7.06C319.942,353.657,318.664,354.144,317.387,354.144z"/>
				</g>
				<g>
					<path style="fill:#9526DD;" d="M364.074,354.144c-1.277,0-2.555-0.487-3.53-1.462c-1.95-1.95-1.95-5.11,0-7.06l8.485-8.486
						l-8.485-8.486c-1.95-1.95-1.95-5.11,0-7.06c1.948-1.949,5.111-1.949,7.059,0l12.016,12.016c1.95,1.95,1.95,5.11,0,7.06
						l-12.016,12.016C366.629,353.657,365.351,354.144,364.074,354.144z"/>
				</g>
			</g>
			<g>
				<path style="fill:#9526DD;" d="M333.941,354.145c-0.832,0-1.674-0.208-2.449-0.646c-2.401-1.356-3.249-4.401-1.892-6.802
					l13.57-24.032c1.355-2.4,4.401-3.248,6.801-1.892c2.401,1.356,3.249,4.401,1.892,6.802l-13.57,24.032
					C337.374,353.232,335.683,354.145,333.941,354.145z"/>
			</g>
		</g>
		<path style="fill:#C182F9;" d="M152.971,412.059c-1.28,0-2.559-0.488-3.536-1.464l-11-11c-1.953-1.953-1.953-5.119,0-7.071l11-11
			c0.938-0.938,2.209-1.464,3.536-1.464s2.598,0.527,3.536,1.464l11,11c0.938,0.938,1.464,2.209,1.464,3.536
			s-0.527,2.598-1.464,3.536l-11,11C155.53,411.571,154.25,412.059,152.971,412.059z M149.041,396.059l3.929,3.929l3.929-3.929
			l-3.929-3.929L149.041,396.059z"/>
		<path style="fill:#FFE783;" d="M352.509,148.313c-2.761,0-5-2.239-5-5c0-3.309-2.692-6-6-6c-2.761,0-5-2.239-5-5s2.239-5,5-5
			c3.309,0,6-2.692,6-6c0-2.761,2.239-5,5-5s5,2.239,5,5c0,3.309,2.691,6,6,6c2.761,0,5,2.239,5,5s-2.239,5-5,5
			c-3.309,0-6,2.691-6,6C357.509,146.074,355.27,148.313,352.509,148.313z"/>
		<path style="fill:#FFA052;" d="M183.412,461.646c-2.761,0-5-2.239-5-5c0-3.309-2.692-6-6-6c-2.761,0-5-2.239-5-5s2.239-5,5-5
			c3.309,0,6-2.691,6-6c0-2.761,2.239-5,5-5s5,2.239,5,5c0,3.309,2.691,6,6,6c2.761,0,5,2.239,5,5s-2.239,5-5,5
			c-3.309,0-6,2.692-6,6C188.412,459.407,186.174,461.646,183.412,461.646z"/>
		<path style="fill:#FFA052;" d="M75.616,172.955c-2.761,0-5-2.239-5-5c0-3.309-2.692-6-6-6c-2.761,0-5-2.239-5-5s2.239-5,5-5
			c3.309,0,6-2.692,6-6c0-2.761,2.239-5,5-5s5,2.239,5,5c0,3.309,2.692,6,6,6c2.761,0,5,2.239,5,5s-2.239,5-5,5
			c-3.309,0-6,2.692-6,6C80.616,170.717,78.377,172.955,75.616,172.955z"/>
	</g>
</g>
<g>
</g>
<g>
</g>
<g>
</g>
<g>
</g>
<g>
</g>
<g>
</g>
<g>
</g>
<g>
</g>
<g>
</g>
<g>
</g>
<g>
</g>
<g>
</g>
<g>
</g>
<g>
</g>
<g>
</g>
</svg>
