<?xml version="1.0" encoding="iso-8859-1"?>
<!-- Generator: Adobe Illustrator 23.0.3, SVG Export Plug-In . SVG Version: 6.00 Build 0)  -->
<svg version="1.1" id="Capa_1" xmlns="http://www.w3.org/2000/svg" xmlns:xlink="http://www.w3.org/1999/xlink" x="0px" y="0px"
	 viewBox="0 0 512 512" style="enable-background:new 0 0 512 512;" xml:space="preserve">
<g>
	<linearGradient id="SVGID_1_" gradientUnits="userSpaceOnUse" x1="215.7087" y1="255.9999" x2="852.3452" y2="255.9999">
		<stop  offset="7.011211e-04" style="stop-color:#FFF0D5"/>
		<stop  offset="0.5112" style="stop-color:#FFDFFF"/>
		<stop  offset="1" style="stop-color:#D9CEFF"/>
	</linearGradient>
	<path style="fill:url(#SVGID_1_);" d="M408.228,154.261c-23.697-9.236-43.717-26.089-55.961-48.381
		c-20.59-37.487-60.43-62.898-106.221-62.898c-47.53,0-88.646,27.377-108.477,67.219c-12.146,24.401-32.814,43.56-58.09,53.761
		c-37.349,15.074-68.703,49.524-78.653,103.382c-1.092,5.91-1.108,11.986-0.016,17.896c15.448,83.572,82.399,120.435,143.334,110.66
		c34.126-5.474,68.672,5.909,93.967,29.462c51.434,47.892,133.884,62.907,213.923,11.57c9.377-6.014,21.957-18.634,27.966-28.015
		C548.967,301.248,497.879,189.204,408.228,154.261z"/>
	<g>
		<path style="opacity:0.1;fill:#590BB2;" d="M456,94.609v254.25c0,8.28-6.72,15-15,15H71c-8.28,0-15-6.72-15-15V94.609
			c0-8.28,6.72-15,15-15h370C449.28,79.609,456,86.329,456,94.609z"/>
		<path style="fill:#C182F9;" d="M382.05,442.772L382.05,442.772c-1.326,0-2.598-0.527-3.535-1.464l-11.018-11.018
			c-1.953-1.953-1.953-5.119,0-7.071l11.018-11.018c0.938-0.938,2.209-1.464,3.535-1.464s2.598,0.527,3.535,1.464l11.019,11.018
			c0.938,0.938,1.465,2.209,1.465,3.536s-0.526,2.598-1.465,3.536l-11.019,11.018C384.647,442.245,383.376,442.772,382.05,442.772z
			 M378.104,426.754l3.946,3.947l3.947-3.947l-3.947-3.947L378.104,426.754z"/>
		<path style="fill:#FFE783;" d="M139.386,448.936c-2.761,0-5-2.239-5-5c0-3.318-2.7-6.018-6.018-6.018c-2.761,0-5-2.239-5-5
			s2.239-5,5-5c3.318,0,6.018-2.7,6.018-6.018c0-2.761,2.239-5,5-5s5,2.239,5,5c0,3.318,2.7,6.018,6.018,6.018c2.761,0,5,2.239,5,5
			s-2.239,5-5,5c-3.318,0-6.018,2.7-6.018,6.018C144.386,446.698,142.147,448.936,139.386,448.936z"/>
		<path style="fill:#FFA052;" d="M430.982,473.584c-2.762,0-5-2.239-5-5c0-3.318-2.7-6.018-6.019-6.018c-2.762,0-5-2.239-5-5
			s2.238-5,5-5c3.318,0,6.019-2.7,6.019-6.018c0-2.761,2.238-5,5-5s5,2.239,5,5c0,3.318,2.699,6.018,6.018,6.018
			c2.762,0,5,2.239,5,5s-2.238,5-5,5c-3.318,0-6.018,2.7-6.018,6.018C435.982,471.345,433.744,473.584,430.982,473.584z"/>
		<g>
			<g>
				<polygon style="fill:#AFABC6;" points="312.71,457.566 199.289,457.566 214.071,398.964 221.971,367.662 290.028,367.662 
					297.928,398.964 				"/>
				<polygon style="fill:#8E8CA8;" points="297.928,398.964 214.071,398.964 221.971,367.662 290.028,367.662 				"/>
				<g>
					<path style="fill:#F5F4F9;" d="M456,115.612v254.25c0,8.28-6.72,15-15,15H71c-8.28,0-15-6.72-15-15v-254.25
						c0-8.28,6.72-15,15-15h370C449.28,100.612,456,107.332,456,115.612z"/>
					<rect x="123.83" y="100.612" style="fill:#E8E6ED;" width="264.34" height="128.871"/>
					<path style="fill:#FFA052;" d="M456,148.784v-33.171c0-8.284-6.716-15-15-15H71c-8.284,0-15,6.716-15,15v33.171H456z"/>
					<path style="fill:#CECAE0;" d="M56,334.47v35.39c0,8.284,6.716,15,15,15h370c8.284,0,15-6.716,15-15v-35.39H56z"/>
				</g>
				<g>
					<path style="fill:#590BB2;" d="M94.082,119.625c-2.761,0-5,2.239-5,5v0.145c0,2.761,2.239,5,5,5s5-2.239,5-5v-0.145
						C99.082,121.864,96.843,119.625,94.082,119.625z"/>
					<path style="fill:#590BB2;" d="M113.407,119.625c-2.761,0-5,2.239-5,5v0.145c0,2.761,2.239,5,5,5s5-2.239,5-5v-0.145
						C118.407,121.864,116.168,119.625,113.407,119.625z"/>
					<path style="fill:#590BB2;" d="M132.731,119.625c-2.761,0-5,2.239-5,5v0.145c0,2.761,2.239,5,5,5s5-2.239,5-5v-0.145
						C137.731,121.864,135.493,119.625,132.731,119.625z"/>
					<path style="fill:#590BB2;" d="M441,95.612H71c-11.028,0-20,8.972-20,20v254.247c0,11.028,8.972,20,20,20h219.475
						l15.821,62.701H205.704l10.406-41.239c0.675-2.677-0.947-5.396-3.625-6.071c-2.677-0.675-5.396,0.947-6.071,3.625
						l-11.023,43.685h-15.325c-2.761,0-5,2.239-5,5s2.239,5,5,5h19.22h113.428h19.22c2.762,0,5-2.239,5-5s-2.238-5-5-5h-15.325
						l-15.821-62.701H441c11.028,0,20-8.972,20-20v-35.39c0-2.761-2.238-5-5-5c-0.095,0-0.183,0.023-0.276,0.028
						c-0.093-0.005-0.182-0.028-0.276-0.028H61V153.784h390V306.93c0,2.761,2.238,5,5,5s5-2.239,5-5V115.612
						C461,104.584,452.028,95.612,441,95.612z M451,339.47v30.39c0,5.514-4.486,10-10,10H71c-5.514,0-10-4.486-10-10v-30.39H451z
						 M61,143.784v-28.171c0-5.514,4.486-10,10-10h370c5.514,0,10,4.486,10,10v28.171H61z"/>
				</g>
			</g>
		</g>
		<g>
			<g>
				<g>
					<path style="fill:#FFC136;" d="M129.309,195.035l-4.253-7.094c-0.542-0.904-1.519-1.458-2.573-1.458h-17.301
						c-1.657,0-3,1.343-3,3v48h74.407v-37.991c0-1.657-1.343-3-3-3h-41.707C130.828,196.492,129.851,195.939,129.309,195.035z"/>
					<path style="fill:#FFE783;" d="M173.589,251.983h-68.407c-1.657,0-3-1.343-3-3v-39c0-1.657,1.343-3,3-3h68.407
						c1.657,0,3,1.343,3,3v39C176.589,250.64,175.246,251.983,173.589,251.983z"/>
				</g>
				<g>
					<path style="fill:#DDD9E4;" d="M174.028,281.869h-66.586c-2.829,0-5.123-2.294-5.123-5.123s2.293-5.123,5.123-5.123h66.586
						c2.829,0,5.123,2.294,5.123,5.123S176.858,281.869,174.028,281.869z"/>
				</g>
				<g>
					<path style="fill:#C182F9;" d="M156.028,300.869h-30.586c-2.829,0-5.123-2.294-5.123-5.123s2.293-5.123,5.123-5.123h30.586
						c2.829,0,5.123,2.294,5.123,5.123S158.858,300.869,156.028,300.869z"/>
				</g>
			</g>
			<g>
				<g>
					<path style="fill:#FFC136;" d="M244.642,195.035l-4.253-7.094c-0.542-0.904-1.519-1.458-2.573-1.458h-17.301
						c-1.657,0-3,1.343-3,3v48h74.407v-37.991c0-1.657-1.343-3-3-3h-41.707C246.161,196.492,245.184,195.939,244.642,195.035z"/>
					<path style="fill:#FFE783;" d="M288.923,251.983h-68.407c-1.657,0-3-1.343-3-3v-39c0-1.657,1.343-3,3-3h68.407
						c1.657,0,3,1.343,3,3v39C291.923,250.64,290.58,251.983,288.923,251.983z"/>
				</g>
				<g>
					<path style="fill:#DDD9E4;" d="M289.361,281.869h-66.586c-2.829,0-5.123-2.294-5.123-5.123s2.293-5.123,5.123-5.123h66.586
						c2.829,0,5.123,2.294,5.123,5.123S292.191,281.869,289.361,281.869z"/>
				</g>
				<g>
					<path style="fill:#C182F9;" d="M271.361,300.869h-30.586c-2.829,0-5.123-2.294-5.123-5.123s2.293-5.123,5.123-5.123h30.586
						c2.829,0,5.123,2.294,5.123,5.123S274.191,300.869,271.361,300.869z"/>
				</g>
			</g>
			<g>
				<g>
					<path style="fill:#FFC136;" d="M359.976,195.035l-4.253-7.094c-0.542-0.904-1.519-1.458-2.573-1.458h-17.301
						c-1.657,0-3,1.343-3,3v48h74.407v-37.991c0-1.657-1.343-3-3-3h-41.707C361.494,196.492,360.518,195.939,359.976,195.035z"/>
					<path style="fill:#FFE783;" d="M404.256,251.983h-68.407c-1.657,0-3-1.343-3-3v-39c0-1.657,1.343-3,3-3h68.407
						c1.657,0,3,1.343,3,3v39C407.256,250.64,405.913,251.983,404.256,251.983z"/>
				</g>
				<g>
					<path style="fill:#DDD9E4;" d="M404.695,281.869h-66.586c-2.829,0-5.123-2.294-5.123-5.123s2.293-5.123,5.123-5.123h66.586
						c2.829,0,5.123,2.294,5.123,5.123S407.524,281.869,404.695,281.869z"/>
				</g>
				<g>
					<path style="fill:#C182F9;" d="M386.695,300.869h-30.586c-2.829,0-5.123-2.294-5.123-5.123s2.293-5.123,5.123-5.123h30.586
						c2.829,0,5.123,2.294,5.123,5.123S389.524,300.869,386.695,300.869z"/>
				</g>
			</g>
		</g>
		<path style="fill:#FFE783;" d="M350.986,70.452c-1.326,0-2.598-0.527-3.535-1.464l-11.018-11.018
			c-1.953-1.953-1.953-5.119,0-7.071l11.018-11.018c1.951-1.952,5.119-1.952,7.07,0l11.018,11.018c1.953,1.953,1.953,5.119,0,7.071
			l-11.018,11.018C353.584,69.925,352.313,70.452,350.986,70.452z M347.04,54.433l3.946,3.947l3.946-3.947l-3.946-3.946
			L347.04,54.433z"/>
	</g>
</g>
<g>
</g>
<g>
</g>
<g>
</g>
<g>
</g>
<g>
</g>
<g>
</g>
<g>
</g>
<g>
</g>
<g>
</g>
<g>
</g>
<g>
</g>
<g>
</g>
<g>
</g>
<g>
</g>
<g>
</g>
</svg>
