<?xml version="1.0" encoding="iso-8859-1"?>
<!-- Generator: Adobe Illustrator 23.0.3, SVG Export Plug-In . SVG Version: 6.00 Build 0)  -->
<svg version="1.1" id="Capa_1" xmlns="http://www.w3.org/2000/svg" xmlns:xlink="http://www.w3.org/1999/xlink" x="0px" y="0px"
	 viewBox="0 0 512 512" style="enable-background:new 0 0 512 512;" xml:space="preserve">
<g>
	<linearGradient id="SVGID_1_" gradientUnits="userSpaceOnUse" x1="225.8161" y1="256.0027" x2="864.887" y2="256.0027">
		<stop  offset="7.011211e-04" style="stop-color:#FFF0D5"/>
		<stop  offset="0.5112" style="stop-color:#FFDFFF"/>
		<stop  offset="1" style="stop-color:#D9CEFF"/>
	</linearGradient>
	<path style="fill:url(#SVGID_1_);" d="M505.626,291.92c-11.826-34.61-38.138-60.16-69.852-72.202
		c-16.43-6.239-27.346-21.856-27.587-39.429c-0.005-0.384-0.012-0.769-0.021-1.154c-1.507-64.582-55.488-116.33-120.077-115.221
		c-38.094,0.654-71.788,19.355-92.905,47.92c-18.185,24.599-46.49,39.965-77.08,39.949c-0.898,0-1.797,0.009-2.7,0.029
		C53.487,153.166,0.837,206.29,0.011,268.216C-0.869,334.147,52.313,387.87,118.043,387.87c50.947,0,94.349-32.277,110.886-77.497
		c4.327-11.832,17.152-18.174,29.283-14.772c0.151,0.042,0.303,0.085,0.455,0.127c11.099,3.064,18.458,13.64,17.55,25.119
		c-1.217,15.383,0.581,31.255,5.798,46.796c20.521,61.135,87.188,94.685,148.493,74.68
		C493.219,421.858,526.887,354.138,505.626,291.92z"/>
	<g>
		<g>
			<path style="opacity:0.1;fill:#590BB2;" d="M461,142.074c0-43.968-35.643-79.612-79.612-79.612
				c-33.531,0-62.199,20.74-73.931,50.082H67.942c-9.357,0-16.942,7.585-16.942,16.941v220.846c0,9.357,7.585,16.942,16.942,16.942
				h308.447c9.357,0,16.942-7.585,16.942-16.942v-129.54C431.633,215.029,461,181.983,461,142.074z"/>
			<g>
				<g>
					<g>
						<g>
							<polygon style="fill:#AFABC6;" points="272.986,453.429 171.344,453.429 184.591,400.913 191.67,372.861 252.66,372.861 
								259.739,400.913 							"/>
							<polygon style="fill:#8E8CA8;" points="259.739,400.913 184.591,400.913 191.67,372.861 252.66,372.861 							"/>
							<path style="fill:#590BB2;" d="M272.989,458.424H171.341c-1.542,0-2.997-0.711-3.944-1.927s-1.281-2.801-0.903-4.296
								l15.997-63.397c0.675-2.678,3.393-4.298,6.071-3.625c2.677,0.676,4.3,3.394,3.624,6.071l-14.427,57.174h88.813l-14.557-57.69
								c-0.676-2.677,0.947-5.396,3.624-6.071c2.679-0.673,5.396,0.947,6.071,3.625l16.127,63.914
								c0.378,1.495,0.044,3.08-0.903,4.296S274.531,458.424,272.989,458.424z"/>
							<g>
								<path style="fill:#F5F4F9;" d="M376.389,388.273H67.942c-9.357,0-16.942-7.585-16.942-16.941V150.486
									c0-9.357,7.585-16.942,16.942-16.942h308.447c9.357,0,16.941,7.585,16.941,16.942v220.846
									C393.33,380.688,385.745,388.273,376.389,388.273z"/>
								<path style="fill:#E8E6ED;" d="M393.327,150.482v104.954c-3.897,0.583-7.876,0.89-11.937,0.89
									c-43.972,0-79.618-35.646-79.618-79.608c0-15.915,4.664-30.737,12.714-43.174h61.903
									C385.748,133.543,393.327,141.133,393.327,150.482z"/>
								<rect x="269.133" y="147.679" style="fill:#FFD5B8;" width="81.991" height="195.435"/>
								<path style="fill:#FFBE92;" d="M351.125,147.679v102.684c-28.967-11.906-49.352-40.402-49.352-73.645
									c0-10.249,1.933-20.038,5.462-29.039H351.125z"/>
								<path style="fill:#E2CCFF;" d="M364.852,343.116H255.408v-80.913c0-1.695,1.374-3.069,3.069-3.069h103.308
									c1.695,0,3.069,1.374,3.069,3.069V343.116z"/>
								<path style="fill:#C182F9;" d="M364.852,283.668H255.408v-21.464c0-1.695,1.374-3.069,3.069-3.069h103.308
									c1.695,0,3.069,1.374,3.069,3.069V283.668z"/>
								<path style="fill:#C182F9;" d="M393.33,176.713v-26.227c0-9.357-7.585-16.942-16.941-16.942H67.942
									c-9.356,0-16.942,7.585-16.942,16.942v26.227H393.33z"/>
								<path style="fill:#590BB2;" d="M301.772,181.713H51c-2.762,0-5-2.239-5-5s2.238-5,5-5h250.772c2.762,0,5,2.239,5,5
									S304.534,181.713,301.772,181.713z"/>
								<path style="fill:#CECAE0;" d="M51,343.116v28.215c0,9.357,7.585,16.941,16.942,16.941h308.447
									c9.356,0,16.941-7.585,16.941-16.941v-28.215H51z"/>
							</g>
							<path style="fill:#590BB2;" d="M290.214,458.424H154.117c-2.762,0-5-2.239-5-5s2.238-5,5-5h136.097c2.762,0,5,2.239,5,5
								S292.976,458.424,290.214,458.424z"/>
							<g>
								<path style="fill:#590BB2;" d="M85.127,160.194c-2.762,0-5-2.239-5-5v-0.13c0-2.761,2.238-5,5-5s5,2.239,5,5v0.13
									C90.127,157.955,87.889,160.194,85.127,160.194z"/>
								<path style="fill:#590BB2;" d="M102.445,160.194c-2.762,0-5-2.239-5-5v-0.13c0-2.761,2.238-5,5-5s5,2.239,5,5v0.13
									C107.445,157.955,105.207,160.194,102.445,160.194z"/>
								<path style="fill:#590BB2;" d="M119.764,160.194c-2.762,0-5-2.239-5-5v-0.13c0-2.761,2.238-5,5-5s5,2.239,5,5v0.13
									C124.764,157.955,122.525,160.194,119.764,160.194z"/>
							</g>
						</g>
					</g>
					<path style="fill:#590BB2;" d="M376.389,393.273H67.941C55.843,393.273,46,383.43,46,371.331v-28.215c0-2.761,2.238-5,5-5
						h337.33v-94.178c0-2.761,2.238-5,5-5s5,2.239,5,5v127.393C398.33,383.43,388.487,393.273,376.389,393.273z M56,348.116v23.215
						c0,6.585,5.356,11.942,11.941,11.942h308.447c6.585,0,11.941-5.357,11.941-11.942v-23.215H56z"/>
					<path style="fill:#590BB2;" d="M51,319.947c-2.762,0-5-2.239-5-5V150.486c0-12.099,9.843-21.941,21.941-21.941H279.42
						c2.762,0,5,2.239,5,5s-2.238,5-5,5H67.941c-6.585,0-11.941,5.357-11.941,11.941v164.461C56,317.708,53.762,319.947,51,319.947z
						"/>
					<g>
						<circle style="fill:#FFA052;" cx="381.388" cy="163.074" r="79.612"/>
						<path style="fill:#590BB2;" d="M381.389,247.685c-46.655,0-84.612-37.957-84.612-84.612c0-46.655,37.957-84.611,84.612-84.611
							S466,116.419,466,163.073C466,209.729,428.044,247.685,381.389,247.685z M381.389,88.462
							c-41.142,0-74.612,33.471-74.612,74.611c0,41.141,33.471,74.612,74.612,74.612c41.141,0,74.611-33.471,74.611-74.612
							C456,121.933,422.529,88.462,381.389,88.462z"/>
						<circle style="fill:#FFF4C5;" cx="381.388" cy="163.074" r="59.029"/>
						<g>
							<path style="fill:#FFA052;" d="M369.967,189.668L369.967,189.668c-2.035,0-3.986-0.808-5.425-2.247l-15.683-15.684
								c-2.996-2.996-2.996-7.853,0-10.849c2.998-2.997,7.854-2.996,10.85,0l10.258,10.259l33.103-33.103
								c2.998-2.996,7.854-2.996,10.85,0c2.996,2.996,2.996,7.853,0,10.849l-38.528,38.527
								C373.952,188.86,372.001,189.668,369.967,189.668z"/>
						</g>
					</g>
					<g>
						<g>
							<g>
								<path style="fill:#DDD9E4;" d="M179.212,243.938H89.232c-2.829,0-5.123-2.294-5.123-5.123c0-2.829,2.293-5.123,5.123-5.123
									h89.981c2.829,0,5.123,2.294,5.123,5.123C184.335,241.644,182.042,243.938,179.212,243.938z"/>
							</g>
							<g>
								<path style="fill:#FFBE92;" d="M229.098,243.938h-24.577c-2.829,0-5.123-2.294-5.123-5.123c0-2.829,2.293-5.123,5.123-5.123
									h24.577c2.829,0,5.123,2.294,5.123,5.123C234.221,241.644,231.928,243.938,229.098,243.938z"/>
							</g>
							<g>
								<path style="fill:#DDD9E4;" d="M229.098,264.258H89.232c-2.829,0-5.123-2.294-5.123-5.123s2.293-5.123,5.123-5.123h139.866
									c2.829,0,5.123,2.294,5.123,5.123S231.928,264.258,229.098,264.258z"/>
							</g>
							<g>
								<path style="fill:#B557FF;" d="M94.918,222.699c-1.326,0-2.598-0.527-3.535-1.464l-6.978-6.978
									c-1.953-1.953-1.953-5.119,0-7.071c1.951-1.952,5.119-1.952,7.07,0l3.442,3.442l12.28-12.28c1.951-1.952,5.119-1.952,7.07,0
									c1.953,1.953,1.953,5.119,0,7.071l-15.815,15.816C97.516,222.172,96.244,222.699,94.918,222.699z"/>
							</g>
						</g>
						<g>
							<g>
								<path style="fill:#DDD9E4;" d="M117.841,325.723h-28.61c-2.829,0-5.123-2.294-5.123-5.123c0-2.829,2.293-5.123,5.123-5.123
									h28.61c2.829,0,5.123,2.294,5.123,5.123C122.964,323.429,120.671,325.723,117.841,325.723z"/>
							</g>
							<g>
								<path style="fill:#FFBE92;" d="M229.098,325.723H143.15c-2.829,0-5.123-2.294-5.123-5.123c0-2.829,2.293-5.123,5.123-5.123
									h85.948c2.829,0,5.123,2.294,5.123,5.123C234.221,323.429,231.928,325.723,229.098,325.723z"/>
							</g>
							<g>
								<path style="fill:#B557FF;" d="M94.918,304.484L94.918,304.484c-1.326,0-2.598-0.527-3.536-1.464l-6.978-6.978
									c-1.952-1.953-1.952-5.119,0.001-7.071c1.951-1.952,5.118-1.952,7.071,0l3.441,3.442l12.28-12.28
									c1.951-1.952,5.119-1.952,7.07,0c1.953,1.953,1.953,5.119,0,7.071L98.453,303.02
									C97.516,303.957,96.244,304.484,94.918,304.484z"/>
							</g>
						</g>
					</g>
				</g>
				<path style="fill:#FFA052;" d="M209.433,85.612c-1.326,0-2.598-0.527-3.535-1.464L194.879,73.13
					c-0.938-0.938-1.465-2.209-1.465-3.536s0.526-2.598,1.465-3.536l11.019-11.018c0.938-0.938,2.209-1.464,3.535-1.464l0,0
					c1.326,0,2.598,0.527,3.535,1.464l11.018,11.018c1.953,1.953,1.953,5.119,0,7.071l-11.018,11.018
					C212.03,85.085,210.759,85.612,209.433,85.612z M205.485,69.594l3.947,3.947l3.946-3.947l-3.946-3.947L205.485,69.594z"/>
				<path style="fill:#C182F9;" d="M436.299,304.007c-2.762,0-5-2.239-5-5c0-3.318-2.7-6.018-6.019-6.018c-2.762,0-5-2.239-5-5
					s2.238-5,5-5c3.318,0,6.019-2.7,6.019-6.018c0-2.761,2.238-5,5-5s5,2.239,5,5c0,3.318,2.699,6.018,6.018,6.018
					c2.762,0,5,2.239,5,5s-2.238,5-5,5c-3.318,0-6.018,2.7-6.018,6.018C441.299,301.768,439.061,304.007,436.299,304.007z"/>
				<path style="fill:#FFE783;" d="M171.165,103.717c-2.762,0-5-2.239-5-5c0-3.318-2.699-6.018-6.018-6.018c-2.762,0-5-2.239-5-5
					s2.238-5,5-5c3.318,0,6.018-2.7,6.018-6.018c0-2.761,2.238-5,5-5s5,2.239,5,5c0,3.318,2.699,6.018,6.018,6.018
					c2.762,0,5,2.239,5,5s-2.238,5-5,5c-3.318,0-6.018,2.7-6.018,6.018C176.165,101.478,173.927,103.717,171.165,103.717z"/>
				<path style="fill:#FFA052;" d="M373.439,434.068c-2.762,0-5-2.239-5-5c0-3.318-2.7-6.018-6.019-6.018c-2.762,0-5-2.239-5-5
					s2.238-5,5-5c3.318,0,6.019-2.7,6.019-6.018c0-2.761,2.238-5,5-5s5,2.239,5,5c0,3.318,2.699,6.018,6.018,6.018
					c2.762,0,5,2.239,5,5s-2.238,5-5,5c-3.318,0-6.018,2.7-6.018,6.018C378.439,431.829,376.201,434.068,373.439,434.068z"/>
			</g>
		</g>
		<g>
			<circle style="fill:#F5F4F9;" cx="327.04" cy="300.156" r="5.59"/>
			<circle style="fill:#F5F4F9;" cx="310.13" cy="300.156" r="5.59"/>
			<circle style="fill:#F5F4F9;" cx="293.22" cy="300.156" r="5.59"/>
		</g>
	</g>
</g>
<g>
</g>
<g>
</g>
<g>
</g>
<g>
</g>
<g>
</g>
<g>
</g>
<g>
</g>
<g>
</g>
<g>
</g>
<g>
</g>
<g>
</g>
<g>
</g>
<g>
</g>
<g>
</g>
<g>
</g>
</svg>
