<?xml version="1.0" encoding="iso-8859-1"?>
<!-- Generator: Adobe Illustrator 23.0.3, SVG Export Plug-In . SVG Version: 6.00 Build 0)  -->
<svg version="1.1" id="Capa_1" xmlns="http://www.w3.org/2000/svg" xmlns:xlink="http://www.w3.org/1999/xlink" x="0px" y="0px"
	 viewBox="0 0 512 512" style="enable-background:new 0 0 512 512;" xml:space="preserve">
<g>
	<linearGradient id="SVGID_1_" gradientUnits="userSpaceOnUse" x1="163.7567" y1="256" x2="1007.3747" y2="256">
		<stop  offset="7.011211e-04" style="stop-color:#FFF0D5"/>
		<stop  offset="0.5112" style="stop-color:#FFDFFF"/>
		<stop  offset="1" style="stop-color:#D9CEFF"/>
	</linearGradient>
	<path style="fill:url(#SVGID_1_);" d="M310.075,89.353C288.645,36.684,236.804-0.37,176.349,0.003
		C99.225,0.478,35.813,62.687,33.942,139.789c-0.923,38.04,12.978,72.821,36.334,98.983c18.619,20.856,27.963,48.325,27.021,76.268
		c-0.125,3.714-0.144,7.455-0.052,11.22c2.464,101.4,89.087,185.801,190.517,185.74c105.133-0.063,190.34-85.31,190.34-190.457
		c0-77.074-45.784-143.448-111.637-173.423C340.798,136.437,320.703,115.473,310.075,89.353z"/>
	<g>
		<g>
			<path style="opacity:0.1;fill:#590BB2;" d="M456,88.317v254.25c0,8.28-6.72,15-15,15H71c-8.28,0-15-6.72-15-15V88.317
				c0-8.28,6.72-15,15-15h370C449.28,73.317,456,80.037,456,88.317z"/>
			<g>
				<path style="fill:#FFA052;" d="M319.337,66.796L319.337,66.796c-1.326,0-2.598-0.527-3.535-1.464l-11.018-11.018
					c-1.953-1.953-1.953-5.119,0-7.071l11.018-11.018c0.938-0.938,2.209-1.464,3.535-1.464s2.598,0.527,3.535,1.464l11.019,11.018
					c0.938,0.938,1.465,2.209,1.465,3.536s-0.526,2.598-1.465,3.536l-11.019,11.018C321.935,66.269,320.663,66.796,319.337,66.796z
					 M315.391,50.778l3.946,3.947l3.947-3.947l-3.947-3.947L315.391,50.778z"/>
				<path style="fill:#C182F9;" d="M382.05,436.48L382.05,436.48c-1.326,0-2.598-0.527-3.535-1.464l-11.018-11.018
					c-1.953-1.953-1.953-5.119,0-7.071l11.018-11.018c1.951-1.952,5.117-1.952,7.07,0l11.019,11.018
					c0.938,0.938,1.465,2.209,1.465,3.536s-0.526,2.598-1.465,3.536l-11.019,11.018C384.647,435.953,383.376,436.48,382.05,436.48z
					 M378.104,420.462l3.946,3.947l3.947-3.947l-3.947-3.947L378.104,420.462z"/>
				<path style="fill:#FFE783;" d="M106.684,477.24c-2.762,0-5-2.239-5-5c0-3.318-2.7-6.018-6.019-6.018c-2.762,0-5-2.239-5-5
					s2.238-5,5-5c3.318,0,6.019-2.7,6.019-6.018c0-2.761,2.238-5,5-5s5,2.239,5,5c0,3.318,2.699,6.018,6.018,6.018
					c2.762,0,5,2.239,5,5s-2.238,5-5,5c-3.318,0-6.018,2.7-6.018,6.018C111.684,475.001,109.445,477.24,106.684,477.24z"/>
				<path style="fill:#C182F9;" d="M150.016,430.842c-2.762,0-5-2.239-5-5c0-3.318-2.699-6.018-6.018-6.018c-2.762,0-5-2.239-5-5
					s2.238-5,5-5c3.318,0,6.018-2.7,6.018-6.018c0-2.761,2.238-5,5-5s5,2.239,5,5c0,3.318,2.7,6.018,6.019,6.018
					c2.762,0,5,2.239,5,5s-2.238,5-5,5c-3.318,0-6.019,2.7-6.019,6.018C155.016,428.604,152.777,430.842,150.016,430.842z"/>
				<g>
					<g>
						<polygon style="fill:#AFABC6;" points="312.71,451.274 199.289,451.274 214.071,392.671 221.971,361.37 290.028,361.37 
							297.928,392.671 						"/>
						<polygon style="fill:#8E8CA8;" points="297.928,392.671 214.071,392.671 221.971,361.37 290.028,361.37 						"/>
						<path style="fill:#590BB2;" d="M312.714,456.268H199.286c-1.542,0-2.997-0.711-3.944-1.927s-1.281-2.801-0.903-4.296
							l17.852-70.744c0.676-2.678,3.394-4.298,6.071-3.625c2.677,0.676,4.3,3.394,3.624,6.071l-16.281,64.521h100.592
							l-16.426-65.097c-0.676-2.677,0.947-5.396,3.624-6.071c2.681-0.674,5.396,0.947,6.071,3.625l17.996,71.32
							c0.378,1.495,0.044,3.08-0.903,4.296S314.256,456.268,312.714,456.268z"/>
						<g>
							<path style="fill:#F5F4F9;" d="M456,109.317v254.25c0,8.28-6.72,15-15,15H71c-8.28,0-15-6.72-15-15v-254.25
								c0-8.28,6.72-15,15-15h370C449.28,94.317,456,101.037,456,109.317z"/>
							<path style="fill:#FFBE92;" d="M441,94.317h-86v284.25h86c8.28,0,15-6.72,15-15v-254.25
								C456,101.037,449.28,94.317,441,94.317z"/>
							<path style="fill:#FFA052;" d="M437.5,189.467l-7.19-25.25c-0.61-2.15-2.58-3.64-4.81-3.64h-24.4c-2.23,0-4.2,1.49-4.81,3.64
								l-7.19,25.25c-10.08,2.47-19.57,6.44-28.21,11.68l-22.94-12.77c-1.95-1.09-4.39-0.75-5.97,0.83l-17.25,17.26
								c-1.58,1.58-1.92,4.01-0.84,5.97l12.78,22.94c-5.24,8.64-9.22,18.13-11.69,28.2l-25.25,7.2c-2.15,0.61-3.63,2.57-3.63,4.81
								v24.4c0,2.23,1.48,4.19,3.63,4.81l25.25,7.19c1.693,6.91,4.105,13.539,7.141,19.81h72.858
								c-17.232-7.181-29.349-24.174-29.349-44.01c0-26.33,21.34-47.67,47.67-47.67c18.71,0,34.89,10.77,42.7,26.45v-70.6
								C450.12,193.227,443.93,191.047,437.5,189.467z"/>
							<path style="fill:#FF8736;" d="M437.5,189.467l-7.19-25.25c-0.61-2.15-2.58-3.64-4.81-3.64h-24.4c-2.23,0-4.2,1.49-4.81,3.64
								l-7.19,25.25c-10.08,2.47-19.57,6.44-28.21,11.68l-22.94-12.77c-1.95-1.09-4.39-0.75-5.97,0.83l-17.25,17.26
								c-1.58,1.58-1.92,4.01-0.84,5.97l12.78,22.94c-5.24,8.64-9.22,18.13-11.69,28.2l-25.25,7.2c-2.15,0.61-3.63,2.57-3.63,4.81
								v24.4c0,2.23,1.48,4.19,3.63,4.81l25.25,7.19c1.693,6.91,4.105,13.539,7.141,19.81h72.858
								c-17.232-7.181-29.349-24.174-29.349-44.01c0-26.33,21.34-47.67,47.67-47.67c18.71,0,34.89,10.77,42.7,26.45v-70.6
								C450.12,193.227,443.93,191.047,437.5,189.467z"/>
							<path style="fill:#C182F9;" d="M456,142.491V109.32c0-8.284-6.716-15-15-15H71c-8.284,0-15,6.716-15,15v33.171H456z"/>
							<path style="fill:#590BB2;" d="M456,147.491H56c-2.762,0-5-2.239-5-5s2.238-5,5-5h400c2.762,0,5,2.239,5,5
								S458.762,147.491,456,147.491z"/>
							<path style="fill:#CECAE0;" d="M56,328.178v35.39c0,8.284,6.716,15,15,15h370c8.284,0,15-6.716,15-15v-35.39H56z"/>
							<path style="fill:#590BB2;" d="M455.447,333.178H87.959c-2.762,0-5-2.239-5-5s2.238-5,5-5h367.488c2.762,0,5,2.239,5,5
								S458.209,333.178,455.447,333.178z"/>
						</g>
						<path style="fill:#590BB2;" d="M331.934,456.268H180.066c-2.762,0-5-2.239-5-5s2.238-5,5-5h151.867c2.762,0,5,2.239,5,5
							S334.695,456.268,331.934,456.268z"/>
						<g>
							<path style="fill:#590BB2;" d="M94.082,123.479c-2.762,0-5-2.239-5-5v-0.146c0-2.761,2.238-5,5-5s5,2.239,5,5v0.146
								C99.082,121.24,96.844,123.479,94.082,123.479z"/>
							<path style="fill:#590BB2;" d="M113.407,123.479c-2.762,0-5-2.239-5-5v-0.146c0-2.761,2.238-5,5-5s5,2.239,5,5v0.146
								C118.407,121.24,116.169,123.479,113.407,123.479z"/>
							<path style="fill:#590BB2;" d="M132.731,123.479c-2.762,0-5-2.239-5-5v-0.146c0-2.761,2.238-5,5-5s5,2.239,5,5v0.146
								C137.731,121.24,135.493,123.479,132.731,123.479z"/>
						</g>
						<path style="fill:#590BB2;" d="M441,383.567H71c-11.028,0-20-8.972-20-20V109.32c0-11.028,8.972-20,20-20h370
							c11.028,0,20,8.972,20,20v33.171c0,2.761-2.238,5-5,5s-5-2.239-5-5V109.32c0-5.514-4.486-10-10-10H71c-5.514,0-10,4.486-10,10
							v254.248c0,5.514,4.486,10,10,10h370c5.514,0,10-4.486,10-10V170.032c0-2.761,2.238-5,5-5s5,2.239,5,5v193.536
							C461,374.595,452.028,383.567,441,383.567z"/>
					</g>
					<g>
						<path style="fill:#DDD9E4;" d="M259.709,274.271H92.967c-2.766,0-5.008-2.242-5.008-5.008c0-2.766,2.242-5.008,5.008-5.008
							h166.742c2.766,0,5.008,2.242,5.008,5.008C264.717,272.029,262.475,274.271,259.709,274.271z"/>
					</g>
					<g>
						<path style="fill:#FFBE92;" d="M199.709,232.279H92.967c-2.766,0-5.008-2.242-5.008-5.008s2.242-5.008,5.008-5.008h106.742
							c2.766,0,5.008,2.242,5.008,5.008S202.475,232.279,199.709,232.279z"/>
					</g>
					<g>
						<path style="fill:#DDD9E4;" d="M259.709,294.137H92.967c-2.766,0-5.008-2.242-5.008-5.008c0-2.766,2.242-5.008,5.008-5.008
							h166.742c2.766,0,5.008,2.242,5.008,5.008C264.717,291.894,262.475,294.137,259.709,294.137z"/>
					</g>
					<g>
						<g>
							<g>
								<path style="fill:#B557FF;" d="M106.117,202.462c-1.279,0-2.56-0.488-3.535-1.464l-12.035-12.035
									c-1.953-1.953-1.953-5.119,0-7.071l12.035-12.035c1.951-1.952,5.119-1.952,7.07,0c1.953,1.953,1.953,5.119,0,7.071
									l-8.499,8.5l8.499,8.5c1.953,1.953,1.953,5.119,0,7.071C108.677,201.974,107.396,202.462,106.117,202.462z"/>
							</g>
							<g>
								<path style="fill:#B557FF;" d="M152.879,202.462c-1.279,0-2.56-0.488-3.535-1.464c-1.953-1.953-1.953-5.119,0-7.071
									l8.499-8.5l-8.499-8.5c-1.953-1.953-1.953-5.119,0-7.071c1.951-1.952,5.119-1.952,7.07,0l12.035,12.035
									c1.953,1.953,1.953,5.119,0,7.071l-12.035,12.035C155.438,201.974,154.158,202.462,152.879,202.462z"/>
							</g>
						</g>
						<g>
							<path style="fill:#B557FF;" d="M122.697,202.463c-0.833,0-1.677-0.208-2.453-0.647c-2.405-1.358-3.254-4.408-1.896-6.813
								l13.592-24.07c1.357-2.404,4.408-3.253,6.812-1.896c2.405,1.358,3.254,4.408,1.896,6.813l-13.592,24.07
								C126.137,201.548,124.442,202.463,122.697,202.463z"/>
						</g>
					</g>
					<g>
						<path style="fill:#FFE783;" d="M379.05,294.137h-16c-1.657,0-3-1.343-3-3v-60.866c0-1.657,1.343-3,3-3h16c1.657,0,3,1.343,3,3
							v60.866C382.05,292.794,380.707,294.137,379.05,294.137z"/>
						<g>
							<path style="fill:#FFE783;" d="M346.337,294.137h-16c-1.657,0-3-1.343-3-3V253.48c0-1.657,1.343-3,3-3h16
								c1.657,0,3,1.343,3,3v37.657C349.337,292.794,347.994,294.137,346.337,294.137z"/>
							<path style="fill:#FFE783;" d="M411.763,294.137h-16c-1.657,0-3-1.343-3-3v-78.34c0-1.657,1.343-3,3-3h16
								c1.657,0,3,1.343,3,3v78.34C414.763,292.794,413.42,294.137,411.763,294.137z"/>
						</g>
					</g>
				</g>
			</g>
		</g>
		<g>
			<circle style="fill:#C182F9;" cx="308.741" cy="173.981" r="5.59"/>
			<circle style="fill:#C182F9;" cx="291.83" cy="173.981" r="5.59"/>
			<circle style="fill:#C182F9;" cx="274.92" cy="173.981" r="5.59"/>
		</g>
	</g>
</g>
<g>
</g>
<g>
</g>
<g>
</g>
<g>
</g>
<g>
</g>
<g>
</g>
<g>
</g>
<g>
</g>
<g>
</g>
<g>
</g>
<g>
</g>
<g>
</g>
<g>
</g>
<g>
</g>
<g>
</g>
</svg>
