<?xml version="1.0" encoding="iso-8859-1"?>
<!-- Generator: Adobe Illustrator 23.0.3, SVG Export Plug-In . SVG Version: 6.00 Build 0)  -->
<svg version="1.1" id="Capa_1" xmlns="http://www.w3.org/2000/svg" xmlns:xlink="http://www.w3.org/1999/xlink" x="0px" y="0px"
	 viewBox="0 0 512 512" style="enable-background:new 0 0 512 512;" xml:space="preserve">
<g>
	<linearGradient id="SVGID_1_" gradientUnits="userSpaceOnUse" x1="215.7087" y1="256.0027" x2="852.3452" y2="256.0027">
		<stop  offset="7.011211e-04" style="stop-color:#FFF0D5"/>
		<stop  offset="0.5112" style="stop-color:#FFDFFF"/>
		<stop  offset="1" style="stop-color:#D9CEFF"/>
	</linearGradient>
	<path style="fill:url(#SVGID_1_);" d="M408.228,154.264c-23.697-9.236-43.717-26.089-55.961-48.381
		c-20.59-37.487-60.43-62.898-106.221-62.898c-47.53,0-88.646,27.377-108.477,67.219c-12.146,24.401-32.814,43.56-58.09,53.761
		C42.131,179.04,10.777,213.49,0.827,267.348c-1.092,5.91-1.108,11.986-0.016,17.896c15.448,83.572,82.399,120.435,143.334,110.66
		c34.126-5.474,68.672,5.909,93.967,29.462c51.434,47.892,133.884,62.907,213.923,11.57c9.377-6.014,21.957-18.634,27.966-28.015
		C548.967,301.251,497.879,189.206,408.228,154.264z"/>
	<g>
		<g>
			<path style="opacity:0.1;fill:#590BB2;" d="M456,102.088v254.25c0,8.28-6.72,15-15,15H71c-8.28,0-15-6.72-15-15v-254.25
				c0-8.28,6.72-15,15-15h370C449.28,87.088,456,93.808,456,102.088z"/>
			<path style="fill:#C182F9;" d="M350.982,443.379c-1.28,0-2.559-0.488-3.536-1.464l-11.018-11.018
				c-1.953-1.953-1.953-5.119,0-7.071l11.018-11.018c1.953-1.952,5.118-1.952,7.071,0l11.018,11.018
				c1.953,1.953,1.953,5.119,0,7.071l-11.018,11.018C353.541,442.891,352.262,443.379,350.982,443.379z M347.035,427.361
				l3.947,3.947l3.947-3.947l-3.947-3.947L347.035,427.361z"/>
			<path style="fill:#FFA052;" d="M400.418,456.415c-1.28,0-2.559-0.488-3.536-1.464l-11.018-11.018
				c-1.953-1.953-1.953-5.119,0-7.071l11.018-11.018c0.938-0.938,2.209-1.464,3.536-1.464s2.598,0.527,3.536,1.464l11.018,11.018
				c0.938,0.938,1.464,2.209,1.464,3.536s-0.527,2.598-1.464,3.536l-11.018,11.018C402.977,455.927,401.697,456.415,400.418,456.415
				z M396.471,440.397l3.947,3.947l3.947-3.947l-3.947-3.947L396.471,440.397z"/>
			<path style="fill:#FFA052;" d="M207.751,89.576c-2.761,0-5-2.239-5-5c0-3.318-2.7-6.018-6.018-6.018c-2.761,0-5-2.239-5-5
				s2.239-5,5-5c3.318,0,6.018-2.7,6.018-6.018c0-2.761,2.239-5,5-5s5,2.239,5,5c0,3.318,2.7,6.018,6.018,6.018c2.761,0,5,2.239,5,5
				s-2.239,5-5,5c-3.318,0-6.018,2.7-6.018,6.018C212.751,87.338,210.513,89.576,207.751,89.576z"/>
			<g>
				<g>
					<polygon style="fill:#AFABC6;" points="312.71,465.045 199.289,465.045 214.071,406.442 221.971,375.141 290.028,375.141 
						297.928,406.442 					"/>
					<polygon style="fill:#8E8CA8;" points="297.928,406.442 214.071,406.442 221.971,375.141 290.028,375.141 					"/>
					<g>
						<path style="fill:#F5F4F9;" d="M456,123.091v254.25c0,8.28-6.72,15-15,15H71c-8.28,0-15-6.72-15-15v-254.25
							c0-8.28,6.72-15,15-15h370C449.28,108.091,456,114.811,456,123.091z"/>
						<rect x="123.83" y="108.091" style="fill:#E8E6ED;" width="264.34" height="233.858"/>
						<g>
							<g>
								<path style="fill:#C182F9;" d="M151.833,360.953H89.167c-1.657,0-3-1.343-3-3v-44.667c0-1.657,1.343-3,3-3h62.667
									c1.657,0,3,1.343,3,3v44.667C154.833,359.61,153.49,360.953,151.833,360.953z"/>
								<path style="fill:#D6B0FF;" d="M141.418,360.952h-24v-29.403c0-1.657,1.343-3,3-3h18c1.657,0,3,1.343,3,3V360.952z"/>
							</g>
							<g>
								<path style="fill:#C182F9;" d="M242.167,360.953H179.5c-1.657,0-3-1.343-3-3v-44.667c0-1.657,1.343-3,3-3h62.667
									c1.657,0,3,1.343,3,3v44.667C245.167,359.61,243.823,360.953,242.167,360.953z"/>
								<path style="fill:#D6B0FF;" d="M231.751,360.952h-24v-29.403c0-1.657,1.343-3,3-3h18c1.657,0,3,1.343,3,3V360.952z"/>
							</g>
							<g>
								<path style="fill:#C182F9;" d="M332.5,360.953h-62.667c-1.657,0-3-1.343-3-3v-44.667c0-1.657,1.343-3,3-3H332.5
									c1.657,0,3,1.343,3,3v44.667C335.5,359.61,334.157,360.953,332.5,360.953z"/>
								<path style="fill:#D6B0FF;" d="M322.085,360.952h-24v-29.403c0-1.657,1.343-3,3-3h18c1.657,0,3,1.343,3,3V360.952z"/>
							</g>
							<g>
								<path style="fill:#C182F9;" d="M422.833,360.953h-62.667c-1.657,0-3-1.343-3-3v-44.667c0-1.657,1.343-3,3-3h62.667
									c1.657,0,3,1.343,3,3v44.667C425.833,359.61,424.49,360.953,422.833,360.953z"/>
								<path style="fill:#D6B0FF;" d="M412.418,360.952h-24v-29.403c0-1.657,1.343-3,3-3h18c1.657,0,3,1.343,3,3V360.952z"/>
							</g>
						</g>
						<path style="fill:#FFA052;" d="M456,156.262v-33.171c0-8.284-6.716-15-15-15H71c-8.284,0-15,6.716-15,15v33.171H456z"/>
						<path style="fill:#CECAE0;" d="M56,341.949v35.39c0,8.284,6.716,15,15,15h370c8.284,0,15-6.716,15-15v-35.39H56z"/>
					</g>
					<g>
						<path style="fill:#590BB2;" d="M94.082,137.249c2.761,0,5-2.239,5-5v-0.145c0-2.761-2.239-5-5-5s-5,2.239-5,5v0.145
							C89.082,135.01,91.321,137.249,94.082,137.249z"/>
						<path style="fill:#590BB2;" d="M113.407,137.249c2.761,0,5-2.239,5-5v-0.145c0-2.761-2.239-5-5-5s-5,2.239-5,5v0.145
							C108.407,135.01,110.646,137.249,113.407,137.249z"/>
						<path style="fill:#590BB2;" d="M132.731,137.249c2.761,0,5-2.239,5-5v-0.145c0-2.761-2.239-5-5-5s-5,2.239-5,5v0.145
							C127.731,135.01,129.97,137.249,132.731,137.249z"/>
						<path style="fill:#590BB2;" d="M441,103.091H71c-11.028,0-20,8.972-20,20v254.247c0,11.028,8.972,20,20,20h140.213
							l-15.822,62.701h-15.325c-2.761,0-5,2.239-5,5s2.239,5,5,5h151.868c2.761,0,5-2.239,5-5s-2.239-5-5-5h-15.325l-11.023-43.686
							c-0.676-2.678-3.396-4.298-6.071-3.625c-2.678,0.676-4.3,3.394-3.625,6.071l10.406,41.239H205.704l15.822-62.701H441
							c11.028,0,20-8.972,20-20V123.091C461,112.063,452.028,103.091,441,103.091z M71,113.091h370c5.514,0,10,4.486,10,10v28.171
							H83.541c-2.761,0-5,2.239-5,5s2.239,5,5,5H451v175.686H61V123.091C61,117.577,65.486,113.091,71,113.091z M441,387.338H71
							c-5.514,0-10-4.486-10-10v-30.39h390v30.39C451,382.852,446.514,387.338,441,387.338z"/>
					</g>
				</g>
			</g>
		</g>
		<g>
			<g>
				<path style="fill:#C182F9;" d="M151.833,230.145H89.167c-1.657,0-3-1.343-3-3v-44.667c0-1.657,1.343-3,3-3h62.667
					c1.657,0,3,1.343,3,3v44.667C154.833,228.802,153.49,230.145,151.833,230.145z"/>
				<path style="fill:#D6B0FF;" d="M141.418,230.144h-24v-29.403c0-1.657,1.343-3,3-3h18c1.657,0,3,1.343,3,3V230.144z"/>
			</g>
			<g>
				<path style="fill:#C182F9;" d="M242.167,230.145H179.5c-1.657,0-3-1.343-3-3v-44.667c0-1.657,1.343-3,3-3h62.667
					c1.657,0,3,1.343,3,3v44.667C245.167,228.802,243.823,230.145,242.167,230.145z"/>
				<path style="fill:#D6B0FF;" d="M231.751,230.144h-24v-29.403c0-1.657,1.343-3,3-3h18c1.657,0,3,1.343,3,3V230.144z"/>
			</g>
			<g>
				<path style="fill:#C182F9;" d="M332.5,230.145h-62.667c-1.657,0-3-1.343-3-3v-44.667c0-1.657,1.343-3,3-3H332.5
					c1.657,0,3,1.343,3,3v44.667C335.5,228.802,334.157,230.145,332.5,230.145z"/>
				<path style="fill:#D6B0FF;" d="M322.085,230.144h-24v-29.403c0-1.657,1.343-3,3-3h18c1.657,0,3,1.343,3,3V230.144z"/>
			</g>
			<g>
				<path style="fill:#C182F9;" d="M422.833,230.145h-62.667c-1.657,0-3-1.343-3-3v-44.667c0-1.657,1.343-3,3-3h62.667
					c1.657,0,3,1.343,3,3v44.667C425.833,228.802,424.49,230.145,422.833,230.145z"/>
				<path style="fill:#D6B0FF;" d="M412.418,230.144h-24v-29.403c0-1.657,1.343-3,3-3h18c1.657,0,3,1.343,3,3V230.144z"/>
			</g>
		</g>
		<g>
			<g>
				<path style="fill:#C182F9;" d="M151.833,295.549H89.167c-1.657,0-3-1.343-3-3v-44.667c0-1.657,1.343-3,3-3h62.667
					c1.657,0,3,1.343,3,3v44.667C154.833,294.206,153.49,295.549,151.833,295.549z"/>
				<path style="fill:#D6B0FF;" d="M141.418,295.548h-24v-29.403c0-1.657,1.343-3,3-3h18c1.657,0,3,1.343,3,3V295.548z"/>
			</g>
			<g>
				<path style="fill:#C182F9;" d="M242.167,295.549H179.5c-1.657,0-3-1.343-3-3v-44.667c0-1.657,1.343-3,3-3h62.667
					c1.657,0,3,1.343,3,3v44.667C245.167,294.206,243.823,295.549,242.167,295.549z"/>
				<path style="fill:#D6B0FF;" d="M231.751,295.548h-24v-29.403c0-1.657,1.343-3,3-3h18c1.657,0,3,1.343,3,3V295.548z"/>
			</g>
			<g>
				<path style="fill:#C182F9;" d="M332.5,295.549h-62.667c-1.657,0-3-1.343-3-3v-44.667c0-1.657,1.343-3,3-3H332.5
					c1.657,0,3,1.343,3,3v44.667C335.5,294.206,334.157,295.549,332.5,295.549z"/>
				<path style="fill:#D6B0FF;" d="M322.085,295.548h-24v-29.403c0-1.657,1.343-3,3-3h18c1.657,0,3,1.343,3,3V295.548z"/>
			</g>
			<g>
				<path style="fill:#C182F9;" d="M422.833,295.549h-62.667c-1.657,0-3-1.343-3-3v-44.667c0-1.657,1.343-3,3-3h62.667
					c1.657,0,3,1.343,3,3v44.667C425.833,294.206,424.49,295.549,422.833,295.549z"/>
				<path style="fill:#D6B0FF;" d="M412.418,295.548h-24v-29.403c0-1.657,1.343-3,3-3h18c1.657,0,3,1.343,3,3V295.548z"/>
			</g>
		</g>
		<path style="fill:#FFE783;" d="M152.436,73.996c-2.761,0-5-2.239-5-5c0-3.318-2.7-6.018-6.018-6.018c-2.761,0-5-2.239-5-5
			s2.239-5,5-5c3.318,0,6.018-2.7,6.018-6.018c0-2.761,2.239-5,5-5s5,2.239,5,5c0,3.318,2.7,6.018,6.018,6.018c2.761,0,5,2.239,5,5
			s-2.239,5-5,5c-3.318,0-6.018,2.7-6.018,6.018C157.436,71.758,155.197,73.996,152.436,73.996z"/>
	</g>
</g>
<g>
</g>
<g>
</g>
<g>
</g>
<g>
</g>
<g>
</g>
<g>
</g>
<g>
</g>
<g>
</g>
<g>
</g>
<g>
</g>
<g>
</g>
<g>
</g>
<g>
</g>
<g>
</g>
<g>
</g>
</svg>
