<?xml version="1.0" encoding="iso-8859-1"?>
<!-- Generator: Adobe Illustrator 23.0.3, SVG Export Plug-In . SVG Version: 6.00 Build 0)  -->
<svg version="1.1" id="Capa_1" xmlns="http://www.w3.org/2000/svg" xmlns:xlink="http://www.w3.org/1999/xlink" x="0px" y="0px"
	 viewBox="0 0 512 512" style="enable-background:new 0 0 512 512;" xml:space="preserve">
<g>
	<linearGradient id="SVGID_1_" gradientUnits="userSpaceOnUse" x1="163.7567" y1="256" x2="1007.3747" y2="256">
		<stop  offset="7.011211e-04" style="stop-color:#FFF0D5"/>
		<stop  offset="0.5112" style="stop-color:#FFDFFF"/>
		<stop  offset="1" style="stop-color:#D9CEFF"/>
	</linearGradient>
	<path style="fill:url(#SVGID_1_);" d="M310.075,89.353C288.645,36.684,236.804-0.37,176.349,0.003
		C99.225,0.478,35.813,62.687,33.942,139.789c-0.923,38.04,12.978,72.821,36.334,98.983c18.619,20.856,27.963,48.325,27.021,76.268
		c-0.125,3.714-0.144,7.455-0.052,11.22c2.464,101.4,89.087,185.801,190.517,185.74c105.133-0.063,190.34-85.31,190.34-190.457
		c0-77.074-45.784-143.448-111.637-173.423C340.798,136.437,320.703,115.473,310.075,89.353z"/>
	<g>
		<path style="opacity:0.1;fill:#590BB2;" d="M469.448,299.945h-71.796c2.11-5.635,3.908-11.422,5.361-17.345l38.708-11.024
			c3.294-0.938,5.565-3.947,5.565-7.372v-37.408c0-3.425-2.272-6.434-5.565-7.372L403.013,208.4
			c-3.791-15.451-9.886-29.996-17.916-43.241l19.578-35.171c1.666-2.992,1.144-6.726-1.277-9.148l-26.451-26.451
			c-2.422-2.422-6.156-2.943-9.148-1.277l-35.171,19.578c-13.245-8.03-27.79-14.125-43.241-17.916l-11.025-38.708
			c-0.938-3.294-3.947-5.565-7.372-5.565h-37.407c-3.425,0-6.434,2.272-7.372,5.565l-11.025,38.708
			c-14.316,3.512-27.84,9.025-40.288,16.201V61.192c0-5.536-4.488-10.024-10.024-10.024H42.552c-5.536,0-10.024,4.488-10.024,10.024
			v97.278c0,5.536,4.488,10.024,10.024,10.024h74.987c-7.068,12.342-12.503,25.737-15.979,39.906l-38.708,11.024
			c-3.294,0.938-5.565,3.947-5.565,7.372v37.408c0,3.425,2.272,6.434,5.565,7.372L101.56,282.6
			c3.791,15.451,9.886,29.996,17.916,43.241l-19.578,35.171c-1.666,2.992-1.144,6.726,1.277,9.148l26.451,26.451
			c2.422,2.422,6.156,2.943,9.148,1.277l35.171-19.578c13.245,8.03,27.79,14.125,43.241,17.916l11.025,38.708
			c0.938,3.294,3.947,5.565,7.372,5.565h37.407c3.425,0,6.434-2.272,7.372-5.565l11.025-38.708
			c6.054-1.485,11.963-3.336,17.715-5.507v16.527c0,5.536,4.488,10.024,10.024,10.024h152.322c5.536,0,10.024-4.488,10.024-10.024
			v-97.278C479.472,304.433,474.984,299.945,469.448,299.945z"/>
		<g>
			<g>
				<g>
					<path style="fill:#D6B0FF;" d="M447.287,285.204v-37.408c0-3.425-2.272-6.434-5.565-7.372L403.013,229.4
						c-3.791-15.451-9.886-29.996-17.916-43.241l19.578-35.171c1.666-2.992,1.144-6.726-1.277-9.148l-26.451-26.451
						c-2.422-2.422-6.156-2.943-9.148-1.277l-35.171,19.578c-13.245-8.03-27.79-14.125-43.241-17.916l-11.025-38.708
						c-0.938-3.294-3.947-5.565-7.372-5.565h-37.407c-3.425,0-6.434,2.272-7.372,5.565l-11.025,38.708
						c-15.451,3.791-29.996,9.886-43.241,17.916l-35.171-19.578c-2.992-1.666-6.726-1.144-9.148,1.277l-26.451,26.451
						c-2.422,2.422-2.943,6.156-1.277,9.148l19.578,35.171c-8.03,13.245-14.125,27.79-17.916,43.241l-38.708,11.024
						c-3.294,0.938-5.565,3.947-5.565,7.372v37.408c0,3.425,2.272,6.434,5.565,7.372L101.56,303.6
						c3.791,15.451,9.886,29.996,17.916,43.241l-19.578,35.171c-1.666,2.992-1.144,6.726,1.277,9.148l26.451,26.451
						c2.422,2.422,6.156,2.943,9.148,1.277l35.171-19.578c13.245,8.03,27.79,14.125,43.241,17.916l11.025,38.708
						c0.938,3.294,3.947,5.565,7.372,5.565h37.407c3.425,0,6.434-2.272,7.372-5.565l11.025-38.708
						c15.451-3.791,29.996-9.886,43.241-17.916l35.171,19.578c2.992,1.666,6.726,1.144,9.148-1.277l26.451-26.451
						c2.422-2.422,2.943-6.156,1.277-9.148l-19.578-35.171c8.03-13.245,14.125-27.79,17.916-43.241l38.708-11.025
						C445.015,291.638,447.287,288.628,447.287,285.204z"/>
					<path style="fill:#CCA1FF;" d="M174.897,131.95v62.26c0,5.53-4.49,10.02-10.02,10.02h-54.79c2.74-6.25,5.89-12.29,9.39-18.07
						l-19.58-35.17c-1.66-2.99-1.14-6.73,1.28-9.15l26.45-26.45c2.42-2.42,6.16-2.94,9.15-1.28l35.17,19.58
						C172.917,133.1,173.907,132.52,174.897,131.95z"/>
					<circle style="fill:#FFD5B8;" cx="252.287" cy="266.5" r="94"/>
					<circle style="fill:#FFA052;" cx="252.287" cy="266.5" r="77.388"/>
					<path style="fill:#E2CCFF;" d="M252.287,388.5c-67.271,0-122-54.729-122-122c0-2.761,2.239-5,5-5s5,2.239,5,5
						c0,61.757,50.243,112,112,112c2.761,0,5,2.239,5,5S255.048,388.5,252.287,388.5z"/>
					<path style="fill:#E2CCFF;" d="M369.287,271.5c-2.761,0-5-2.239-5-5c0-61.757-50.243-112-112-112c-2.761,0-5-2.239-5-5
						s2.239-5,5-5c67.271,0,122,54.729,122,122C374.287,269.261,372.048,271.5,369.287,271.5z"/>
					<g>
						<g>
							<g>
								<path style="fill:#F5F4F9;" d="M228.906,283.535c-1.279,0-2.56-0.488-3.535-1.464l-12.035-12.035
									c-1.953-1.953-1.953-5.119,0-7.071l12.035-12.035c1.951-1.952,5.119-1.952,7.07,0c1.953,1.953,1.953,5.119,0,7.071
									l-8.499,8.5l8.499,8.5c1.953,1.953,1.953,5.119,0,7.071C231.465,283.047,230.185,283.535,228.906,283.535z"/>
							</g>
							<g>
								<path style="fill:#F5F4F9;" d="M275.667,283.535c-1.279,0-2.56-0.488-3.535-1.464c-1.953-1.953-1.953-5.119,0-7.071
									l8.499-8.5l-8.499-8.5c-1.953-1.953-1.953-5.119,0-7.071c1.951-1.952,5.119-1.952,7.07,0l12.035,12.035
									c1.953,1.953,1.953,5.119,0,7.071l-12.035,12.035C278.227,283.047,276.947,283.535,275.667,283.535z"/>
							</g>
						</g>
						<g>
							<path style="fill:#F5F4F9;" d="M245.486,283.536c-0.833,0-1.677-0.208-2.453-0.647c-2.405-1.358-3.254-4.408-1.896-6.813
								l13.592-24.07c1.357-2.404,4.408-3.253,6.812-1.896c2.405,1.358,3.254,4.408,1.896,6.812l-13.592,24.07
								C248.925,282.621,247.231,283.536,245.486,283.536z"/>
						</g>
					</g>
					<g>
						<g>
							<path style="fill:#F5F4F9;" d="M164.874,189.494H42.552c-5.536,0-10.024-4.488-10.024-10.024V82.192
								c0-5.536,4.488-10.024,10.024-10.024h122.322c5.536,0,10.024,4.488,10.024,10.024v97.278
								C174.898,185.006,170.411,189.494,164.874,189.494z"/>
							<path style="fill:#FFE783;" d="M164.874,72.168h-34.161v117.326h34.161c5.536,0,10.024-4.488,10.024-10.024V82.192
								C174.898,76.656,170.41,72.168,164.874,72.168z"/>
							<path style="fill:#FFC136;" d="M174.899,104.913V82.192c0-5.536-4.488-10.024-10.024-10.024H42.552
								c-5.536,0-10.024,4.488-10.024,10.024v22.721H174.899z"/>
						</g>
						<g>
							<g>
								<path style="fill:#DDD9E4;" d="M110.571,166.089H60.856c-2.768,0-5.011-2.244-5.011-5.011c0-2.767,2.243-5.011,5.011-5.011
									h49.716c2.768,0,5.011,2.244,5.011,5.011C115.582,163.846,113.339,166.089,110.571,166.089z"/>
							</g>
							<g>
								<path style="fill:#DDD9E4;" d="M83.507,145.285H60.856c-2.768,0-5.011-2.244-5.011-5.011c0-2.767,2.243-5.011,5.011-5.011
									h22.651c2.768,0,5.011,2.244,5.011,5.011C88.518,143.041,86.275,145.285,83.507,145.285z"/>
							</g>
						</g>
					</g>
					<g>
						<g>
							<g>
								<path style="fill:#F5F4F9;" d="M469.448,438.271H317.126c-5.536,0-10.024-4.488-10.024-10.024v-97.278
									c0-5.536,4.488-10.024,10.024-10.024h152.322c5.536,0,10.024,4.488,10.024,10.024v97.278
									C479.472,433.783,474.984,438.271,469.448,438.271z"/>
								<path style="fill:#FDD250;" d="M479.472,353.69v-22.721c0-5.536-4.488-10.024-10.024-10.024H317.126
									c-5.536,0-10.024,4.488-10.024,10.024v22.721H479.472z"/>
								<path style="fill:#590BB2;" d="M469.447,315.945h-64.76c0.892-2.753,1.719-5.531,2.459-8.323l35.944-10.237
									c5.414-1.542,9.196-6.551,9.196-12.181v-37.407c0-5.63-3.782-10.639-9.196-12.181l-35.944-10.237
									c-3.649-13.782-9.116-26.976-16.283-39.3l18.18-32.659c2.738-4.919,1.87-11.134-2.11-15.115l-26.451-26.451
									c-3.981-3.982-10.197-4.849-15.116-2.111l-32.659,18.18c-12.323-7.167-25.517-12.633-39.3-16.283l-10.237-35.944
									c-1.542-5.414-6.552-9.195-12.181-9.195h-37.407c-5.63,0-10.639,3.782-12.181,9.196l-10.237,35.943
									c-10.817,2.865-21.295,6.873-31.267,11.93V82.192c0-8.284-6.74-15.024-15.024-15.024H42.552
									c-8.284,0-15.024,6.74-15.024,15.024v22.721c0,2.761,2.239,5,5,5h137.37v69.556c0,2.771-2.254,5.024-5.024,5.024H42.552
									c-2.77,0-5.024-2.254-5.024-5.024v-47.016c0-2.761-2.239-5-5-5s-5,2.239-5,5v47.016c0,8.285,6.74,15.024,15.024,15.024
									h66.617c-4.966,9.858-8.914,20.205-11.743,30.885l-35.943,10.237c-5.415,1.542-9.196,6.551-9.196,12.181v37.407
									c0,5.63,3.782,10.639,9.196,12.181l35.943,10.237c3.65,13.783,9.117,26.978,16.283,39.3l-18.18,32.659
									c-2.738,4.919-1.871,11.135,2.11,15.115l26.451,26.451c3.981,3.981,10.196,4.849,15.116,2.11l32.659-18.18
									c12.323,7.167,25.518,12.633,39.3,16.283l10.237,35.943c1.542,5.414,6.551,9.196,12.181,9.196h37.407
									c5.629,0,10.638-3.781,12.181-9.196l10.237-35.944c2.918-0.773,5.82-1.642,8.693-2.58v9.466
									c0,8.284,6.74,15.024,15.024,15.024h152.322c8.285,0,15.024-6.74,15.024-15.024v-97.278
									C484.472,322.685,477.732,315.945,469.447,315.945z M37.528,99.913V82.192c0-2.77,2.254-5.024,5.024-5.024h122.322
									c2.77,0,5.024,2.254,5.024,5.024v17.721H37.528z M288.195,412.371c-1.745,0.428-3.125,1.759-3.617,3.486l-11.024,38.708
									c-0.325,1.14-1.379,1.936-2.563,1.936h-37.407c-1.185,0-2.239-0.796-2.563-1.935l-11.024-38.708
									c-0.492-1.728-1.873-3.058-3.617-3.486c-14.765-3.623-28.842-9.455-41.84-17.335c-1.537-0.931-3.454-0.967-5.024-0.093
									l-35.171,19.578c-1.035,0.577-2.343,0.394-3.181-0.444l-26.451-26.452c-0.837-0.837-1.02-2.145-0.444-3.18l19.578-35.171
									c0.874-1.569,0.838-3.487-0.093-5.024c-7.88-12.997-13.712-27.074-17.335-41.84c-0.428-1.745-1.759-3.125-3.486-3.617
									l-38.708-11.024c-1.139-0.325-1.935-1.378-1.935-2.563v-37.407c0-1.185,0.795-2.239,1.935-2.563l38.708-11.024
									c1.728-0.492,3.058-1.873,3.486-3.617c3.091-12.597,7.825-24.728,14.046-36.098h44.412c8.284,0,15.024-6.74,15.024-15.024
									v-44.595c11.477-6.324,23.745-11.121,36.479-14.245c1.745-0.428,3.125-1.759,3.617-3.486l11.024-38.708
									c0.325-1.139,1.379-1.935,2.563-1.935h37.407c1.185,0,2.239,0.796,2.563,1.935l11.024,38.708
									c0.492,1.728,1.873,3.058,3.617,3.486c14.765,3.623,28.842,9.456,41.84,17.335c1.538,0.932,3.455,0.968,5.024,0.093
									l35.171-19.578c1.035-0.576,2.343-0.394,3.181,0.444l26.451,26.451c0.838,0.837,1.021,2.146,0.444,3.181l-19.578,35.171
									c-0.874,1.57-0.838,3.487,0.093,5.024c7.88,12.999,13.713,27.075,17.335,41.84c0.428,1.745,1.759,3.125,3.486,3.617
									l38.708,11.024c1.139,0.325,1.935,1.379,1.935,2.563v37.407c0,1.185-0.796,2.239-1.935,2.563l-38.708,11.024
									c-1.728,0.492-3.059,1.873-3.486,3.617c-1.118,4.555-2.476,9.094-4.022,13.536h-20.412c-2.761,0-5,2.239-5,5s2.239,5,5,5
									h95.724c2.771,0,5.024,2.254,5.024,5.024v17.721h-162.37v-17.721c0-2.77,2.254-5.024,5.024-5.024h29.058
									c2.761,0,5-2.239,5-5s-2.239-5-5-5h-29.058c-8.284,0-15.024,6.74-15.024,15.024v77.25
									C297.544,409.819,292.878,411.221,288.195,412.371z M469.447,433.271H317.125c-2.77,0-5.024-2.254-5.024-5.024V358.69
									h162.37v69.557C474.472,431.017,472.218,433.271,469.447,433.271z"/>
							</g>
						</g>
						<g>
							<path style="fill:#C182F9;" d="M343.115,410.99c-0.152,0-0.305-0.007-0.458-0.021c-1.988-0.182-3.677-1.529-4.297-3.427
								l-6.86-21.01c-0.857-2.625,0.576-5.448,3.201-6.305c2.625-0.857,5.448,0.576,6.305,3.201l3.26,9.983l1.827-3.357
								c0.875-1.608,2.56-2.61,4.392-2.61s3.517,1.001,4.392,2.61l1.827,3.357l3.26-9.983c0.856-2.625,3.679-4.059,6.305-3.201
								c2.625,0.857,4.059,3.68,3.201,6.305l-6.86,21.01c-0.62,1.898-2.309,3.245-4.296,3.427c-1.986,0.185-3.894-0.835-4.848-2.589
								l-2.98-5.476l-2.98,5.476C346.625,409.998,344.934,410.99,343.115,410.99z"/>
							<path style="fill:#C182F9;" d="M385.917,410.99c-0.152,0-0.305-0.007-0.458-0.021c-1.988-0.182-3.677-1.529-4.297-3.427
								l-6.86-21.01c-0.857-2.625,0.576-5.448,3.201-6.305c2.625-0.857,5.448,0.576,6.305,3.201l3.26,9.983l1.827-3.357
								c0.875-1.608,2.56-2.61,4.392-2.61s3.517,1.001,4.392,2.61l1.827,3.357l3.26-9.983c0.856-2.625,3.679-4.059,6.305-3.201
								c2.625,0.857,4.059,3.68,3.201,6.305l-6.86,21.01c-0.62,1.898-2.309,3.245-4.296,3.427c-1.988,0.185-3.895-0.835-4.848-2.589
								l-2.98-5.476l-2.98,5.476C389.426,409.998,387.735,410.99,385.917,410.99z"/>
							<path style="fill:#C182F9;" d="M443.458,410.99c-1.818,0-3.51-0.992-4.39-2.61l-2.98-5.476l-2.98,5.476
								c-0.954,1.753-2.856,2.773-4.848,2.589c-1.988-0.182-3.677-1.529-4.296-3.427l-6.86-21.01
								c-0.857-2.625,0.576-5.448,3.201-6.305c2.625-0.857,5.448,0.576,6.305,3.201l3.26,9.983l1.827-3.357
								c0.875-1.608,2.56-2.61,4.392-2.61s3.517,1.001,4.392,2.61l1.827,3.357l3.26-9.983c0.856-2.625,3.679-4.059,6.305-3.201
								c2.625,0.857,4.059,3.68,3.201,6.305l-6.86,21.01c-0.62,1.898-2.309,3.245-4.296,3.427
								C443.763,410.983,443.61,410.99,443.458,410.99z"/>
						</g>
					</g>
				</g>
				<path style="fill:#FFA052;" d="M442.964,200.767c-1.28,0-2.559-0.488-3.536-1.464l-10.994-10.994
					c-1.953-1.953-1.953-5.119,0-7.071l10.994-10.994c1.953-1.952,5.118-1.952,7.071,0l10.994,10.994
					c1.953,1.953,1.953,5.119,0,7.071L446.5,199.302C445.523,200.278,444.244,200.767,442.964,200.767z M439.041,184.772
					l3.923,3.923l3.923-3.923l-3.923-3.923L439.041,184.772z"/>
			</g>
			<path style="fill:#FFE783;" d="M357.31,93.127c-2.761,0-5-2.239-5-5c0-3.322-2.702-6.024-6.023-6.024c-2.761,0-5-2.239-5-5
				s2.239-5,5-5c3.321,0,6.023-2.702,6.023-6.023c0-2.761,2.239-5,5-5s5,2.239,5,5c0,3.321,2.702,6.023,6.023,6.023
				c2.761,0,5,2.239,5,5s-2.239,5-5,5c-3.321,0-6.023,2.702-6.023,6.024C362.31,90.889,360.071,93.127,357.31,93.127z"/>
			<path style="fill:#C182F9;" d="M63.287,353.341c-2.761,0-5-2.239-5-5c0-3.321-2.702-6.023-6.023-6.023c-2.761,0-5-2.239-5-5
				s2.239-5,5-5c3.321,0,6.023-2.702,6.023-6.023c0-2.761,2.239-5,5-5s5,2.239,5,5c0,3.321,2.702,6.023,6.023,6.023
				c2.761,0,5,2.239,5,5s-2.239,5-5,5c-3.321,0-6.023,2.702-6.023,6.023C68.287,351.102,66.048,353.341,63.287,353.341z"/>
			<path style="fill:#FFE783;" d="M55.845,407.052c-2.761,0-5-2.239-5-5c0-3.321-2.702-6.023-6.024-6.023c-2.761,0-5-2.239-5-5
				s2.239-5,5-5c3.322,0,6.024-2.702,6.024-6.023c0-2.761,2.239-5,5-5s5,2.239,5,5c0,3.321,2.702,6.023,6.023,6.023
				c2.761,0,5,2.239,5,5s-2.239,5-5,5c-3.321,0-6.023,2.702-6.023,6.023C60.845,404.813,58.606,407.052,55.845,407.052z"/>
		</g>
	</g>
</g>
<g>
</g>
<g>
</g>
<g>
</g>
<g>
</g>
<g>
</g>
<g>
</g>
<g>
</g>
<g>
</g>
<g>
</g>
<g>
</g>
<g>
</g>
<g>
</g>
<g>
</g>
<g>
</g>
<g>
</g>
</svg>
