<?xml version="1.0" encoding="iso-8859-1"?>
<!-- Generator: Adobe Illustrator 23.0.3, SVG Export Plug-In . SVG Version: 6.00 Build 0)  -->
<svg version="1.1" id="Capa_1" xmlns="http://www.w3.org/2000/svg" xmlns:xlink="http://www.w3.org/1999/xlink" x="0px" y="0px"
	 viewBox="0 0 512 512" style="enable-background:new 0 0 512 512;" xml:space="preserve">
<g>
	<linearGradient id="SVGID_1_" gradientUnits="userSpaceOnUse" x1="225.8161" y1="253.5" x2="864.887" y2="253.5">
		<stop  offset="7.011211e-04" style="stop-color:#FFF0D5"/>
		<stop  offset="0.5112" style="stop-color:#FFDFFF"/>
		<stop  offset="1" style="stop-color:#D9CEFF"/>
	</linearGradient>
	<path style="fill:url(#SVGID_1_);" d="M505.626,289.417c-11.826-34.61-38.138-60.16-69.852-72.202
		c-16.43-6.239-27.346-21.856-27.587-39.429c-0.005-0.384-0.012-0.769-0.021-1.154c-1.507-64.582-55.488-116.33-120.077-115.221
		c-38.094,0.654-71.788,19.355-92.905,47.92c-18.185,24.599-46.49,39.965-77.08,39.949c-0.898,0-1.797,0.009-2.7,0.029
		C53.487,150.664,0.837,203.787,0.011,265.713c-0.879,65.932,52.303,119.654,118.032,119.654c50.947,0,94.349-32.277,110.886-77.497
		c4.327-11.832,17.152-18.174,29.283-14.772c0.151,0.042,0.303,0.085,0.455,0.126c11.099,3.064,18.458,13.64,17.55,25.119
		c-1.217,15.383,0.581,31.255,5.798,46.796c20.521,61.135,87.188,94.685,148.493,74.68
		C493.219,419.355,526.887,351.636,505.626,289.417z"/>
	<g>
		<path style="opacity:0.1;fill:#590BB2;" d="M323.161,163.044H188.839c-5.536,0-10.024-4.488-10.024-10.024V43.743
			c0-5.536,4.488-10.024,10.024-10.024h134.322c5.536,0,10.024,4.488,10.024,10.024V153.02
			C333.185,158.557,328.697,163.044,323.161,163.044z"/>
		<path style="opacity:0.1;fill:#590BB2;" d="M308.129,318.128H203.871c-5.536,0-10.024-4.488-10.024-10.024v-64.181
			c0-5.536,4.488-10.024,10.024-10.024h104.258c5.536,0,10.024,4.488,10.024,10.024v64.181
			C318.153,313.64,313.665,318.128,308.129,318.128z"/>
		<path style="opacity:0.1;fill:#590BB2;" d="M470.476,233.899h-47.129v-1.84c0-13.809-11.234-25.043-25.043-25.043H113.696
			c-13.809,0-25.043,11.234-25.043,25.043v1.84H41.524c-5.536,0-10.024,4.488-10.024,10.024v64.181
			c0,5.536,4.488,10.024,10.024,10.024h104.258c5.536,0,10.024-4.488,10.024-10.024v-64.181c0-5.536-4.488-10.024-10.024-10.024
			H98.653v-1.84c0-8.295,6.748-15.043,15.043-15.043h284.608c8.295,0,15.043,6.748,15.043,15.043v1.84h-47.129
			c-5.536,0-10.024,4.488-10.024,10.024v64.181c0,5.536,4.488,10.024,10.024,10.024h104.258c5.536,0,10.024-4.488,10.024-10.024
			v-64.181C480.5,238.387,476.012,233.899,470.476,233.899z"/>
		<g>
			<g>
				<g>
					<g>
						<g>
							<path style="fill:#F5F4F9;" d="M323.161,181.044H188.839c-5.536,0-10.024-4.488-10.024-10.024V61.743
								c0-5.536,4.488-10.024,10.024-10.024h134.322c5.536,0,10.024,4.488,10.024,10.024V171.02
								C333.185,176.557,328.697,181.044,323.161,181.044z"/>
							<path style="fill:#FFBE92;" d="M323.161,51.719H289v129.326h34.161c5.536,0,10.024-4.488,10.024-10.024V61.743
								C333.185,56.207,328.697,51.719,323.161,51.719z"/>
							<path style="fill:#C182F9;" d="M333.185,84.464V61.743c0-5.536-4.488-10.024-10.024-10.024H188.839
								c-5.536,0-10.024,4.488-10.024,10.024v22.721H333.185z"/>
						</g>
						<g>
							<g>
								<path style="fill:#FFBE92;" d="M268.858,148.64h-58.716c-2.768,0-5.011-2.244-5.011-5.011c0-2.767,2.243-5.011,5.011-5.011
									h58.716c2.768,0,5.011,2.244,5.011,5.011C273.868,146.397,271.625,148.64,268.858,148.64z"/>
							</g>
							<g>
								<path style="fill:#FFA052;" d="M241.794,127.836h-31.651c-2.768,0-5.011-2.244-5.011-5.011s2.243-5.011,5.011-5.011h31.651
									c2.768,0,5.011,2.244,5.011,5.011S244.561,127.836,241.794,127.836z"/>
							</g>
						</g>
					</g>
					<g>
						<g>
							<g>
								<g>
									<path style="fill:#F5F4F9;" d="M145.782,336.128H41.524c-5.536,0-10.024-4.488-10.024-10.024v-64.181
										c0-5.536,4.488-10.024,10.024-10.024h104.258c5.536,0,10.024,4.488,10.024,10.024v64.181
										C155.806,331.64,151.318,336.128,145.782,336.128z"/>
									<path style="fill:#F5F4F9;" d="M145.782,336.128H41.524c-5.536,0-10.024-4.488-10.024-10.024v-64.181
										c0-5.536,4.488-10.024,10.024-10.024h104.258c5.536,0,10.024,4.488,10.024,10.024v64.181
										C155.806,331.64,151.318,336.128,145.782,336.128z"/>
									<path style="fill:#FFE783;" d="M155.806,284.644v-22.721c0-5.536-4.488-10.024-10.024-10.024H41.524
										c-5.536,0-10.024,4.488-10.024,10.024v22.721H155.806z"/>
								</g>
							</g>
							<g>
								<path style="fill:#FDD250;" d="M124.479,313.542H62.827c-2.768,0-5.011-2.244-5.011-5.011s2.243-5.011,5.011-5.011h61.651
									c2.768,0,5.011,2.244,5.011,5.011S127.246,313.542,124.479,313.542z"/>
							</g>
						</g>
						<g>
							<g>
								<g>
									<path style="fill:#F5F4F9;" d="M308.129,336.128H203.871c-5.536,0-10.024-4.488-10.024-10.024v-64.181
										c0-5.536,4.488-10.024,10.024-10.024h104.258c5.536,0,10.024,4.488,10.024,10.024v64.181
										C318.153,331.64,313.665,336.128,308.129,336.128z"/>
									<path style="fill:#FFE783;" d="M318.153,284.644v-22.721c0-5.536-4.488-10.024-10.024-10.024H203.871
										c-5.536,0-10.024,4.488-10.024,10.024v22.721H318.153z"/>
								</g>
							</g>
							<g>
								<path style="fill:#FDD250;" d="M286.826,313.542h-61.651c-2.768,0-5.011-2.244-5.011-5.011s2.243-5.011,5.011-5.011h61.651
									c2.768,0,5.011,2.244,5.011,5.011S289.593,313.542,286.826,313.542z"/>
							</g>
						</g>
						<g>
							<g>
								<g>
									<path style="fill:#F5F4F9;" d="M470.476,336.128H366.218c-5.536,0-10.024-4.488-10.024-10.024v-64.181
										c0-5.536,4.488-10.024,10.024-10.024h104.258c5.536,0,10.024,4.488,10.024,10.024v64.181
										C480.5,331.64,476.012,336.128,470.476,336.128z"/>
									<path style="fill:#FFE783;" d="M480.5,284.644v-22.721c0-5.536-4.488-10.024-10.024-10.024H366.218
										c-5.536,0-10.024,4.488-10.024,10.024v22.721H480.5z"/>
								</g>
							</g>
							<g>
								<path style="fill:#FDD250;" d="M449.173,313.542h-61.651c-2.768,0-5.011-2.244-5.011-5.011s2.243-5.011,5.011-5.011h61.651
									c2.768,0,5.011,2.244,5.011,5.011S451.94,313.542,449.173,313.542z"/>
							</g>
						</g>
					</g>
					<g>
						<path style="opacity:0.1;fill:#590BB2;" d="M395.315,371.052h-47.129v-1.841c0-13.809-11.234-25.043-25.043-25.043H188.856
							c-13.809,0-25.043,11.234-25.043,25.043v1.841h-47.129c-5.536,0-10.024,4.488-10.024,10.024v64.181
							c0,5.536,4.488,10.024,10.024,10.024h104.258c5.536,0,10.024-4.488,10.024-10.024v-64.181c0-5.536-4.488-10.024-10.024-10.024
							h-47.129v-1.841c0-8.295,6.748-15.043,15.043-15.043h134.287c8.295,0,15.043,6.748,15.043,15.043v1.841h-47.129
							c-5.536,0-10.024,4.488-10.024,10.024v64.181c0,5.536,4.488,10.024,10.024,10.024h104.258c5.536,0,10.024-4.488,10.024-10.024
							v-64.181C405.339,375.54,400.851,371.052,395.315,371.052z"/>
						<g>
							<g>
								<g>
									<g>
										<path style="fill:#F5F4F9;" d="M220.942,473.281H116.685c-5.536,0-10.024-4.488-10.024-10.024v-64.181
											c0-5.536,4.488-10.024,10.024-10.024h104.258c5.536,0,10.024,4.488,10.024,10.024v64.181
											C230.967,468.793,226.479,473.281,220.942,473.281z"/>
										<path style="fill:#FFBE92;" d="M230.967,421.797v-22.721c0-5.536-4.488-10.024-10.024-10.024H116.685
											c-5.536,0-10.024,4.488-10.024,10.024v22.721H230.967z"/>
									</g>
								</g>
								<g>
									<path style="fill:#FFA052;" d="M199.639,450.695h-61.651c-2.768,0-5.011-2.244-5.011-5.011s2.243-5.011,5.011-5.011h61.651
										c2.768,0,5.011,2.244,5.011,5.011S202.407,450.695,199.639,450.695z"/>
								</g>
							</g>
							<g>
								<g>
									<g>
										<path style="fill:#F5F4F9;" d="M395.315,473.281H291.057c-5.536,0-10.024-4.488-10.024-10.024v-64.181
											c0-5.536,4.488-10.024,10.024-10.024h104.258c5.536,0,10.024,4.488,10.024,10.024v64.181
											C405.339,468.793,400.851,473.281,395.315,473.281z"/>
										<path style="fill:#FFBE92;" d="M405.339,421.797v-22.721c0-5.536-4.488-10.024-10.024-10.024H291.058
											c-5.536,0-10.024,4.488-10.024,10.024v22.721H405.339z"/>
									</g>
								</g>
								<g>
									<path style="fill:#FFA052;" d="M374.012,450.695h-61.651c-2.768,0-5.011-2.244-5.011-5.011s2.243-5.011,5.011-5.011h61.651
										c2.768,0,5.011,2.244,5.011,5.011S376.78,450.695,374.012,450.695z"/>
								</g>
							</g>
						</g>
						<path style="fill:#590BB2;" d="M470.476,246.899h-47.133c-0.087-13.735-11.284-24.883-25.039-24.883H261v-35.971h62.161
							c8.284,0,15.023-6.74,15.023-15.024v-58.957c0-2.761-2.238-5-5-5s-5,2.239-5,5v58.957c0,2.77-2.254,5.024-5.023,5.024H188.839
							c-2.77,0-5.024-2.254-5.024-5.024V89.464h149.37c2.762,0,5-2.239,5-5V61.743c0-8.284-6.739-15.024-15.023-15.024H188.839
							c-8.284,0-15.024,6.74-15.024,15.024V171.02c0,8.284,6.74,15.024,15.024,15.024H251v35.971H113.696
							c-13.755,0-24.952,11.148-25.039,24.883H41.524c-8.284,0-15.024,6.74-15.024,15.024v64.181c0,8.284,6.74,15.024,15.024,15.024
							h104.258c8.284,0,15.024-6.74,15.024-15.024v-64.181c0-8.284-6.74-15.024-15.024-15.024H98.661
							c0.087-8.221,6.794-14.883,15.035-14.883H251v14.883h-47.129c-8.284,0-15.024,6.74-15.024,15.024v64.181
							c0,8.284,6.74,15.024,15.024,15.024H251v18.041h-62.144c-13.755,0-24.952,11.148-25.039,24.883h-47.133
							c-8.284,0-15.024,6.74-15.024,15.024v64.181c0,8.284,6.74,15.024,15.024,15.024h104.258c8.284,0,15.024-6.74,15.024-15.024
							v-64.181c0-8.285-6.74-15.024-15.024-15.024h-47.121c0.087-8.221,6.794-14.883,15.035-14.883h134.287
							c8.241,0,14.948,6.662,15.035,14.883h-47.121c-8.284,0-15.024,6.74-15.024,15.024v64.181c0,8.284,6.74,15.024,15.024,15.024
							h104.258c8.284,0,15.023-6.74,15.023-15.024v-64.181c0-8.285-6.739-15.024-15.023-15.024h-47.133
							c-0.087-13.735-11.284-24.883-25.039-24.883H261v-18.041h47.129c8.284,0,15.024-6.74,15.024-15.024v-64.181
							c0-8.284-6.74-15.024-15.024-15.024H261v-14.883h137.304c8.241,0,14.948,6.662,15.035,14.883h-47.121
							c-8.284,0-15.023,6.74-15.023,15.024v64.181c0,8.284,6.739,15.024,15.023,15.024h104.258c8.284,0,15.024-6.74,15.024-15.024
							v-64.181C485.5,253.639,478.76,246.899,470.476,246.899z M183.815,61.743c0-2.77,2.254-5.024,5.024-5.024h134.322
							c2.77,0,5.023,2.254,5.023,5.024v17.721h-144.37V61.743z M145.782,331.128H41.524c-2.77,0-5.024-2.254-5.024-5.024v-36.46
							h114.306v36.46C150.806,328.874,148.552,331.128,145.782,331.128z M150.806,261.923v17.721H36.5v-17.721
							c0-2.77,2.254-5.024,5.024-5.024h104.258C148.552,256.899,150.806,259.153,150.806,261.923z M225.966,399.076v64.181
							c0,2.77-2.254,5.024-5.024,5.024H116.685c-2.77,0-5.024-2.254-5.024-5.024v-36.46h91.707c2.761,0,5-2.239,5-5s-2.239-5-5-5
							h-91.707v-17.721c0-2.771,2.254-5.024,5.024-5.024h104.258C223.712,394.052,225.966,396.306,225.966,399.076z
							 M395.315,468.281H291.058c-2.771,0-5.024-2.254-5.024-5.024v-36.46h114.306v36.46
							C400.339,466.027,398.085,468.281,395.315,468.281z M400.339,399.076v17.721H286.033v-17.721c0-2.771,2.254-5.024,5.024-5.024
							h104.258C398.085,394.052,400.339,396.306,400.339,399.076z M308.129,331.128H203.871c-2.77,0-5.024-2.254-5.024-5.024v-36.46
							h114.306v36.46C313.153,328.874,310.899,331.128,308.129,331.128z M313.153,261.923v17.721H198.847v-17.721
							c0-2.77,2.254-5.024,5.024-5.024h104.258C310.899,256.899,313.153,259.153,313.153,261.923z M366.218,256.899h104.258
							c2.771,0,5.024,2.254,5.024,5.024v17.721H361.194v-17.721C361.194,259.153,363.448,256.899,366.218,256.899z M470.476,331.128
							H366.218c-2.77,0-5.023-2.254-5.023-5.024v-36.46H475.5v36.46C475.5,328.874,473.246,331.128,470.476,331.128z"/>
					</g>
				</g>
				<path style="fill:#C182F9;" d="M129.489,134.151c-2.761,0-5-2.239-5-5c0-3.321-2.702-6.023-6.023-6.023c-2.761,0-5-2.239-5-5
					s2.239-5,5-5c3.321,0,6.023-2.702,6.023-6.024c0-2.761,2.239-5,5-5s5,2.239,5,5c0,3.322,2.702,6.024,6.023,6.024
					c2.761,0,5,2.239,5,5s-2.239,5-5,5c-3.321,0-6.023,2.702-6.023,6.023C134.489,131.912,132.25,134.151,129.489,134.151z"/>
				<path style="fill:#FFA052;" d="M445.999,399.502c-2.762,0-5-2.239-5-5c0-3.321-2.702-6.023-6.024-6.023c-2.762,0-5-2.239-5-5
					s2.238-5,5-5c3.322,0,6.024-2.702,6.024-6.024c0-2.761,2.238-5,5-5s5,2.239,5,5c0,3.322,2.702,6.024,6.023,6.024
					c2.762,0,5,2.239,5,5s-2.238,5-5,5c-3.321,0-6.023,2.702-6.023,6.023C450.999,397.263,448.761,399.502,445.999,399.502z"/>
				<path style="fill:#FFA052;" d="M371.487,202.744c-1.279,0-2.56-0.488-3.535-1.464l-11.023-11.023
					c-1.953-1.953-1.953-5.119,0-7.071l11.023-11.023c1.951-1.952,5.119-1.952,7.07,0l11.023,11.023
					c1.953,1.953,1.953,5.119,0,7.071l-11.023,11.023C374.047,202.255,372.767,202.744,371.487,202.744z M367.535,186.72
					l3.952,3.952l3.952-3.952l-3.952-3.952L367.535,186.72z"/>
				<path style="fill:#FFE783;" d="M68.84,437.821c-1.28,0-2.559-0.488-3.536-1.464l-11.024-11.023
					c-0.938-0.938-1.464-2.209-1.464-3.536s0.527-2.598,1.464-3.536l11.024-11.024c0.938-0.938,2.209-1.464,3.536-1.464l0,0
					c1.326,0,2.598,0.527,3.536,1.464l11.023,11.024c1.953,1.953,1.953,5.119,0,7.071l-11.023,11.023
					C71.399,437.332,70.12,437.821,68.84,437.821z M64.888,421.797l3.953,3.953l3.953-3.953l-3.953-3.953L64.888,421.797z"/>
			</g>
			<circle style="fill:#FFE783;" cx="289" cy="117.814" r="14.093"/>
		</g>
	</g>
</g>
<g>
</g>
<g>
</g>
<g>
</g>
<g>
</g>
<g>
</g>
<g>
</g>
<g>
</g>
<g>
</g>
<g>
</g>
<g>
</g>
<g>
</g>
<g>
</g>
<g>
</g>
<g>
</g>
<g>
</g>
</svg>
