<?xml version="1.0" encoding="iso-8859-1"?>
<!-- Generator: Adobe Illustrator 23.0.3, SVG Export Plug-In . SVG Version: 6.00 Build 0)  -->
<svg version="1.1" id="Capa_1" xmlns="http://www.w3.org/2000/svg" xmlns:xlink="http://www.w3.org/1999/xlink" x="0px" y="0px"
	 viewBox="0 0 512 512" style="enable-background:new 0 0 512 512;" xml:space="preserve">
<g>
	<linearGradient id="SVGID_1_" gradientUnits="userSpaceOnUse" x1="206.8671" y1="256.0023" x2="802.4096" y2="256.0023">
		<stop  offset="7.011211e-04" style="stop-color:#FFF0D5"/>
		<stop  offset="0.5112" style="stop-color:#FFDFFF"/>
		<stop  offset="1" style="stop-color:#D9CEFF"/>
	</linearGradient>
	<path style="fill:url(#SVGID_1_);" d="M382.606,174.018c-0.192-0.001-0.385-0.002-0.577-0.002
		c-32.034-0.05-62.385-13.844-83.44-37.986c-31.366-35.964-77.6-58.622-129.121-58.393C75.956,78.052-1.195,156.618,0.014,250.123
		c1.203,92.986,76.955,167.995,170.227,167.995c26.343,0,51.286-5.987,73.547-16.672c19.194-9.213,42.065-6.784,58.968,6.161
		c21.863,16.745,49.19,26.713,78.846,26.763c71.382,0.119,129.981-58.02,130.396-129.401
		C512.416,232.919,454.556,174.442,382.606,174.018z"/>
	<g>
		<path style="opacity:0.1;fill:#590BB2;" d="M451.458,251.869h-67.274V131.266c0-9.148-7.416-16.563-16.563-16.563H66.063
			c-9.148,0-16.563,7.416-16.563,16.563v215.913c0,9.148,7.416,16.563,16.563,16.563h292.641v52.654
			c0,6.098,4.944,11.042,11.042,11.042h81.711c6.098,0,11.042-4.944,11.042-11.042V262.912
			C462.5,256.813,457.556,251.869,451.458,251.869z"/>
		<g>
			<polygon style="fill:#AFABC6;" points="266.527,445.477 167.155,445.477 180.106,394.134 187.028,366.709 246.655,366.709 
				253.576,394.134 			"/>
			<polygon style="fill:#8E8CA8;" points="253.576,394.134 180.106,394.134 187.028,366.709 246.655,366.709 			"/>
			<g>
				<path style="fill:#F5F4F9;" d="M367.621,381.776H66.063c-9.148,0-16.563-7.416-16.563-16.563V149.3
					c0-9.148,7.416-16.563,16.563-16.563h301.557c9.148,0,16.563,7.416,16.563,16.563v215.913
					C384.184,374.361,376.768,381.776,367.621,381.776z"/>
				<path style="fill:#FFBE92;" d="M367.621,132.737h-79.405v249.039h79.405c9.147,0,16.563-7.416,16.563-16.563V149.3
					C384.184,140.153,376.768,132.737,367.621,132.737z"/>
				<path style="fill:#C182F9;" d="M384.184,174.942V149.3c0-9.148-7.416-16.563-16.563-16.563H66.063
					c-9.147,0-16.563,7.416-16.563,16.563v25.642H384.184z"/>
				<path style="fill:#CECAE0;" d="M49.5,337.628v27.585c0,9.148,7.416,16.563,16.563,16.563h301.558
					c9.147,0,16.563-7.416,16.563-16.563v-27.585H49.5z"/>
			</g>
		</g>
		<g>
			<path style="fill:#F5F4F9;" d="M451.458,445.472h-81.711c-6.098,0-11.042-4.944-11.042-11.042V280.946
				c0-6.098,4.944-11.042,11.042-11.042h81.711c6.098,0,11.042,4.944,11.042,11.042V434.43
				C462.5,440.529,457.556,445.472,451.458,445.472z"/>
			<path style="fill:#CECAE0;" d="M431.623,285.6l5.112-15.696h-52.266l5.112,15.696c0.74,2.273,2.859,3.811,5.25,3.811h31.542
				C428.764,289.411,430.883,287.873,431.623,285.6z"/>
		</g>
		<g>
			<circle style="fill:#FFA052;" cx="114.481" cy="233.397" r="32.362"/>
			<circle style="fill:#FFA052;" cx="114.481" cy="233.397" r="32.362"/>
			<path style="fill:#F5F4F9;" d="M121.563,233.397l5.724-5.724c1.956-1.956,1.956-5.127,0-7.083c-1.954-1.955-5.127-1.955-7.082,0
				l-5.724,5.724l-5.724-5.724c-1.954-1.955-5.127-1.955-7.082,0c-1.956,1.956-1.956,5.127,0,7.083l5.724,5.724l-5.724,5.724
				c-1.956,1.956-1.956,5.127,0,7.083c0.977,0.978,2.26,1.467,3.541,1.467c1.281,0,2.564-0.489,3.541-1.467l5.724-5.724l5.724,5.724
				c0.977,0.978,2.26,1.467,3.541,1.467s2.564-0.489,3.541-1.467c1.956-1.956,1.956-5.127,0-7.083L121.563,233.397z"/>
		</g>
		<g>
			<circle style="fill:#FFA052;" cx="410.602" cy="359.702" r="32.362"/>
			<circle style="fill:#FFA052;" cx="410.602" cy="359.702" r="32.362"/>
			<path style="fill:#F5F4F9;" d="M417.685,359.702l5.724-5.724c1.956-1.956,1.956-5.127,0-7.083c-1.954-1.955-5.127-1.955-7.082,0
				l-5.724,5.724l-5.724-5.724c-1.954-1.955-5.127-1.955-7.082,0c-1.956,1.956-1.956,5.127,0,7.083l5.724,5.724l-5.724,5.724
				c-1.956,1.956-1.956,5.127,0,7.083c0.977,0.978,2.26,1.467,3.541,1.467c1.281,0,2.564-0.489,3.541-1.467l5.724-5.724l5.724,5.724
				c0.977,0.978,2.26,1.467,3.541,1.467c1.281,0,2.564-0.489,3.541-1.467c1.956-1.956,1.956-5.127,0-7.083L417.685,359.702z"/>
		</g>
		<g>
			<path style="fill:#DDD9E4;" d="M223.87,291.915H87.128c-2.766,0-5.008-2.242-5.008-5.008c0-2.766,2.242-5.008,5.008-5.008H223.87
				c2.766,0,5.008,2.242,5.008,5.008C228.878,289.673,226.636,291.915,223.87,291.915z"/>
		</g>
		<g>
			<path style="fill:#DDD9E4;" d="M223.87,258.513h-46.595c-2.766,0-5.008-2.242-5.008-5.008s2.242-5.008,5.008-5.008h46.595
				c2.766,0,5.008,2.242,5.008,5.008S226.636,258.513,223.87,258.513z"/>
		</g>
		<g>
			<path style="fill:#DDD9E4;" d="M223.87,240.724h-46.595c-2.766,0-5.008-2.242-5.008-5.008c0-2.766,2.242-5.008,5.008-5.008
				h46.595c2.766,0,5.008,2.242,5.008,5.008C228.878,238.481,226.636,240.724,223.87,240.724z"/>
		</g>
		<g>
			<path style="fill:#DDD9E4;" d="M223.87,311.781H87.128c-2.766,0-5.008-2.242-5.008-5.008c0-2.766,2.242-5.008,5.008-5.008H223.87
				c2.766,0,5.008,2.242,5.008,5.008C228.878,309.539,226.636,311.781,223.87,311.781z"/>
		</g>
		<path style="fill:#FFE783;" d="M276.697,205.651h23.038c1.66,0,3.005,1.345,3.005,3.005v85.973c0,1.66-1.345,3.005-3.005,3.005
			h-23.038c-1.66,0-3.005-1.345-3.005-3.005v-85.973C273.692,206.996,275.037,205.651,276.697,205.651z"/>
		<g>
			<path style="fill:#590BB2;" d="M82.865,148.776c-2.762,0-5,2.239-5,5v0.127c0,2.761,2.238,5,5,5s5-2.239,5-5v-0.127
				C87.865,151.015,85.627,148.776,82.865,148.776z"/>
			<path style="fill:#590BB2;" d="M99.796,148.776c-2.762,0-5,2.239-5,5v0.127c0,2.761,2.238,5,5,5s5-2.239,5-5v-0.127
				C104.796,151.015,102.557,148.776,99.796,148.776z"/>
			<path style="fill:#590BB2;" d="M116.727,148.776c-2.762,0-5,2.239-5,5v0.127c0,2.761,2.238,5,5,5s5-2.239,5-5v-0.127
				C121.727,151.015,119.489,148.776,116.727,148.776z"/>
			<path style="fill:#590BB2;" d="M451.458,264.904h-62.274V149.301c0-11.89-9.673-21.563-21.563-21.563H66.063
				c-11.891,0-21.563,9.673-21.563,21.563v25.642c0,2.761,2.238,5,5,5h329.684v84.961h-9.437c-8.846,0-16.043,7.196-16.043,16.042
				v51.683H54.5V202.527c0-2.761-2.238-5-5-5s-5,2.239-5,5v162.686c0,11.89,9.673,21.563,21.563,21.563h110.744l-13.55,53.696
				h-12.944c-2.762,0-5,2.239-5,5s2.238,5,5,5H283.37c2.762,0,5-2.239,5-5s-2.238-5-5-5h-12.944l-13.549-53.696h101.828
				c2.762,0,5-2.239,5-5V280.946c0-3.332,2.711-6.042,6.043-6.042h11.093l3.988,12.247c1.417,4.343,5.437,7.261,10.004,7.261h31.543
				c4.568,0,8.589-2.919,10.003-7.263l3.988-12.245h11.093c3.332,0,6.042,2.71,6.042,6.042v153.485c0,3.332-2.71,6.042-6.042,6.042
				h-81.711c-3.332,0-6.043-2.71-6.043-6.042v-25.069c0-2.761-2.238-5-5-5s-5,2.239-5,5v25.069c0,8.846,7.197,16.042,16.043,16.042
				h81.711c8.846,0,16.042-7.196,16.042-16.042V280.946C467.5,272.1,460.304,264.904,451.458,264.904z M54.5,169.942v-20.642
				c0-6.376,5.188-11.563,11.563-11.563h301.558c6.376,0,11.563,5.188,11.563,11.563v20.642H54.5z M260.113,440.473H173.57
				l13.55-53.696h59.444L260.113,440.473z M66.063,376.777c-6.376,0-11.563-5.188-11.563-11.563v-22.585h299.204v34.148H66.063z
				 M426.869,284.052c-0.07,0.215-0.27,0.36-0.495,0.36h-31.543c-0.227,0-0.426-0.146-0.496-0.36l-2.979-9.148h38.493
				L426.869,284.052z"/>
			<path style="fill:#590BB2;" d="M320.893,262.883c0.977,0.977,2.257,1.465,3.536,1.465s2.56-0.488,3.535-1.464l5.844-5.843
				c0.938-0.938,1.465-2.209,1.465-3.536s-0.526-2.598-1.465-3.536l-5.844-5.843c-1.953-1.952-5.118-1.953-7.071,0
				c-1.952,1.953-1.952,5.118,0.001,7.071l2.308,2.308l-2.308,2.308C318.941,257.765,318.941,260.931,320.893,262.883z"/>
		</g>
		<path style="fill:#FFA052;" d="M426.773,238.397c-1.326,0-2.598-0.527-3.535-1.464l-11.019-11.018
			c-0.938-0.938-1.465-2.209-1.465-3.536s0.526-2.598,1.465-3.536l11.019-11.018c0.938-0.938,2.209-1.464,3.535-1.464l0,0
			c1.326,0,2.598,0.527,3.535,1.464l11.018,11.018c1.953,1.953,1.953,5.119,0,7.071l-11.018,11.018
			C429.371,237.87,428.099,238.397,426.773,238.397z M422.826,222.379l3.947,3.947l3.946-3.947l-3.946-3.947L422.826,222.379z"/>
		<path style="fill:#C182F9;" d="M286.098,93.563L286.098,93.563c-1.326,0-2.598-0.527-3.535-1.464l-11.018-11.018
			c-1.953-1.953-1.953-5.119,0-7.071l11.018-11.018c0.938-0.938,2.209-1.464,3.535-1.464s2.598,0.527,3.535,1.464l11.019,11.018
			c0.938,0.938,1.465,2.209,1.465,3.536s-0.526,2.598-1.465,3.536l-11.019,11.018C288.696,93.036,287.425,93.563,286.098,93.563z
			 M282.152,77.545l3.946,3.947l3.947-3.947l-3.947-3.947L282.152,77.545z"/>
		<path style="fill:#C182F9;" d="M71.536,435.984c-2.762,0-5-2.239-5-5c0-3.318-2.7-6.018-6.019-6.018c-2.762,0-5-2.239-5-5
			s2.238-5,5-5c3.318,0,6.019-2.7,6.019-6.018c0-2.761,2.238-5,5-5s5,2.239,5,5c0,3.318,2.699,6.018,6.018,6.018
			c2.762,0,5,2.239,5,5s-2.238,5-5,5c-3.318,0-6.018,2.7-6.018,6.018C76.536,433.745,74.298,435.984,71.536,435.984z"/>
		<path style="fill:#FFE783;" d="M421.62,169.794c-2.762,0-5-2.239-5-5c0-3.318-2.699-6.018-6.018-6.018c-2.762,0-5-2.239-5-5
			s2.238-5,5-5c3.318,0,6.018-2.7,6.018-6.018c0-2.761,2.238-5,5-5s5,2.239,5,5c0,3.318,2.7,6.018,6.019,6.018c2.762,0,5,2.239,5,5
			s-2.238,5-5,5c-3.318,0-6.019,2.7-6.019,6.018C426.62,167.555,424.382,169.794,421.62,169.794z"/>
	</g>
</g>
<g>
</g>
<g>
</g>
<g>
</g>
<g>
</g>
<g>
</g>
<g>
</g>
<g>
</g>
<g>
</g>
<g>
</g>
<g>
</g>
<g>
</g>
<g>
</g>
<g>
</g>
<g>
</g>
<g>
</g>
</svg>
