<?xml version="1.0" encoding="iso-8859-1"?>
<!-- Generator: Adobe Illustrator 23.0.3, SVG Export Plug-In . SVG Version: 6.00 Build 0)  -->
<svg version="1.1" id="Capa_1" xmlns="http://www.w3.org/2000/svg" xmlns:xlink="http://www.w3.org/1999/xlink" x="0px" y="0px"
	 viewBox="0 0 512 512" style="enable-background:new 0 0 512 512;" xml:space="preserve">
<g>
	<linearGradient id="SVGID_1_" gradientUnits="userSpaceOnUse" x1="215.7087" y1="253.5024" x2="852.3452" y2="253.5024">
		<stop  offset="7.011211e-04" style="stop-color:#FFF0D5"/>
		<stop  offset="0.5112" style="stop-color:#FFDFFF"/>
		<stop  offset="1" style="stop-color:#D9CEFF"/>
	</linearGradient>
	<path style="fill:url(#SVGID_1_);" d="M408.228,151.764c-23.697-9.236-43.717-26.089-55.961-48.381
		c-20.59-37.487-60.43-62.898-106.221-62.898c-47.53,0-88.646,27.377-108.477,67.219c-12.146,24.401-32.814,43.56-58.09,53.761
		C42.131,176.54,10.777,210.989,0.827,264.848c-1.092,5.91-1.108,11.986-0.016,17.896c15.448,83.572,82.399,120.435,143.334,110.66
		c34.126-5.474,68.672,5.909,93.967,29.462c51.434,47.892,133.884,62.907,213.923,11.57c9.377-6.014,21.957-18.634,27.966-28.015
		C548.967,298.751,497.879,186.706,408.228,151.764z"/>
	<g>
		<g>
			<path style="opacity:0.1;fill:#590BB2;" d="M395.103,31.502H175.28c-8.273,0-14.988,6.715-14.988,14.988v34.08h-41.904
				c-8.273,0-14.988,6.715-14.988,14.988v343.973c0,8.273,6.715,14.988,14.988,14.988h219.823c8.273,0,14.988-6.715,14.988-14.988
				v-34.08h41.904c8.273,0,14.988-6.715,14.988-14.988V46.49C410.091,38.217,403.377,31.502,395.103,31.502z"/>
			<g>
				<g>
					<path style="fill:#E2CCFF;" d="M353.2,116.542v343.97c0,8.28-6.72,14.99-14.99,14.99H118.39c-8.27,0-14.99-6.71-14.99-14.99
						v-343.97c0-8.27,6.72-14.99,14.99-14.99h219.82C346.48,101.552,353.2,108.272,353.2,116.542z"/>
					<path style="fill:#D6B0FF;" d="M191.24,378.292v72.472c0,4.15-3.37,7.51-7.52,7.51H103.4v-87.502h80.32
						C187.87,370.772,191.24,374.142,191.24,378.292z"/>
					<path style="fill:#D6B0FF;" d="M328.749,301.088v-123.9c0-1.656-1.342-2.998-2.998-2.998H130.849
						c-1.656,0-2.998,1.342-2.998,2.998v123.9c0,1.656,1.342,2.998,2.998,2.998h194.903
						C327.407,304.086,328.749,302.744,328.749,301.088z"/>
					<path style="fill:#D6B0FF;" d="M353.199,255.61v187.419H175.283c-8.273,0-14.988-6.715-14.988-14.988V255.61H353.199z"/>
					<path style="fill:#B557FF;" d="M353.202,149.684V116.54c0-8.278-6.71-14.988-14.988-14.988H118.391
						c-8.278,0-14.988,6.71-14.988,14.988v33.145H353.202z"/>
				</g>
				<g>
					<path style="fill:#AFABC6;" d="M410.091,67.473v343.973c0,8.273-6.715,14.988-14.988,14.988H175.28
						c-8.273,0-14.988-6.715-14.988-14.988V67.473c0-8.273,6.715-14.988,14.988-14.988h219.823
						C403.377,52.486,410.091,59.2,410.091,67.473z"/>
					<path style="fill:#DDD9E4;" d="M160.292,387.755v23.691c0,8.273,6.715,14.988,14.988,14.988h219.823
						c8.273,0,14.988-6.714,14.988-14.988v-23.691H160.292z"/>
					<path style="fill:#F5F4F9;" d="M214.831,52.486H175.28c-8.273,0-14.988,6.714-14.988,14.988v343.973
						c0,8.273,6.715,14.988,14.988,14.988h39.551V52.486z"/>
					<path style="fill:#FFA052;" d="M410.091,100.618V67.473c0-8.278-6.71-14.988-14.988-14.988H175.28
						c-8.278,0-14.988,6.71-14.988,14.988v33.145H410.091z"/>
				</g>
			</g>
			<path style="fill:#C182F9;" d="M67.887,138.129c-2.761,0-5-2.239-5-5c0-3.313-2.696-6.009-6.009-6.009c-2.761,0-5-2.239-5-5
				s2.239-5,5-5c3.313,0,6.009-2.695,6.009-6.009c0-2.761,2.239-5,5-5s5,2.239,5,5c0,3.313,2.695,6.009,6.009,6.009
				c2.761,0,5,2.239,5,5s-2.239,5-5,5c-3.313,0-6.009,2.696-6.009,6.009C72.887,135.891,70.648,138.129,67.887,138.129z"/>
		</g>
		<path style="fill:#FFA052;" d="M399.153,479.536c-1.28,0-2.559-0.488-3.536-1.464l-11.016-11.016
			c-1.953-1.953-1.953-5.119,0-7.071l11.016-11.016c1.953-1.952,5.118-1.952,7.071,0l11.016,11.016c1.953,1.953,1.953,5.119,0,7.071
			l-11.016,11.016C401.712,479.047,400.433,479.536,399.153,479.536z M395.209,463.52l3.944,3.944l3.944-3.944l-3.944-3.944
			L395.209,463.52z"/>
		<path style="fill:#FFE783;" d="M114.339,68.381c-2.761,0-5-2.239-5-5c0-3.317-2.699-6.016-6.016-6.016c-2.761,0-5-2.239-5-5
			s2.239-5,5-5c3.317,0,6.016-2.699,6.016-6.016c0-2.761,2.239-5,5-5s5,2.239,5,5c0,3.317,2.699,6.016,6.016,6.016
			c2.761,0,5,2.239,5,5s-2.239,5-5,5c-3.317,0-6.016,2.699-6.016,6.016C119.339,66.142,117.1,68.381,114.339,68.381z"/>
		<path style="fill:#C182F9;" d="M444.106,138.057c-2.761,0-5-2.239-5-5c0-3.317-2.699-6.016-6.016-6.016c-2.761,0-5-2.239-5-5
			s2.239-5,5-5c3.317,0,6.016-2.699,6.016-6.016c0-2.761,2.239-5,5-5s5,2.239,5,5c0,3.317,2.699,6.016,6.016,6.016
			c2.761,0,5,2.239,5,5s-2.239,5-5,5c-3.317,0-6.016,2.699-6.016,6.016C449.106,135.818,446.868,138.057,444.106,138.057z"/>
		<g>
			<g>
				<path style="fill:#E2CCFF;" d="M290.146,213.158h-15.731c-2.615,0-4.95,1.912-5.199,4.515c-0.285,2.986,2.055,5.499,4.984,5.499
					h15.946c2.765,0,5.007-2.242,5.007-5.007l0,0C295.153,215.4,292.912,213.158,290.146,213.158z"/>
				<path style="fill:#FFE783;" d="M350.57,213.158h-37.41c-2.765,0-5.007,2.242-5.007,5.007l0,0c0,2.765,2.242,5.007,5.007,5.007
					h37.625c2.928,0,5.269-2.513,4.984-5.499C355.521,215.07,353.185,213.158,350.57,213.158z"/>
			</g>
			<g>
				<path style="fill:#E2CCFF;" d="M326.146,234.123h-51.731c-2.615,0-4.95,1.912-5.199,4.515c-0.285,2.986,2.055,5.5,4.984,5.5
					h51.946c2.765,0,5.007-2.242,5.007-5.007v0C331.153,236.364,328.912,234.123,326.146,234.123z"/>
				<path style="fill:#FFE783;" d="M380.57,234.123h-31.41c-2.765,0-5.007,2.242-5.007,5.007v0c0,2.765,2.242,5.007,5.007,5.007
					h31.625c2.928,0,5.269-2.513,4.984-5.5C385.521,236.034,383.185,234.123,380.57,234.123z"/>
			</g>
			<g>
				<path style="fill:#E2CCFF;" d="M311.146,255.087h-36.731c-2.615,0-4.95,1.912-5.199,4.515c-0.285,2.986,2.055,5.5,4.984,5.5
					h36.946c2.765,0,5.007-2.242,5.007-5.007v0C316.153,257.328,313.912,255.087,311.146,255.087z"/>
				<path style="fill:#FFE783;" d="M350.57,255.087h-16.41c-2.765,0-5.007,2.242-5.007,5.007v0c0,2.765,2.242,5.007,5.007,5.007
					h16.625c2.928,0,5.269-2.513,4.984-5.5C355.521,256.998,353.185,255.087,350.57,255.087z"/>
			</g>
			<g>
				<path style="fill:#FFE783;" d="M380.571,276.051h-61.41c-2.765,0-5.007,2.242-5.007,5.007v0c0,2.765,2.242,5.007,5.007,5.007
					h61.625c2.928,0,5.269-2.513,4.984-5.499C385.521,277.963,383.186,276.051,380.571,276.051z"/>
				<path style="fill:#E2CCFF;" d="M296.146,276.051h-21.731c-2.615,0-4.95,1.912-5.199,4.515c-0.285,2.986,2.056,5.499,4.984,5.499
					h21.946c2.765,0,5.007-2.242,5.007-5.007v0C301.153,278.293,298.912,276.051,296.146,276.051z"/>
			</g>
		</g>
		<g>
			<g>
				<path style="fill:#F5F4F9;" d="M261.146,178.307h-16.731c-2.615,0-4.95,1.912-5.199,4.515c-0.285,2.986,2.055,5.499,4.984,5.499
					h16.946c2.765,0,5.007-2.242,5.007-5.007l0,0C266.153,180.549,263.912,178.307,261.146,178.307z"/>
				<path style="fill:#F5F4F9;" d="M350.571,178.307h-65.077c-2.765,0-5.007,2.242-5.007,5.007l0,0c0,2.765,2.242,5.007,5.007,5.007
					h65.292c2.928,0,5.269-2.513,4.984-5.499C355.521,180.219,353.186,178.307,350.571,178.307z"/>
			</g>
			<g>
				<path style="fill:#F5F4F9;" d="M261.146,313.872h-16.731c-2.615,0-4.95,1.912-5.199,4.515c-0.285,2.986,2.055,5.499,4.984,5.499
					h16.946c2.765,0,5.007-2.242,5.007-5.007l0,0C266.153,316.113,263.912,313.872,261.146,313.872z"/>
				<path style="fill:#F5F4F9;" d="M350.571,313.872h-65.077c-2.765,0-5.007,2.242-5.007,5.007l0,0c0,2.765,2.242,5.007,5.007,5.007
					h65.292c2.928,0,5.269-2.513,4.984-5.499C355.521,315.783,353.186,313.872,350.571,313.872z"/>
			</g>
		</g>
		<g>
			<path style="fill:#FFA052;" d="M183.721,445.082H75.405c-4.152,0-7.518-3.366-7.518-7.518v-70.507
				c0-4.152,3.366-7.518,7.518-7.518h108.316c4.152,0,7.518,3.366,7.518,7.518v70.507
				C191.24,441.716,187.874,445.082,183.721,445.082z"/>
			<g>
				<path style="fill:#590BB2;" d="M136.455,125.545v0.145c0,2.761,2.239,5,5,5s5-2.239,5-5v-0.145c0-2.761-2.239-5-5-5
					S136.455,122.784,136.455,125.545z"/>
				<path style="fill:#590BB2;" d="M198.344,71.479c-2.761,0-5,2.239-5,5v0.145c0,2.761,2.239,5,5,5s5-2.239,5-5v-0.145
					C203.344,73.718,201.105,71.479,198.344,71.479z"/>
				<path style="fill:#590BB2;" d="M217.653,71.479c-2.761,0-5,2.239-5,5v0.145c0,2.761,2.239,5,5,5s5-2.239,5-5v-0.145
					C222.653,73.718,220.414,71.479,217.653,71.479z"/>
				<path style="fill:#590BB2;" d="M236.962,71.479c-2.761,0-5,2.239-5,5v0.145c0,2.761,2.239,5,5,5s5-2.239,5-5v-0.145
					C241.962,73.718,239.724,71.479,236.962,71.479z"/>
				<path style="fill:#590BB2;" d="M395.103,47.486H175.281c-11.021,0-19.988,8.966-19.988,19.988v29.078h-36.901
					c-11.021,0-19.988,8.966-19.988,19.988v237.999H75.405c-6.902,0-12.518,5.616-12.518,12.518v70.507
					c0,6.903,5.616,12.519,12.518,12.519h22.998v10.427c0,11.021,8.966,19.988,19.988,19.988h219.823
					c11.021,0,19.988-8.966,19.988-19.988v-34.079c0-2.761-2.239-5-5-5c0,0-0.001,0-0.001,0s-0.001,0-0.001,0H196.24v-54.375
					c0-6.902-5.616-12.518-12.518-12.518h-18.429V149.685c0-2.761-2.239-5-5-5h-51.889V116.54c0-5.507,4.48-9.988,9.988-9.988
					h36.901v15.608c0,2.761,2.239,5,5,5s5-2.239,5-5v-16.542h239.799v305.825c0,5.507-4.48,9.988-9.988,9.988h-14.38
					c-2.761,0-5,2.239-5,5s2.239,5,5,5h14.38c11.021,0,19.988-8.966,19.988-19.988V67.474
					C415.091,56.452,406.125,47.486,395.103,47.486z M348.202,431.431v29.079c0,5.507-4.481,9.988-9.988,9.988H118.391
					c-5.507,0-9.988-4.48-9.988-9.988v-10.427h75.318c6.902,0,12.518-5.616,12.518-12.519v-6.133H348.202z M186.24,367.057v70.507
					c0,1.389-1.129,2.519-2.518,2.519H75.405c-1.389,0-2.518-1.13-2.518-2.519v-70.507c0-1.389,1.129-2.518,2.518-2.518h108.316
					C185.11,364.539,186.24,365.668,186.24,367.057z M155.292,154.685v199.854h-46.889V154.685H155.292z M165.292,95.618V67.474
					c0-5.507,4.48-9.988,9.988-9.988h219.822c5.508,0,9.988,4.48,9.988,9.988v28.145H165.292z"/>
				<path style="fill:#590BB2;" d="M195.534,183.169c0-2.761-2.239-5-5-5s-5,2.239-5,5v0.146c0,2.761,2.239,5,5,5s5-2.239,5-5
					V183.169z"/>
				<path style="fill:#590BB2;" d="M195.534,228.502c0-2.761-2.239-5-5-5s-5,2.239-5,5v0.145c0,2.761,2.239,5,5,5s5-2.239,5-5
					V228.502z"/>
				<path style="fill:#590BB2;" d="M195.534,273.836c0-2.761-2.239-5-5-5s-5,2.239-5,5v0.145c0,2.761,2.239,5,5,5s5-2.239,5-5
					V273.836z"/>
				<path style="fill:#590BB2;" d="M190.534,314.169c-2.761,0-5,2.239-5,5v0.146c0,2.761,2.239,5,5,5s5-2.239,5-5v-0.146
					C195.534,316.408,193.295,314.169,190.534,314.169z"/>
			</g>
			<g>
				<g>
					<g>
						<path style="fill:#F5F4F9;" d="M106.192,419.339c-1.279,0-2.559-0.488-3.534-1.464l-12.03-12.03
							c-1.952-1.952-1.952-5.117,0-7.068l12.03-12.03c1.95-1.951,5.117-1.951,7.067,0c1.952,1.952,1.952,5.117,0,7.068l-8.496,8.496
							l8.496,8.496c1.952,1.952,1.952,5.117,0,7.068C108.751,418.851,107.471,419.339,106.192,419.339z"/>
					</g>
					<g>
						<path style="fill:#F5F4F9;" d="M152.935,385.282c1.279,0,2.559,0.488,3.534,1.464l12.03,12.03
							c1.952,1.952,1.952,5.117,0,7.068l-12.03,12.03c-1.95,1.951-5.117,1.951-7.067,0c-1.952-1.952-1.952-5.117,0-7.068
							l8.496-8.496l-8.496-8.496c-1.952-1.952-1.952-5.117,0-7.068C150.376,385.77,151.656,385.282,152.935,385.282z"/>
					</g>
				</g>
				<g>
					<path style="fill:#F5F4F9;" d="M122.765,419.34c-0.833,0-1.676-0.208-2.452-0.647c-2.404-1.357-3.253-4.406-1.895-6.81
						l13.586-24.061c1.357-2.403,4.406-3.252,6.809-1.895c2.404,1.357,3.253,4.406,1.895,6.81l-13.586,24.061
						C126.203,418.425,124.51,419.34,122.765,419.34z"/>
				</g>
			</g>
		</g>
	</g>
</g>
<g>
</g>
<g>
</g>
<g>
</g>
<g>
</g>
<g>
</g>
<g>
</g>
<g>
</g>
<g>
</g>
<g>
</g>
<g>
</g>
<g>
</g>
<g>
</g>
<g>
</g>
<g>
</g>
<g>
</g>
</svg>
