<?xml version="1.0" encoding="iso-8859-1"?>
<!-- Generator: Adobe Illustrator 23.0.3, SVG Export Plug-In . SVG Version: 6.00 Build 0)  -->
<svg version="1.1" id="Capa_1" xmlns="http://www.w3.org/2000/svg" xmlns:xlink="http://www.w3.org/1999/xlink" x="0px" y="0px"
	 viewBox="0 0 512 512" style="enable-background:new 0 0 512 512;" xml:space="preserve">
<g>
	<g>
		<linearGradient id="SVGID_1_" gradientUnits="userSpaceOnUse" x1="175.9175" y1="283.6159" x2="833.6678" y2="283.6159">
			<stop  offset="7.011211e-04" style="stop-color:#FFF0D5"/>
			<stop  offset="0.5112" style="stop-color:#FFDFFF"/>
			<stop  offset="1" style="stop-color:#D9CEFF"/>
		</linearGradient>
		<path style="fill:url(#SVGID_1_);" d="M482.969,171.337c-34.945-35.948-89.48-40.907-129.831-14.878
			c-11.48,7.405-25.381,9.888-38.717,6.927c-31.565-7.009-64.584-2.222-92.707,13.042c-18.907,10.261-41.936,8.477-59.579-3.83
			c-11.712-8.169-25.312-14.023-40.257-16.777C66.44,145.604,12.541,182.374,1.884,237.728
			C-9.015,294.337,28.512,348.74,85.08,358.817c13.821,2.462,27.488,2.047,40.388-0.816c20.936-4.646,42.81,3.122,56.321,19.776
			c8.528,10.512,18.812,19.894,30.757,27.689c61.731,40.28,144.427,22.89,184.707-38.84c0.043-0.065,0.085-0.131,0.128-0.196
			c7.377-11.349,18.851-19.44,32.12-22.119c19.353-3.907,37.801-13.404,52.756-28.495
			C521.63,276.084,521.958,211.445,482.969,171.337z"/>
		<g>
			<path style="opacity:0.1;fill:#590BB2;" d="M481,329.616v-71.391c0-5.524-4.478-10.003-10.003-10.003h-49.013v-109.25
				c0-8.286-6.718-15.004-15.004-15.004h-273.17c-8.286,0-15.004,6.717-15.004,15.004v79.242H41.003
				c-5.524,0-10.003,4.478-10.003,10.003v101.399H481z"/>
			<g>
				<polygon style="fill:#AFABC6;" points="315.41,425.264 225.38,425.264 237.17,378.564 243.39,353.914 297.4,353.914 
					303.62,378.564 				"/>
				<polygon style="fill:#8E8CA8;" points="303.62,378.564 237.17,378.564 243.39,353.914 297.4,353.914 				"/>
				<g>
					<path style="fill:#F5F4F9;" d="M406.981,367.564h-273.17c-8.286,0-15.004-6.717-15.004-15.004V156.972
						c0-8.286,6.717-15.004,15.004-15.004h273.17c8.286,0,15.004,6.717,15.004,15.004V352.56
						C421.985,360.846,415.267,367.564,406.981,367.564z"/>
					<path style="fill:#FFBE92;" d="M380.896,255.494h-221c-1.657,0-3-1.343-3-3V180.2h227v72.295
						C383.896,254.151,382.553,255.494,380.896,255.494z"/>
					<g>
						<g>
							<path style="fill:#DDD9E4;" d="M291.65,278.89H185.13c-2.762,0-5-2.239-5-5s2.238-5,5-5h106.52c2.762,0,5,2.239,5,5
								S294.411,278.89,291.65,278.89z"/>
						</g>
						<g>
							<path style="fill:#DDD9E4;" d="M291.65,298.89H185.13c-2.762,0-5-2.239-5-5s2.238-5,5-5h106.52c2.762,0,5,2.239,5,5
								S294.411,298.89,291.65,298.89z"/>
						</g>
						<g>
							<path style="fill:#FFBE92;" d="M344.65,298.89h-16.52c-2.762,0-5-2.239-5-5s2.238-5,5-5h16.52c2.762,0,5,2.239,5,5
								S347.411,298.89,344.65,298.89z"/>
						</g>
					</g>
					<path style="fill:#C182F9;" d="M421.985,180.2v-23.228c0-8.286-6.718-15.004-15.004-15.004h-273.17
						c-8.286,0-15.004,6.717-15.004,15.004V180.2H421.985z"/>
					<path style="fill:#CECAE0;" d="M118.807,327.572v24.988c0,8.286,6.718,15.004,15.004,15.004h273.17
						c8.286,0,15.004-6.717,15.004-15.004v-24.988H118.807z"/>
				</g>
				<g>
					<path style="fill:#FFA052;" d="M470.997,425.264h-74.019c-5.524,0-10.003-4.478-10.003-10.003V276.225
						c0-5.524,4.478-10.003,10.003-10.003h74.019c5.524,0,10.003,4.478,10.003,10.003v139.036
						C481,420.785,476.522,425.264,470.997,425.264z"/>
					<path style="fill:#F5F4F9;" d="M386.976,363.283v51.978c0,5.524,4.478,10.003,10.002,10.003h74.019
						c5.524,0,10.003-4.478,10.003-10.003v-51.978H386.976z"/>
					<path style="fill:#CECAE0;" d="M453.03,280.441l4.631-14.219h-47.346l4.631,14.219c0.671,2.059,2.59,3.453,4.755,3.453h28.573
						C450.44,283.894,452.359,282.5,453.03,280.441z"/>
				</g>
				<g>
					<path style="fill:#F5F4F9;" d="M175.038,425.264H41.003c-5.524,0-10.003-4.478-10.003-10.003V246.217
						c0-5.524,4.478-10.003,10.003-10.003h134.035c5.524,0,10.003,4.478,10.003,10.003v169.044
						C185.04,420.785,180.562,425.264,175.038,425.264z"/>
					<path style="fill:#FDD250;" d="M185.04,268.89v-22.673c0-5.524-4.478-10.003-10.003-10.003H41.003
						c-5.524,0-10.003,4.478-10.003,10.003v22.673H185.04z"/>
				</g>
			</g>
			<g>
				<path style="fill:#FFBE92;" d="M88.52,405.116h-31c-1.657,0-3-1.343-3-3v-107.5c0-1.657,1.343-3,3-3h31c1.657,0,3,1.343,3,3
					v107.5C91.52,403.773,90.177,405.116,88.52,405.116z"/>
				<path style="fill:#FFBE92;" d="M158.52,328.616h-50c-1.657,0-3-1.343-3-3v-31c0-1.657,1.343-3,3-3h50c1.657,0,3,1.343,3,3v31
					C161.52,327.273,160.177,328.616,158.52,328.616z"/>
				<path style="fill:#FFBE92;" d="M158.52,405.116h-50c-1.657,0-3-1.343-3-3v-56.552c0-1.657,1.343-3,3-3h50c1.657,0,3,1.343,3,3
					v56.552C161.52,403.773,160.177,405.116,158.52,405.116z"/>
			</g>
			<g>
				<path style="fill:#590BB2;" d="M149.03,156.026c-2.762,0-5,2.239-5,5v0.115c0,2.761,2.238,5,5,5s5-2.239,5-5v-0.115
					C154.03,158.265,151.792,156.026,149.03,156.026z"/>
				<path style="fill:#590BB2;" d="M164.368,156.026c-2.762,0-5,2.239-5,5v0.115c0,2.761,2.238,5,5,5s5-2.239,5-5v-0.115
					C169.368,158.265,167.13,156.026,164.368,156.026z"/>
				<path style="fill:#590BB2;" d="M179.705,156.026c-2.762,0-5,2.239-5,5v0.115c0,2.761,2.238,5,5,5s5-2.239,5-5v-0.115
					C184.705,158.265,182.467,156.026,179.705,156.026z"/>
				<path style="fill:#590BB2;" d="M470.997,261.222h-44.013v-104.25c0-11.03-8.974-20.004-20.004-20.004h-273.17
					c-11.03,0-20.004,8.974-20.004,20.004v51.702c0,2.761,2.238,5,5,5s5-2.239,5-5V185.2h293.178v76.022h-20.006
					c-8.272,0-15.003,6.73-15.003,15.003v23.806c0,2.761,2.238,5,5,5s5-2.239,5-5v-23.806c0-2.759,2.244-5.003,5.003-5.003h9.707
					l3.506,10.768c1.346,4.129,5.167,6.904,9.51,6.904h28.573c4.343,0,8.164-2.774,9.51-6.904l3.506-10.767h9.707
					c2.759,0,5.003,2.244,5.003,5.003v139.036c0,2.758-2.244,5.002-5.003,5.002h-74.019c-2.759,0-5.003-2.244-5.003-5.002v-87.689
					c0-2.761-2.238-5-5-5H190.04v-76.355c0-8.272-6.73-15.002-15.003-15.002H41.003c-8.272,0-15.003,6.73-15.003,15.002v169.044
					c0,8.272,6.73,15.002,15.003,15.002h134.034c8.272,0,15.003-6.73,15.003-15.002v-42.697h43.486l-12.037,47.7H210.13
					c-2.762,0-5,2.239-5,5s2.238,5,5,5h120.531c2.762,0,5-2.239,5-5s-2.238-5-5-5h-11.359l-12.036-47.7h74.71v42.697
					c0,8.272,6.73,15.002,15.003,15.002h74.019c8.272,0,15.003-6.73,15.003-15.002V276.225
					C486,267.953,479.27,261.222,470.997,261.222z M123.807,175.2v-18.228c0-5.516,4.487-10.004,10.004-10.004h273.17
					c5.517,0,10.004,4.488,10.004,10.004V175.2H123.807z M448.274,278.894l-28.575,0l-2.498-7.671h33.572L448.274,278.894z
					 M41.003,241.214h134.034c2.759,0,5.003,2.244,5.003,5.002v17.673H36v-17.673C36,243.458,38.244,241.214,41.003,241.214z
					 M180.04,415.261c0,2.758-2.244,5.002-5.003,5.002H41.003c-2.759,0-5.003-2.244-5.003-5.002V273.89h144.04V415.261z
					 M308.989,420.264h-77.187l12.036-47.7h53.115L308.989,420.264z M190.04,362.564v-29.992h191.936v29.992H190.04z"/>
				<path style="fill:#590BB2;" d="M57.174,257.61c2.762,0,5-2.239,5-5v-0.115c0-2.761-2.238-5-5-5s-5,2.239-5,5v0.115
					C52.174,255.371,54.412,257.61,57.174,257.61z"/>
				<path style="fill:#590BB2;" d="M72.511,257.61c2.762,0,5-2.239,5-5v-0.115c0-2.761-2.238-5-5-5s-5,2.239-5,5v0.115
					C67.511,255.371,69.749,257.61,72.511,257.61z"/>
				<path style="fill:#590BB2;" d="M87.848,257.61c2.762,0,5-2.239,5-5v-0.115c0-2.761-2.238-5-5-5s-5,2.239-5,5v0.115
					C82.848,255.371,85.086,257.61,87.848,257.61z"/>
				<path style="fill:#590BB2;" d="M268.097,215.151l2.299-2.298l2.299,2.298c0.977,0.976,2.256,1.464,3.535,1.464
					s2.56-0.488,3.536-1.465c1.952-1.953,1.952-5.118-0.001-7.071l-5.834-5.833c-1.951-1.952-5.119-1.952-7.07,0l-5.834,5.833
					c-1.953,1.953-1.953,5.118-0.001,7.071C262.979,217.104,266.146,217.104,268.097,215.151z"/>
			</g>
			<path style="fill:#FFE783;" d="M424,401.949h-14c-1.657,0-3-1.343-3-3v-85.833c0-1.657,1.343-3,3-3h14c1.657,0,3,1.343,3,3
				v85.833C427,400.606,425.657,401.949,424,401.949z"/>
			<path style="fill:#FFE783;" d="M397.896,113.736c-2.762,0-5-2.239-5-5c0-3.309-2.691-6-6-6c-2.762,0-5-2.239-5-5s2.238-5,5-5
				c3.309,0,6-2.691,6-6c0-2.761,2.238-5,5-5s5,2.239,5,5c0,3.309,2.691,6,6,6c2.762,0,5,2.239,5,5s-2.238,5-5,5
				c-3.309,0-6,2.691-6,6C402.896,111.498,400.657,113.736,397.896,113.736z"/>
			<path style="fill:#C182F9;" d="M457.661,243.347c-2.762,0-5-2.239-5-5c0-3.309-2.692-6-6.001-6c-2.762,0-5-2.239-5-5s2.238-5,5-5
				c3.309,0,6.001-2.691,6.001-6c0-2.761,2.238-5,5-5s5,2.239,5,5c0,3.309,2.691,6,5.999,6c2.762,0,5,2.239,5,5s-2.238,5-5,5
				c-3.308,0-5.999,2.691-5.999,6C462.661,241.108,460.423,243.347,457.661,243.347z"/>
			<path style="fill:#FFA052;" d="M443.66,135.912c-1.279,0-2.56-0.488-3.535-1.464l-11-11c-1.953-1.953-1.953-5.119,0-7.071l11-11
				c1.951-1.952,5.119-1.952,7.07,0l11,11c1.953,1.953,1.953,5.119,0,7.071l-11,11C446.22,135.424,444.939,135.912,443.66,135.912z
				 M439.731,119.912l3.929,3.929l3.929-3.929l-3.929-3.929L439.731,119.912z"/>
			<path style="fill:#FFA052;" d="M73.021,208.336c-1.279,0-2.56-0.488-3.535-1.464l-11-11c-1.953-1.953-1.953-5.119,0-7.071l11-11
				c1.951-1.952,5.119-1.952,7.07,0l11,11c1.953,1.953,1.953,5.119,0,7.071l-11,11C75.58,207.848,74.3,208.336,73.021,208.336z
				 M69.092,192.336l3.929,3.929l3.929-3.929l-3.929-3.929L69.092,192.336z"/>
		</g>
	</g>
	<g>
		<circle style="fill:#FF8736;" cx="363.333" cy="236.197" r="5.59"/>
		<circle style="fill:#FF8736;" cx="363.333" cy="219.287" r="5.59"/>
		<circle style="fill:#FF8736;" cx="363.333" cy="202.377" r="5.59"/>
	</g>
</g>
<g>
</g>
<g>
</g>
<g>
</g>
<g>
</g>
<g>
</g>
<g>
</g>
<g>
</g>
<g>
</g>
<g>
</g>
<g>
</g>
<g>
</g>
<g>
</g>
<g>
</g>
<g>
</g>
<g>
</g>
</svg>
