<?xml version="1.0" encoding="iso-8859-1"?>
<!-- Generator: Adobe Illustrator 23.0.3, SVG Export Plug-In . SVG Version: 6.00 Build 0)  -->
<svg version="1.1" id="Capa_1" xmlns="http://www.w3.org/2000/svg" xmlns:xlink="http://www.w3.org/1999/xlink" x="0px" y="0px"
	 viewBox="0 0 512 512" style="enable-background:new 0 0 512 512;" xml:space="preserve">
<g>
	<linearGradient id="SVGID_1_" gradientUnits="userSpaceOnUse" x1="206.8671" y1="253.5024" x2="802.4096" y2="253.5024">
		<stop  offset="7.011211e-04" style="stop-color:#FFF0D5"/>
		<stop  offset="0.5112" style="stop-color:#FFDFFF"/>
		<stop  offset="1" style="stop-color:#D9CEFF"/>
	</linearGradient>
	<path style="fill:url(#SVGID_1_);" d="M382.606,171.518c-0.192-0.001-0.385-0.002-0.577-0.002
		c-32.034-0.05-62.385-13.844-83.44-37.986c-31.366-35.964-77.6-58.622-129.121-58.393C75.956,75.552-1.195,154.118,0.014,247.623
		c1.203,92.986,76.955,167.995,170.227,167.995c26.343,0,51.286-5.987,73.547-16.672c19.194-9.213,42.065-6.784,58.968,6.161
		c21.863,16.745,49.19,26.713,78.846,26.763c71.382,0.119,129.981-58.02,130.396-129.401
		C512.416,230.419,454.556,171.942,382.606,171.518z"/>
	<g>
		<path style="opacity:0.1;fill:#590BB2;" d="M391.046,31.369H171.092c-8.278,0-14.997,6.719-14.997,14.997v34.101h-41.929
			c-8.278,0-14.997,6.719-14.997,14.997v344.179c0,8.278,6.719,14.997,14.997,14.997h219.954c8.278,0,14.997-6.719,14.997-14.997
			v-34.101h41.929c8.278,0,14.997-6.719,14.997-14.997V46.366C406.043,38.088,399.325,31.369,391.046,31.369z"/>
		<g>
			<g>
				<path style="fill:#DDD9E4;" d="M349.118,116.46v344.179c0,8.278-6.719,14.997-14.997,14.997H114.166
					c-8.278,0-14.997-6.719-14.997-14.997V116.46c0-8.278,6.719-14.997,14.997-14.997h219.954
					C342.399,101.463,349.118,108.181,349.118,116.46z"/>
				<path style="fill:#D6B0FF;" d="M324.653,347.982V224.007c0-1.657-1.343-2.999-2.999-2.999h-195.02
					c-1.657,0-2.999,1.343-2.999,2.999v123.974c0,1.656,1.343,2.999,2.999,2.999h195.02
					C323.31,350.981,324.653,349.638,324.653,347.982z"/>
				<path style="fill:#CECAE0;" d="M349.118,255.611v187.531H171.094c-8.278,0-14.997-6.719-14.997-14.997V255.611H349.118z"/>
				<path style="fill:#B557FF;" d="M349.12,149.622v-33.165c0-8.283-6.714-14.997-14.997-14.997H114.169
					c-8.283,0-14.997,6.714-14.997,14.997v33.165H349.12z"/>
			</g>
			<g>
				<g>
					<g>
						<path style="fill:#F5F4F9;" d="M406.043,67.362v344.179c0,8.278-6.719,14.997-14.997,14.997H171.092
							c-8.278,0-14.997-6.719-14.997-14.997V67.362c0-8.278,6.719-14.997,14.997-14.997h219.954
							C399.325,52.365,406.043,59.084,406.043,67.362z"/>
						<path style="fill:#E8E6ED;" d="M156.095,224.007v187.533c0,8.278,6.719,14.997,14.997,14.997h219.954
							c8.278,0,14.997-6.719,14.997-14.997V224.007H156.095z"/>
						<path style="fill:#C182F9;" d="M406.043,100.526V67.362c0-8.283-6.714-14.997-14.997-14.997H171.092
							c-8.283,0-14.997,6.714-14.997,14.997v33.165H406.043z"/>
					</g>
					<g>
						<path style="fill:#590BB2;" d="M137.246,120.469c-2.761,0-5,2.239-5,5v0.146c0,2.761,2.239,5,5,5s5-2.239,5-5v-0.146
							C142.246,122.707,140.007,120.469,137.246,120.469z"/>
						<path style="fill:#590BB2;" d="M194.169,71.373c-2.761,0-5,2.239-5,5v0.146c0,2.761,2.239,5,5,5s5-2.239,5-5v-0.146
							C199.169,73.612,196.93,71.373,194.169,71.373z"/>
						<path style="fill:#590BB2;" d="M213.49,71.373c-2.761,0-5,2.239-5,5v0.146c0,2.761,2.239,5,5,5s5-2.239,5-5v-0.146
							C218.49,73.612,216.251,71.373,213.49,71.373z"/>
						<path style="fill:#590BB2;" d="M232.811,71.373c-2.761,0-5,2.239-5,5v0.146c0,2.761,2.239,5,5,5s5-2.239,5-5v-0.146
							C237.811,73.612,235.572,71.373,232.811,71.373z"/>
						<path style="fill:#590BB2;" d="M391.047,47.365H171.092c-11.026,0-19.997,8.97-19.997,19.997v29.099h-36.926
							c-11.026,0-19.997,8.97-19.997,19.997v344.176c0,11.026,8.971,19.997,19.997,19.997h144.394c2.761,0,5-2.239,5-5s-2.239-5-5-5
							H114.169c-5.512,0-9.997-4.484-9.997-9.997V154.622h51.923c2.761,0,5-2.239,5-5v-44.096h239.948v306.012
							c0,5.512-4.484,9.997-9.997,9.997H171.092c-5.512,0-9.997-4.484-9.997-9.997V177.157c0-2.761-2.239-5-5-5s-5,2.239-5,5
							v234.381c0,11.026,8.971,19.997,19.997,19.997H344.12v29.099c0,5.512-4.484,9.997-9.997,9.997h-48.026c-2.761,0-5,2.239-5,5
							s2.239,5,5,5h48.026c11.026,0,19.997-8.97,19.997-19.997v-29.099h36.927c11.026,0,19.997-8.97,19.997-19.997V67.362
							C411.043,56.335,402.073,47.365,391.047,47.365z M104.172,116.457c0-5.512,4.485-9.997,9.997-9.997h36.926v38.161h-46.923
							V116.457z M161.095,95.526V67.362c0-5.512,4.485-9.997,9.997-9.997h219.955c5.512,0,9.997,4.484,9.997,9.997v28.165H161.095z"
							/>
					</g>
				</g>
			</g>
		</g>
		<g>
			<path style="fill:#FDD250;" d="M256.028,245.844h-15.997c-1.657,0-2.999-1.343-2.999-2.999v-60.853
				c0-1.657,1.343-2.999,2.999-2.999h15.997c1.656,0,2.999,1.343,2.999,2.999v60.853
				C259.028,244.502,257.685,245.844,256.028,245.844z"/>
			<path style="fill:#FFE783;" d="M223.323,245.844h-15.997c-1.657,0-2.999-1.343-2.999-2.999v-37.649
				c0-1.657,1.343-2.999,2.999-2.999h15.997c1.657,0,2.999,1.343,2.999,2.999v37.649
				C226.322,244.502,224.979,245.844,223.323,245.844z"/>
			<path style="fill:#FFBE92;" d="M288.734,245.844h-15.997c-1.656,0-2.999-1.343-2.999-2.999v-78.324
				c0-1.657,1.343-2.999,2.999-2.999h15.997c1.656,0,2.999,1.343,2.999,2.999v78.324
				C291.734,244.502,290.391,245.844,288.734,245.844z"/>
			<path style="fill:#FFA052;" d="M321.44,245.844h-15.997c-1.656,0-2.999-1.343-2.999-2.999v-96.846
				c0-1.657,1.343-2.999,2.999-2.999h15.997c1.656,0,2.999,1.343,2.999,2.999v96.846C324.44,244.502,323.097,245.844,321.44,245.844
				z"/>
			<path style="fill:#FF8736;" d="M354.146,245.844h-15.997c-1.656,0-2.999-1.343-2.999-2.999V128.529
				c0-1.657,1.343-2.999,2.999-2.999h15.997c1.656,0,2.999,1.343,2.999,2.999v114.316
				C357.146,244.502,355.803,245.844,354.146,245.844z"/>
		</g>
		<path style="fill:#C182F9;" d="M376.716,306.606h-191.96c-1.657,0-2.999-1.343-2.999-2.999v-29.432
			c0-1.657,1.343-2.999,2.999-2.999h191.96c1.657,0,2.999,1.343,2.999,2.999v29.432
			C379.716,305.263,378.373,306.606,376.716,306.606z"/>
		<g>
			<g>
				<g>
					<g>
						<path style="fill:#CECAE0;" d="M233.349,362.7h-46.586c-2.766,0-5.007-2.242-5.007-5.007s2.241-5.007,5.007-5.007h46.586
							c2.766,0,5.007,2.242,5.007,5.007S236.115,362.7,233.349,362.7z"/>
					</g>
					<g>
						<path style="fill:#FFA052;" d="M233.349,335.917h-46.586c-2.766,0-5.007-2.242-5.007-5.007s2.241-5.007,5.007-5.007h46.586
							c2.766,0,5.007,2.242,5.007,5.007S236.115,335.917,233.349,335.917z"/>
					</g>
				</g>
				<g>
					<g>
						<path style="fill:#CECAE0;" d="M233.349,380.486h-46.586c-2.766,0-5.007-2.242-5.007-5.007s2.241-5.007,5.007-5.007h46.586
							c2.766,0,5.007,2.242,5.007,5.007S236.115,380.486,233.349,380.486z"/>
					</g>
				</g>
				<g>
					<g>
						<path style="fill:#CECAE0;" d="M233.349,398.271h-46.586c-2.766,0-5.007-2.242-5.007-5.007s2.241-5.007,5.007-5.007h46.586
							c2.766,0,5.007,2.242,5.007,5.007S236.115,398.271,233.349,398.271z"/>
					</g>
				</g>
			</g>
			<g>
				<g>
					<g>
						<path style="fill:#CECAE0;" d="M304.029,362.7h-46.586c-2.766,0-5.007-2.242-5.007-5.007s2.241-5.007,5.007-5.007h46.586
							c2.766,0,5.007,2.242,5.007,5.007S306.795,362.7,304.029,362.7z"/>
					</g>
					<g>
						<path style="fill:#FDD250;" d="M304.029,335.917h-46.586c-2.766,0-5.007-2.242-5.007-5.007s2.241-5.007,5.007-5.007h46.586
							c2.766,0,5.007,2.242,5.007,5.007S306.795,335.917,304.029,335.917z"/>
					</g>
				</g>
				<g>
					<g>
						<path style="fill:#CECAE0;" d="M304.029,380.486h-46.586c-2.766,0-5.007-2.242-5.007-5.007s2.241-5.007,5.007-5.007h46.586
							c2.766,0,5.007,2.242,5.007,5.007S306.795,380.486,304.029,380.486z"/>
					</g>
				</g>
				<g>
					<g>
						<path style="fill:#CECAE0;" d="M304.029,398.271h-46.586c-2.766,0-5.007-2.242-5.007-5.007s2.241-5.007,5.007-5.007h46.586
							c2.766,0,5.007,2.242,5.007,5.007S306.795,398.271,304.029,398.271z"/>
					</g>
				</g>
			</g>
			<g>
				<g>
					<g>
						<path style="fill:#CECAE0;" d="M374.708,362.7h-46.586c-2.766,0-5.007-2.242-5.007-5.007s2.241-5.007,5.007-5.007h46.586
							c2.766,0,5.007,2.242,5.007,5.007S377.474,362.7,374.708,362.7z"/>
					</g>
					<g>
						<path style="fill:#C182F9;" d="M374.708,335.917h-46.586c-2.766,0-5.007-2.242-5.007-5.007s2.241-5.007,5.007-5.007h46.586
							c2.766,0,5.007,2.242,5.007,5.007S377.474,335.917,374.708,335.917z"/>
					</g>
				</g>
				<g>
					<g>
						<path style="fill:#CECAE0;" d="M374.708,380.486h-46.586c-2.766,0-5.007-2.242-5.007-5.007s2.241-5.007,5.007-5.007h46.586
							c2.766,0,5.007,2.242,5.007,5.007S377.474,380.486,374.708,380.486z"/>
					</g>
				</g>
				<g>
					<g>
						<path style="fill:#CECAE0;" d="M374.708,398.271h-46.586c-2.766,0-5.007-2.242-5.007-5.007s2.241-5.007,5.007-5.007h46.586
							c2.766,0,5.007,2.242,5.007,5.007S377.474,398.271,374.708,398.271z"/>
					</g>
				</g>
			</g>
		</g>
		<path style="fill:#FFA052;" d="M231.935,137.195c0-9.159-7.452-16.611-16.611-16.611s-16.611,7.452-16.611,16.611
			c0,4.517,1.818,8.613,4.753,11.611c-2.936,2.997-4.753,7.094-4.753,11.611c0,2.761,2.239,5,5,5s5-2.239,5-5
			c0-3.645,2.966-6.611,6.611-6.611s6.611,2.966,6.611,6.611c0,2.761,2.239,5,5,5s5-2.239,5-5c0-4.517-1.818-8.613-4.753-11.611
			C230.117,145.808,231.935,141.712,231.935,137.195z M215.324,130.584c3.645,0,6.611,2.966,6.611,6.611s-2.966,6.611-6.611,6.611
			s-6.611-2.966-6.611-6.611S211.679,130.584,215.324,130.584z"/>
		<path style="fill:#FFE783;" d="M449.984,170.626c-1.28,0-2.559-0.488-3.536-1.464l-11.016-11.016
			c-1.953-1.953-1.953-5.119,0-7.071l11.016-11.016c1.953-1.952,5.118-1.952,7.071,0l11.016,11.016c1.953,1.953,1.953,5.119,0,7.071
			l-11.016,11.016C452.543,170.138,451.264,170.626,449.984,170.626z M446.04,154.611l3.944,3.944l3.944-3.944l-3.944-3.944
			L446.04,154.611z"/>
		<path style="fill:#FFA052;" d="M62.015,331.263c-1.28,0-2.559-0.488-3.536-1.464l-11.016-11.016c-1.953-1.953-1.953-5.119,0-7.071
			l11.016-11.016c1.953-1.952,5.118-1.952,7.071,0l11.016,11.016c1.953,1.953,1.953,5.119,0,7.071l-11.016,11.016
			C64.575,330.775,63.295,331.263,62.015,331.263z M58.071,315.247l3.944,3.944l3.944-3.944l-3.944-3.944L58.071,315.247z"/>
		<path style="fill:#C182F9;" d="M438.969,245.32c-2.761,0-5-2.239-5-5c0-3.317-2.699-6.016-6.016-6.016c-2.761,0-5-2.239-5-5
			s2.239-5,5-5c3.317,0,6.016-2.699,6.016-6.016c0-2.761,2.239-5,5-5s5,2.239,5,5c0,3.317,2.699,6.016,6.016,6.016
			c2.761,0,5,2.239,5,5s-2.239,5-5,5c-3.317,0-6.016,2.699-6.016,6.016C443.969,243.081,441.73,245.32,438.969,245.32z"/>
		<path style="fill:#C182F9;" d="M123.634,78.057c-2.761,0-5-2.239-5-5c0-3.317-2.699-6.016-6.016-6.016c-2.761,0-5-2.239-5-5
			c0-2.761,2.239-5,5-5c3.317,0,6.016-2.699,6.016-6.016c0-2.761,2.239-5,5-5s5,2.239,5,5c0,3.317,2.699,6.016,6.016,6.016
			c2.761,0,5,2.239,5,5c0,2.761-2.239,5-5,5c-3.317,0-6.016,2.699-6.016,6.016C128.634,75.818,126.395,78.057,123.634,78.057z"/>
	</g>
</g>
<g>
</g>
<g>
</g>
<g>
</g>
<g>
</g>
<g>
</g>
<g>
</g>
<g>
</g>
<g>
</g>
<g>
</g>
<g>
</g>
<g>
</g>
<g>
</g>
<g>
</g>
<g>
</g>
<g>
</g>
</svg>
