<?xml version="1.0" encoding="iso-8859-1"?>
<!-- Generator: Adobe Illustrator 23.0.3, SVG Export Plug-In . SVG Version: 6.00 Build 0)  -->
<svg version="1.1" id="Capa_1" xmlns="http://www.w3.org/2000/svg" xmlns:xlink="http://www.w3.org/1999/xlink" x="0px" y="0px"
	 viewBox="0 0 512 512" style="enable-background:new 0 0 512 512;" xml:space="preserve">
<g>
	<linearGradient id="SVGID_1_" gradientUnits="userSpaceOnUse" x1="215.7087" y1="256" x2="852.3452" y2="256">
		<stop  offset="7.011211e-04" style="stop-color:#FFF0D5"/>
		<stop  offset="0.5112" style="stop-color:#FFDFFF"/>
		<stop  offset="1" style="stop-color:#D9CEFF"/>
	</linearGradient>
	<path style="fill:url(#SVGID_1_);" d="M408.228,154.262c-23.697-9.236-43.717-26.089-55.961-48.381
		c-20.59-37.487-60.43-62.898-106.221-62.898c-47.53,0-88.646,27.377-108.477,67.219c-12.146,24.401-32.814,43.56-58.09,53.761
		c-37.349,15.074-68.703,49.524-78.653,103.382c-1.092,5.91-1.108,11.986-0.016,17.896c15.448,83.572,82.399,120.435,143.334,110.66
		c34.126-5.474,68.672,5.909,93.967,29.462c51.434,47.892,133.884,62.907,213.923,11.57c9.377-6.014,21.957-18.634,27.966-28.015
		C548.967,301.248,497.879,189.204,408.228,154.262z"/>
	<g>
		<path style="fill:#FFA052;" d="M120.518,94.228c-1.28,0-2.559-0.488-3.536-1.464l-11.018-11.018c-1.953-1.953-1.953-5.119,0-7.071
			l11.018-11.018c1.953-1.952,5.118-1.952,7.071,0l11.018,11.018c1.953,1.953,1.953,5.119,0,7.071l-11.018,11.018
			C123.077,93.74,121.798,94.228,120.518,94.228z M116.571,78.21l3.947,3.947l3.947-3.947l-3.947-3.947L116.571,78.21z"/>
		<path style="fill:#C182F9;" d="M392.986,113.034L392.986,113.034c-1.326,0-2.598-0.527-3.535-1.464l-11.018-11.018
			c-1.953-1.953-1.953-5.119,0-7.071l11.018-11.018c0.938-0.938,2.209-1.464,3.535-1.464s2.598,0.527,3.535,1.464L407.54,93.48
			c0.938,0.938,1.465,2.209,1.465,3.536s-0.526,2.598-1.465,3.536l-11.019,11.018C395.584,112.507,394.313,113.034,392.986,113.034z
			 M389.04,97.016l3.946,3.947l3.947-3.947l-3.947-3.947L389.04,97.016z"/>
		<path style="fill:#FFE783;" d="M105.709,440.808c-2.761,0-5-2.239-5-5c0-3.318-2.7-6.018-6.018-6.018c-2.761,0-5-2.239-5-5
			s2.239-5,5-5c3.318,0,6.018-2.7,6.018-6.018c0-2.761,2.239-5,5-5s5,2.239,5,5c0,3.318,2.7,6.018,6.018,6.018c2.761,0,5,2.239,5,5
			s-2.239,5-5,5c-3.318,0-6.018,2.7-6.018,6.018C110.709,438.569,108.471,440.808,105.709,440.808z"/>
		<path style="fill:#FFE783;" d="M427.815,151.188c-2.762,0-5-2.239-5-5c0-3.318-2.699-6.018-6.018-6.018c-2.762,0-5-2.239-5-5
			s2.238-5,5-5c3.318,0,6.018-2.7,6.018-6.018c0-2.761,2.238-5,5-5s5,2.239,5,5c0,3.318,2.699,6.018,6.018,6.018
			c2.762,0,5,2.239,5,5s-2.238,5-5,5c-3.318,0-6.018,2.7-6.018,6.018C432.815,148.95,430.577,151.188,427.815,151.188z"/>
		<g>
			<g>
				<path style="opacity:0.1;fill:#590BB2;" d="M451.458,251.2h-67.274V130.597c0-9.148-7.416-16.563-16.563-16.563H66.063
					c-9.148,0-16.563,7.416-16.563,16.563V346.51c0,9.148,7.416,16.563,16.563,16.563h292.641v52.654
					c0,6.098,4.944,11.042,11.042,11.042h81.711c6.098,0,11.042-4.944,11.042-11.042V262.242
					C462.5,256.144,457.556,251.2,451.458,251.2z"/>
				<g>
					<polygon style="fill:#AFABC6;" points="266.527,444.808 167.155,444.808 180.107,393.464 187.028,366.04 246.655,366.04 
						253.576,393.464 					"/>
					<polygon style="fill:#8E8CA8;" points="253.576,393.464 180.107,393.464 187.028,366.04 246.655,366.04 					"/>
					<g>
						<path style="fill:#F5F4F9;" d="M367.621,381.107H66.063c-9.148,0-16.563-7.416-16.563-16.563V148.631
							c0-9.148,7.416-16.563,16.563-16.563h301.558c9.148,0,16.563,7.416,16.563,16.563v215.913
							C384.184,373.692,376.768,381.107,367.621,381.107z"/>
						<path style="fill:#E8E6ED;" d="M403.08,320.281H297.71c-4.154,0-7.522-3.368-7.522-7.522v-64.542
							c0-4.154,3.368-7.522,7.522-7.522h105.37c4.154,0,7.522,3.368,7.522,7.522v64.542
							C410.602,316.914,407.235,320.281,403.08,320.281z"/>
						<path style="fill:#FFE783;" d="M384.184,242.221v-93.59c0-9.148-7.416-16.563-16.563-16.563H66.063
							c-9.148,0-16.563,7.416-16.563,16.563v93.59H384.184z"/>
						<path style="fill:#FDD250;" d="M367.621,132.068H255.667v110.153h128.517v-93.59
							C384.184,139.483,376.768,132.068,367.621,132.068z"/>
						<path style="fill:#FFC136;" d="M367.621,132.068H339v110.153h45.184v-93.59C384.184,139.483,376.768,132.068,367.621,132.068z
							"/>
						<path style="fill:#FFA052;" d="M384.184,174.273v-25.642c0-9.148-7.416-16.563-16.563-16.563H66.063
							c-9.147,0-16.563,7.416-16.563,16.563v25.642H384.184z"/>
						<path style="fill:#CECAE0;" d="M49.5,336.959v27.585c0,9.147,7.416,16.563,16.563,16.563h301.558
							c9.147,0,16.563-7.416,16.563-16.563v-27.585H49.5z"/>
					</g>
				</g>
				<g>
					<path style="fill:#F5F4F9;" d="M451.458,444.803h-81.711c-6.098,0-11.042-4.944-11.042-11.042V280.276
						c0-6.098,4.944-11.042,11.042-11.042h81.711c6.098,0,11.042,4.944,11.042,11.042v153.485
						C462.5,439.859,457.556,444.803,451.458,444.803z"/>
					<path style="fill:#FFE783;" d="M462.5,280.273v72.76H358.7v-72.76c0-6.09,4.95-11.04,11.05-11.04h81.71
						C457.56,269.233,462.5,274.183,462.5,280.273z"/>
					<path style="fill:#FDD250;" d="M410.6,269.233v43.53c0,4.15-3.37,7.52-7.52,7.52H358.7v-40.01c0-6.09,4.95-11.04,11.05-11.04
						H410.6z"/>
					<path style="fill:#CECAE0;" d="M431.623,284.931l5.112-15.696H384.47l5.112,15.696c0.74,2.273,2.859,3.811,5.25,3.811h31.542
						C428.764,288.742,430.883,287.204,431.623,284.931z"/>
				</g>
			</g>
			<g>
				<g>
					<path style="fill:#FFA052;" d="M403.08,308.236H297.71c-4.154,0-7.522-3.368-7.522-7.522v-79.542
						c0-4.154,3.368-7.522,7.522-7.522h105.37c4.154,0,7.522,3.368,7.522,7.522v79.542
						C410.602,304.868,407.235,308.236,403.08,308.236z"/>
					<g>
						<path style="fill:#590BB2;" d="M82.865,158.234c2.761,0,5-2.239,5-5v-0.127c0-2.761-2.239-5-5-5s-5,2.239-5,5v0.127
							C77.865,155.995,80.104,158.234,82.865,158.234z"/>
						<path style="fill:#590BB2;" d="M99.796,158.234c2.761,0,5-2.239,5-5v-0.127c0-2.761-2.239-5-5-5s-5,2.239-5,5v0.127
							C94.796,155.995,97.035,158.234,99.796,158.234z"/>
						<path style="fill:#590BB2;" d="M116.727,158.234c2.761,0,5-2.239,5-5v-0.127c0-2.761-2.239-5-5-5s-5,2.239-5,5v0.127
							C111.727,155.995,113.966,158.234,116.727,158.234z"/>
						<path style="fill:#590BB2;" d="M462.5,374.896c2.762,0,5-2.239,5-5v-89.62c0-8.846-7.196-16.042-16.042-16.042h-35.855
							v-43.063c0-6.905-5.617-12.522-12.522-12.522h-13.896v-60.019c0-11.89-9.673-21.563-21.563-21.563H66.063
							c-11.89,0-21.563,9.673-21.563,21.563v215.913c0,11.89,9.673,21.563,21.563,21.563h110.744l-13.549,53.696h-12.944
							c-2.761,0-5,2.239-5,5s2.239,5,5,5H283.37c2.762,0,5-2.239,5-5s-2.238-5-5-5h-12.944l-13.549-53.696h96.828v47.654
							c0,8.846,7.196,16.042,16.042,16.042h81.711c8.846,0,16.042-7.196,16.042-16.042v-36.325c0-2.761-2.238-5-5-5s-5,2.239-5,5
							v36.325c0,3.332-2.71,6.042-6.042,6.042h-81.711c-3.332,0-6.042-2.71-6.042-6.042V313.235h39.375
							c6.905,0,12.522-5.617,12.522-12.522v-6.971h10.771c4.568,0,8.589-2.919,10.003-7.263l3.988-12.245h11.093
							c3.332,0,6.042,2.71,6.042,6.042v89.62C457.5,372.657,459.738,374.896,462.5,374.896z M66.063,137.068h301.558
							c6.376,0,11.563,5.187,11.563,11.563v20.642H54.5v-20.642C54.5,142.255,59.687,137.068,66.063,137.068z M260.113,439.803
							h-86.542l13.549-53.696h59.443L260.113,439.803z M66.063,376.107c-6.376,0-11.563-5.187-11.563-11.563v-22.585h299.205v34.148
							H66.063z M405.603,300.713c0,1.391-1.132,2.522-2.522,2.522H297.71c-1.391,0-2.521-1.131-2.521-2.522v-79.542
							c0-1.391,1.131-2.522,2.521-2.522h58.934c2.762,0,5-2.239,5-5s-2.238-5-5-5H297.71c-6.904,0-12.521,5.617-12.521,12.522
							v79.542c0,6.905,5.617,12.522,12.521,12.522h55.995v18.724H54.5V179.272h324.684v34.377c0,2.761,2.238,5,5,5h18.896
							c1.391,0,2.522,1.131,2.522,2.522V300.713z M426.869,283.382c-0.07,0.215-0.27,0.36-0.495,0.36h-10.771v-9.508h14.246
							L426.869,283.382z"/>
					</g>
				</g>
				<g>
					<path style="fill:#F5F4F9;" d="M316.049,246.206h55.406c1.228,0,2.226,0.998,2.226,2.225v2.346
						c-1.606-0.348-3.349,0.093-4.598,1.341c-1.952,1.953-1.952,5.118,0.001,7.071l6.062,6.061c0.938,0.938,2.209,1.464,3.535,1.464
						s2.598-0.527,3.536-1.465l6.061-6.061c1.952-1.953,1.952-5.118-0.001-7.071c-1.248-1.248-2.99-1.689-4.596-1.341v-2.345
						c0-6.741-5.484-12.225-12.226-12.225h-55.406c-2.762,0-5,2.239-5,5S313.287,246.206,316.049,246.206z"/>
					<path style="fill:#F5F4F9;" d="M384.741,275.679h-55.406c-1.227,0-2.225-0.998-2.225-2.225v-2.345
						c0.35,0.076,0.704,0.123,1.061,0.123c1.279,0,2.56-0.488,3.535-1.464c1.953-1.953,1.953-5.118,0.001-7.071l-6.061-6.061
						c-0.938-0.938-2.21-1.465-3.536-1.465s-2.598,0.527-3.535,1.464l-6.062,6.061c-1.953,1.953-1.953,5.118-0.001,7.071
						c1.249,1.249,2.992,1.69,4.598,1.342v2.345c0,6.741,5.484,12.225,12.225,12.225h55.406c2.762,0,5-2.239,5-5
						S387.503,275.679,384.741,275.679z"/>
				</g>
			</g>
			<g>
				<g>
					<path style="fill:#DDD9E4;" d="M223.87,291.246H87.128c-2.766,0-5.008-2.242-5.008-5.008s2.242-5.008,5.008-5.008H223.87
						c2.766,0,5.008,2.242,5.008,5.008S226.636,291.246,223.87,291.246z"/>
				</g>
				<path style="fill:#DDD9E4;" d="M223.87,311.112H87.128c-2.766,0-5.008-2.242-5.008-5.008s2.242-5.008,5.008-5.008H223.87
					c2.766,0,5.008,2.242,5.008,5.008S226.636,311.112,223.87,311.112z"/>
			</g>
			<g>
				<path style="fill:#DDD9E4;" d="M433.825,400.499h-46.446c-2.766,0-5.008-2.242-5.008-5.008c0-2.766,2.242-5.008,5.008-5.008
					h46.446c2.766,0,5.008,2.242,5.008,5.008C438.833,398.257,436.591,400.499,433.825,400.499z"/>
			</g>
			<path style="fill:#DDD9E4;" d="M433.825,420.365h-46.446c-2.766,0-5.008-2.242-5.008-5.008s2.242-5.008,5.008-5.008h46.446
				c2.766,0,5.008,2.242,5.008,5.008S436.591,420.365,433.825,420.365z"/>
			<path style="fill:#FFA052;" d="M117.821,242.221c4.699-3.935,7.697-9.838,7.697-16.432c0-11.817-9.614-21.432-21.432-21.432
				s-21.432,9.614-21.432,21.432c0,6.594,2.998,12.498,7.697,16.432c-4.699,3.935-7.697,9.838-7.697,16.432c0,2.761,2.239,5,5,5
				s5-2.239,5-5c0-6.304,5.128-11.432,11.432-11.432s11.432,5.128,11.432,11.432c0,2.761,2.239,5,5,5s5-2.239,5-5
				C125.518,252.059,122.52,246.156,117.821,242.221z M92.654,225.789c0-6.303,5.128-11.432,11.432-11.432
				s11.432,5.128,11.432,11.432c0,6.304-5.128,11.432-11.432,11.432S92.654,232.093,92.654,225.789z"/>
			<path style="fill:#FFA052;" d="M427.213,340.509c0-9.161-7.453-16.613-16.613-16.613s-16.613,7.453-16.613,16.613
				c0,4.518,1.818,8.615,4.755,11.613c-2.936,2.998-4.755,7.095-4.755,11.613c0,2.761,2.238,5,5,5s5-2.239,5-5
				c0-3.646,2.967-6.613,6.613-6.613s6.613,2.967,6.613,6.613c0,2.761,2.238,5,5,5s5-2.239,5-5c0-4.518-1.818-8.615-4.755-11.613
				C425.395,349.125,427.213,345.027,427.213,340.509z M410.6,333.896c3.646,0,6.613,2.967,6.613,6.613s-2.967,6.613-6.613,6.613
				s-6.613-2.967-6.613-6.613S406.953,333.896,410.6,333.896z"/>
			<g>
				<circle style="fill:#FF8736;" cx="264.022" cy="294.647" r="5.59"/>
				<circle style="fill:#FF8736;" cx="264.022" cy="277.737" r="5.59"/>
				<circle style="fill:#FF8736;" cx="264.022" cy="260.827" r="5.59"/>
			</g>
		</g>
	</g>
</g>
<g>
</g>
<g>
</g>
<g>
</g>
<g>
</g>
<g>
</g>
<g>
</g>
<g>
</g>
<g>
</g>
<g>
</g>
<g>
</g>
<g>
</g>
<g>
</g>
<g>
</g>
<g>
</g>
<g>
</g>
</svg>
