<?xml version="1.0" encoding="iso-8859-1"?>
<!-- Generator: Adobe Illustrator 23.0.3, SVG Export Plug-In . SVG Version: 6.00 Build 0)  -->
<svg version="1.1" id="Capa_1" xmlns="http://www.w3.org/2000/svg" xmlns:xlink="http://www.w3.org/1999/xlink" x="0px" y="0px"
	 viewBox="0 0 512 512" style="enable-background:new 0 0 512 512;" xml:space="preserve">
<g>
	<linearGradient id="SVGID_1_" gradientUnits="userSpaceOnUse" x1="225.8161" y1="253.5024" x2="864.887" y2="253.5024">
		<stop  offset="7.011211e-04" style="stop-color:#FFF0D5"/>
		<stop  offset="0.5112" style="stop-color:#FFDFFF"/>
		<stop  offset="1" style="stop-color:#D9CEFF"/>
	</linearGradient>
	<path style="fill:url(#SVGID_1_);" d="M505.626,289.42c-11.826-34.61-38.138-60.16-69.852-72.202
		c-16.43-6.239-27.346-21.856-27.587-39.429c-0.005-0.384-0.012-0.769-0.021-1.154c-1.507-64.582-55.488-116.33-120.077-115.221
		c-38.094,0.654-71.788,19.355-92.905,47.92c-18.185,24.599-46.49,39.965-77.08,39.949c-0.898,0-1.797,0.009-2.7,0.029
		C53.487,150.666,0.837,203.79,0.011,265.716C-0.869,331.647,52.313,385.37,118.043,385.37c50.947,0,94.349-32.277,110.886-77.497
		c4.327-11.832,17.152-18.174,29.283-14.772c0.151,0.042,0.303,0.085,0.455,0.127c11.099,3.064,18.458,13.64,17.55,25.119
		c-1.217,15.383,0.581,31.255,5.798,46.796c20.521,61.135,87.188,94.685,148.493,74.68
		C493.219,419.358,526.887,351.638,505.626,289.42z"/>
	<g>
		<path style="opacity:0.1;fill:#590BB2;" d="M406.793,130.732h-28.021V99.873c0-2.914-0.637-5.792-1.865-8.434L356.84,48.285
			c-3.58-7.711-14.551-7.711-18.132,0l-20.076,43.152c-1.229,2.643-1.867,5.522-1.867,8.437v30.857H105.207
			c-9.148,0-16.564,7.416-16.564,16.565v215.933c0,9.148,7.416,16.565,16.564,16.565h301.585c9.148,0,16.564-7.416,16.564-16.565
			V147.297C423.357,138.148,415.941,130.732,406.793,130.732z"/>
		<g>
			<g>
				<g>
					<polygon style="fill:#AFABC6;" points="305.69,464.502 206.309,464.502 219.261,413.154 226.183,385.727 285.816,385.727 
						292.738,413.154 					"/>
					<polygon style="fill:#8E8CA8;" points="292.738,413.154 219.261,413.154 226.183,385.727 285.816,385.727 					"/>
					<path style="fill:#F5F4F9;" d="M406.792,400.796H105.208c-9.148,0-16.565-7.416-16.565-16.565V168.299
						c0-9.148,7.416-16.565,16.565-16.565h301.585c9.148,0,16.565,7.416,16.565,16.565v215.933
						C423.357,393.38,415.941,400.796,406.792,400.796z"/>
					<path style="fill:#FFD5B8;" d="M88.643,289.004v95.227c0,9.148,7.416,16.565,16.564,16.565h301.585
						c9.148,0,16.564-7.416,16.564-16.565v-95.227H88.643z"/>
					<path style="fill:#C182F9;" d="M423.357,193.942v-25.644c0-9.148-7.416-16.565-16.565-16.565H105.207
						c-9.148,0-16.565,7.416-16.565,16.565v25.644H423.357z"/>
					<path style="fill:#CECAE0;" d="M88.643,356.644v27.588c0,9.148,7.416,16.565,16.565,16.565h301.585
						c9.148,0,16.565-7.416,16.565-16.565v-27.588H88.643z"/>
				</g>
				<g>
					<g>
						<path style="fill:#F5F4F9;" d="M194.721,312.688h-73.749c-2.766,0-5.009-2.243-5.009-5.009s2.242-5.009,5.009-5.009h73.749
							c2.766,0,5.009,2.243,5.009,5.009S197.487,312.688,194.721,312.688z"/>
					</g>
					<g>
						<path style="fill:#FFBE92;" d="M137.715,276.693h-16.744c-2.766,0-5.009-2.243-5.009-5.009s2.242-5.009,5.009-5.009h16.744
							c2.766,0,5.009,2.243,5.009,5.009S140.482,276.693,137.715,276.693z"/>
					</g>
					<g>
						<path style="fill:#F5F4F9;" d="M194.721,332.555h-73.749c-2.766,0-5.009-2.243-5.009-5.009s2.242-5.009,5.009-5.009h73.749
							c2.766,0,5.009,2.243,5.009,5.009S197.487,332.555,194.721,332.555z"/>
					</g>
					<g>
						<g>
							<g>
								<path style="fill:#B557FF;" d="M134.123,252.873c-1.279,0-2.56-0.488-3.535-1.464l-12.036-12.036
									c-1.953-1.953-1.953-5.119,0-7.072l12.036-12.036c1.951-1.952,5.12-1.952,7.071,0c1.953,1.953,1.953,5.119,0,7.072l-8.5,8.5
									l8.5,8.5c1.953,1.953,1.953,5.119,0,7.072C136.683,252.385,135.403,252.873,134.123,252.873z"/>
							</g>
							<g>
								<path style="fill:#B557FF;" d="M180.889,252.873c-1.279,0-2.56-0.488-3.535-1.464c-1.953-1.953-1.953-5.119,0-7.072l8.5-8.5
									l-8.5-8.5c-1.953-1.953-1.953-5.119,0-7.072c1.951-1.952,5.12-1.952,7.071,0l12.036,12.036c1.953,1.953,1.953-0.881,0,1.071
									l-12.036,18.037C183.449,252.385,182.169,252.873,180.889,252.873z"/>
							</g>
						</g>
						<g>
							<path style="fill:#B557FF;" d="M150.705,252.874c-0.833,0-1.677-0.209-2.453-0.647c-2.406-1.358-3.254-4.408-1.896-6.813
								l13.593-24.072c1.358-2.405,4.409-3.253,6.812-1.896c2.405,1.358,3.254,4.408,1.896,6.813l-13.593,24.073
								C154.145,251.959,152.45,252.874,150.705,252.874z"/>
						</g>
					</g>
				</g>
				<g>
					<path style="fill:#FFA052;" d="M338.708,69.287l-20.076,43.152c-1.229,2.643-1.866,5.522-1.866,8.437v235.767h62.006V120.875
						c0-2.914-0.637-5.792-1.865-8.434L356.84,69.287C353.259,61.577,342.288,61.577,338.708,69.287z"/>
					<rect x="316.766" y="126.623" style="fill:#FFE783;" width="31.003" height="230.021"/>
					<path style="fill:#FFD5B8;" d="M338.708,69.287l-20.076,43.152c-1.229,2.643-1.866,5.522-1.866,8.437v12.747
						c3.57,1.92,7.661,3.01,12.001,3.01c5.011,0,9.685-1.459,13.615-3.974c3.316-2.122,7.581-2.017,10.91,0.084
						c3.903,2.463,8.526,3.89,13.488,3.89c4.34,0,8.421-1.09,11.991-3.01v-12.748c0-2.914-0.637-5.792-1.865-8.434L356.84,69.287
						C353.259,61.577,342.288,61.577,338.708,69.287z"/>
					<path style="fill:#B557FF;" d="M338.708,69.287L327.727,92.91c5.471,4.47,12.441,7.161,20.042,7.161
						c7.611,0,14.591-2.69,20.052-7.171L356.84,69.287C353.259,61.577,342.288,61.577,338.708,69.287z"/>
				</g>
				<g>
					<path style="fill:#C182F9;" d="M244.033,180.297l-20.076,43.152c-1.229,2.643-1.866,5.522-1.866,8.437v124.757h62.006V231.885
						c0-2.914-0.637-5.792-1.865-8.434l-20.067-43.154C258.584,172.587,247.613,172.587,244.033,180.297z"/>
					<rect x="222.091" y="237.633" style="fill:#D6B0FF;" width="31.003" height="119.011"/>
					<path style="fill:#FFD5B8;" d="M244.033,180.297l-20.076,43.152c-1.229,2.643-1.866,5.522-1.866,8.437v12.747
						c3.57,1.92,7.661,3.01,12.001,3.01c5.011,0,9.685-1.459,13.615-3.974c3.316-2.122,7.581-2.017,10.91,0.084
						c3.903,2.463,8.526,3.89,13.488,3.89c4.34,0,8.421-1.09,11.991-3.01v-12.748c0-2.914-0.637-5.792-1.865-8.434l-20.067-43.154
						C258.584,172.587,247.613,172.587,244.033,180.297z"/>
					<path style="fill:#8E8CA8;" d="M244.033,180.297l-10.981,23.622c5.471,4.47,12.441,7.161,20.042,7.161
						c7.611,0,14.591-2.69,20.052-7.171l-10.981-23.612C258.584,172.587,247.613,172.587,244.033,180.297z"/>
					<g>
						<path style="fill:#590BB2;" d="M117.011,172.774v0.127c0,2.761,2.238,5,5,5s5-2.239,5-5v-0.127c0-2.761-2.238-5-5-5
							S117.011,170.013,117.011,172.774z"/>
						<path style="fill:#590BB2;" d="M133.943,172.774v0.127c0,2.761,2.238,5,5,5s5-2.239,5-5v-0.127c0-2.761-2.238-5-5-5
							S133.943,170.013,133.943,172.774z"/>
						<path style="fill:#590BB2;" d="M150.876,172.774v0.127c0,2.761,2.238,5,5,5s5-2.239,5-5v-0.127c0-2.761-2.238-5-5-5
							S150.876,170.013,150.876,172.774z"/>
						<path style="fill:#590BB2;" d="M406.793,146.734h-23.018v-25.856c0-3.618-0.806-7.263-2.33-10.542l-20.07-43.16
							c-2.488-5.352-7.7-8.675-13.603-8.675c-5.901,0-11.113,3.324-13.603,8.675l-20.069,43.161
							c-1.524,3.279-2.33,6.924-2.33,10.542v68.064h-40.069l-5.002-10.756c-2.488-5.351-7.701-8.675-13.603-8.675
							s-11.114,3.324-13.603,8.675l-5.002,10.756H93.643v-20.644c0-6.376,5.188-11.564,11.564-11.564h184.017c2.762,0,5-2.239,5-5
							s-2.238-5-5-5H105.207c-11.891,0-21.564,9.674-21.564,21.564v215.933c0,11.891,9.674,21.565,21.564,21.565h110.756
							l-13.551,53.702h-12.946c-2.762,0-5,2.239-5,5s2.238,5,5,5h133.068c2.762,0,5-2.239,5-5s-2.238-5-5-5h-12.946l-13.551-53.702
							h110.756c11.891,0,21.564-9.674,21.564-21.565V168.298C428.357,156.408,418.684,146.734,406.793,146.734z M352.769,351.644
							V138.195c4.31,2.251,9.104,3.439,14.012,3.439c2.36,0,4.709-0.287,6.995-0.827v210.837H352.769z M321.771,351.644V140.808
							c2.286,0.539,4.635,0.826,6.997,0.826c4.907,0,9.693-1.191,14.001-3.44v213.45H321.771z M383.775,198.942h34.582v152.701
							h-34.582V198.942z M406.793,156.734c6.377,0,11.564,5.188,11.564,11.564v20.644h-34.582v-32.208H406.793z M343.237,71.393
							c1.249-2.684,3.787-2.892,4.535-2.892c0.749,0,3.287,0.208,4.535,2.892l9.217,19.821c-4.131,2.493-8.892,3.856-13.756,3.856
							c-4.929,0-9.612-1.333-13.752-3.847L343.237,71.393z M323.169,114.553l6.609-14.214c5.469,3.078,11.679,4.731,17.99,4.731
							c6.325,0,12.537-1.654,17.999-4.732l6.609,14.214c0.915,1.967,1.398,4.155,1.398,6.326v9.517
							c-2.225,0.818-4.565,1.238-6.995,1.238c-3.845,0-7.586-1.078-10.818-3.119c-5.011-3.161-11.396-3.189-16.275-0.067
							c-3.257,2.084-7.032,3.186-10.919,3.186c-2.394,0-4.768-0.43-6.997-1.242v-9.514
							C321.771,118.707,322.254,116.52,323.169,114.553z M311.771,198.942v152.701h-22.67V231.888c0-3.617-0.807-7.262-2.331-10.542
							l-10.418-22.404H311.771z M258.094,351.644V249.205c4.309,2.25,9.103,3.438,14.012,3.438c2.361,0,4.71-0.287,6.995-0.827
							v99.827H258.094z M228.494,225.563l6.609-14.213c5.469,3.078,11.678,4.731,17.99,4.731c6.324,0,12.536-1.653,17.998-4.731
							l6.61,14.214c0.916,1.968,1.399,4.155,1.399,6.325v9.517c-2.224,0.818-4.566,1.238-6.995,1.238
							c-3.846,0-7.588-1.078-10.819-3.118c-5.011-3.162-11.398-3.188-16.274-0.067c-3.257,2.084-7.033,3.186-10.92,3.186
							c-2.394,0-4.768-0.43-6.997-1.242v-9.513C227.095,229.718,227.578,227.531,228.494,225.563z M248.563,182.403
							c1.247-2.684,3.786-2.892,4.534-2.892s3.287,0.208,4.534,2.892l9.217,19.822c-4.131,2.492-8.892,3.856-13.755,3.856
							c-4.929,0-9.612-1.333-13.752-3.846L248.563,182.403z M229.844,198.942l-10.418,22.404c-1.524,3.28-2.331,6.925-2.331,10.542
							v97.212c0,2.761,2.238,5,5,5s5-2.239,5-5v-77.283c2.286,0.539,4.635,0.826,6.997,0.826c4.907,0,9.694-1.191,14.002-3.44
							v102.44H93.643V198.942H229.844z M299.275,459.498h-86.551l13.551-53.702h59.449L299.275,459.498z M406.793,395.796H105.207
							c-6.377,0-11.564-5.188-11.564-11.565v-22.587h324.715v22.587C418.357,390.608,413.17,395.796,406.793,395.796z"/>
					</g>
				</g>
			</g>
			<path style="fill:#FFA052;" d="M273.146,132.38c-1.279,0-2.56-0.488-3.535-1.464l-10.995-10.995
				c-1.953-1.953-1.953-5.119,0-7.071l10.995-10.995c1.951-1.952,5.119-1.952,7.07,0l10.995,10.995c1.953,1.953,1.953,5.119,0,7.071
				l-10.995,10.995C275.705,131.892,274.425,132.38,273.146,132.38z M269.222,116.385l3.924,3.924l3.924-3.924l-3.924-3.924
				L269.222,116.385z"/>
			<path style="fill:#C182F9;" d="M128.105,458.38c-2.762,0-5-2.239-5-5c0-3.306-2.689-5.995-5.995-5.995c-2.762,0-5-2.239-5-5
				s2.238-5,5-5c3.306,0,5.995-2.689,5.995-5.995c0-2.761,2.238-5,5-5s5,2.239,5,5c0,3.306,2.689,5.995,5.995,5.995
				c2.762,0,5,2.239,5,5s-2.238,5-5,5c-3.306,0-5.995,2.689-5.995,5.995C133.105,456.142,130.867,458.38,128.105,458.38z"/>
			<path style="fill:#C182F9;" d="M229.598,99.939c-2.762,0-5-2.239-5-5c0-3.306-2.689-5.995-5.995-5.995c-2.762,0-5-2.239-5-5
				s2.238-5,5-5c3.306,0,5.995-2.689,5.995-5.995c0-2.761,2.238-5,5-5s5,2.239,5,5c0,3.306,2.689,5.995,5.995,5.995
				c2.762,0,5,2.239,5,5s-2.238,5-5,5c-3.306,0-5.995,2.689-5.995,5.995C234.598,97.7,232.359,99.939,229.598,99.939z"/>
			<path style="fill:#FFE783;" d="M133.301,123.379c-2.762,0-5-2.239-5-5c0-3.306-2.689-5.995-5.995-5.995c-2.762,0-5-2.239-5-5
				s2.238-5,5-5c3.306,0,5.995-2.689,5.995-5.995c0-2.761,2.238-5,5-5s5,2.239,5,5c0,3.306,2.689,5.995,5.995,5.995
				c2.762,0,5,2.239,5,5s-2.238,5-5,5c-3.306,0-5.995,2.689-5.995,5.995C138.301,121.14,136.063,123.379,133.301,123.379z"/>
		</g>
	</g>
</g>
<g>
</g>
<g>
</g>
<g>
</g>
<g>
</g>
<g>
</g>
<g>
</g>
<g>
</g>
<g>
</g>
<g>
</g>
<g>
</g>
<g>
</g>
<g>
</g>
<g>
</g>
<g>
</g>
<g>
</g>
</svg>
