<?xml version="1.0" encoding="iso-8859-1"?>
<!-- Generator: Adobe Illustrator 23.0.3, SVG Export Plug-In . SVG Version: 6.00 Build 0)  -->
<svg version="1.1" id="Capa_1" xmlns="http://www.w3.org/2000/svg" xmlns:xlink="http://www.w3.org/1999/xlink" x="0px" y="0px"
	 viewBox="0 0 512 512" style="enable-background:new 0 0 512 512;" xml:space="preserve">
<g>
	<linearGradient id="SVGID_1_" gradientUnits="userSpaceOnUse" x1="206.8671" y1="255.9998" x2="802.4096" y2="255.9998">
		<stop  offset="7.011211e-04" style="stop-color:#FFF0D5"/>
		<stop  offset="0.5112" style="stop-color:#FFDFFF"/>
		<stop  offset="1" style="stop-color:#D9CEFF"/>
	</linearGradient>
	<path style="fill:url(#SVGID_1_);" d="M382.606,174.016c-0.192-0.001-0.385-0.002-0.577-0.002
		c-32.034-0.05-62.385-13.844-83.44-37.986c-31.366-35.964-77.6-58.622-129.121-58.393C75.956,78.049-1.195,156.615,0.014,250.12
		c1.203,92.986,76.955,167.995,170.227,167.995c26.343,0,51.286-5.987,73.547-16.672c19.194-9.213,42.065-6.784,58.968,6.161
		c21.863,16.745,49.19,26.713,78.846,26.763c71.382,0.119,129.981-58.02,130.396-129.401
		C512.416,232.917,454.556,174.439,382.606,174.016z"/>
	<g>
		<path style="opacity:0.1;fill:#590BB2;" d="M118.217,77.959v66.817c0,2.761,2.239,5,5,5h20.903c2.303,0,4.307-1.572,4.856-3.809
			l9.393-38.291c0.549-2.236,2.553-3.809,4.856-3.809h54.686c2.761,0,5,2.239,5,5v244.3c0,2.36-1.651,4.399-3.959,4.89
			l-53.169,11.317c-2.309,0.491-3.959,2.53-3.959,4.89v17.776c0,2.761,2.239,5,5,5h152.083c2.761,0,5-2.239,5-5v-17.776
			c0-2.36-1.651-4.399-3.959-4.89l-53.169-11.317c-2.309-0.491-3.959-2.53-3.959-4.89v-244.3c0-2.761,2.239-5,5-5h54.686
			c2.303,0,4.307,1.572,4.856,3.809l9.393,38.291c0.549,2.236,2.553,3.809,4.856,3.809h20.903c2.761,0,5-2.239,5-5V77.959
			c0-2.761-2.239-5-5-5H123.217C120.456,72.959,118.217,75.197,118.217,77.959z"/>
		<path style="opacity:0.1;fill:#590BB2;" d="M437.013,115.758h9.988c4.115,0,6.468-4.693,4.007-7.991l-21.974-29.44
			c-2-2.679-6.014-2.679-8.014,0l-21.974,29.44c-2.461,3.298-0.108,7.991,4.007,7.991h9.988v238.483h-9.988
			c-4.115,0-6.468,4.693-4.007,7.991l21.974,29.44c2,2.679,6.014,2.679,8.014,0l21.974-29.44c2.461-3.298,0.108-7.991-4.007-7.991
			h-9.988V115.758z"/>
		<g>
			<g>
				<g>
					<path style="fill:#FFA052;" d="M118.29,99.042v66.781c0,2.76,2.237,4.997,4.997,4.997h20.891c2.301,0,4.305-1.572,4.853-3.807
						l9.388-38.27c0.548-2.235,2.552-3.807,4.853-3.807h54.657c2.76,0,4.997,2.237,4.997,4.997v244.17
						c0,2.359-1.65,4.397-3.957,4.888l-53.141,11.311c-2.307,0.491-3.957,2.529-3.957,4.888v17.767c0,2.76,2.237,4.997,4.997,4.997
						h152.001c2.76,0,4.997-2.237,4.997-4.997V395.19c0-2.359-1.65-4.397-3.957-4.888l-53.141-11.311
						c-2.307-0.491-3.957-2.529-3.957-4.888v-244.17c0-2.76,2.237-4.997,4.997-4.997h54.657c2.301,0,4.305,1.572,4.853,3.807
						l9.388,38.27c0.548,2.235,2.552,3.807,4.853,3.807h20.891c2.76,0,4.997-2.237,4.997-4.997V99.042
						c0-2.76-2.237-4.997-4.997-4.997H123.288C120.528,94.045,118.29,96.282,118.29,99.042z"/>
					<g>
						<path style="fill:#D6B0FF;" d="M436.916,136.822h9.983c4.113,0,6.465-4.691,4.005-7.986l-21.962-29.425
							c-1.999-2.678-6.011-2.678-8.01,0l-21.962,29.425c-2.46,3.296-0.108,7.986,4.005,7.986h9.983v238.356h-9.983
							c-4.113,0-6.465,4.691-4.005,7.986l21.962,29.425c1.999,2.678,6.011,2.678,8.01,0l21.962-29.425
							c2.46-3.296,0.108-7.986-4.005-7.986h-9.983V136.822z"/>
						<g>
							<path style="fill:#590BB2;" d="M362.457,89.045h-46.79c-2.762,0-5,2.239-5,5s2.238,5,5,5l46.787-0.003l0.003,66.778
								l-20.889,0.002l-9.389-38.27c-1.1-4.484-5.092-7.616-9.71-7.616h-54.656c-5.513,0-9.998,4.485-9.998,9.997v244.17
								c0,4.689,3.329,8.802,7.916,9.779l53.139,11.308l0.003,17.764l-151.999,0.003l-0.002-17.764l53.141-11.311
								c4.587-0.977,7.916-5.089,7.916-9.779v-244.17c0-5.512-4.484-9.997-9.997-9.997h-54.657c-4.616,0-8.608,3.131-9.71,7.615
								l-9.385,38.269l-20.889,0.002l-0.003-66.778h164.854c2.762,0,5-2.239,5-5s-2.238-5-5-5H123.288
								c-5.513,0-9.997,4.485-9.997,9.997v66.781c0,5.513,4.484,9.998,9.997,9.998h20.892c4.616,0,8.608-3.131,9.71-7.616
								l9.385-38.268l54.654-0.003l0.002,244.167l-53.141,11.311c-4.587,0.977-7.916,5.089-7.916,9.778v17.767
								c0,5.512,4.484,9.997,9.997,9.997h152.002c5.513,0,9.997-4.485,9.997-9.997V395.19c0-4.689-3.329-8.802-7.916-9.778
								l-53.139-11.308l-0.002-244.167l54.653-0.002l9.389,38.27c1.1,4.484,5.093,7.616,9.71,7.616h20.892
								c5.513,0,9.997-4.485,9.997-9.998V99.042C372.454,93.53,367.97,89.045,362.457,89.045z"/>
							<path style="fill:#590BB2;" d="M78.48,99.045c2.762,0,5-2.239,5-5s-2.238-5-5-5H59.99c-2.762,0-5,2.239-5,5v323.909
								c0,2.761,2.238,5,5,5h18.49c2.762,0,5-2.239,5-5s-2.238-5-5-5H64.99v-42.013h13.49c2.762,0,5-2.239,5-5s-2.238-5-5-5H64.99
								v-44.971h13.49c2.762,0,5-2.239,5-5s-2.238-5-5-5H64.99V261h13.49c2.762,0,5-2.239,5-5c0-2.761-2.238-5-5-5H64.99v-44.971
								h13.49c2.762,0,5-2.239,5-5s-2.238-5-5-5H64.99v-44.971h13.49c2.762,0,5-2.239,5-5s-2.238-5-5-5H64.99V99.045H78.48z"/>
							<path style="fill:#590BB2;" d="M446.898,370.178h-4.982V141.822h4.983c3.806,0,7.229-2.113,8.936-5.516
								s1.353-7.411-0.925-10.461L432.949,96.42c-1.905-2.553-4.825-4.018-8.011-4.018c-0.001,0-0.001,0-0.002,0
								c-3.186,0-6.105,1.464-8.012,4.018l-21.962,29.425c-2.276,3.05-2.631,7.059-0.925,10.461s5.13,5.516,8.937,5.516h9.982
								c2.762,0,5-2.239,5-5s-2.238-5-5-5l-9.98,0.004l21.958-29.425l21.965,29.42h-9.983c-2.762,0-5,2.239-5,5v238.356
								c0,2.761,2.238,5,5,5l9.98-0.004l-21.958,29.425l-21.964-29.42h9.982c2.762,0,5-2.239,5-5V164.347c0-2.761-2.238-5-5-5
								s-5,2.239-5,5v205.831h-4.982c-3.807,0-7.23,2.113-8.937,5.516s-1.352,7.411,0.925,10.461l21.962,29.425
								c1.906,2.553,4.827,4.017,8.014,4.017c3.186,0,6.104-1.464,8.01-4.017l21.962-29.425c2.276-3.05,2.631-7.059,0.925-10.461
								S450.705,370.178,446.898,370.178z"/>
						</g>
					</g>
				</g>
				<path style="fill:#C182F9;" d="M140.268,352.839c-2.762,0-5-2.239-5-5c0-3.305-2.688-5.994-5.994-5.994c-2.762,0-5-2.239-5-5
					s2.238-5,5-5c3.306,0,5.994-2.689,5.994-5.994c0-2.761,2.238-5,5-5s5,2.239,5,5c0,3.305,2.688,5.994,5.994,5.994
					c2.762,0,5,2.239,5,5s-2.238,5-5,5c-3.306,0-5.994,2.689-5.994,5.994C145.268,350.6,143.03,352.839,140.268,352.839z"/>
				<path style="fill:#C182F9;" d="M356.46,236.013c-2.762,0-5-2.239-5-5c0-3.305-2.688-5.994-5.994-5.994c-2.762,0-5-2.239-5-5
					s2.238-5,5-5c3.306,0,5.994-2.689,5.994-5.994c0-2.761,2.238-5,5-5s5,2.239,5,5c0,3.305,2.688,5.994,5.994,5.994
					c2.762,0,5,2.239,5,5s-2.238,5-5,5c-3.306,0-5.994,2.689-5.994,5.994C361.46,233.774,359.222,236.013,356.46,236.013z"/>
				<path style="fill:#FFA052;" d="M170.807,282.988c-1.279,0-2.56-0.488-3.535-1.464l-10.994-10.994
					c-1.953-1.953-1.953-5.119,0-7.071l10.994-10.994c1.951-1.952,5.119-1.952,7.07,0l10.994,10.994
					c1.953,1.953,1.953,5.119,0,7.071l-10.994,10.994C173.367,282.5,172.087,282.988,170.807,282.988z M166.885,266.994l3.923,3.923
					l3.923-3.923l-3.923-3.923L166.885,266.994z"/>
			</g>
			<path style="fill:#C182F9;" d="M288.744,352.839c-2.762,0-5-2.239-5-5V195.033c0-2.761,2.238-5,5-5s5,2.239,5,5v152.807
				C293.744,350.6,291.506,352.839,288.744,352.839z"/>
			<path style="fill:#FFE783;" d="M220.781,63H59.99c-2.762,0-5-2.239-5-5s2.238-5,5-5h160.791c2.762,0,5,2.239,5,5
				S223.543,63,220.781,63z"/>
			<path style="fill:#FFE783;" d="M367.454,459H59.99c-2.762,0-5-2.239-5-5s2.238-5,5-5h307.464c2.762,0,5,2.239,5,5
				S370.216,459,367.454,459z"/>
			<path style="fill:#FFE783;" d="M393.009,90.985c-2.762,0-5-2.239-5-5c0-3.305-2.688-5.994-5.994-5.994c-2.762,0-5-2.239-5-5
				s2.238-5,5-5c3.306,0,5.994-2.689,5.994-5.995c0-2.761,2.238-5,5-5s5,2.239,5,5c0,3.306,2.688,5.995,5.994,5.995
				c2.762,0,5,2.239,5,5s-2.238,5-5,5c-3.306,0-5.994,2.689-5.994,5.994C398.009,88.746,395.77,90.985,393.009,90.985z"/>
		</g>
	</g>
</g>
<g>
</g>
<g>
</g>
<g>
</g>
<g>
</g>
<g>
</g>
<g>
</g>
<g>
</g>
<g>
</g>
<g>
</g>
<g>
</g>
<g>
</g>
<g>
</g>
<g>
</g>
<g>
</g>
<g>
</g>
</svg>
