<?xml version="1.0" encoding="iso-8859-1"?>
<!-- Generator: Adobe Illustrator 23.0.3, SVG Export Plug-In . SVG Version: 6.00 Build 0)  -->
<svg version="1.1" id="Capa_1" xmlns="http://www.w3.org/2000/svg" xmlns:xlink="http://www.w3.org/1999/xlink" x="0px" y="0px"
	 viewBox="0 0 512 512" style="enable-background:new 0 0 512 512;" xml:space="preserve">
<g>
	<linearGradient id="SVGID_1_" gradientUnits="userSpaceOnUse" x1="215.7087" y1="256" x2="852.3452" y2="256">
		<stop  offset="7.011211e-04" style="stop-color:#FFF0D5"/>
		<stop  offset="0.5112" style="stop-color:#FFDFFF"/>
		<stop  offset="1" style="stop-color:#D9CEFF"/>
	</linearGradient>
	<path style="fill:url(#SVGID_1_);" d="M408.228,154.262c-23.697-9.236-43.717-26.089-55.961-48.381
		c-20.59-37.487-60.43-62.898-106.221-62.898c-47.53,0-88.646,27.377-108.477,67.219c-12.146,24.401-32.814,43.56-58.09,53.761
		c-37.349,15.074-68.703,49.524-78.653,103.382c-1.092,5.91-1.108,11.986-0.016,17.896c15.448,83.572,82.399,120.435,143.334,110.66
		c34.126-5.474,68.672,5.909,93.967,29.462c51.434,47.892,133.884,62.907,213.923,11.57c9.377-6.014,21.957-18.634,27.966-28.015
		C548.967,301.248,497.879,189.204,408.228,154.262z"/>
	<g>
		<g>
			<path style="opacity:0.1;fill:#590BB2;" d="M456,103.769v254.25c0,8.28-6.72,15-15,15H71c-8.28,0-15-6.72-15-15v-254.25
				c0-8.28,6.72-15,15-15h370C449.28,88.769,456,95.489,456,103.769z"/>
			<g>
				<g>
					<polygon style="fill:#AFABC6;" points="312.71,466.726 199.289,466.726 221.971,376.821 290.028,376.821 					"/>
					<polygon style="fill:#8E8CA8;" points="297.928,408.123 214.071,408.123 221.971,376.821 290.028,376.821 					"/>
					<g>
						<path style="fill:#F5F4F9;" d="M456,124.772v254.25c0,8.28-6.72,15-15,15H71c-8.28,0-15-6.72-15-15v-254.25
							c0-8.28,6.72-15,15-15h370C449.28,109.772,456,116.492,456,124.772z"/>
						<g>
							<path style="fill:#E8E6ED;" d="M428,343.629H214V189.693c0-1.657,1.343-3,3-3h208c1.657,0,3,1.343,3,3V343.629z"/>
							<path style="fill:#FDD250;" d="M428,207.801H214v-18.107c0-1.657,1.343-3,3-3h208c1.657,0,3,1.343,3,3V207.801z"/>
						</g>
						<path style="fill:#FFA052;" d="M456,157.943v-33.171c0-8.284-6.716-15-15-15H71c-8.284,0-15,6.716-15,15v33.171H456z"/>
						<path style="fill:#CECAE0;" d="M56,343.629v35.39c0,8.284,6.716,15,15,15h370c8.284,0,15-6.716,15-15v-35.39H56z"/>
					</g>
					<g>
						<path style="fill:#590BB2;" d="M94.082,128.785c-2.761,0-5,2.238-5,5v0.145c0,2.762,2.239,5,5,5s5-2.238,5-5v-0.145
							C99.082,131.023,96.843,128.785,94.082,128.785z"/>
						<path style="fill:#590BB2;" d="M113.407,128.785c-2.761,0-5,2.238-5,5v0.145c0,2.762,2.239,5,5,5s5-2.238,5-5v-0.145
							C118.407,131.023,116.168,128.785,113.407,128.785z"/>
						<path style="fill:#590BB2;" d="M132.731,128.785c-2.761,0-5,2.238-5,5v0.145c0,2.762,2.239,5,5,5s5-2.238,5-5v-0.145
							C137.731,131.023,135.493,128.785,132.731,128.785z"/>
						<path style="fill:#590BB2;" d="M441,104.771H71c-11.028,0-20,8.972-20,20v33.172c0,2.762,2.239,5,5,5h395v175.686H61V185.483
							c0-2.762-2.239-5-5-5s-5,2.238-5,5v193.535c0,11.028,8.972,20,20,20h140.214l-15.82,62.701h-15.328c-2.761,0-5,2.238-5,5
							s2.239,5,5,5h19.223c2.291,0,4.288-1.556,4.848-3.776l17.39-68.925h68.944l15.818,62.701l-79.46,0.006c-2.761,0-5,2.238-5,5
							s2.239,5,5,5l105.104-0.006c2.761,0,5-2.238,5-5s-2.239-5-5-5h-15.331l-15.818-62.701H441c11.028,0,20-8.972,20-20V124.771
							C461,113.743,452.028,104.771,441,104.771z M61,152.943v-28.172c0-5.514,4.486-10,10-10h370c5.514,0,10,4.486,10,10v28.172H61
							z M441,389.019H71c-5.514,0-10-4.486-10-10v-30.39h390v30.39C451,384.532,446.514,389.019,441,389.019z"/>
					</g>
				</g>
			</g>
		</g>
		<g>
			<circle style="fill:#FDD250;" cx="143.066" cy="226.332" r="40.143"/>
			<path style="fill:#F5F4F9;" d="M159.679,220.525c0-9.16-7.453-16.612-16.613-16.612c-9.16,0-16.613,7.452-16.613,16.612
				c0,4.518,1.818,8.615,4.755,11.613c-2.936,2.998-4.755,7.096-4.755,11.613c0,2.762,2.239,5,5,5s5-2.238,5-5
				c0-3.646,2.966-6.613,6.613-6.613s6.613,2.967,6.613,6.613c0,2.762,2.239,5,5,5s5-2.238,5-5c0-4.518-1.818-8.615-4.755-11.613
				C157.861,229.141,159.679,225.043,159.679,220.525z M143.066,213.913c3.646,0,6.613,2.966,6.613,6.612s-2.967,6.613-6.613,6.613
				s-6.613-2.967-6.613-6.613S139.419,213.913,143.066,213.913z"/>
		</g>
		<g>
			<path style="fill:#F5F4F9;" d="M385.327,256.31H256.673c-7.828,0-14.173-6.346-14.173-14.173v0
				c0-7.828,6.346-14.173,14.173-14.173h128.654c7.828,0,14.173,6.346,14.173,14.173v0C399.5,249.964,393.154,256.31,385.327,256.31
				z"/>
			<g>
				<circle style="fill:#C182F9;" cx="304.089" cy="242.353" r="5.59"/>
				<circle style="fill:#C182F9;" cx="321" cy="242.353" r="5.59"/>
				<circle style="fill:#C182F9;" cx="337.911" cy="242.353" r="5.59"/>
			</g>
		</g>
		<g>
			<path style="fill:#F5F4F9;" d="M385.327,295.81H256.673c-7.828,0-14.173-6.346-14.173-14.173v0
				c0-7.828,6.346-14.173,14.173-14.173h128.654c7.828,0,14.173,6.346,14.173,14.173v0C399.5,289.464,393.154,295.81,385.327,295.81
				z"/>
			<g>
				<circle style="fill:#C182F9;" cx="304.089" cy="281.853" r="5.59"/>
				<circle style="fill:#C182F9;" cx="321" cy="281.853" r="5.59"/>
				<circle style="fill:#C182F9;" cx="337.911" cy="281.853" r="5.59"/>
			</g>
		</g>
		<path style="fill:#FFA052;" d="M340.894,325.64H301.32c-1.657,0-3-1.343-3-3v-11.5c0-1.657,1.343-3,3-3h39.574
			c1.657,0,3,1.343,3,3v11.5C343.894,324.297,342.551,325.64,340.894,325.64z"/>
		<g>
			<g>
				<path style="fill:#DDD9E4;" d="M176.359,292.098h-66.586c-2.829,0-5.123-2.294-5.123-5.123s2.293-5.123,5.123-5.123h66.586
					c2.829,0,5.123,2.294,5.123,5.123S179.188,292.098,176.359,292.098z"/>
			</g>
			<g>
				<path style="fill:#C182F9;" d="M158.359,311.098h-30.586c-2.829,0-5.123-2.294-5.123-5.123s2.293-5.123,5.123-5.123h30.586
					c2.829,0,5.123,2.294,5.123,5.123S161.188,311.098,158.359,311.098z"/>
			</g>
		</g>
		<path style="fill:#FFA052;" d="M374.211,453.376c-1.28,0-2.559-0.488-3.536-1.465l-10.994-10.994c-1.953-1.952-1.953-5.118,0-7.07
			l10.994-10.994c1.953-1.953,5.118-1.953,7.071,0l10.994,10.994c1.953,1.952,1.953,5.118,0,7.07l-10.994,10.994
			C376.77,452.888,375.491,453.376,374.211,453.376z M370.288,437.382l3.923,3.923l3.923-3.923l-3.923-3.923L370.288,437.382z"/>
		<path style="fill:#FFA052;" d="M131.453,95.439c-1.28,0-2.559-0.488-3.536-1.465L116.923,82.98c-1.953-1.952-1.953-5.118,0-7.07
			l10.994-10.994c1.953-1.953,5.118-1.953,7.071,0l10.994,10.994c1.953,1.952,1.953,5.118,0,7.07l-10.994,10.994
			C134.012,94.951,132.733,95.439,131.453,95.439z M127.53,79.445l3.923,3.923l3.923-3.923l-3.923-3.923L127.53,79.445z"/>
		<path style="fill:#C182F9;" d="M181.481,72.263c-1.28,0-2.559-0.488-3.536-1.465l-10.994-10.994c-1.953-1.952-1.953-5.118,0-7.07
			l10.994-10.994c1.953-1.953,5.118-1.953,7.071,0l10.994,10.994c1.953,1.952,1.953,5.118,0,7.07l-10.994,10.994
			C184.041,71.774,182.761,72.263,181.481,72.263z M177.559,56.269l3.923,3.923l3.923-3.923l-3.923-3.923L177.559,56.269z"/>
		<path style="fill:#FFE783;" d="M410.518,77.765c-2.761,0-5-2.238-5-5c0-3.318-2.7-6.018-6.018-6.018c-2.761,0-5-2.238-5-5
			s2.239-5,5-5c3.318,0,6.018-2.699,6.018-6.018c0-2.762,2.239-5,5-5s5,2.238,5,5c0,3.318,2.7,6.018,6.018,6.018
			c2.761,0,5,2.238,5,5s-2.239,5-5,5c-3.318,0-6.018,2.699-6.018,6.018C415.518,75.526,413.279,77.765,410.518,77.765z"/>
	</g>
</g>
<g>
</g>
<g>
</g>
<g>
</g>
<g>
</g>
<g>
</g>
<g>
</g>
<g>
</g>
<g>
</g>
<g>
</g>
<g>
</g>
<g>
</g>
<g>
</g>
<g>
</g>
<g>
</g>
<g>
</g>
</svg>
