<?xml version="1.0" encoding="iso-8859-1"?>
<!-- Generator: Adobe Illustrator 23.0.3, SVG Export Plug-In . SVG Version: 6.00 Build 0)  -->
<svg version="1.1" id="Capa_1" xmlns="http://www.w3.org/2000/svg" xmlns:xlink="http://www.w3.org/1999/xlink" x="0px" y="0px"
	 viewBox="0 0 512 512" style="enable-background:new 0 0 512 512;" xml:space="preserve">
<g>
	<linearGradient id="SVGID_1_" gradientUnits="userSpaceOnUse" x1="225.8161" y1="255.8028" x2="864.887" y2="255.8028">
		<stop  offset="7.011211e-04" style="stop-color:#FFF0D5"/>
		<stop  offset="0.5112" style="stop-color:#FFDFFF"/>
		<stop  offset="1" style="stop-color:#D9CEFF"/>
	</linearGradient>
	<path style="fill:url(#SVGID_1_);" d="M505.626,291.72c-11.826-34.61-38.138-60.16-69.852-72.202
		c-16.43-6.239-27.346-21.856-27.587-39.429c-0.005-0.384-0.012-0.769-0.021-1.154c-1.507-64.582-55.488-116.33-120.077-115.221
		c-38.094,0.654-71.788,19.355-92.905,47.92c-18.185,24.599-46.49,39.965-77.08,39.949c-0.898,0-1.797,0.009-2.7,0.029
		C53.487,152.967,0.837,206.09,0.011,268.016C-0.869,333.948,52.313,387.67,118.043,387.67c50.947,0,94.349-32.277,110.886-77.497
		c4.327-11.832,17.152-18.174,29.283-14.772c0.151,0.042,0.303,0.085,0.455,0.126c11.099,3.064,18.458,13.64,17.55,25.119
		c-1.217,15.383,0.581,31.255,5.798,46.796c20.521,61.135,87.188,94.685,148.493,74.68
		C493.219,421.658,526.887,353.938,505.626,291.72z"/>
	<g>
		<path style="opacity:0.1;fill:#590BB2;" d="M468.66,181.732v-47.796c0-5.523-4.478-10.001-10.001-10.001h-56.086
			c-5.523,0-10.001,4.477-10.001,10.001v31.305c-9.155-1.804-18.718-2.254-28.434-1.152c-1.231-17.122-6.64-33.085-15.205-46.884
			c6.394-4.136,10.63-11.324,10.63-19.507c0-12.825-10.396-23.221-23.221-23.221c-8.033,0-15.113,4.08-19.282,10.28
			c-16.123-10.409-35.328-16.454-55.947-16.454c-54.524,0-99.177,42.243-103.026,95.786c-49.267-5.589-94.646,28.595-102.446,78.05
			c-3.203,20.311,0.423,40.119,9.168,57.098H51.564c-4.155,0-7.523,3.368-7.523,7.523v70.548c0,4.155,3.368,7.523,7.523,7.523
			h108.378c4.155,0,7.523-3.368,7.523-7.523v-25.244c66.44,4.305,179.97,3.174,221.625-3.399
			c50.817-8.02,85.512-55.716,77.492-106.534c-3.118-19.76-12.24-37.076-25.208-50.396h17.284
			C464.182,191.733,468.66,187.256,468.66,181.732z"/>
		
			<ellipse transform="matrix(0.9732 -0.2298 0.2298 0.9732 -19.0867 31.4685)" style="opacity:0.1;fill:#590BB2;" cx="125.591" cy="97.698" rx="23.221" ry="23.221"/>
		<g>
			<g>
				<path style="fill:#FFA052;" d="M466.582,263.131c-7.804-49.451-53.182-83.629-102.444-78.041
					c-3.849-53.542-48.502-95.786-103.026-95.786s-99.177,42.243-103.026,95.786c-49.267-5.589-94.646,28.595-102.446,78.05
					c-8.014,50.818,26.685,98.511,77.504,106.526c50.332,7.937,205.612,7.942,255.946-0.002
					C439.907,361.645,474.602,313.948,466.582,263.131z"/>
				<path style="fill:#FF8736;" d="M451.246,224.732h-48.674c-5.52,0-10.001-4.47-10.001-10.001V186.24
					C416.454,190.94,437.535,204.881,451.246,224.732z"/>
				<path style="fill:#FFBE92;" d="M374.211,235.463v136.04c-55.314,5.49-170.873,5.49-226.197,0v-136.04c0-1.657,1.343-3,3-3
					h220.197C372.867,232.463,374.211,233.806,374.211,235.463z"/>
				<path style="fill:#FFA052;" d="M333.548,250.594l-6.811-9.125H195.488l-6.811,9.125c-6.86,9.201-0.3,22.282,11.171,22.282H227.7
					v102.458c21.912,0.38,44.923,0.38,66.825,0V272.876h27.852C333.848,272.876,340.408,259.795,333.548,250.594z"/>
				<path style="fill:#FFE783;" d="M199.848,260.874h27.847v164.351c0,5.523,4.477,10.001,10.001,10.001h46.833
					c5.523,0,10.001-4.478,10.001-10.001V260.874h27.847c11.473,0,18.034-13.085,11.172-22.279l-61.264-82.081
					c-5.575-7.469-16.768-7.469-22.343,0l-61.264,82.081C181.814,247.79,188.375,260.874,199.848,260.874z"/>
				<g>
					<path style="fill:#F5F4F9;" d="M159.942,405.831H51.564c-4.155,0-7.523-3.368-7.523-7.523v-70.548
						c0-4.155,3.368-7.523,7.523-7.523h108.378c4.155,0,7.523,3.368,7.523,7.523v70.548
						C167.465,402.463,164.097,405.831,159.942,405.831z"/>
					<g>
						<g>
							<g>
								<path style="fill:#C182F9;" d="M82.368,380.073c-1.28,0-2.56-0.488-3.536-1.465l-12.037-12.037
									c-1.953-1.953-1.953-5.12,0-7.072l12.037-12.037c1.951-1.952,5.12-1.952,7.071,0c1.953,1.953,1.953,5.12,0,7.072l-8.5,8.501
									l8.5,8.501c1.953,1.953,1.953,5.12,0,7.072C84.928,379.584,83.648,380.073,82.368,380.073z"/>
							</g>
							<g>
								<path style="fill:#C182F9;" d="M129.138,345.997c1.28,0,2.56,0.488,3.536,1.465l12.037,12.037
									c1.953,1.953,1.953,5.12,0,7.072l-12.037,12.037c-1.952,1.952-5.12,1.952-7.071,0c-1.953-1.953-1.953-5.12,0-7.072
									l8.5-8.501l-8.5-8.501c-1.953-1.953-1.953-5.12,0-7.072C126.578,346.485,127.858,345.997,129.138,345.997z"/>
							</g>
						</g>
						<g>
							<path style="fill:#C182F9;" d="M98.951,380.074c-0.833,0-1.677-0.209-2.454-0.647c-2.406-1.358-3.254-4.408-1.896-6.814
								l13.594-24.074c1.358-2.405,4.409-3.253,6.813-1.896c2.406,1.358,3.254,4.408,1.896,6.814l-13.594,24.074
								C102.391,379.159,100.696,380.074,98.951,380.074z"/>
						</g>
					</g>
				</g>
				<g>
					<path style="fill:#FFBE92;" d="M458.659,212.735h-56.086c-5.523,0-10.001-4.477-10.001-10.001v-47.796
						c0-5.523,4.477-10.001,10.001-10.001h56.086c5.523,0,10.001,4.477,10.001,10.001v47.796
						C468.66,208.257,464.182,212.735,458.659,212.735z"/>
					<g>
						<g>
							<path style="fill:#F5F4F9;" d="M423.815,195.873c-0.833,0-1.677-0.209-2.453-0.647c-2.405-1.358-3.254-4.408-1.896-6.813
								l13.593-24.072c1.358-2.404,4.409-3.253,6.812-1.896c2.405,1.358,3.254,4.408,1.896,6.813l-13.593,24.072
								C427.254,194.958,425.56,195.873,423.815,195.873z"/>
						</g>
					</g>
				</g>
				<circle style="fill:#FFBE92;" cx="298.896" cy="375.621" r="23.221"/>
				<circle style="fill:#FFBE92;" cx="125.591" cy="118.699" r="23.221"/>
				<g>
					<circle style="fill:#FFBE92;" cx="336.342" cy="118.699" r="23.221"/>
					<g>
						<path style="fill:#590BB2;" d="M473.66,202.734v-47.796c0-8.271-6.729-15.001-15-15.001h-14.272c-2.761,0-5,2.238-5,5
							s2.239,5,5,5h14.272c2.757,0,5,2.243,5,5.001v47.796c0,2.758-2.243,5.001-5,5.001h-56.086c-2.757,0-5.001-2.243-5.001-5.001
							v-47.796c0-2.758,2.244-5.001,5.001-5.001h14.272c2.761,0,5-2.238,5-5s-2.239-5-5-5h-14.272
							c-8.271,0-15.001,6.729-15.001,15.001v25.418c-6.262-0.834-12.599-1.067-18.931-0.677
							c-1.693-14.114-6.197-27.889-13.171-40.254c5.586-5.16,9.093-12.54,9.093-20.725c0-15.561-12.66-28.221-28.221-28.221
							c-8.01,0-15.246,3.36-20.388,8.739c-16.579-9.755-35.484-14.913-54.842-14.913c-27.555,0-53.81,10.356-73.93,29.161
							c-18.776,17.55-30.59,40.901-33.601,66.211c-50.295-3.131-94.938,32.321-102.88,82.685
							c-2.845,18.044-0.661,36.19,6.284,52.877h-5.421c-6.905,0-12.523,5.617-12.523,12.522v70.548
							c0,6.905,5.618,12.522,12.523,12.522h108.378c6.905,0,12.523-5.617,12.523-12.522v-19.927
							c14.646,0.855,31.858,1.493,50.234,1.862l-0.004,44.982c0,8.271,6.729,15.001,15,15.001h46.833
							c8.271,0,15.001-6.729,15.001-15.001v-21.4c13.971-0.31,25.465-10.818,27.319-24.36c27.679-1.042,49.434-2.717,63.021-4.862
							c25.897-4.086,48.652-18.014,64.074-39.215c15.422-21.202,21.665-47.141,17.578-73.037
							c-2.588-16.399-9.185-31.645-19.208-44.617h6.346C466.931,217.734,473.66,211.005,473.66,202.734z M336.342,100.479
							c10.047,0,18.221,8.174,18.221,18.221s-8.174,18.221-18.221,18.221c-10.047,0-18.221-8.174-18.221-18.221
							S326.295,100.479,336.342,100.479z M162.465,398.309c0,1.391-1.132,2.522-2.523,2.522H51.564
							c-1.391,0-2.523-1.132-2.523-2.522v-70.548c0-1.391,1.132-2.522,2.523-2.522h108.378c1.391,0,2.523,1.132,2.523,2.522V398.309
							z M298.896,393.842c-10.047,0-18.221-8.174-18.221-18.221c0-10.048,8.174-18.222,18.221-18.222
							c10.047,0,18.221,8.174,18.221,18.222C317.117,385.668,308.943,393.842,298.896,393.842z M461.643,263.91
							c3.67,23.259-1.936,46.554-15.787,65.596c-13.851,19.042-34.288,31.55-57.546,35.221c-13.212,2.085-34.572,3.72-61.876,4.747
							c-2.77-12.415-13.737-21.765-26.905-22.058v-81.542h22.847c7.211,0,13.699-4.004,16.931-10.45
							c3.232-6.445,2.561-14.04-1.752-19.819l-61.264-82.081c-3.61-4.836-9.143-7.61-15.178-7.61c-6.036,0-11.568,2.774-15.179,7.61
							l-61.264,82.082c-4.313,5.778-4.985,13.373-1.752,19.818c3.232,6.446,9.72,10.45,16.931,10.45h22.847v81.917
							c0,2.762,2.239,5,5,5s5-2.238,5-5v-86.917c0-2.762-2.239-5-5-5h-27.847c-3.456,0-6.443-1.844-7.992-4.933
							s-1.24-6.586,0.827-9.355l61.264-82.08c1.704-2.283,4.316-3.593,7.165-3.593c2.849,0,5.46,1.31,7.165,3.592l61.264,82.081
							c2.067,2.77,2.376,6.267,0.827,9.355s-4.536,4.933-7.992,4.933h-27.847c-2.761,0-5,2.238-5,5v88.13
							c-10.97,3.872-18.854,14.339-18.854,26.617c0,12.278,7.885,22.744,18.854,26.616v22.988c0,2.758-2.244,5.001-5.001,5.001
							h-46.833c-2.757,0-5-2.243-5-5.001l0.005-49.89c0-2.728-2.186-4.952-4.914-4.999c-20.336-0.352-39.392-1.033-55.321-1.973
							v-40.603c0-6.905-5.618-12.522-12.523-12.522H67.925c-7.571-16.014-10.122-33.719-7.346-51.318
							c7.372-46.748,49.949-79.187,96.943-73.862c1.357,0.156,2.711-0.251,3.758-1.121c1.048-0.87,1.695-2.13,1.793-3.488
							c1.777-24.722,12.764-47.691,30.937-64.677c18.261-17.067,42.091-26.467,67.102-26.467c17.39,0,34.376,4.58,49.306,13.253
							c-1.476,3.42-2.297,7.186-2.297,11.141c0,15.561,12.66,28.221,28.221,28.221c3.78,0,7.387-0.752,10.685-2.107
							c6.921,12.436,11.103,26.419,12.125,40.635c0.098,1.358,0.745,2.618,1.793,3.488c1.047,0.869,2.4,1.273,3.758,1.121
							c7.641-0.864,15.323-0.723,22.87,0.4v12.276c0,8.271,6.729,15.001,15.001,15.001h36.652
							C451.146,230.572,458.899,246.52,461.643,263.91z"/>
						<path style="fill:#590BB2;" d="M125.591,146.92c15.561,0,28.221-12.66,28.221-28.221s-12.66-28.221-28.221-28.221
							s-28.221,12.66-28.221,28.221S110.03,146.92,125.591,146.92z M125.591,100.479c10.047,0,18.221,8.174,18.221,18.221
							s-8.174,18.221-18.221,18.221c-10.047,0-18.221-8.174-18.221-18.221S115.544,100.479,125.591,100.479z"/>
					</g>
				</g>
				<g>
					<circle style="fill:#F5F4F9;" cx="322.117" cy="318.59" r="5.59"/>
					<circle style="fill:#F5F4F9;" cx="322.117" cy="301.678" r="5.59"/>
					<circle style="fill:#F5F4F9;" cx="322.117" cy="284.767" r="5.59"/>
				</g>
			</g>
			<path style="fill:#FFA052;" d="M85.337,179.54c-1.28,0-2.559-0.488-3.536-1.465L70.807,167.08
				c-0.938-0.938-1.464-2.209-1.464-3.535s0.527-2.598,1.465-3.536l10.995-10.994c1.952-1.951,5.118-1.951,7.07,0l10.995,10.994
				c0.938,0.938,1.465,2.21,1.465,3.536s-0.527,2.598-1.464,3.535l-10.995,10.995C87.896,179.052,86.617,179.54,85.337,179.54z
				 M81.414,163.545l3.924,3.924l3.924-3.924l-3.924-3.924L81.414,163.545z"/>
			<path style="fill:#FFE783;" d="M54.335,138.145L54.335,138.145c-1.326,0-2.598-0.526-3.536-1.465l-10.995-10.995
				c-1.953-1.952-1.953-5.118,0-7.07l10.995-10.995c0.938-0.938,2.209-1.465,3.536-1.465s2.598,0.526,3.536,1.465l10.995,10.995
				c1.953,1.952,1.953,5.118,0,7.07L57.871,136.68C56.933,137.618,55.661,138.145,54.335,138.145z M50.411,122.15l3.924,3.924
				l3.924-3.924l-3.924-3.924L50.411,122.15z"/>
			<path style="fill:#C182F9;" d="M192.346,448.303c-2.761,0-5-2.238-5-5c0-3.318-2.7-6.019-6.019-6.019c-2.761,0-5-2.238-5-5
				s2.239-5,5-5c3.319,0,6.019-2.7,6.019-6.02c0-2.762,2.239-5,5-5s5,2.238,5,5c0,3.319,2.7,6.02,6.019,6.02c2.761,0,5,2.238,5,5
				s-2.239,5-5,5c-3.319,0-6.019,2.7-6.019,6.019C197.346,446.065,195.107,448.303,192.346,448.303z"/>
			<path style="fill:#FFA052;" d="M421.909,105.323c-2.761,0-5-2.238-5-5c0-3.318-2.7-6.019-6.019-6.019c-2.761,0-5-2.238-5-5
				s2.239-5,5-5c3.319,0,6.019-2.7,6.019-6.02c0-2.762,2.239-5,5-5s5,2.238,5,5c0,3.319,2.7,6.02,6.019,6.02c2.761,0,5,2.238,5,5
				s-2.239,5-5,5c-3.319,0-6.019,2.7-6.019,6.019C426.909,103.085,424.67,105.323,421.909,105.323z"/>
		</g>
	</g>
</g>
<g>
</g>
<g>
</g>
<g>
</g>
<g>
</g>
<g>
</g>
<g>
</g>
<g>
</g>
<g>
</g>
<g>
</g>
<g>
</g>
<g>
</g>
<g>
</g>
<g>
</g>
<g>
</g>
<g>
</g>
</svg>
