<?xml version="1.0" encoding="iso-8859-1"?>
<!-- Generator: Adobe Illustrator 23.0.3, SVG Export Plug-In . SVG Version: 6.00 Build 0)  -->
<svg version="1.1" id="Capa_1" xmlns="http://www.w3.org/2000/svg" xmlns:xlink="http://www.w3.org/1999/xlink" x="0px" y="0px"
	 viewBox="0 0 512 512" style="enable-background:new 0 0 512 512;" xml:space="preserve">
<g>
	<linearGradient id="SVGID_1_" gradientUnits="userSpaceOnUse" x1="175.9175" y1="253.4999" x2="833.6678" y2="253.4999">
		<stop  offset="7.011211e-04" style="stop-color:#FFF0D5"/>
		<stop  offset="0.5112" style="stop-color:#FFDFFF"/>
		<stop  offset="1" style="stop-color:#D9CEFF"/>
	</linearGradient>
	<path style="fill:url(#SVGID_1_);" d="M482.969,141.221c-34.945-35.948-89.48-40.907-129.831-14.878
		c-11.48,7.405-25.381,9.888-38.717,6.927c-31.565-7.009-64.584-2.222-92.707,13.042c-18.907,10.261-41.936,8.477-59.579-3.83
		c-11.712-8.169-25.312-14.023-40.257-16.777C66.44,115.488,12.541,152.258,1.884,207.612
		C-9.015,264.221,28.512,318.624,85.08,328.701c13.821,2.462,27.488,2.047,40.388-0.816c20.936-4.646,42.81,3.122,56.321,19.776
		c8.528,10.512,18.812,19.894,30.757,27.689c61.731,40.28,144.427,22.89,184.707-38.84c0.043-0.065,0.085-0.131,0.128-0.196
		c7.377-11.349,18.851-19.44,32.12-22.119c19.353-3.907,37.801-13.404,52.756-28.495
		C521.63,245.968,521.958,181.329,482.969,141.221z"/>
	<g>
		<path style="opacity:0.1;fill:#590BB2;" d="M454.501,345.222h-19.058c22.107-20.398,33.945-51.104,28.904-83.046
			c-7.804-49.453-53.183-83.631-102.447-78.043c-3.85-53.544-48.504-95.788-103.029-95.788c-18.333,0-35.546,4.782-50.471,13.157
			V59.245c0-4.155-3.368-7.523-7.523-7.523H92.497c-4.155,0-7.523,3.368-7.523,7.523v70.549c0,4.155,3.368,7.523,7.523,7.523h78.509
			c-8.54,13.784-13.934,29.723-15.163,46.817c-17.613-1.998-34.727,1.089-49.807,8.138c-3.691-7.937-11.732-13.443-21.062-13.443
			c-12.825,0-23.222,10.397-23.222,23.222c0,7.587,3.64,14.323,9.267,18.56c-8.924,11.814-15.157,25.929-17.624,41.576
			c-8.014,50.82,26.686,98.514,77.505,106.528c50.333,7.938,205.617,7.942,255.953-0.002c0.522-0.082,1.04-0.176,1.559-0.266v34.574
			c0,5.523,4.478,10.001,10.001,10.001h56.088c5.523,0,10.001-4.478,10.001-10.001v-47.798
			C464.502,349.7,460.024,345.222,454.501,345.222z"/>
		<circle style="opacity:0.1;fill:#590BB2;" cx="411.281" cy="137.096" r="23.222"/>
		<g>
			<g>
				<path style="fill:#FDD250;" d="M464.348,283.178c-7.804-49.453-53.183-83.631-102.447-78.043
					c-3.85-53.544-48.504-95.788-103.029-95.788c-54.525,0-99.179,42.244-103.029,95.788
					c-49.268-5.589-94.649,28.596-102.448,78.052c-8.014,50.82,26.686,98.514,77.505,106.528
					c50.333,7.938,205.617,7.942,255.953-0.002C437.672,381.695,472.367,333.997,464.348,283.178z"/>
				<path style="fill:#FFC136;" d="M208.397,122.506v40.294c0,4.15-3.36,7.521-7.521,7.521h-36.254
					C173.724,150.069,189.155,133.298,208.397,122.506z"/>
				<path style="fill:#FFE783;" d="M371.974,255.51v136.044c-55.316,5.491-170.877,5.491-226.203,0V255.51c0-1.657,1.343-3,3-3
					h220.202C370.631,252.51,371.974,253.853,371.974,255.51z"/>
				<path style="fill:#C182F9;" d="M320.138,345.314H292.29V180.958c0-5.523-4.478-10.001-10.001-10.001h-46.834
					c-5.523,0-10.001,4.478-10.001,10.001v164.355h-27.848c-11.473,0-18.034,13.085-11.172,22.279l61.266,82.083
					c5.575,7.469,16.768,7.469,22.344,0l61.266-82.083C338.172,358.399,331.611,345.314,320.138,345.314z"/>
				<g>
					<path style="fill:#F5F4F9;" d="M200.878,158.319H92.497c-4.155,0-7.523-3.368-7.523-7.523V80.247
						c0-4.155,3.368-7.523,7.523-7.523h108.381c4.155,0,7.523,3.368,7.523,7.523v70.549
						C208.401,154.951,205.033,158.319,200.878,158.319z"/>
					<g>
						<g>
							<g>
								<path style="fill:#FFA052;" d="M123.302,132.56c-1.28,0-2.56-0.488-3.536-1.465l-12.037-12.037
									c-1.954-1.953-1.954-5.12,0-7.073l12.037-12.037c1.952-1.953,5.12-1.953,7.072,0c1.953,1.953,1.953,5.12,0,7.073
									l-8.501,8.501l8.501,8.501c1.953,1.953,1.953,5.12,0,7.073C125.862,132.071,124.582,132.56,123.302,132.56z"/>
							</g>
							<g>
								<path style="fill:#FFA052;" d="M170.073,98.483c1.28,0,2.56,0.488,3.536,1.465l12.037,12.037
									c1.953,1.953,1.953,5.12,0,7.073l-12.037,12.037c-1.952,1.953-5.12,1.953-7.072,0c-1.953-1.953-1.953-5.12,0-7.073
									l8.501-8.501l-8.501-8.501c-1.953-1.953-1.953-5.12,0-7.073C167.513,98.972,168.793,98.483,170.073,98.483z"/>
							</g>
						</g>
						<g>
							<path style="fill:#FFA052;" d="M139.885,132.561c-0.833,0-1.677-0.209-2.454-0.647c-2.406-1.358-3.255-4.409-1.896-6.814
								l13.594-24.075c1.358-2.405,4.409-3.254,6.813-1.896c2.406,1.358,3.255,4.409,1.896,6.814l-13.594,24.075
								C143.326,131.646,141.631,132.561,139.885,132.561z"/>
						</g>
					</g>
				</g>
				<g>
					<path style="fill:#FFF4C5;" d="M454.501,434.024h-56.088c-5.523,0-10.001-4.478-10.001-10.001v-47.798
						c0-5.523,4.478-10.001,10.001-10.001h56.088c5.523,0,10.001,4.478,10.001,10.001v47.798
						C464.502,429.546,460.024,434.024,454.501,434.024z"/>
					<g>
						<g>
							<path style="fill:#FDD250;" d="M419.656,417.162c-0.833,0-1.677-0.209-2.453-0.647c-2.406-1.358-3.254-4.408-1.896-6.813
								l13.593-24.073c1.358-2.405,4.409-3.253,6.812-1.896c2.406,1.358,3.254,4.408,1.896,6.813l-13.593,24.073
								C423.095,416.247,421.401,417.162,419.656,417.162z"/>
						</g>
					</g>
				</g>
				<circle style="fill:#FFF4C5;" cx="211.632" cy="406.306" r="23.222"/>
				<circle style="fill:#FFF4C5;" cx="84.974" cy="223.052" r="23.222"/>
				<g>
					<circle style="fill:#FFF4C5;" cx="411.281" cy="158.099" r="23.222"/>
					<g>
						<path style="fill:#590BB2;" d="M454.501,361.224h-7.339c18.412-21.67,26.621-50.335,22.126-78.825
							c-7.952-50.359-52.62-85.788-102.881-82.674c-2.393-20.175-10.36-39.105-23.206-55.025c-1.733-2.149-4.882-2.486-7.031-0.752
							s-2.485,4.883-0.752,7.031c12.627,15.647,20.06,34.5,21.495,54.518c0.098,1.358,0.745,2.619,1.793,3.489
							c1.047,0.87,2.409,1.276,3.758,1.121c46.985-5.323,89.565,27.108,96.947,73.852c4.503,28.538-5.194,57.27-25.964,77.266
							h-35.034c-8.271,0-15.001,6.729-15.001,15.001v8.944c-13.928,1.985-35.286,3.516-62.317,4.468l14.221-19.053
							c4.313-5.779,4.985-13.374,1.753-19.819c-3.231-6.446-9.72-10.451-16.931-10.451H297.29V180.958
							c0-8.271-6.729-15.001-15.001-15.001h-46.834c-8.271,0-15.001,6.729-15.001,15.001v73.582c0,2.762,2.239,5,5,5s5-2.238,5-5
							v-73.582c0-2.758,2.244-5.001,5.001-5.001h46.834c2.758,0,5.001,2.243,5.001,5.001v164.355c0,2.762,2.238,5,5,5h27.849
							c3.455,0,6.443,1.844,7.992,4.933s1.239,6.587-0.828,9.355l-61.266,82.084c-1.704,2.283-4.316,3.593-7.165,3.593
							c-2.849,0-5.46-1.31-7.165-3.594l-17.507-23.455c3.547-4.718,5.652-10.579,5.652-16.923c0-15.562-12.66-28.222-28.222-28.222
							c-3.449,0-6.754,0.625-9.812,1.762l-11.378-15.245c-2.067-2.77-2.376-6.268-0.827-9.356s4.537-4.933,7.992-4.933h27.848
							c2.761,0,5-2.238,5-5v-63.23c0-2.762-2.239-5-5-5s-5,2.238-5,5v58.23h-22.848c-7.211,0-13.699,4.004-16.931,10.45
							s-2.561,14.041,1.752,19.819l10.748,14.4c-1.509,1.308-2.882,2.768-4.086,4.365c-25.149-1.034-44.988-2.609-57.411-4.567
							c-23.26-3.671-43.699-16.178-57.551-35.218s-19.459-42.335-15.789-65.595c2.039-12.946,6.768-24.935,14.046-35.669
							c3.793,1.899,8.067,2.974,12.589,2.974c15.562,0,28.222-12.66,28.222-28.222c0-2.434-0.31-4.797-0.892-7.052
							c13.567-5.507,28.373-7.548,42.973-5.893c1.35,0.155,2.71-0.251,3.758-1.121s1.695-2.13,1.793-3.488
							c1.065-14.815,5.562-29.355,13.012-42.179h27.039c6.905,0,12.523-5.618,12.523-12.523v-25.308
							c13.94-7.284,29.632-11.138,45.469-11.138c20.824,0,40.715,6.426,57.52,18.581c0.886,0.642,1.911,0.949,2.927,0.949
							c1.55,0,3.077-0.718,4.055-2.069c1.619-2.237,1.117-5.363-1.12-6.981c-18.521-13.397-40.439-20.479-63.381-20.479
							c-15.711,0-31.301,3.441-45.469,9.989V80.247c0-6.905-5.618-12.523-12.523-12.523H92.497c-6.905,0-12.523,5.618-12.523,12.523
							v70.549c0,6.905,5.618,12.523,12.523,12.523h69.953c-5.804,11.351-9.593,23.738-11.113,36.41
							c-14.758-0.898-29.566,1.559-43.231,7.184c-5.107-7.297-13.568-12.083-23.132-12.083c-15.562,0-28.222,12.66-28.222,28.221
							c0,7.438,2.897,14.209,7.616,19.255c-8.258,12.057-13.614,25.54-15.908,40.104c-4.087,25.897,2.157,51.835,17.581,73.035
							c15.423,21.199,38.18,35.125,64.08,39.213c12.06,1.9,30.729,3.444,54.209,4.494c-0.599,2.286-0.921,4.682-0.921,7.153
							c0,15.562,12.66,28.222,28.221,28.222c5.592,0,10.806-1.642,15.196-4.459l16.866,22.597c3.61,4.838,9.143,7.612,15.179,7.612
							s11.568-2.774,15.179-7.612l39.426-52.822c0.116,0.008,0.227,0.034,0.344,0.034c0.051,0,0.103-0.001,0.154-0.002
							c21.294-0.643,49.918-1.961,69.437-4.612v28.759c0,8.271,6.729,15.001,15.001,15.001h56.088
							c8.271,0,15.001-6.729,15.001-15.001v-47.798C469.502,367.954,462.772,361.224,454.501,361.224z M89.974,150.796V80.247
							c0-1.392,1.132-2.523,2.523-2.523h108.381c1.391,0,2.523,1.132,2.523,2.523v70.549c0,1.392-1.132,2.523-2.523,2.523H92.497
							C91.106,153.319,89.974,152.187,89.974,150.796z M84.974,204.831c10.047,0,18.222,8.174,18.222,18.221
							c0,10.048-8.174,18.222-18.222,18.222s-18.222-8.174-18.222-18.222C66.752,213.005,74.927,204.831,84.974,204.831z
							 M193.41,406.307c0-10.048,8.174-18.222,18.221-18.222s18.222,8.174,18.222,18.222s-8.174,18.222-18.222,18.222
							S193.41,416.354,193.41,406.307z M459.502,424.023c0,2.758-2.243,5.001-5.001,5.001h-56.088c-2.758,0-5.001-2.243-5.001-5.001
							v-47.798c0-2.758,2.243-5.001,5.001-5.001h56.088c2.758,0,5.001,2.243,5.001,5.001V424.023z"/>
						<path style="fill:#590BB2;" d="M411.28,186.32c15.562,0,28.222-12.66,28.222-28.222s-12.66-28.222-28.222-28.222
							c-15.561,0-28.221,12.66-28.221,28.222S395.72,186.32,411.28,186.32z M411.28,139.877c10.048,0,18.222,8.174,18.222,18.222
							s-8.174,18.222-18.222,18.222c-10.047,0-18.221-8.174-18.221-18.222S401.233,139.877,411.28,139.877z"/>
					</g>
				</g>
				<g>
					<circle style="fill:#C182F9;" cx="322.956" cy="316.136" r="5.59"/>
					<circle style="fill:#C182F9;" cx="322.956" cy="299.225" r="5.59"/>
					<circle style="fill:#C182F9;" cx="322.956" cy="282.313" r="5.59"/>
				</g>
			</g>
			<path style="fill:#C182F9;" d="M353.277,111.13c-1.279,0-2.56-0.488-3.535-1.465L338.747,98.67c-1.953-1.952-1.953-5.118,0-7.07
				l10.995-10.995c1.951-1.953,5.119-1.953,7.07,0l10.995,10.995c1.953,1.952,1.953,5.118,0,7.07l-10.995,10.995
				C355.837,110.641,354.557,111.13,353.277,111.13z M349.354,95.135l3.924,3.924l3.924-3.924l-3.924-3.924L349.354,95.135z"/>
			<path style="fill:#FFA052;" d="M57.495,194.539c-1.28,0-2.559-0.488-3.536-1.465l-10.995-10.995c-1.953-1.952-1.953-5.118,0-7.07
				l10.995-10.995c1.953-1.953,5.118-1.953,7.071,0l10.996,10.995c0.938,0.938,1.464,2.209,1.464,3.535s-0.527,2.598-1.464,3.535
				l-10.996,10.995C60.054,194.051,58.774,194.539,57.495,194.539z M53.571,178.544l3.924,3.924l3.924-3.924l-3.924-3.924
				L53.571,178.544z"/>
			<path style="fill:#FFE783;" d="M294.76,86.708c-2.762,0-5-2.238-5-5c0-3.319-2.7-6.02-6.02-6.02c-2.762,0-5-2.238-5-5
				s2.238-5,5-5c3.319,0,6.02-2.7,6.02-6.019c0-2.762,2.238-5,5-5s5,2.238,5,5c0,3.318,2.7,6.019,6.019,6.019c2.762,0,5,2.238,5,5
				s-2.238,5-5,5c-3.318,0-6.019,2.7-6.019,6.02C299.76,84.47,297.521,86.708,294.76,86.708z"/>
			<path style="fill:#FFE783;" d="M334.94,445.547c-2.762,0-5-2.238-5-5c0-3.318-2.7-6.019-6.02-6.019c-2.762,0-5-2.238-5-5
				s2.238-5,5-5c3.319,0,6.02-2.7,6.02-6.02c0-2.762,2.238-5,5-5s5,2.238,5,5c0,3.319,2.7,6.02,6.019,6.02c2.762,0,5,2.238,5,5
				s-2.238,5-5,5c-3.318,0-6.019,2.7-6.019,6.019C339.94,443.308,337.702,445.547,334.94,445.547z"/>
		</g>
	</g>
</g>
<g>
</g>
<g>
</g>
<g>
</g>
<g>
</g>
<g>
</g>
<g>
</g>
<g>
</g>
<g>
</g>
<g>
</g>
<g>
</g>
<g>
</g>
<g>
</g>
<g>
</g>
<g>
</g>
<g>
</g>
</svg>
