<?xml version="1.0" encoding="iso-8859-1"?>
<!-- Generator: Adobe Illustrator 23.0.3, SVG Export Plug-In . SVG Version: 6.00 Build 0)  -->
<svg version="1.1" id="Capa_1" xmlns="http://www.w3.org/2000/svg" xmlns:xlink="http://www.w3.org/1999/xlink" x="0px" y="0px"
	 viewBox="0 0 512 512" style="enable-background:new 0 0 512 512;" xml:space="preserve">
<g>
	<linearGradient id="SVGID_1_" gradientUnits="userSpaceOnUse" x1="206.8671" y1="253.4997" x2="802.4096" y2="253.4997">
		<stop  offset="7.011211e-04" style="stop-color:#FFF0D5"/>
		<stop  offset="0.5112" style="stop-color:#FFDFFF"/>
		<stop  offset="1" style="stop-color:#D9CEFF"/>
	</linearGradient>
	<path style="fill:url(#SVGID_1_);" d="M382.606,171.515c-0.192-0.001-0.385-0.002-0.577-0.002
		c-32.034-0.05-62.385-13.844-83.44-37.986c-31.366-35.964-77.6-58.622-129.121-58.393C75.956,75.549-1.195,154.115,0.014,247.62
		c1.203,92.986,76.955,167.995,170.227,167.995c26.343,0,51.286-5.987,73.547-16.672c19.194-9.213,42.065-6.784,58.968,6.161
		c21.863,16.745,49.19,26.713,78.846,26.763c71.382,0.119,129.981-58.02,130.396-129.401
		C512.416,230.417,454.556,171.939,382.606,171.515z"/>
	<g>
		<path style="opacity:0.1;fill:#590BB2;" d="M278.995,355.99c2.761,0,4.999-2.238,4.999-4.999v-8.653
			c0-2.761-2.238-4.999-4.999-4.999h-1v-16.355c0-5.519-4.479-9.998-9.998-9.998h-23.995c-5.519,0-9.998,4.479-9.998,9.998v16.355
			h-1c-2.761,0-4.999,2.238-4.999,4.999v8.653c0,2.761,2.238,4.999,4.999,4.999h1v77.102h-1c-2.761,0-4.999,2.238-4.999,4.999v8.653
			c0,2.761,2.238,4.999,4.999,4.999h1v15.97c0,5.529,4.479,9.998,9.998,9.998h23.995c5.519,0,9.998-4.469,9.998-9.998v-15.97h1
			c2.761,0,4.999-2.238,4.999-4.999v-8.653c0-2.761-2.238-4.999-4.999-4.999h-1V355.99H278.995z"/>
		<path style="opacity:0.1;fill:#590BB2;" d="M482.502,108.298h-95.504C371.305,50.665,318.606,8.285,256,8.285
			s-115.305,42.38-130.998,100.013H29.498c-5.519,0-9.998,4.479-9.998,9.998v48.98c0,5.529,4.479,9.998,9.998,9.998h94.838
			c14.821,58.92,68.145,102.544,131.664,102.544s116.844-43.624,131.664-102.544h94.838c5.519,0,9.998-4.469,9.998-9.998v-48.98
			C492.5,112.777,488.021,108.298,482.502,108.298z"/>
		<g>
			<g>
				<g>
					<g>
						<circle style="fill:#CCA1FF;" cx="256" cy="165.051" r="135.766"/>
						<path style="fill:#F5F4F9;" d="M492.5,139.296v48.98c0,5.529-4.479,9.998-9.998,9.998H29.498
							c-5.519,0-9.998-4.469-9.998-9.998v-48.98c0-5.519,4.479-9.998,9.998-9.998h453.004
							C488.021,129.298,492.5,133.777,492.5,139.296z"/>
						<path style="fill:#C182F9;" d="M384.205,209.833c4.901-14.017,7.565-29.086,7.565-44.783c0-7.33-0.58-14.52-1.7-21.54H121.93
							c-1.12,7.02-1.7,14.21-1.7,21.54c0,15.698,2.664,30.766,7.565,44.783H384.205z"/>
						<path style="fill:#FFD5B8;" d="M391.761,165.051c0,11.458-1.42,22.595-4.099,33.223H124.338
							c-2.679-10.628-4.099-21.765-4.099-33.223c0-12.377,1.66-24.365,4.759-35.752h262.005
							C390.101,140.686,391.761,152.673,391.761,165.051z"/>
						<path style="fill:#DDD9E4;" d="M87.619,198.278H29.502c-5.522,0-9.998-4.476-9.998-9.998v-48.985
							c0-5.522,4.476-9.998,9.998-9.998h58.117V198.278z"/>
						<path style="fill:#FFA052;" d="M277.995,341.983v146.729c0,5.529-4.479,9.998-9.998,9.998h-23.995
							c-5.519,0-9.998-4.469-9.998-9.998V341.983c0-5.519,4.479-9.998,9.998-9.998h23.995
							C273.516,331.985,277.995,336.464,277.995,341.983z"/>
						<rect x="234.004" y="368.837" style="fill:#FF8736;" width="43.991" height="18.646"/>
						<rect x="234.004" y="464.587" style="fill:#FF8736;" width="43.991" height="18.656"/>
						<path style="fill:#FFE783;" d="M278.995,376.99h-45.99c-2.761,0-4.999-2.238-4.999-4.999v-8.653
							c0-2.761,2.238-4.999,4.999-4.999h45.99c2.761,0,4.999,2.238,4.999,4.999v8.653
							C283.994,374.752,281.756,376.99,278.995,376.99z"/>
						<path style="fill:#FFE783;" d="M278.995,472.743h-45.99c-2.761,0-4.999-2.238-4.999-4.999v-8.653
							c0-2.761,2.238-4.999,4.999-4.999h45.99c2.761,0,4.999,2.238,4.999,4.999v8.653
							C283.994,470.504,281.756,472.743,278.995,472.743z"/>
					</g>
					<g>
						<g>
							<path style="fill:#FF8736;" d="M214.676,182.303c-1.819,0-3.509-0.991-4.39-2.61l-4.207-7.731l-4.207,7.731
								c-0.953,1.753-2.857,2.766-4.847,2.589c-1.988-0.183-3.677-1.53-4.296-3.427l-8.001-24.506
								c-0.857-2.624,0.576-5.446,3.201-6.303c2.623-0.854,5.447,0.576,6.303,3.201l4.401,13.481l3.055-5.613
								c0.875-1.609,2.56-2.61,4.391-2.61c1.831,0,3.516,1.001,4.391,2.61l3.055,5.613l4.401-13.481
								c0.857-2.624,3.681-4.059,6.303-3.201c2.624,0.857,4.058,3.679,3.2,6.303l-8.001,24.506
								c-0.619,1.897-2.308,3.244-4.296,3.427C214.979,182.296,214.827,182.303,214.676,182.303z"/>
						</g>
						<g>
							<path style="fill:#FF8736;" d="M264.597,182.303c-1.819,0-3.509-0.991-4.39-2.61L256,171.963l-4.207,7.731
								c-0.953,1.753-2.853,2.766-4.847,2.589c-1.988-0.183-3.677-1.53-4.296-3.427l-8.001-24.506
								c-0.857-2.624,0.576-5.446,3.201-6.303c2.625-0.854,5.446,0.576,6.303,3.201l4.401,13.481l3.055-5.613
								c0.875-1.609,2.56-2.61,4.391-2.61s3.516,1.001,4.391,2.61l3.055,5.613l4.401-13.481c0.857-2.624,3.682-4.059,6.303-3.201
								c2.624,0.857,4.058,3.679,3.2,6.303l-8.001,24.506c-0.619,1.897-2.308,3.244-4.296,3.427
								C264.9,182.296,264.748,182.303,264.597,182.303z"/>
						</g>
						<g>
							<path style="fill:#FF8736;" d="M314.518,182.303c-1.819,0-3.509-0.991-4.39-2.61l-4.207-7.731l-4.207,7.731
								c-0.953,1.753-2.855,2.766-4.847,2.589c-1.988-0.183-3.677-1.53-4.296-3.427l-8.001-24.506
								c-0.857-2.624,0.576-5.446,3.201-6.303c2.625-0.854,5.447,0.576,6.303,3.201l4.401,13.481l3.055-5.613
								c0.875-1.609,2.56-2.61,4.391-2.61c1.831,0,3.516,1.001,4.391,2.61l3.055,5.613l4.401-13.481
								c0.857-2.624,3.68-4.059,6.303-3.201c2.624,0.857,4.058,3.679,3.201,6.303l-8.001,24.506
								c-0.619,1.897-2.308,3.244-4.296,3.427C314.821,182.296,314.669,182.303,314.518,182.303z"/>
						</g>
					</g>
					<g>
						<path style="fill:#590BB2;" d="M256,274.895c37.891,0,72.618-19.146,92.897-51.215c1.477-2.333,0.78-5.422-1.553-6.897
							c-2.338-1.476-5.423-0.779-6.898,1.554C322.01,247.49,290.441,264.895,256,264.895s-66.01-17.405-84.446-46.559
							c-1.475-2.333-4.561-3.029-6.898-1.554c-2.333,1.476-3.029,4.564-1.553,6.897C183.382,255.75,218.109,274.895,256,274.895z"/>
						<path style="fill:#590BB2;" d="M348.897,106.421C328.618,74.352,293.889,55.207,256,55.207s-72.618,19.146-92.897,51.214
							c-1.477,2.334-0.78,5.423,1.553,6.898c2.334,1.474,5.423,0.78,6.898-1.553c18.437-29.154,50.006-46.56,84.446-46.56
							s66.01,17.405,84.446,46.56c0.951,1.504,2.572,2.328,4.23,2.328c0.913,0,1.838-0.251,2.668-0.775
							C349.678,111.843,350.374,108.755,348.897,106.421z"/>
						<path style="fill:#590BB2;" d="M482.498,124.297h-91.756C373.224,66.488,319.451,24.285,256,24.285
							S138.776,66.488,121.258,124.297H29.502c-8.27,0-14.998,6.729-14.998,14.998v48.985c0,8.27,6.729,14.998,14.998,14.998h91.01
							C136.775,260.843,188.823,303.536,251,305.719v21.265h-6.997c-8.27,0-14.998,6.729-14.998,14.998v12.197
							c-3.527,1.547-5.999,5.067-5.999,9.158v8.653c0,4.091,2.472,7.612,5.999,9.158v68.783c-3.527,1.547-5.999,5.067-5.999,9.158
							v8.653c0,4.091,2.472,7.612,5.999,9.158v11.814c0,8.27,6.729,14.998,14.998,14.998h23.994c8.27,0,14.998-6.729,14.998-14.998
							v-11.814c3.527-1.547,5.999-5.067,5.999-9.158v-8.653c0-4.091-2.472-7.612-5.999-9.158V404.53c0-2.762-2.238-5-5-5
							s-5,2.238-5,5v44.562h-33.99V381.99h39.99c5.514,0,9.999-4.485,9.999-9.999v-8.653c0-4.091-2.472-7.612-5.999-9.158v-12.197
							c0-8.27-6.729-14.998-14.998-14.998H261v-21.265c62.177-2.183,114.225-44.876,130.489-102.441h91.01
							c8.27,0,14.998-6.729,14.998-14.998v-48.985C497.496,131.025,490.767,124.297,482.498,124.297z M278.994,459.09l0.007,8.652
							l-45.995,0.001l-0.001-8.652L278.994,459.09z M267.997,493.715h-23.994c-2.756,0-4.998-2.242-4.998-4.998v-10.974h33.99
							v10.974C272.995,491.472,270.753,493.715,267.997,493.715z M233.006,371.991l-0.001-8.652l45.989-0.001l0.007,8.652
							L233.006,371.991z M272.995,341.982v11.356h-33.99v-11.356c0-2.756,2.242-4.998,4.998-4.998h23.994
							C270.753,336.984,272.995,339.226,272.995,341.982z M256,34.285c57.879,0,107.088,37.803,124.255,90.012h-248.51
							C148.912,72.088,198.12,34.285,256,34.285z M24.504,188.28v-48.985c0-2.756,2.242-4.998,4.998-4.998h53.117v58.981H29.502
							C26.746,193.278,24.504,191.036,24.504,188.28z M92.619,193.278v-58.981h26.009c-2.216,9.903-3.393,20.193-3.393,30.755
							c0,9.665,0.98,19.105,2.844,28.227H92.619z M256,295.817c-72.104,0-130.766-58.661-130.766-130.766
							c0-10.591,1.275-20.888,3.662-30.755h254.207c2.388,9.867,3.662,20.164,3.662,30.755c0,9.689-1.069,19.133-3.077,28.227
							H151.791c-2.762,0-5,2.238-5,5s2.238,5,5,5h229.27C364.671,256.791,314.81,295.817,256,295.817z M487.496,188.28
							c0,2.756-2.242,4.998-4.998,4.998h-88.577c1.864-9.122,2.844-18.562,2.844-28.227c0-10.562-1.178-20.852-3.393-30.755h89.126
							c2.756,0,4.998,2.242,4.998,4.998V188.28z"/>
						<path style="fill:#590BB2;" d="M68.79,149.703c-6.012-6.014-15.795-6.014-21.807,0c-4.774,4.773-5.743,11.919-2.936,17.672
							l-7.085,7.085c-1.953,1.952-1.953,5.118,0,7.07c0.976,0.977,2.256,1.465,3.535,1.465s2.56-0.488,3.535-1.465l7.085-7.085
							c2.13,1.039,4.447,1.574,6.769,1.574c3.949,0,7.897-1.503,10.903-4.51C74.803,165.498,74.803,155.715,68.79,149.703z
							 M61.72,164.439c-2.113,2.113-5.553,2.113-7.666,0s-2.113-5.553,0-7.666c1.057-1.057,2.445-1.585,3.833-1.585
							s2.776,0.528,3.833,1.585C63.833,158.886,63.833,162.326,61.72,164.439z"/>
					</g>
				</g>
				<path style="fill:#FFA052;" d="M380.766,333.751c-2.762,0-5-2.238-5-5c0-3.306-2.689-5.995-5.995-5.995c-2.762,0-5-2.238-5-5
					s2.238-5,5-5c3.306,0,5.995-2.689,5.995-5.995c0-2.762,2.238-5,5-5s5,2.238,5,5c0,3.306,2.689,5.995,5.995,5.995
					c2.762,0,5,2.238,5,5s-2.238,5-5,5c-3.306,0-5.995,2.689-5.995,5.995C385.766,331.512,383.528,333.751,380.766,333.751z"/>
				<path style="fill:#FFE783;" d="M412.362,100.645c-2.762,0-5-2.238-5-5c0-3.306-2.689-5.995-5.995-5.995c-2.762,0-5-2.238-5-5
					s2.238-5,5-5c3.306,0,5.995-2.689,5.995-5.995c0-2.762,2.238-5,5-5s5,2.238,5,5c0,3.306,2.689,5.995,5.995,5.995
					c2.762,0,5,2.238,5,5s-2.238,5-5,5c-3.306,0-5.995,2.689-5.995,5.995C417.362,98.407,415.124,100.645,412.362,100.645z"/>
				<path style="fill:#FFA052;" d="M87.619,261.447c-2.762,0-5-2.238-5-5c0-3.306-2.689-5.995-5.995-5.995c-2.762,0-5-2.238-5-5
					s2.238-5,5-5c3.306,0,5.995-2.689,5.995-5.995c0-2.762,2.238-5,5-5s5,2.238,5,5c0,3.306,2.689,5.995,5.995,5.995
					c2.762,0,5,2.238,5,5s-2.238,5-5,5c-3.306,0-5.995,2.689-5.995,5.995C92.619,259.209,90.381,261.447,87.619,261.447z"/>
				<path style="fill:#C182F9;" d="M120.234,324.988c-1.279,0-2.56-0.488-3.535-1.465l-10.994-10.994
					c-1.953-1.952-1.953-5.118,0-7.07l10.994-10.994c1.951-1.953,5.119-1.953,7.07,0l10.994,10.994c1.953,1.952,1.953,5.118,0,7.07
					l-10.994,10.994C122.794,324.5,121.514,324.988,120.234,324.988z M116.311,308.994l3.923,3.923l3.923-3.923l-3.923-3.923
					L116.311,308.994z"/>
			</g>
		</g>
	</g>
</g>
<g>
</g>
<g>
</g>
<g>
</g>
<g>
</g>
<g>
</g>
<g>
</g>
<g>
</g>
<g>
</g>
<g>
</g>
<g>
</g>
<g>
</g>
<g>
</g>
<g>
</g>
<g>
</g>
<g>
</g>
</svg>
