<?xml version="1.0" encoding="iso-8859-1"?>
<!-- Generator: Adobe Illustrator 23.0.3, SVG Export Plug-In . SVG Version: 6.00 Build 0)  -->
<svg version="1.1" id="Capa_1" xmlns="http://www.w3.org/2000/svg" xmlns:xlink="http://www.w3.org/1999/xlink" x="0px" y="0px"
	 viewBox="0 0 512 512" style="enable-background:new 0 0 512 512;" xml:space="preserve">
<g>
	<linearGradient id="SVGID_1_" gradientUnits="userSpaceOnUse" x1="163.7564" y1="256" x2="1007.3745" y2="256">
		<stop  offset="7.011211e-04" style="stop-color:#FFF0D5"/>
		<stop  offset="0.5112" style="stop-color:#FFDFFF"/>
		<stop  offset="1" style="stop-color:#D9CEFF"/>
	</linearGradient>
	<path style="fill:url(#SVGID_1_);" d="M310.075,89.353C288.644,36.684,236.803-0.37,176.348,0.003
		C99.224,0.478,35.813,62.687,33.941,139.789c-0.923,38.04,12.978,72.821,36.334,98.983c18.619,20.856,27.963,48.325,27.021,76.268
		c-0.125,3.714-0.144,7.455-0.052,11.22c2.464,101.4,89.087,185.801,190.517,185.74c105.133-0.063,190.34-85.31,190.34-190.457
		c0-77.074-45.784-143.448-111.637-173.423C340.798,136.437,320.703,115.473,310.075,89.353z"/>
	<g>
		<path style="opacity:0.1;fill:#590BB2;" d="M461.594,60.403H287.727c-9.91,0-17.944,8.034-17.944,17.944v155.499h-27.566V78.348
			c0-9.911-8.034-17.944-17.944-17.944H50.406c-9.91,0-17.944,8.034-17.944,17.944v313.305c0,9.91,8.034,17.944,17.944,17.944
			h173.867c9.91,0,17.944-8.034,17.944-17.944v-63.219h27.566v63.219c0,9.91,8.034,17.944,17.944,17.944h173.867
			c9.911,0,17.945-8.034,17.945-17.944V78.348C479.538,68.437,471.504,60.403,461.594,60.403z"/>
		<g>
			<g>
				<g>
					<g>
						<path style="fill:#FFE783;" d="M461.594,430.597H287.727c-9.91,0-17.944-8.034-17.944-17.944V99.348
							c0-9.91,8.034-17.944,17.944-17.944h173.867c9.91,0,17.944,8.034,17.944,17.944v313.305
							C479.538,422.563,471.504,430.597,461.594,430.597z"/>
						<path style="fill:#FFF4C5;" d="M479.54,294.67v117.98c0,9.91-8.04,17.95-17.95,17.95H287.73c-9.91,0-17.95-8.04-17.95-17.95
							V294.67H479.54z"/>
						<path style="fill:#FFE783;" d="M316.21,294.67v61.38c0,4.15-3.37,7.52-7.53,7.52h-38.9v-68.9H316.21z"/>
						<path style="fill:#CECAE0;" d="M431.132,106.011l8.014-24.608H310.175l8.014,24.608c1.161,3.563,4.482,5.975,8.23,5.975
							h96.482C426.649,111.986,429.971,109.574,431.132,106.011z"/>
					</g>
					<g>
						<path style="fill:#CCA1FF;" d="M224.272,430.597H50.406c-9.91,0-17.944-8.034-17.944-17.944V99.348
							c0-9.91,8.034-17.944,17.944-17.944h173.867c9.91,0,17.944,8.034,17.944,17.944v313.305
							C242.217,422.563,234.183,430.597,224.272,430.597z"/>
						<path style="fill:#E2CCFF;" d="M242.22,294.67v117.98c0,9.91-8.04,17.95-17.95,17.95H50.41c-9.91,0-17.95-8.04-17.95-17.95
							V294.67H242.22z"/>
						<path style="fill:#D6B0FF;" d="M195.79,294.67h46.43v68.9h-38.91c-4.15,0-7.52-3.37-7.52-7.52V294.67z"/>
						<circle style="fill:#F5F4F9;" cx="137.339" cy="190.714" r="54.973"/>
						<circle style="fill:#F5F4F9;" cx="374.66" cy="190.714" r="54.973"/>
						<path style="fill:#CECAE0;" d="M193.81,106.011l8.014-24.608H72.854l8.014,24.608c1.161,3.563,4.482,5.975,8.23,5.975h96.482
							C189.328,111.986,192.65,109.574,193.81,106.011z"/>
					</g>
				</g>
				<g>
					<g>
						<path style="fill:#FFA052;" d="M129.374,210.745h-5.332c-6.508,0-11.802-5.294-11.802-11.802v-16.457
							c0-6.508,5.294-11.803,11.802-11.803h5.332c6.508,0,11.803,5.295,11.803,11.803v16.457
							C141.177,205.451,135.882,210.745,129.374,210.745z M124.043,180.683c-0.994,0-1.802,0.809-1.802,1.803v16.457
							c0,0.994,0.809,1.802,1.802,1.802h5.332c0.994,0,1.803-0.809,1.803-1.802v-16.457c0-0.994-0.809-1.803-1.803-1.803H124.043z"
							/>
						<path style="fill:#FFA052;" d="M158.191,210.745c-2.761,0-5-2.239-5-5v-25.062h-0.444c-2.761,0-5-2.239-5-5s2.239-5,5-5h5.444
							c2.761,0,5,2.239,5,5v30.062C163.191,208.506,160.952,210.745,158.191,210.745z"/>
					</g>
					<g>
						<path style="fill:#FFA052;" d="M359.987,210.745h-5.331c-6.508,0-11.803-5.294-11.803-11.802v-16.457
							c0-6.508,5.295-11.803,11.803-11.803h5.331c6.508,0,11.803,5.295,11.803,11.803v16.457
							C371.79,205.451,366.495,210.745,359.987,210.745z M354.656,180.683c-0.994,0-1.803,0.809-1.803,1.803v16.457
							c0,0.994,0.809,1.802,1.803,1.802h5.331c0.994,0,1.803-0.809,1.803-1.802v-16.457c0-0.994-0.809-1.803-1.803-1.803H354.656z"
							/>
						<path style="fill:#FFA052;" d="M401.468,210.305h-18.108c-2.122,0-4.012-1.339-4.716-3.341s-0.068-4.23,1.586-5.559
							c5.043-4.049,12.846-11.451,14.406-15.227c0.6-1.451,0.505-3.052-0.247-4.177c-0.585-0.875-1.455-1.318-2.587-1.318
							c-1.898,0-3.442,1.544-3.442,3.442c0,2.761-2.238,5-5,5s-5-2.239-5-5c0-7.412,6.03-13.442,13.442-13.442
							c4.479,0,8.452,2.099,10.899,5.76c2.624,3.923,3.063,8.99,1.177,13.555c-1.354,3.274-4.398,6.996-7.594,10.307h5.184
							c2.762,0,5,2.239,5,5S404.229,210.305,401.468,210.305z"/>
					</g>
				</g>
				<g>
					<g>
						<g>
							<path style="fill:#C182F9;" d="M190.632,298.49H84.046c-2.766,0-5.007-2.242-5.007-5.007s2.241-5.007,5.007-5.007h106.586
								c2.766,0,5.007,2.242,5.007,5.007S193.398,298.49,190.632,298.49z"/>
						</g>
						<g>
							<path style="fill:#F5F4F9;" d="M160.632,271.706h-46.586c-2.766,0-5.007-2.242-5.007-5.007s2.241-5.007,5.007-5.007h46.586
								c2.766,0,5.007,2.242,5.007,5.007S163.398,271.706,160.632,271.706z"/>
						</g>
					</g>
					<g>
						<g>
							<path style="fill:#C182F9;" d="M190.632,316.275H84.046c-2.766,0-5.007-2.242-5.007-5.007s2.241-5.007,5.007-5.007h106.586
								c2.766,0,5.007,2.242,5.007,5.007S193.398,316.275,190.632,316.275z"/>
						</g>
					</g>
					<g>
						<g>
							<path style="fill:#C182F9;" d="M190.632,334.06H84.046c-2.766,0-5.007-2.242-5.007-5.007s2.241-5.007,5.007-5.007h106.586
								c2.766,0,5.007,2.242,5.007,5.007S193.398,334.06,190.632,334.06z"/>
						</g>
					</g>
				</g>
				<g>
					<g>
						<g>
							<path style="fill:#FDD250;" d="M427.953,298.49H321.368c-2.766,0-5.007-2.242-5.007-5.007s2.241-5.007,5.007-5.007h106.586
								c2.766,0,5.007,2.242,5.007,5.007S430.719,298.49,427.953,298.49z"/>
						</g>
						<g>
							<path style="fill:#F5F4F9;" d="M397.953,271.706h-46.586c-2.766,0-5.007-2.242-5.007-5.007s2.241-5.007,5.007-5.007h46.586
								c2.766,0,5.007,2.242,5.007,5.007S400.719,271.706,397.953,271.706z"/>
						</g>
					</g>
					<g>
						<g>
							<path style="fill:#FDD250;" d="M427.953,316.275H321.368c-2.766,0-5.007-2.242-5.007-5.007s2.241-5.007,5.007-5.007h106.586
								c2.766,0,5.007,2.242,5.007,5.007S430.719,316.275,427.953,316.275z"/>
						</g>
					</g>
					<g>
						<g>
							<path style="fill:#FDD250;" d="M427.953,334.06H321.368c-2.766,0-5.007-2.242-5.007-5.007s2.241-5.007,5.007-5.007h106.586
								c2.766,0,5.007,2.242,5.007,5.007S430.719,334.06,427.953,334.06z"/>
						</g>
					</g>
				</g>
				<g>
					<g>
						<path style="fill:#FFA052;" d="M308.685,349.433h-105.37c-4.154,0-7.522-3.368-7.522-7.522v-79.542
							c0-4.154,3.368-7.522,7.522-7.522h105.37c4.154,0,7.522,3.368,7.522,7.522v79.542
							C316.207,346.065,312.839,349.433,308.685,349.433z"/>
						<path style="fill:#590BB2;" d="M461.594,76.403h-22.447c-2.165,0-4.084,1.393-4.754,3.452l-8.015,24.608
							c-0.492,1.509-1.889,2.523-3.476,2.523H326.42c-1.588,0-2.984-1.014-3.477-2.523l-5.881-18.06h94.543c2.762,0,5-2.239,5-5
							s-2.238-5-5-5H287.727c-12.651,0-22.944,10.293-22.944,22.945v150.499h-61.468c-6.905,0-12.522,5.617-12.522,12.522v79.542
							c0,6.905,5.617,12.522,12.522,12.522h33.902v58.219c0,7.138-5.807,12.944-12.944,12.944H50.406
							c-7.138,0-12.945-5.807-12.945-12.944V99.348c0-7.138,5.807-12.945,12.945-12.945h18.817l6.89,21.156
							c1.836,5.639,7.055,9.427,12.984,9.427h96.482c5.93,0,11.148-3.788,12.984-9.427l6.89-21.156h18.817
							c7.138,0,12.944,5.807,12.944,12.945v127.958c0,2.761,2.239,5,5,5s5-2.239,5-5V99.348c0-12.652-10.293-22.945-22.944-22.945
							H50.406c-12.652,0-22.945,10.293-22.945,22.945v313.305c0,12.651,10.293,22.944,22.945,22.944h173.866
							c12.651,0,22.944-10.293,22.944-22.944v-58.219h17.566v58.219c0,12.651,10.293,22.944,22.944,22.944h173.866
							c12.652,0,22.945-10.293,22.945-22.944V99.348C484.539,86.696,474.246,76.403,461.594,76.403z M189.056,104.462
							c-0.491,1.509-1.888,2.523-3.476,2.523H89.098c-1.587,0-2.984-1.014-3.476-2.523l-5.882-18.06h115.197L189.056,104.462z
							 M200.793,341.911v-79.542c0-1.391,1.131-2.522,2.522-2.522h105.371c1.391,0,2.521,1.131,2.521,2.522v79.542
							c0,1.391-1.131,2.522-2.521,2.522H203.315C201.924,344.433,200.793,343.302,200.793,341.911z M474.539,412.652
							c0,7.138-5.808,12.944-12.945,12.944H287.727c-7.138,0-12.944-5.807-12.944-12.944v-58.219h33.902
							c6.904,0,12.521-5.617,12.521-12.522v-79.542c0-6.905-5.617-12.522-12.521-12.522h-33.902V99.348
							c0-7.138,5.807-12.945,12.944-12.945h18.818l6.89,21.157c1.837,5.638,7.055,9.426,12.984,9.426h96.482
							c5.931,0,11.148-3.789,12.983-9.427l6.891-21.156h18.817c7.138,0,12.945,5.807,12.945,12.945V412.652z"/>
					</g>
					<g>
						<path style="fill:#F5F4F9;" d="M221.654,287.403h55.406c1.228,0,2.226,0.998,2.226,2.225v2.346
							c-1.606-0.348-3.349,0.093-4.598,1.341c-1.952,1.953-1.952,5.118,0.001,7.071l6.062,6.061
							c0.937,0.938,2.209,1.464,3.535,1.464s2.598-0.527,3.536-1.465l6.061-6.061c1.952-1.953,1.952-5.118-0.001-7.071
							c-1.248-1.248-2.99-1.689-4.596-1.342v-2.345c0-6.741-5.484-12.225-12.226-12.225h-55.406c-2.761,0-5,2.239-5,5
							S218.892,287.403,221.654,287.403z"/>
						<path style="fill:#F5F4F9;" d="M290.345,316.876H234.94c-1.227,0-2.225-0.998-2.225-2.225v-2.345
							c0.35,0.076,0.704,0.123,1.061,0.123c1.279,0,2.559-0.488,3.535-1.464c1.953-1.953,1.953-5.118,0-7.071l-6.061-6.062
							c-0.938-0.938-2.209-1.465-3.536-1.465s-2.598,0.527-3.536,1.465l-6.061,6.062c-1.953,1.953-1.953,5.118,0,7.071
							c1.248,1.248,2.99,1.689,4.596,1.341v2.345c0,6.741,5.484,12.225,12.225,12.225h55.406c2.762,0,5-2.239,5-5
							S293.107,316.876,290.345,316.876z"/>
					</g>
				</g>
				<g>
					<g>
						<path style="fill:#590BB2;" d="M131.505,408.667c-1.28,0-2.559-0.488-3.536-1.465c-1.953-1.953-1.953-5.118,0-7.071
							l5.834-5.833c1.953-1.952,5.119-1.952,7.071,0l5.833,5.833c1.953,1.953,1.953,5.119,0,7.071c-1.953,1.952-5.118,1.952-7.071,0
							l-2.298-2.298l-2.299,2.298C134.064,408.178,132.784,408.667,131.505,408.667z"/>
					</g>
					<g>
						<path style="fill:#590BB2;" d="M380.494,408.667c-1.279,0-2.56-0.488-3.536-1.465l-2.297-2.297l-2.299,2.298
							c-1.951,1.952-5.118,1.953-7.071,0c-1.952-1.953-1.952-5.118,0.001-7.071l5.834-5.833c0.938-0.938,2.209-1.464,3.535-1.464
							l0,0c1.326,0,2.598,0.527,3.536,1.465l5.833,5.833c1.952,1.953,1.952,5.118-0.001,7.071
							C383.053,408.178,381.773,408.667,380.494,408.667z"/>
					</g>
				</g>
			</g>
			<path style="fill:#FFA052;" d="M233.776,58.978c-2.761,0-5-2.239-5-5c0-3.306-2.689-5.995-5.995-5.995c-2.761,0-5-2.239-5-5
				s2.239-5,5-5c3.306,0,5.995-2.689,5.995-5.995c0-2.761,2.239-5,5-5s5,2.239,5,5c0,3.306,2.689,5.995,5.995,5.995
				c2.761,0,5,2.239,5,5s-2.239,5-5,5c-3.306,0-5.995,2.689-5.995,5.995C238.776,56.739,236.537,58.978,233.776,58.978z"/>
			<path style="fill:#C182F9;" d="M245,485.013c-2.761,0-5-2.239-5-5c0-3.306-2.689-5.995-5.996-5.995c-2.761,0-5-2.239-5-5
				s2.239-5,5-5c3.306,0,5.996-2.689,5.996-5.995c0-2.761,2.239-5,5-5s5,2.239,5,5c0,3.306,2.689,5.995,5.995,5.995
				c2.762,0,5,2.239,5,5s-2.238,5-5,5c-3.306,0-5.995,2.689-5.995,5.995C250,482.774,247.761,485.013,245,485.013z"/>
			<path style="fill:#FFA052;" d="M327.356,474.018c-2.762,0-5-2.239-5-5c0-3.306-2.689-5.995-5.996-5.995c-2.762,0-5-2.239-5-5
				s2.238-5,5-5c3.307,0,5.996-2.689,5.996-5.995c0-2.761,2.238-5,5-5s5,2.239,5,5c0,3.306,2.688,5.995,5.994,5.995
				c2.762,0,5,2.239,5,5s-2.238,5-5,5c-3.306,0-5.994,2.689-5.994,5.995C332.356,471.779,330.118,474.018,327.356,474.018z"/>
			<path style="fill:#FFE783;" d="M380.185,64.965c-1.121,0-2.249-0.375-3.182-1.145l-11.987-9.902
				c-1.022-0.845-1.667-2.061-1.793-3.381s0.278-2.636,1.123-3.659l9.902-11.987c1.758-2.128,4.908-2.43,7.039-0.67l11.987,9.902
				c1.022,0.845,1.667,2.061,1.793,3.381s-0.278,2.636-1.123,3.659l-9.902,11.987C383.054,64.346,381.626,64.965,380.185,64.965z
				 M375.24,49.393l4.277,3.533l3.534-4.278l-4.277-3.533L375.24,49.393z"/>
		</g>
	</g>
</g>
<g>
</g>
<g>
</g>
<g>
</g>
<g>
</g>
<g>
</g>
<g>
</g>
<g>
</g>
<g>
</g>
<g>
</g>
<g>
</g>
<g>
</g>
<g>
</g>
<g>
</g>
<g>
</g>
<g>
</g>
</svg>
