<?xml version="1.0" encoding="iso-8859-1"?>
<!-- Generator: Adobe Illustrator 23.0.3, SVG Export Plug-In . SVG Version: 6.00 Build 0)  -->
<svg version="1.1" id="Capa_1" xmlns="http://www.w3.org/2000/svg" xmlns:xlink="http://www.w3.org/1999/xlink" x="0px" y="0px"
	 viewBox="0 0 512 512" style="enable-background:new 0 0 512 512;" xml:space="preserve">
<g>
	<linearGradient id="SVGID_1_" gradientUnits="userSpaceOnUse" x1="225.8161" y1="253.5" x2="864.887" y2="253.5">
		<stop  offset="7.011211e-04" style="stop-color:#FFF0D5"/>
		<stop  offset="0.5112" style="stop-color:#FFDFFF"/>
		<stop  offset="1" style="stop-color:#D9CEFF"/>
	</linearGradient>
	<path style="fill:url(#SVGID_1_);" d="M505.626,289.418c-11.826-34.61-38.138-60.16-69.852-72.202
		c-16.43-6.239-27.346-21.856-27.587-39.429c-0.005-0.384-0.012-0.769-0.021-1.154c-1.507-64.582-55.488-116.33-120.077-115.221
		c-38.094,0.654-71.788,19.355-92.905,47.92c-18.185,24.599-46.49,39.965-77.08,39.949c-0.898,0-1.797,0.009-2.7,0.029
		C53.487,150.664,0.837,203.788,0.011,265.713c-0.879,65.932,52.303,119.654,118.032,119.654c50.947,0,94.349-32.277,110.886-77.497
		c4.327-11.832,17.152-18.174,29.283-14.772c0.151,0.042,0.303,0.085,0.455,0.127c11.099,3.064,18.458,13.64,17.55,25.119
		c-1.217,15.383,0.581,31.255,5.798,46.796c20.521,61.135,87.188,94.685,148.493,74.68
		C493.219,419.355,526.887,351.636,505.626,289.418z"/>
	<g>
		<path style="opacity:0.1;fill:#590BB2;" d="M382.658,291.841l-25.876-7.368c-2.534-10.33-6.613-20.059-11.982-28.912
			l13.092-23.516c1.11-1.999,0.762-4.5-0.856-6.118l-17.685-17.685c-1.618-1.618-4.119-1.966-6.118-0.856l-23.516,13.092
			c-7.051-4.276-14.665-7.718-22.689-10.229v-48.905c0-2.913-0.641-5.795-1.862-8.438l-20.089-43.2
			c-3.583-7.717-14.564-7.717-18.147,0l-20.099,43.2c-1.231,2.642-1.862,5.525-1.862,8.438v48.905
			c-8.024,2.511-15.638,5.952-22.689,10.229l-23.516-13.092c-1.999-1.11-4.5-0.762-6.118,0.856l-17.685,17.685
			c-1.618,1.618-1.966,4.119-0.856,6.118l13.092,23.516c-5.369,8.853-9.448,18.581-11.982,28.912l-25.876,7.368
			c-2.207,0.629-3.724,2.641-3.724,4.935v25.007c0,2.293,1.518,4.306,3.724,4.934l25.876,7.368
			c2.534,10.33,6.613,20.059,11.982,28.912l-13.092,23.516c-1.11,1.999-0.762,4.5,0.856,6.118l17.685,17.685
			c1.618,1.618,4.119,1.966,6.118,0.856l23.516-13.092c8.853,5.369,18.581,9.448,28.912,11.982l7.368,25.876
			c0.629,2.206,2.641,3.724,4.934,3.724h25.007c2.293,0,4.306-1.518,4.934-3.724l7.368-25.876
			c10.33-2.534,20.059-6.613,28.912-11.982l23.516,13.092c1.999,1.11,4.5,0.762,6.118-0.856l17.685-17.685
			c1.618-1.618,1.966-4.119,0.856-6.118l-13.092-23.516c5.369-8.853,9.448-18.581,11.982-28.912l25.876-7.368
			c2.207-0.628,3.724-2.641,3.724-4.934v-25.007C386.383,294.482,384.865,292.469,382.658,291.841z M202.375,309.278
			c0-18.048,8.927-34.002,22.597-43.722V353C211.302,343.281,202.375,327.326,202.375,309.278z M287.029,353v-87.443
			c13.669,9.719,22.596,25.674,22.596,43.722S300.698,343.281,287.029,353z"/>
		<g>
			<g>
				<path style="fill:#FFA052;" d="M444.633,292.119h-17.244c-3.401,0-6.158-2.757-6.158-6.158v-17.244
					c0-3.401,2.757-6.158,6.158-6.158h17.244c3.401,0,6.158,2.757,6.158,6.158v17.244
					C450.792,289.362,448.034,292.119,444.633,292.119z"/>
				<path style="fill:#FFA052;" d="M84.611,292.119H67.367c-3.401,0-6.158-2.757-6.158-6.158v-17.244
					c0-3.401,2.757-6.158,6.158-6.158h17.244c3.401,0,6.158,2.757,6.158,6.158v17.244C90.769,289.362,88.012,292.119,84.611,292.119
					z"/>
				<path style="fill:#FFA052;" d="M264.622,97.328h-17.244c-3.401,0-6.158-2.757-6.158-6.158V73.925
					c0-3.401,2.757-6.158,6.158-6.158h17.244c3.401,0,6.158,2.757,6.158,6.158v17.244C270.78,94.57,268.023,97.328,264.622,97.328z"
					/>
				<path style="fill:#FFA052;" d="M264.622,97.328h-17.244c-3.401,0-6.158-2.757-6.158-6.158V73.925
					c0-3.401,2.757-6.158,6.158-6.158h17.244c3.401,0,6.158,2.757,6.158,6.158v17.244C270.78,94.57,268.023,97.328,264.622,97.328z"
					/>
				<circle style="fill:#FFA052;" cx="450.792" cy="82.547" r="15.208"/>
				<circle style="fill:#FFA052;" cx="61.208" cy="82.547" r="15.208"/>
				<g>
					<path style="fill:#D6B0FF;" d="M382.659,312.841l-25.876-7.368c-2.534-10.33-6.613-20.059-11.982-28.912l13.092-23.516
						c1.11-1.999,0.762-4.5-0.856-6.118l-17.685-17.685c-1.618-1.618-4.119-1.966-6.118-0.856l-23.516,13.092
						c-8.853-5.369-18.581-9.448-28.912-11.982l-7.368-25.876c-0.629-2.206-2.641-3.724-4.934-3.724h-25.007
						c-2.293,0-4.306,1.518-4.934,3.724l-7.368,25.876c-10.33,2.534-20.059,6.613-28.912,11.982l-23.516-13.092
						c-1.999-1.11-4.5-0.762-6.118,0.856l-17.685,17.685c-1.618,1.618-1.966,4.119-0.856,6.118l13.092,23.516
						c-5.369,8.853-9.448,18.581-11.982,28.912l-25.876,7.368c-2.206,0.629-3.724,2.641-3.724,4.935v25.007
						c0,2.293,1.518,4.306,3.724,4.934l25.876,7.368c2.534,10.33,6.613,20.059,11.982,28.912l-13.092,23.516
						c-1.11,1.999-0.762,4.5,0.856,6.118l17.685,17.685c1.618,1.618,4.119,1.966,6.118,0.856l23.516-13.092
						c8.853,5.369,18.581,9.448,28.912,11.982l7.368,25.876c0.629,2.206,2.641,3.724,4.934,3.724h25.007
						c2.293,0,4.306-1.518,4.934-3.724l7.368-25.876c10.33-2.534,20.059-6.613,28.912-11.982l23.516,13.092
						c1.999,1.11,4.5,0.762,6.118-0.856l17.685-17.685c1.618-1.618,1.966-4.119,0.856-6.118l-13.092-23.516
						c5.369-8.853,9.448-18.581,11.982-28.912l25.876-7.368c2.206-0.629,3.724-2.641,3.724-4.934v-25.007
						C386.383,315.482,384.865,313.469,382.659,312.841z M256,383.904c-29.614,0-53.625-24.011-53.625-53.625
						c0-29.614,24.011-53.625,53.625-53.625s53.625,24.011,53.625,53.625C309.625,359.893,285.614,383.904,256,383.904z"/>
					<g>
						<path style="fill:#FFA052;" d="M287.029,182.344v191.677c-8.758,6.226-19.468,9.879-31.029,9.879
							c-11.571,0-22.271-3.663-31.029-9.899V182.344c0-2.913,0.631-5.795,1.862-8.438l20.099-43.2
							c3.583-7.717,14.564-7.717,18.147,0l20.089,43.2C286.388,176.549,287.029,179.431,287.029,182.344z"/>
						<path style="fill:#FFE783;" d="M256,188.099v195.801c-11.571,0-22.271-3.663-31.029-9.899V188.099H256z"/>
						<path style="fill:#FFD5B8;" d="M246.929,130.709l-20.094,43.192c-1.231,2.645-1.868,5.527-1.868,8.445v12.758
							c3.574,1.922,7.668,3.013,12.012,3.013c5.016,0,9.694-1.46,13.628-3.978c3.319-2.124,7.588-2.019,10.92,0.084
							c3.907,2.466,8.534,3.894,13.5,3.894c4.344,0,8.429-1.091,12.002-3.013v-12.76c0-2.916-0.637-5.797-1.867-8.442
							l-20.086-43.194C261.494,122.991,250.512,122.991,246.929,130.709z"/>
						<path style="fill:#B557FF;" d="M246.929,130.709l-10.991,23.644c5.476,4.475,12.453,7.167,20.06,7.167
							c7.618,0,14.605-2.693,20.07-7.177l-10.991-23.634C261.494,122.991,250.512,122.991,246.929,130.709z"/>
					</g>
					<g>
						<path style="fill:#590BB2;" d="M450.792,102.756c11.143,0,20.208-9.065,20.208-20.209c0-11.143-9.065-20.208-20.208-20.208
							c-9.415,0-17.323,6.48-19.557,15.208H275.78v-3.621c0-6.153-5.006-11.159-11.158-11.159h-17.244
							c-6.152,0-11.158,5.006-11.158,11.159v3.621H80.765c-2.234-8.728-10.142-15.208-19.557-15.208
							C50.065,62.339,41,71.404,41,82.547c0,11.144,9.065,20.209,20.208,20.209c9.415,0,17.323-6.481,19.557-15.209h115.113
							c-28.959,9.939-55.211,27.022-76.319,50.058c-30.194,32.952-47.304,75.379-48.497,119.954h-3.695
							c-6.153,0-11.159,5.006-11.159,11.158v17.244c0,6.152,5.006,11.158,11.159,11.158H84.61c6.153,0,11.159-5.006,11.159-11.158
							v-17.244c0-6.152-5.006-11.158-11.159-11.158h-3.542c1.19-42.067,17.365-82.096,45.865-113.198
							c28.674-31.294,67.373-50.985,109.287-55.701v2.51c0,6.152,5.006,11.158,11.158,11.158h17.244
							c6.152,0,11.158-5.006,11.158-11.158v-2.51c41.913,4.716,80.611,24.408,109.285,55.7c28.5,31.104,44.676,71.132,45.866,113.2
							h-3.542c-6.153,0-11.159,5.006-11.159,11.158v17.244c0,6.152,5.006,11.158,11.159,11.158h17.243
							c6.153,0,11.159-5.006,11.159-11.158v-17.244c0-6.152-5.006-11.158-11.159-11.158h-3.695
							c-1.193-44.576-18.304-87.004-48.499-119.956c-21.107-23.035-47.359-40.116-76.317-50.056h115.113
							C433.469,96.275,441.377,102.756,450.792,102.756z M85.77,268.717v17.244c0,0.639-0.52,1.158-1.159,1.158H67.367
							c-0.64,0-1.159-0.52-1.159-1.158v-17.244c0-0.639,0.52-1.158,1.159-1.158H84.61C85.25,267.559,85.77,268.078,85.77,268.717z
							 M445.792,268.717v17.244c0,0.639-0.52,1.158-1.159,1.158H427.39c-0.64,0-1.159-0.52-1.159-1.158v-17.244
							c0-0.639,0.52-1.158,1.159-1.158h17.243C445.272,267.559,445.792,268.078,445.792,268.717z M450.792,72.339
							c5.629,0,10.208,4.579,10.208,10.208s-4.579,10.209-10.208,10.209s-10.209-4.58-10.209-10.209S445.163,72.339,450.792,72.339z
							 M61.208,92.756C55.579,92.756,51,88.176,51,82.547s4.579-10.208,10.208-10.208s10.209,4.579,10.209,10.208
							S66.837,92.756,61.208,92.756z M265.78,91.169c0,0.639-0.52,1.158-1.158,1.158h-17.244c-0.639,0-1.158-0.52-1.158-1.158
							V73.926c0-0.64,0.52-1.159,1.158-1.159h17.244c0.639,0,1.158,0.52,1.158,1.159V91.169z"/>
						<path style="fill:#590BB2;" d="M384.027,308.032l-23.125-6.585c-2.392-8.725-5.86-17.096-10.341-24.954l11.703-21.022
							c2.182-3.932,1.486-8.898-1.692-12.079l-17.686-17.685c-3.18-3.179-8.147-3.877-12.085-1.689l-21.017,11.7
							c-5.657-3.224-11.61-5.933-17.752-8.089v-45.281c0-3.62-0.807-7.268-2.332-10.55l-20.088-43.2
							c-2.491-5.355-7.706-8.682-13.612-8.682c-5.905,0.001-11.12,3.327-13.609,8.682l-20.089,43.201
							c-1.525,3.281-2.332,6.929-2.332,10.549v45.278c-6.145,2.156-12.097,4.867-17.756,8.093l-21.022-11.704
							c-3.932-2.182-8.901-1.487-12.079,1.693l-17.687,17.686c-3.178,3.18-3.873,8.146-1.688,12.085l11.699,21.016
							c-4.48,7.858-7.949,16.229-10.341,24.954l-23.124,6.584c-4.331,1.232-7.356,5.239-7.356,9.744v25.007
							c0,4.504,3.025,8.511,7.355,9.742l23.125,6.586c2.392,8.725,5.86,17.095,10.341,24.953l-11.703,21.022
							c-2.182,3.932-1.486,8.898,1.692,12.079l17.686,17.686c3.18,3.179,8.147,3.879,12.085,1.688l21.017-11.699
							c7.858,4.48,16.229,7.949,24.954,10.341l6.584,23.124c1.232,4.331,5.239,7.356,9.744,7.356h25.006
							c4.505,0,8.512-3.025,9.743-7.355l6.585-23.125c8.725-2.392,17.096-5.86,24.954-10.341l21.021,11.702
							c3.932,2.186,8.901,1.489,12.081-1.691l17.687-17.687c3.178-3.18,3.873-8.146,1.688-12.084l-11.699-21.017
							c4.48-7.858,7.949-16.229,10.341-24.953l23.124-6.585c4.331-1.232,7.356-5.239,7.356-9.743v-25.007
							C391.383,313.271,388.357,309.264,384.027,308.032z M255.998,217c-2.762,0-5,2.238-5,5v156.647
							c-24.47-2.512-43.623-23.246-43.623-48.369c0-12.101,4.6-23.737,12.596-32.606v48.788c0,2.762,2.238,5,5,5s5-2.238,5-5
							V202.289c2.289,0.541,4.642,0.828,7.008,0.828c5.806,0,11.45-1.648,16.323-4.767c1.627-1.043,3.81-1.001,5.557,0.102
							c4.835,3.052,10.426,4.665,16.169,4.665c2.364,0,4.717-0.287,7.006-0.829v168.276c0,0.242,0.038,0.473,0.071,0.705
							c-6.222,3.976-13.396,6.587-21.106,7.378V222C260.998,219.238,258.76,217,255.998,217z M292.033,297.623
							c8.08,8.868,12.592,20.371,12.592,32.655c0,12.538-4.771,23.981-12.592,32.613V297.623z M251.46,132.814
							c1.25-2.688,3.792-2.897,4.542-2.897s3.293,0.209,4.543,2.898l9.227,19.843c-4.136,2.497-8.904,3.863-13.774,3.863
							c-4.936,0-9.625-1.335-13.77-3.853L251.46,132.814z M231.371,176.015l6.617-14.231c5.474,3.081,11.69,4.737,18.01,4.737
							c6.332,0,12.55-1.656,18.017-4.738l6.618,14.232c0.916,1.97,1.4,4.16,1.4,6.333v9.529c-2.228,0.819-4.573,1.24-7.006,1.24
							c-3.851,0-7.596-1.079-10.832-3.122c-5.013-3.164-11.405-3.189-16.284-0.067c-3.26,2.087-7.041,3.189-10.933,3.189
							c-2.398,0-4.775-0.431-7.008-1.245v-9.525C229.971,180.175,230.455,177.984,231.371,176.015z M381.383,342.782
							c0,0.06-0.036,0.108-0.094,0.125l-25.876,7.369c-1.728,0.492-3.059,1.873-3.487,3.617c-2.381,9.708-6.217,18.964-11.4,27.51
							c-0.932,1.536-0.968,3.455-0.093,5.024l13.088,23.51c0.027,0.05,0.019,0.119-0.019,0.157l-17.686,17.686
							c-0.04,0.038-0.107,0.046-0.15,0.022l-23.516-13.092c-1.572-0.875-3.488-0.84-5.025,0.093
							c-8.547,5.184-17.803,9.02-27.511,11.4c-1.744,0.429-3.125,1.76-3.617,3.487l-7.369,25.877
							c-0.016,0.057-0.064,0.093-0.125,0.093h-25.006c-0.061,0-0.109-0.036-0.126-0.094l-7.368-25.876
							c-0.492-1.728-1.873-3.059-3.617-3.487c-9.708-2.381-18.964-6.217-27.511-11.4c-1.536-0.932-3.453-0.968-5.025-0.093
							L176.339,427.8c-0.051,0.027-0.115,0.019-0.155-0.02l-17.685-17.685c-0.038-0.039-0.047-0.108-0.023-0.152l13.092-23.516
							c0.875-1.569,0.839-3.488-0.093-5.024c-5.184-8.546-9.02-17.802-11.4-27.51c-0.429-1.744-1.76-3.125-3.487-3.617l-25.877-7.37
							c-0.057-0.016-0.093-0.064-0.093-0.124v-25.007c0-0.061,0.036-0.109,0.094-0.126l25.876-7.368
							c1.728-0.492,3.059-1.873,3.487-3.617c2.381-9.708,6.217-18.964,11.4-27.511c0.932-1.536,0.968-3.455,0.093-5.024
							l-13.088-23.51c-0.027-0.05-0.019-0.119,0.019-0.157l17.686-17.685c0.039-0.037,0.108-0.047,0.15-0.023l23.516,13.092
							c1.572,0.875,3.489,0.838,5.025-0.093c4.805-2.915,9.863-5.413,15.096-7.464v45.772
							c-14.166,11.069-22.596,28.216-22.596,46.217c0,32.326,26.299,58.625,58.625,58.625s58.625-26.299,58.625-58.625
							c0-18.226-8.232-35.026-22.592-46.225V238.29c5.23,2.05,10.289,4.549,15.092,7.463c1.536,0.931,3.453,0.968,5.025,0.093
							l23.509-13.088c0.05-0.027,0.119-0.021,0.157,0.021l17.685,17.683c0.038,0.039,0.047,0.108,0.023,0.152l-13.092,23.516
							c-0.875,1.569-0.839,3.488,0.093,5.024c5.184,8.547,9.02,17.803,11.4,27.511c0.429,1.744,1.76,3.125,3.487,3.617l25.877,7.369
							c0.057,0.016,0.093,0.064,0.093,0.125V342.782z"/>
					</g>
				</g>
				<path style="opacity:0.1;fill:#590BB2;" d="M450.792,76.756c8.399,0,15.208-6.809,15.208-15.208
					c0-8.399-6.809-15.208-15.208-15.208c-6.645,0-12.28,4.269-14.35,10.208H270.78v-3.622c0-3.401-2.757-6.158-6.159-6.158h-17.244
					c-3.401,0-6.159,2.757-6.159,6.158v3.622H75.558c-2.07-5.939-7.705-10.208-14.35-10.208C52.809,46.339,46,53.148,46,61.547
					c0,8.399,6.809,15.208,15.208,15.208c6.645,0,12.28-4.269,14.35-10.209h128.134c-75.872,22.401-131.594,92.23-132.678,175.012
					h-3.648c-3.401,0-6.158,2.757-6.158,6.159v17.244c0,3.401,2.757,6.158,6.158,6.158h17.244c3.401,0,6.159-2.757,6.159-6.158
					v-17.244c0-3.401-2.757-6.159-6.159-6.159h-3.592C82.271,151.15,152.415,77.098,241.22,69.635v0.534
					c0,3.401,2.757,6.159,6.159,6.159h17.244c3.401,0,6.159-2.757,6.159-6.159v-0.534c88.805,7.462,158.949,81.514,160.201,171.923
					h-3.592c-3.401,0-6.158,2.757-6.158,6.159v17.244c0,3.401,2.757,6.158,6.158,6.158h17.244c3.401,0,6.158-2.757,6.158-6.158
					v-17.244c0-3.401-2.757-6.159-6.158-6.159h-3.648c-1.084-82.781-56.806-152.611-132.678-175.012h128.134
					C438.511,72.487,444.146,76.756,450.792,76.756z"/>
			</g>
			<path style="fill:#FFE783;" d="M58.292,159.216c-2.762,0-5-2.238-5-5c0-3.306-2.689-5.995-5.995-5.995c-2.762,0-5-2.238-5-5
				s2.238-5,5-5c3.306,0,5.995-2.689,5.995-5.995c0-2.762,2.238-5,5-5s5,2.238,5,5c0,3.306,2.689,5.995,5.995,5.995
				c2.762,0,5,2.238,5,5s-2.238,5-5,5c-3.306,0-5.995,2.689-5.995,5.995C63.292,156.978,61.054,159.216,58.292,159.216z"/>
			<path style="fill:#C182F9;" d="M345.519,187.102c-2.762,0-5-2.238-5-5c0-3.306-2.689-5.995-5.996-5.995c-2.762,0-5-2.238-5-5
				s2.238-5,5-5c3.307,0,5.996-2.689,5.996-5.995c0-2.762,2.238-5,5-5s5,2.238,5,5c0,3.306,2.689,5.995,5.995,5.995
				c2.762,0,5,2.238,5,5s-2.238,5-5,5c-3.306,0-5.995,2.689-5.995,5.995C350.519,184.863,348.28,187.102,345.519,187.102z"/>
			<path style="fill:#FFA052;" d="M101.764,437.988c-1.279,0-2.56-0.488-3.535-1.465l-10.994-10.994
				c-1.953-1.952-1.953-5.118,0-7.07l10.994-10.994c1.951-1.953,5.119-1.953,7.07,0l10.994,10.994c1.953,1.952,1.953,5.118,0,7.07
				l-10.994,10.994C104.323,437.5,103.043,437.988,101.764,437.988z M97.841,421.994l3.923,3.923l3.923-3.923l-3.923-3.923
				L97.841,421.994z"/>
			<path style="fill:#FFA052;" d="M432.58,358.48c-1.279,0-2.56-0.488-3.535-1.465l-10.994-10.994c-1.953-1.952-1.953-5.118,0-7.07
				l10.994-10.994c1.951-1.953,5.119-1.953,7.07,0l10.994,10.994c1.953,1.952,1.953,5.118,0,7.07l-10.994,10.994
				C435.14,357.991,433.859,358.48,432.58,358.48z M428.657,342.485l3.923,3.923l3.923-3.923l-3.923-3.923L428.657,342.485z"/>
		</g>
	</g>
</g>
<g>
</g>
<g>
</g>
<g>
</g>
<g>
</g>
<g>
</g>
<g>
</g>
<g>
</g>
<g>
</g>
<g>
</g>
<g>
</g>
<g>
</g>
<g>
</g>
<g>
</g>
<g>
</g>
<g>
</g>
</svg>
