<?xml version="1.0" encoding="iso-8859-1"?>
<!-- Generator: Adobe Illustrator 23.0.3, SVG Export Plug-In . SVG Version: 6.00 Build 0)  -->
<svg version="1.1" id="Capa_1" xmlns="http://www.w3.org/2000/svg" xmlns:xlink="http://www.w3.org/1999/xlink" x="0px" y="0px"
	 viewBox="0 0 512 512" style="enable-background:new 0 0 512 512;" xml:space="preserve">
<g>
	<linearGradient id="SVGID_1_" gradientUnits="userSpaceOnUse" x1="163.7567" y1="256" x2="1007.3747" y2="256">
		<stop  offset="7.011211e-04" style="stop-color:#FFF0D5"/>
		<stop  offset="0.5112" style="stop-color:#FFDFFF"/>
		<stop  offset="1" style="stop-color:#D9CEFF"/>
	</linearGradient>
	<path style="fill:url(#SVGID_1_);" d="M310.075,89.353C288.645,36.684,236.804-0.37,176.349,0.003
		C99.225,0.478,35.813,62.687,33.942,139.789c-0.923,38.04,12.978,72.821,36.334,98.983c18.619,20.856,27.963,48.325,27.021,76.268
		c-0.125,3.714-0.144,7.455-0.052,11.22c2.464,101.4,89.087,185.801,190.517,185.74c105.133-0.063,190.34-85.31,190.34-190.457
		c0-77.074-45.784-143.448-111.637-173.423C340.798,136.437,320.703,115.473,310.075,89.353z"/>
	<g>
		<path style="opacity:0.1;fill:#590BB2;" d="M454.99,76.725h-58.892v-15.01c0-8.286-6.725-15.01-15.01-15.01H130.913
			c-8.286,0-15.01,6.725-15.01,15.01v15.01H57.01c-8.286,0-15.01,6.725-15.01,15.01v314.47c0,8.286,6.725,15.01,15.01,15.01h58.892
			v15.01c0,8.286,6.725,15.01,15.01,15.01h250.175c8.286,0,15.01-6.725,15.01-15.01v-15.01h58.892c8.286,0,15.01-6.725,15.01-15.01
			V91.735C470,83.449,463.275,76.725,454.99,76.725z"/>
		<g>
			<g>
				<g>
					<g>
						<path style="fill:#F5F4F9;" d="M454.99,97.725h-94.917v344.491h94.917c8.286,0,15.01-6.725,15.01-15.01v-314.47
							C470,104.449,463.275,97.725,454.99,97.725z"/>
						<path style="fill:#FFBE92;" d="M432.123,326.009h-72.05v116.206h72.05c1.658,0,3.002-1.344,3.002-3.002V329.011
							C435.125,327.353,433.781,326.009,432.123,326.009z"/>
						<path style="fill:#FFE783;" d="M432.123,183.553h-72.05v116.206h72.05c1.658,0,3.002-1.344,3.002-3.002V186.555
							C435.125,184.897,433.781,183.553,432.123,183.553z"/>
						<path style="fill:#FDD250;" d="M454.99,97.725h-94.917v48.205H470v-33.195C470,104.445,463.279,97.725,454.99,97.725z"/>
					</g>
					<g>
						<path style="fill:#F5F4F9;" d="M148.925,97.725H57.01c-8.286,0-15.01,6.725-15.01,15.01v314.47
							c0,8.286,6.725,15.01,15.01,15.01h91.915V97.725z"/>
						<path style="fill:#FFBE92;" d="M148.925,399.799V267.707H71.871c-1.658,0-3.002,1.344-3.002,3.002v126.088
							c0,1.658,1.344,3.002,3.002,3.002H148.925z"/>
						<path style="fill:#D6B0FF;" d="M148.925,241.826v-42.029H71.871c-1.658,0-3.002,1.344-3.002,3.002v36.025
							c0,1.658,1.344,3.002,3.002,3.002H148.925z"/>
						<path style="fill:#FFA052;" d="M148.925,97.725H57.011c-8.29,0-15.01,6.72-15.01,15.01v33.195h106.925V97.725z"/>
					</g>
				</g>
				<g>
					<path style="fill:#F5F4F9;" d="M396.098,82.714v374.512c0,8.286-6.725,15.01-15.01,15.01H130.913
						c-8.286,0-15.01-6.725-15.01-15.01V82.714c0-8.286,6.725-15.01,15.01-15.01h250.175
						C389.373,67.704,396.098,74.428,396.098,82.714z"/>
					<rect x="115.902" y="146.033" style="fill:#FFBE92;" width="280.196" height="135.094"/>
					<path style="fill:#FFA052;" d="M396.098,146.033v105.374c-11.588,4.823-24.307,7.475-37.636,7.475
						c-54.278,0-98.279-44.011-98.279-98.289c0-4.943,0.37-9.807,1.071-14.56H396.098z"/>
					<path style="fill:#C182F9;" d="M396.098,115.909V82.714c0-8.29-6.72-15.01-15.01-15.01H130.913c-8.29,0-15.01,6.72-15.01,15.01
						v33.195H396.098z"/>
				</g>
				<g>
					<path style="fill:#590BB2;" d="M454.99,92.725h-53.892V82.714c0-11.033-8.977-20.01-20.01-20.01H130.913
						c-11.034,0-20.01,8.977-20.01,20.01v10.011H57.011C45.977,92.725,37,101.701,37,112.735v314.467
						c0,11.034,8.977,20.011,20.011,20.011h31.351c2.761,0,5-2.238,5-5s-2.239-5-5-5H57.011c-5.52,0-10.011-4.491-10.011-10.011
						V150.93h63.902v306.293c0,11.034,8.977,20.011,20.01,20.011h250.175c11.034,0,20.01-8.977,20.01-20.011v-10.01h53.892
						c11.034,0,20.01-8.977,20.01-20.011V112.735C475,101.701,466.023,92.725,454.99,92.725z M454.99,102.725
						c5.52,0,10.01,4.491,10.01,10.011v28.194h-63.902v-38.205H454.99z M130.913,72.704h250.175c5.52,0,10.01,4.49,10.01,10.01
						v28.195H120.902V82.714C120.902,77.194,125.393,72.704,130.913,72.704z M47,140.93v-28.194c0-5.52,4.491-10.011,10.011-10.011
						h53.892v38.205H47z M454.99,437.213h-53.892V173.47c0-2.762-2.239-5-5-5s-5,2.238-5,5v283.753
						c0,5.52-4.491,10.011-10.01,10.011H130.913c-5.52,0-10.01-4.491-10.01-10.011V120.909h270.195v25.021c0,2.762,2.239,5,5,5H465
						v276.272C465,432.722,460.509,437.213,454.99,437.213z"/>
					<path style="fill:#590BB2;" d="M80.108,116.755c-2.761,0-5,2.238-5,5v0.145c0,2.762,2.239,5,5,5s5-2.238,5-5v-0.145
						C85.108,118.993,82.87,116.755,80.108,116.755z"/>
					<path style="fill:#590BB2;" d="M99.447,116.755c-2.761,0-5,2.238-5,5v0.145c0,2.762,2.239,5,5,5s5-2.238,5-5v-0.145
						C104.447,118.993,102.208,116.755,99.447,116.755z"/>
					<path style="fill:#590BB2;" d="M154.011,96.879c2.761,0,5-2.238,5-5v-0.146c0-2.762-2.239-5-5-5s-5,2.238-5,5v0.146
						C149.011,94.641,151.25,96.879,154.011,96.879z"/>
					<path style="fill:#590BB2;" d="M173.349,96.879c2.761,0,5-2.238,5-5v-0.146c0-2.762-2.239-5-5-5s-5,2.238-5,5v0.146
						C168.349,94.641,170.588,96.879,173.349,96.879z"/>
					<path style="fill:#590BB2;" d="M192.688,96.879c2.761,0,5-2.238,5-5v-0.146c0-2.762-2.239-5-5-5s-5,2.238-5,5v0.146
						C187.688,94.641,189.926,96.879,192.688,96.879z"/>
					<path style="fill:#590BB2;" d="M361.997,198.428c-1.953-1.952-5.118-1.951-7.071-0.001c-1.953,1.953-1.953,5.119,0,7.071
						l2.312,2.313l-2.312,2.313c-1.953,1.952-1.953,5.118,0,7.071c0.976,0.976,2.255,1.464,3.535,1.464s2.56-0.488,3.536-1.465
						l5.847-5.848c1.953-1.952,1.953-5.118,0-7.07L361.997,198.428z"/>
					<path style="fill:#590BB2;" d="M157.074,198.427c-1.952-1.951-5.119-1.952-7.071,0.001l-5.847,5.848
						c-1.953,1.952-1.953,5.118,0,7.07l5.847,5.848c0.977,0.977,2.256,1.465,3.536,1.465c1.279,0,2.559-0.488,3.535-1.464
						c1.953-1.953,1.953-5.119,0-7.071l-2.312-2.313l2.312-2.313C159.027,203.546,159.027,200.38,157.074,198.427z"/>
				</g>
				<g>
					<circle style="fill:#B557FF;" cx="239.078" cy="262.841" r="5.594"/>
					<circle style="fill:#FF8736;" cx="256" cy="262.841" r="5.594"/>
					<circle style="fill:#FF8736;" cx="272.922" cy="262.841" r="5.594"/>
				</g>
				<g>
					<g>
						<g>
							<path style="fill:#C182F9;" d="M199.406,359.104h-62.71c-1.658,0-3.002-1.344-3.002-3.002v-44.698
								c0-1.658,1.344-3.002,3.002-3.002h62.71c1.658,0,3.002,1.344,3.002,3.002v44.698
								C202.408,357.76,201.064,359.104,199.406,359.104z"/>
							<path style="fill:#D6B0FF;" d="M188.983,359.103h-24.017V329.68c0-1.658,1.344-3.002,3.002-3.002h18.013
								c1.658,0,3.002,1.344,3.002,3.002V359.103z"/>
						</g>
						<g>
							<g>
								<path style="fill:#FFA052;" d="M185.434,384.665h-34.767c-2.768,0-5.012-2.244-5.012-5.012s2.243-5.012,5.012-5.012h34.767
									c2.768,0,5.012,2.244,5.012,5.012S188.202,384.665,185.434,384.665z"/>
							</g>
						</g>
						<g>
							<g>
								<path style="fill:#DDD9E4;" d="M199.902,420.647h-61.197c-2.768,0-5.012-2.244-5.012-5.012s2.243-5.012,5.012-5.012h61.197
									c2.768,0,5.012,2.244,5.012,5.012S202.67,420.647,199.902,420.647z"/>
							</g>
						</g>
						<g>
							<g>
								<path style="fill:#DDD9E4;" d="M199.902,440.16h-61.197c-2.768,0-5.012-2.244-5.012-5.012s2.243-5.012,5.012-5.012h61.197
									c2.768,0,5.012,2.244,5.012,5.012S202.67,440.16,199.902,440.16z"/>
							</g>
						</g>
					</g>
					<g>
						<g>
							<path style="fill:#C182F9;" d="M286.102,359.104h-62.71c-1.658,0-3.002-1.344-3.002-3.002v-44.698
								c0-1.658,1.344-3.002,3.002-3.002h62.71c1.658,0,3.002,1.344,3.002,3.002v44.698
								C289.104,357.76,287.76,359.104,286.102,359.104z"/>
							<path style="fill:#D6B0FF;" d="M275.68,359.103h-24.017V329.68c0-1.658,1.344-3.002,3.002-3.002h18.013
								c1.658,0,3.002,1.344,3.002,3.002V359.103z"/>
						</g>
						<g>
							<g>
								<path style="fill:#FFA052;" d="M272.13,384.665h-34.767c-2.768,0-5.012-2.244-5.012-5.012s2.243-5.012,5.012-5.012h34.767
									c2.768,0,5.012,2.244,5.012,5.012S274.899,384.665,272.13,384.665z"/>
							</g>
						</g>
						<g>
							<g>
								<path style="fill:#DDD9E4;" d="M286.599,420.647h-61.197c-2.768,0-5.012-2.244-5.012-5.012s2.243-5.012,5.012-5.012h61.197
									c2.768,0,5.012,2.244,5.012,5.012S289.367,420.647,286.599,420.647z"/>
							</g>
						</g>
						<g>
							<g>
								<path style="fill:#DDD9E4;" d="M286.599,440.16h-61.197c-2.768,0-5.012-2.244-5.012-5.012s2.243-5.012,5.012-5.012h61.197
									c2.768,0,5.012,2.244,5.012,5.012S289.367,440.16,286.599,440.16z"/>
							</g>
						</g>
					</g>
					<g>
						<g>
							<path style="fill:#C182F9;" d="M372.799,359.104h-62.71c-1.658,0-3.002-1.344-3.002-3.002v-44.698
								c0-1.658,1.344-3.002,3.002-3.002h62.71c1.658,0,3.002,1.344,3.002,3.002v44.698
								C375.801,357.76,374.457,359.104,372.799,359.104z"/>
							<path style="fill:#D6B0FF;" d="M362.376,359.103H338.36V329.68c0-1.658,1.344-3.002,3.002-3.002h18.013
								c1.658,0,3.002,1.344,3.002,3.002V359.103z"/>
						</g>
						<g>
							<g>
								<path style="fill:#FFA052;" d="M358.827,384.665H324.06c-2.768,0-5.012-2.244-5.012-5.012s2.243-5.012,5.012-5.012h34.767
									c2.768,0,5.012,2.244,5.012,5.012S361.595,384.665,358.827,384.665z"/>
							</g>
						</g>
						<g>
							<g>
								<path style="fill:#DDD9E4;" d="M373.295,420.647h-61.197c-2.768,0-5.012-2.244-5.012-5.012s2.243-5.012,5.012-5.012h61.197
									c2.768,0,5.012,2.244,5.012,5.012S376.063,420.647,373.295,420.647z"/>
							</g>
						</g>
						<g>
							<g>
								<path style="fill:#DDD9E4;" d="M373.295,440.16h-61.197c-2.768,0-5.012-2.244-5.012-5.012s2.243-5.012,5.012-5.012h61.197
									c2.768,0,5.012,2.244,5.012,5.012S376.063,440.16,373.295,440.16z"/>
							</g>
						</g>
					</g>
				</g>
			</g>
			<path style="fill:#FFA052;" d="M422.884,78.704c-1.326,0-2.598-0.526-3.536-1.465l-11.018-11.019
				c-0.938-0.938-1.464-2.209-1.464-3.535s0.527-2.598,1.464-3.535l11.018-11.018c1.953-1.953,5.118-1.953,7.071,0l11.018,11.018
				c0.938,0.938,1.464,2.209,1.464,3.535s-0.527,2.598-1.464,3.535L426.42,77.239C425.482,78.178,424.21,78.704,422.884,78.704z
				 M418.938,62.686l3.947,3.947l3.947-3.947l-3.947-3.946L418.938,62.686z"/>
			<path style="fill:#C182F9;" d="M85.691,492.515c-1.326,0-2.598-0.526-3.536-1.465l-11.018-11.019
				c-0.938-0.938-1.464-2.209-1.464-3.535s0.527-2.598,1.464-3.535l11.018-11.018c1.953-1.953,5.118-1.953,7.071,0l11.018,11.018
				c0.938,0.938,1.464,2.209,1.464,3.535s-0.527,2.598-1.464,3.535L89.227,491.05C88.29,491.988,87.018,492.515,85.691,492.515z
				 M81.745,476.496l3.947,3.947l3.947-3.947l-3.947-3.946L81.745,476.496z"/>
			<path style="fill:#C182F9;" d="M375.801,50.539c-1.28,0-2.559-0.488-3.536-1.465l-11.018-11.018
				c-0.938-0.938-1.464-2.209-1.464-3.535s0.527-2.598,1.464-3.535l11.018-11.018c1.954-1.953,5.119-1.952,7.071,0l11.018,11.018
				c1.953,1.952,1.953,5.118,0,7.07l-11.018,11.018C378.36,50.051,377.081,50.539,375.801,50.539z M371.854,34.521l3.947,3.946
				l3.946-3.946l-3.946-3.946L371.854,34.521z"/>
			<path style="fill:#FFE783;" d="M442.049,493.496c-2.761,0-5-2.238-5-5c0-3.318-2.7-6.018-6.018-6.018c-2.761,0-5-2.238-5-5
				s2.239-5,5-5c3.318,0,6.018-2.699,6.018-6.018c0-2.762,2.239-5,5-5s5,2.238,5,5c0,3.318,2.7,6.018,6.018,6.018
				c2.761,0,5,2.238,5,5s-2.239,5-5,5c-3.318,0-6.018,2.699-6.018,6.018C447.049,491.258,444.81,493.496,442.049,493.496z"/>
		</g>
	</g>
</g>
<g>
</g>
<g>
</g>
<g>
</g>
<g>
</g>
<g>
</g>
<g>
</g>
<g>
</g>
<g>
</g>
<g>
</g>
<g>
</g>
<g>
</g>
<g>
</g>
<g>
</g>
<g>
</g>
<g>
</g>
</svg>
