<?xml version="1.0" encoding="iso-8859-1"?>
<!-- Generator: Adobe Illustrator 23.0.3, SVG Export Plug-In . SVG Version: 6.00 Build 0)  -->
<svg version="1.1" id="Capa_1" xmlns="http://www.w3.org/2000/svg" xmlns:xlink="http://www.w3.org/1999/xlink" x="0px" y="0px"
	 viewBox="0 0 512 512" style="enable-background:new 0 0 512 512;" xml:space="preserve">
<g>
	<linearGradient id="SVGID_1_" gradientUnits="userSpaceOnUse" x1="225.8161" y1="256" x2="864.887" y2="256">
		<stop  offset="7.011211e-04" style="stop-color:#FFF0D5"/>
		<stop  offset="0.5112" style="stop-color:#FFDFFF"/>
		<stop  offset="1" style="stop-color:#D9CEFF"/>
	</linearGradient>
	<path style="fill:url(#SVGID_1_);" d="M505.626,291.918c-11.826-34.61-38.138-60.16-69.852-72.202
		c-16.43-6.239-27.346-21.856-27.587-39.429c-0.005-0.384-0.012-0.769-0.021-1.154c-1.507-64.582-55.488-116.33-120.077-115.221
		c-38.094,0.654-71.788,19.355-92.905,47.92c-18.185,24.599-46.49,39.965-77.08,39.949c-0.898,0-1.797,0.009-2.7,0.029
		C53.487,153.164,0.837,206.288,0.011,268.213c-0.879,65.932,52.303,119.654,118.032,119.654c50.947,0,94.349-32.277,110.886-77.497
		c4.327-11.832,17.152-18.174,29.283-14.772c0.151,0.042,0.303,0.085,0.455,0.127c11.099,3.064,18.458,13.64,17.55,25.119
		c-1.217,15.383,0.581,31.255,5.798,46.796c20.521,61.135,87.188,94.685,148.493,74.68
		C493.219,421.855,526.887,354.136,505.626,291.918z"/>
	<g>
		<path style="opacity:0.1;fill:#590BB2;" d="M456,93.666v284.25c0,8.28-6.72,15-15,15H71c-8.28,0-15-6.72-15-15V93.666
			c0-8.28,6.72-15,15-15h370C449.28,78.666,456,85.386,456,93.666z"/>
		<g>
			<g>
				<g>
					<g>
						<path style="fill:#F5F4F9;" d="M456,114.666v284.25c0,8.28-6.72,15-15,15H71c-8.28,0-15-6.72-15-15v-284.25
							c0-8.28,6.72-15,15-15h370C449.28,99.666,456,106.386,456,114.666z"/>
						<rect x="92.437" y="147.837" style="fill:#E8E6ED;" width="327.127" height="210.347"/>
						<path style="fill:#C182F9;" d="M456,147.837v-33.171c0-8.284-6.716-15-15-15H71c-8.284,0-15,6.716-15,15v33.171H456z"/>
					</g>
					<g>
						<path style="fill:#590BB2;" d="M89.082,123.679v0.146c0,2.762,2.239,5,5,5s5-2.238,5-5v-0.146c0-2.762-2.239-5-5-5
							S89.082,120.917,89.082,123.679z"/>
						<path style="fill:#590BB2;" d="M108.407,123.679v0.146c0,2.762,2.239,5,5,5s5-2.238,5-5v-0.146c0-2.762-2.239-5-5-5
							S108.407,120.917,108.407,123.679z"/>
						<path style="fill:#590BB2;" d="M127.731,123.679v0.146c0,2.762,2.239,5,5,5s5-2.238,5-5v-0.146c0-2.762-2.239-5-5-5
							S127.731,120.917,127.731,123.679z"/>
						<path style="fill:#590BB2;" d="M456,125.297c2.761,0,5-2.238,5-5v-5.631c0-11.028-8.972-20-20-20H71c-11.028,0-20,8.972-20,20
							v33.171c0,2.762,2.239,5,5,5h395v246.076c0,5.514-4.486,10-10,10H71c-5.514,0-10-4.486-10-10V175.378c0-2.762-2.239-5-5-5
							s-5,2.238-5,5v223.535c0,11.028,8.972,20,20,20h370c11.028,0,20-8.972,20-20V147.837c0-2.762-2.239-5-5-5H61v-28.171
							c0-5.514,4.486-10,10-10h370c5.514,0,10,4.486,10,10v5.631C451,123.059,453.239,125.297,456,125.297z"/>
					</g>
				</g>
			</g>
			<g>
				<g>
					<path style="fill:#FDD250;" d="M133.149,380.013h-16c-1.657,0-3-1.343-3-3v-90.866c0-1.657,1.343-3,3-3h16c1.657,0,3,1.343,3,3
						v90.866C136.149,378.67,134.806,380.013,133.149,380.013z"/>
					<path style="fill:#FFE783;" d="M100.437,380.013h-16c-1.657,0-3-1.343-3-3v-37.657c0-1.657,1.343-3,3-3h16c1.657,0,3,1.343,3,3
						v37.657C103.437,378.67,102.094,380.013,100.437,380.013z"/>
					<path style="fill:#FDD250;" d="M165.862,380.013h-16c-1.657,0-3-1.343-3-3v-48.34c0-1.657,1.343-3,3-3h16c1.657,0,3,1.343,3,3
						v48.34C168.862,378.67,167.519,380.013,165.862,380.013z"/>
					<path style="fill:#FFC136;" d="M198.575,380.013h-16c-1.657,0-3-1.343-3-3v-96.866c0-1.657,1.343-3,3-3h16c1.657,0,3,1.343,3,3
						v96.866C201.575,378.67,200.232,380.013,198.575,380.013z"/>
					<path style="fill:#FFAB15;" d="M231.287,380.013h-16c-1.657,0-3-1.343-3-3v-84.34c0-1.657,1.343-3,3-3h16c1.657,0,3,1.343,3,3
						v84.34C234.287,378.67,232.944,380.013,231.287,380.013z"/>
				</g>
				<g>
					<path style="fill:#FFD5B8;" d="M264,380.013h-16c-1.657,0-3-1.343-3-3V256.147c0-1.657,1.343-3,3-3h16c1.657,0,3,1.343,3,3
						v120.866C267,378.67,265.657,380.013,264,380.013z"/>
					<path style="fill:#FFBE92;" d="M296.713,380.013h-16c-1.657,0-3-1.343-3-3v-78.34c0-1.657,1.343-3,3-3h16c1.657,0,3,1.343,3,3
						v78.34C299.713,378.67,298.37,380.013,296.713,380.013z"/>
					<path style="fill:#FFA052;" d="M329.425,380.013h-16c-1.657,0-3-1.343-3-3V250.147c0-1.657,1.343-3,3-3h16c1.657,0,3,1.343,3,3
						v126.866C332.425,378.67,331.082,380.013,329.425,380.013z"/>
					<path style="fill:#FF8736;" d="M362.138,380.013h-16c-1.657,0-3-1.343-3-3v-114.34c0-1.657,1.343-3,3-3h16c1.657,0,3,1.343,3,3
						v114.34C365.138,378.67,363.795,380.013,362.138,380.013z"/>
				</g>
				<g>
					<path style="fill:#D6B0FF;" d="M394.851,380.013h-16c-1.657,0-3-1.343-3-3v-138.34c0-1.657,1.343-3,3-3h16c1.657,0,3,1.343,3,3
						v138.34C397.851,378.67,396.508,380.013,394.851,380.013z"/>
					<path style="fill:#C182F9;" d="M427.563,380.013h-16c-1.657,0-3-1.343-3-3V190.147c0-1.657,1.343-3,3-3h16c1.657,0,3,1.343,3,3
						v186.866C430.563,378.67,429.22,380.013,427.563,380.013z"/>
				</g>
			</g>
			<g>
				<path style="fill:#B557FF;" d="M149.342,194.367c0-9.159-7.452-16.611-16.611-16.611s-16.611,7.452-16.611,16.611
					c0,4.517,1.818,8.613,4.753,11.611c-2.936,2.998-4.753,7.094-4.753,11.611c0,2.762,2.239,5,5,5s5-2.238,5-5
					c0-3.646,2.966-6.611,6.611-6.611s6.611,2.966,6.611,6.611c0,2.762,2.239,5,5,5s5-2.238,5-5c0-4.517-1.818-8.614-4.753-11.611
					C147.525,202.98,149.342,198.884,149.342,194.367z M132.731,187.756c3.645,0,6.611,2.966,6.611,6.611
					c0,3.645-2.966,6.61-6.611,6.61s-6.611-2.966-6.611-6.61C126.121,190.722,129.086,187.756,132.731,187.756z"/>
				<g>
					<path style="fill:#CECAE0;" d="M224.953,196.866h89.981c2.829,0,5.123-2.294,5.123-5.123c0-2.829-2.293-5.123-5.123-5.123
						h-89.981c-2.829,0-5.123,2.294-5.123,5.123C219.83,194.572,222.123,196.866,224.953,196.866z"/>
				</g>
				<g>
					<path style="fill:#FFBE92;" d="M175.067,196.866h24.577c2.829,0,5.123-2.294,5.123-5.123c0-2.829-2.293-5.123-5.123-5.123
						h-24.577c-2.829,0-5.123,2.294-5.123,5.123C169.944,194.572,172.237,196.866,175.067,196.866z"/>
				</g>
				<g>
					<path style="fill:#CECAE0;" d="M175.067,217.185h139.866c2.829,0,5.123-2.294,5.123-5.123c0-2.829-2.293-5.123-5.123-5.123
						H175.067c-2.829,0-5.123,2.294-5.123,5.123C169.944,214.892,172.237,217.185,175.067,217.185z"/>
				</g>
			</g>
			<g>
				<circle style="fill:#FFBE92;" cx="122.589" cy="242.447" r="5.59"/>
				<circle style="fill:#FFBE92;" cx="139.5" cy="242.447" r="5.59"/>
				<circle style="fill:#FFBE92;" cx="156.411" cy="242.447" r="5.59"/>
			</g>
		</g>
		<path style="fill:#C182F9;" d="M380.851,83.309c-2.761,0-5-2.238-5-5c0-3.317-2.699-6.016-6.016-6.016c-2.761,0-5-2.238-5-5
			s2.239-5,5-5c3.317,0,6.016-2.698,6.016-6.016c0-2.762,2.239-5,5-5s5,2.238,5,5c0,3.317,2.699,6.016,6.016,6.016
			c2.761,0,5,2.238,5,5s-2.239,5-5,5c-3.317,0-6.016,2.698-6.016,6.016C385.851,81.07,383.612,83.309,380.851,83.309z"/>
		<path style="fill:#FFE783;" d="M185.882,69.686c-2.761,0-5-2.238-5-5c0-3.317-2.699-6.016-6.016-6.016c-2.761,0-5-2.238-5-5
			s2.239-5,5-5c3.317,0,6.016-2.698,6.016-6.016c0-2.762,2.239-5,5-5s5,2.238,5,5c0,3.317,2.699,6.016,6.016,6.016
			c2.761,0,5,2.238,5,5s-2.239,5-5,5c-3.317,0-6.016,2.698-6.016,6.016C190.882,67.447,188.644,69.686,185.882,69.686z"/>
		<path style="fill:#FFA052;" d="M288.713,464.213c-1.326,0-2.598-0.526-3.536-1.465l-10.995-10.995
			c-1.953-1.952-1.953-5.118,0-7.07l10.995-10.995c0.938-0.938,2.209-1.465,3.536-1.465l0,0c1.326,0,2.598,0.526,3.536,1.465
			l10.995,10.995c1.953,1.952,1.953,5.118,0,7.07l-10.995,10.995C291.311,463.687,290.039,464.213,288.713,464.213z
			 M284.789,448.218l3.924,3.924l3.924-3.924l-3.924-3.924L284.789,448.218z"/>
		<path style="fill:#C182F9;" d="M240.287,474.346c-1.28,0-2.559-0.488-3.536-1.465l-10.995-10.994
			c-0.938-0.938-1.464-2.209-1.464-3.535s0.527-2.598,1.464-3.535l10.995-10.995c0.938-0.938,2.209-1.465,3.536-1.465
			s2.598,0.526,3.536,1.465l10.995,10.995c0.938,0.938,1.464,2.209,1.464,3.535s-0.527,2.598-1.465,3.536l-10.995,10.994
			C242.846,473.857,241.566,474.346,240.287,474.346z M236.364,458.352l3.923,3.923l3.924-3.923l-3.924-3.924L236.364,458.352z"/>
	</g>
</g>
<g>
</g>
<g>
</g>
<g>
</g>
<g>
</g>
<g>
</g>
<g>
</g>
<g>
</g>
<g>
</g>
<g>
</g>
<g>
</g>
<g>
</g>
<g>
</g>
<g>
</g>
<g>
</g>
<g>
</g>
</svg>
