<?xml version="1.0" encoding="iso-8859-1"?>
<!-- Generator: Adobe Illustrator 23.0.3, SVG Export Plug-In . SVG Version: 6.00 Build 0)  -->
<svg version="1.1" id="Capa_1" xmlns="http://www.w3.org/2000/svg" xmlns:xlink="http://www.w3.org/1999/xlink" x="0px" y="0px"
	 viewBox="0 0 512 512" style="enable-background:new 0 0 512 512;" xml:space="preserve">
<g>
	<linearGradient id="SVGID_1_" gradientUnits="userSpaceOnUse" x1="206.8671" y1="255.9998" x2="802.4096" y2="255.9998">
		<stop  offset="7.011211e-04" style="stop-color:#FFF0D5"/>
		<stop  offset="0.5112" style="stop-color:#FFDFFF"/>
		<stop  offset="1" style="stop-color:#D9CEFF"/>
	</linearGradient>
	<path style="fill:url(#SVGID_1_);" d="M382.606,174.016c-0.192-0.001-0.385-0.002-0.577-0.002
		c-32.034-0.05-62.385-13.844-83.44-37.986c-31.366-35.964-77.6-58.622-129.121-58.393C75.956,78.049-1.195,156.615,0.014,250.12
		c1.203,92.986,76.955,167.995,170.227,167.995c26.343,0,51.286-5.987,73.547-16.672c19.194-9.213,42.065-6.784,58.968,6.161
		c21.863,16.745,49.19,26.713,78.846,26.763c71.382,0.119,129.981-58.02,130.396-129.401
		C512.416,232.917,454.556,174.439,382.606,174.016z"/>
	<g>
		<path style="opacity:0.1;fill:#590BB2;" d="M424.454,49.518H204.572c-8.276,0-14.992,6.716-14.992,14.992v82.233h-79.303
			c-4.156,0-7.525,3.369-7.525,7.525v70.569c0,4.156,3.369,7.525,7.525,7.525h79.303v122.509H85.65
			c-5.524,0-10.003,4.478-10.003,10.003v68.624c0,5.524,4.478,10.003,10.003,10.003h246.829c5.524,0,10.003-4.478,10.003-10.003
			V393.56h81.972c8.276,0,14.992-6.716,14.992-14.992V64.51C439.446,56.235,432.73,49.518,424.454,49.518z"/>
		<path style="fill:#C182F9;" d="M379.311,466.561c-2.762,0-5-2.238-5-5c0-3.313-2.695-6.009-6.008-6.009c-2.762,0-5-2.238-5-5
			s2.238-5,5-5c3.313,0,6.008-2.695,6.008-6.009c0-2.762,2.238-5,5-5s5,2.238,5,5c0,3.313,2.695,6.009,6.009,6.009
			c2.762,0,5,2.238,5,5s-2.238,5-5,5c-3.313,0-6.009,2.695-6.009,6.009C384.311,464.323,382.073,466.561,379.311,466.561z"/>
		<path style="fill:#FFE783;" d="M124.047,74.53c-2.761,0-5-2.238-5-5c0-3.316-2.698-6.015-6.015-6.015c-2.761,0-5-2.238-5-5
			s2.239-5,5-5c3.317,0,6.015-2.698,6.015-6.016c0-2.762,2.239-5,5-5s5,2.238,5,5c0,3.317,2.698,6.016,6.015,6.016
			c2.761,0,5,2.238,5,5s-2.239,5-5,5c-3.317,0-6.015,2.698-6.015,6.015C129.047,72.292,126.808,74.53,124.047,74.53z"/>
		<path style="fill:#FFA052;" d="M102.752,150.988c-1.326,0-2.598-0.526-3.536-1.465l-11.015-11.016
			c-0.938-0.938-1.464-2.209-1.464-3.535s0.527-2.598,1.464-3.535l11.015-11.015c1.953-1.953,5.118-1.953,7.071,0l11.015,11.015
			c0.938,0.938,1.464,2.209,1.464,3.535s-0.527,2.598-1.464,3.535l-11.015,11.016C105.35,150.462,104.078,150.988,102.752,150.988z
			 M98.808,134.972l3.944,3.944l3.944-3.944l-3.944-3.943L98.808,134.972z"/>
		<path style="fill:#C182F9;" d="M157.108,134.679c-2.761,0-5-2.238-5-5c0-3.317-2.698-6.016-6.015-6.016c-2.761,0-5-2.238-5-5
			s2.239-5,5-5c3.317,0,6.015-2.698,6.015-6.015c0-2.762,2.239-5,5-5s5,2.238,5,5c0,3.316,2.698,6.015,6.015,6.015
			c2.761,0,5,2.238,5,5s-2.239,5-5,5c-3.317,0-6.015,2.698-6.015,6.016C162.108,132.44,159.869,134.679,157.108,134.679z"/>
		<g>
			<g>
				<g>
					<g>
						<path style="fill:#AFABC6;" d="M439.446,85.51v314.058c0,8.276-6.716,14.992-14.992,14.992H204.572
							c-8.276,0-14.992-6.716-14.992-14.992V85.51c0-8.276,6.716-14.992,14.992-14.992h219.882
							C432.73,70.518,439.446,77.234,439.446,85.51z"/>
						<path style="fill:#DDD9E4;" d="M189.58,375.87v23.697c0,8.276,6.716,14.992,14.992,14.992h219.882
							c8.276,0,14.992-6.716,14.992-14.992V375.87H189.58z"/>
						<path style="fill:#E8E6ED;" d="M244.133,70.515v344.043h-39.561c-8.272,0-14.994-6.712-14.994-14.994V85.509
							c0-8.272,6.722-14.994,14.994-14.994H244.133z"/>
						<path style="fill:#DDD9E4;" d="M226.208,189.437v70.569c0,4.151-3.361,7.522-7.522,7.522h-29.108v-85.623h29.108
							C222.848,181.905,226.208,185.276,226.208,189.437z"/>
						<path style="fill:#FFA052;" d="M439.446,118.663V85.51c0-8.28-6.712-14.992-14.992-14.992H204.572
							c-8.28,0-14.992,6.712-14.992,14.992v33.154H439.446z"/>
					</g>
					<g>
						<g>
							<path style="fill:#E2CCFF;" d="M319.469,231.234h-15.736c-2.616,0-4.952,1.912-5.2,4.516
								c-0.285,2.987,2.056,5.501,4.985,5.501h15.951c2.766,0,5.008-2.242,5.008-5.008v0
								C324.477,233.477,322.235,231.234,319.469,231.234z"/>
							<path style="fill:#FFE783;" d="M379.909,231.234h-37.42c-2.766,0-5.008,2.242-5.008,5.008v0c0,2.766,2.242,5.008,5.008,5.008
								h37.635c2.929,0,5.27-2.514,4.985-5.501C384.861,233.146,382.525,231.234,379.909,231.234z"/>
						</g>
						<g>
							<path style="fill:#E2CCFF;" d="M355.479,252.204h-51.745c-2.616,0-4.951,1.912-5.2,4.516
								c-0.285,2.987,2.056,5.501,4.985,5.501h51.961c2.766,0,5.008-2.242,5.008-5.008v0
								C360.487,254.446,358.245,252.204,355.479,252.204z"/>
							<path style="fill:#FFE783;" d="M409.917,252.204h-31.419c-2.766,0-5.008,2.242-5.008,5.008v0
								c0,2.766,2.242,5.008,5.008,5.008h31.634c2.929,0,5.27-2.514,4.985-5.501C414.869,254.116,412.533,252.204,409.917,252.204z"
								/>
						</g>
						<g>
							<path style="fill:#E2CCFF;" d="M340.474,273.174h-36.741c-2.616,0-4.952,1.912-5.2,4.516
								c-0.285,2.987,2.056,5.501,4.985,5.501h36.957c2.766,0,5.008-2.242,5.008-5.008v0
								C345.483,275.416,343.241,273.174,340.474,273.174z"/>
							<path style="fill:#FFE783;" d="M379.909,273.174h-16.414c-2.766,0-5.008,2.242-5.008,5.008v0
								c0,2.766,2.242,5.008,5.008,5.008h16.63c2.929,0,5.27-2.514,4.985-5.501C384.861,275.086,382.525,273.174,379.909,273.174z"
								/>
						</g>
						<g>
							<path style="fill:#FFE783;" d="M409.918,294.144h-61.427c-2.766,0-5.008,2.242-5.008,5.008v0
								c0,2.766,2.242,5.008,5.008,5.008h61.642c2.929,0,5.27-2.514,4.985-5.501C414.869,296.056,412.533,294.144,409.918,294.144z"
								/>
							<path style="fill:#E2CCFF;" d="M325.47,294.144h-21.737c-2.616,0-4.952,1.912-5.2,4.516
								c-0.285,2.987,2.056,5.501,4.985,5.501h21.952c2.766,0,5.008-2.242,5.008-5.008v0
								C330.479,296.386,328.236,294.144,325.47,294.144z"/>
						</g>
					</g>
					<g>
						<g>
							<path style="fill:#F5F4F9;" d="M290.461,196.373h-16.736c-2.616,0-4.952,1.912-5.2,4.516
								c-0.285,2.987,2.056,5.501,4.985,5.501h16.951c2.766,0,5.009-2.242,5.009-5.008v0
								C295.469,198.616,293.227,196.373,290.461,196.373z"/>
							<path style="fill:#F5F4F9;" d="M379.909,196.373h-65.094c-2.766,0-5.009,2.242-5.009,5.008v0
								c0,2.766,2.242,5.008,5.009,5.008h65.309c2.929,0,5.27-2.514,4.985-5.501C384.861,198.286,382.525,196.373,379.909,196.373z"
								/>
						</g>
						<g>
							<path style="fill:#F5F4F9;" d="M290.461,331.975h-16.736c-2.616,0-4.952,1.912-5.2,4.516
								c-0.285,2.987,2.056,5.501,4.985,5.501h16.951c2.766,0,5.009-2.242,5.009-5.008l0,0
								C295.469,334.217,293.227,331.975,290.461,331.975z"/>
							<path style="fill:#F5F4F9;" d="M379.909,331.975h-65.094c-2.766,0-5.009,2.242-5.009,5.009l0,0
								c0,2.766,2.242,5.008,5.009,5.008h65.309c2.929,0,5.27-2.514,4.985-5.501C384.861,333.887,382.525,331.975,379.909,331.975z"
								/>
						</g>
					</g>
				</g>
				<g>
					<path style="fill:#C182F9;" d="M218.687,253.361h-108.41c-4.156,0-7.525-3.369-7.525-7.525v-70.569
						c0-4.156,3.369-7.525,7.525-7.525h108.41c4.156,0,7.525,3.369,7.525,7.525v70.569
						C226.212,249.992,222.843,253.361,218.687,253.361z"/>
					<g>
						<g>
							<g>
								<path style="fill:#F5F4F9;" d="M141.09,227.595c-1.28,0-2.561-0.489-3.537-1.465l-12.041-12.041
									c-1.954-1.954-1.954-5.121,0-7.075l12.041-12.041c1.952-1.953,5.122-1.953,7.074,0c1.954,1.954,1.954,5.121,0,7.075
									l-8.503,8.503l8.503,8.503c1.954,1.954,1.954,5.121,0,7.075C143.651,227.107,142.37,227.595,141.09,227.595z"/>
							</g>
							<g>
								<path style="fill:#F5F4F9;" d="M187.874,193.509c1.28,0,2.561,0.489,3.537,1.465l12.041,12.041
									c1.954,1.954,1.954,5.121,0,7.075L191.41,226.13c-1.952,1.953-5.122,1.953-7.074,0c-1.954-1.954-1.954-5.121,0-7.075
									l8.503-8.503l-8.503-8.503c-1.954-1.954-1.954-5.121,0-7.075C185.313,193.998,186.594,193.509,187.874,193.509z"/>
							</g>
						</g>
						<g>
							<path style="fill:#F5F4F9;" d="M157.678,227.596c-0.833,0-1.678-0.209-2.454-0.647c-2.406-1.359-3.255-4.41-1.896-6.816
								l13.598-24.081c1.358-2.405,4.41-3.254,6.815-1.896c2.406,1.359,3.255,4.41,1.896,6.816l-13.598,24.081
								C161.119,226.681,159.424,227.596,157.678,227.596z"/>
						</g>
					</g>
				</g>
			</g>
			<path style="fill:#F5F4F9;" d="M332.479,464.5H85.65c-5.524,0-10.003-4.478-10.003-10.003v-68.624
				c0-5.524,4.478-10.003,10.003-10.003h246.829c5.524,0,10.003,4.478,10.003,10.003v68.624
				C342.482,460.021,338.004,464.5,332.479,464.5z"/>
			<g>
				<path style="fill:#590BB2;" d="M227.641,89.518c-2.761,0-5,2.238-5,5v0.145c0,2.762,2.239,5,5,5s5-2.238,5-5v-0.145
					C232.641,91.757,230.403,89.518,227.641,89.518z"/>
				<path style="fill:#590BB2;" d="M246.956,89.518c-2.761,0-5,2.238-5,5v0.145c0,2.762,2.239,5,5,5s5-2.238,5-5v-0.145
					C251.956,91.757,249.717,89.518,246.956,89.518z"/>
				<path style="fill:#590BB2;" d="M266.27,89.518c-2.762,0-5,2.238-5,5v0.145c0,2.762,2.238,5,5,5s5-2.238,5-5v-0.145
					C271.27,91.757,269.032,89.518,266.27,89.518z"/>
				<path style="fill:#590BB2;" d="M424.454,65.517H204.572c-11.024,0-19.992,8.969-19.992,19.992v54.702c0,2.762,2.239,5,5,5
					s5-2.238,5-5v-16.549h239.866v275.902c0,5.509-4.482,9.991-9.992,9.991h-76.972v-23.684c0-8.272-6.73-15.003-15.003-15.003
					H217.128c-2.761,0-5,2.238-5,5s2.239,5,5,5h115.352c2.759,0,5.003,2.244,5.003,5.003v68.624c0,2.759-2.244,5.003-5.003,5.003
					H85.65c-2.759,0-5.003-2.244-5.003-5.003v-68.624c0-2.759,2.244-5.003,5.003-5.003h103.93c2.761,0,5-2.238,5-5V258.361h24.107
					c6.906,0,12.524-5.618,12.524-12.524v-70.569c0-6.906-5.619-12.524-12.524-12.524H110.277c-6.906,0-12.525,5.618-12.525,12.524
					v30.285h-5.1c-12.133,0-22.005,9.871-22.005,22.004v32.578c0,12.134,9.872,22.005,22.005,22.005h39.963
					c6.652,0,12.063,5.412,12.063,12.063s-5.412,12.063-12.063,12.063H92.652c-12.133,0-22.005,9.871-22.005,22.005
					s9.872,22.005,22.005,22.005h38.141c6.62,0,12.005,5.385,12.005,12.004v8.59H85.65c-8.272,0-15.003,6.73-15.003,15.003v68.624
					c0,8.272,6.73,15.003,15.003,15.003h246.829c8.272,0,15.003-6.73,15.003-15.003v-34.94h76.972
					c11.023,0,19.992-8.968,19.992-19.991V85.51C444.446,74.486,435.477,65.517,424.454,65.517z M107.752,175.267
					c0-1.392,1.133-2.524,2.525-2.524h108.411c1.392,0,2.524,1.133,2.524,2.524v70.569c0,1.392-1.132,2.524-2.524,2.524H110.277
					c-1.392,0-2.525-1.133-2.525-2.524V175.267z M130.793,340.276H92.652c-6.62,0-12.005-5.386-12.005-12.005
					s5.385-12.005,12.005-12.005h39.963c12.166,0,22.063-9.897,22.063-22.063s-9.897-22.063-22.063-22.063H92.652
					c-6.62,0-12.005-5.386-12.005-12.005v-32.578c0-6.619,5.385-12.004,12.005-12.004h5.1v30.284
					c0,6.906,5.619,12.524,12.525,12.524h74.303V370.87h-31.782v-8.59C152.798,350.147,142.927,340.276,130.793,340.276z
					 M194.58,113.663V85.51c0-5.51,4.482-9.992,9.992-9.992h219.882c5.51,0,9.992,4.482,9.992,9.992v28.153H194.58z"/>
				<path style="fill:#590BB2;" d="M224.83,291.928c0-2.762-2.239-5-5-5s-5,2.238-5,5v0.146c0,2.762,2.239,5,5,5s5-2.238,5-5
					V291.928z"/>
				<path style="fill:#590BB2;" d="M219.83,332.273c-2.761,0-5,2.238-5,5v0.146c0,2.762,2.239,5,5,5s5-2.238,5-5v-0.146
					C224.83,334.512,222.591,332.273,219.83,332.273z"/>
				<path style="fill:#590BB2;" d="M103.785,400.826c0-2.762-2.239-5-5-5s-5,2.238-5,5v0.115c0,2.762,2.239,5,5,5s5-2.238,5-5
					V400.826z"/>
				<path style="fill:#590BB2;" d="M128.291,400.826c0-2.762-2.239-5-5-5s-5,2.238-5,5v0.115c0,2.762,2.239,5,5,5s5-2.238,5-5
					V400.826z"/>
				<path style="fill:#590BB2;" d="M147.798,405.941c2.761,0,5-2.238,5-5v-0.115c0-2.762-2.239-5-5-5s-5,2.238-5,5v0.115
					C142.798,403.703,145.037,405.941,147.798,405.941z"/>
				<path style="fill:#590BB2;" d="M177.305,400.941v-0.115c0-2.762-2.239-5-5-5s-5,2.238-5,5v0.115c0,2.762,2.239,5,5,5
					S177.305,403.703,177.305,400.941z"/>
				<path style="fill:#590BB2;" d="M201.811,400.941v-0.115c0-2.762-2.239-5-5-5s-5,2.238-5,5v0.115c0,2.762,2.239,5,5,5
					S201.811,403.703,201.811,400.941z"/>
				<path style="fill:#590BB2;" d="M226.318,400.941v-0.115c0-2.762-2.239-5-5-5s-5,2.238-5,5v0.115c0,2.762,2.239,5,5,5
					S226.318,403.703,226.318,400.941z"/>
				<path style="fill:#590BB2;" d="M250.825,400.941v-0.115c0-2.762-2.239-5-5-5s-5,2.238-5,5v0.115c0,2.762,2.239,5,5,5
					S250.825,403.703,250.825,400.941z"/>
				<path style="fill:#590BB2;" d="M270.331,405.941c2.762,0,5-2.238,5-5v-0.115c0-2.762-2.238-5-5-5s-5,2.238-5,5v0.115
					C265.331,403.703,267.569,405.941,270.331,405.941z"/>
				<path style="fill:#590BB2;" d="M294.838,405.941c2.762,0,5-2.238,5-5v-0.115c0-2.762-2.238-5-5-5s-5,2.238-5,5v0.115
					C289.838,403.703,292.076,405.941,294.838,405.941z"/>
				<path style="fill:#590BB2;" d="M319.345,405.941c2.762,0,5-2.238,5-5v-0.115c0-2.762-2.238-5-5-5s-5,2.238-5,5v0.115
					C314.345,403.703,316.583,405.941,319.345,405.941z"/>
				<path style="fill:#590BB2;" d="M106.038,420.128v0.115c0,2.762,2.239,5,5,5s5-2.238,5-5v-0.115c0-2.762-2.239-5-5-5
					S106.038,417.366,106.038,420.128z"/>
				<path style="fill:#590BB2;" d="M130.545,420.128v0.115c0,2.762,2.239,5,5,5s5-2.238,5-5v-0.115c0-2.762-2.239-5-5-5
					S130.545,417.366,130.545,420.128z"/>
				<path style="fill:#590BB2;" d="M165.052,420.243v-0.115c0-2.762-2.239-5-5-5s-5,2.238-5,5v0.115c0,2.762,2.239,5,5,5
					S165.052,423.005,165.052,420.243z"/>
				<path style="fill:#590BB2;" d="M189.558,420.243v-0.115c0-2.762-2.239-5-5-5s-5,2.238-5,5v0.115c0,2.762,2.239,5,5,5
					S189.558,423.005,189.558,420.243z"/>
				<path style="fill:#590BB2;" d="M209.065,415.128c-2.761,0-5,2.238-5,5v0.115c0,2.762,2.239,5,5,5s5-2.238,5-5v-0.115
					C214.065,417.366,211.826,415.128,209.065,415.128z"/>
				<path style="fill:#590BB2;" d="M238.572,420.243v-0.115c0-2.762-2.239-5-5-5s-5,2.238-5,5v0.115c0,2.762,2.239,5,5,5
					S238.572,423.005,238.572,420.243z"/>
				<path style="fill:#590BB2;" d="M263.078,420.243v-0.115c0-2.762-2.238-5-5-5c-2.761,0-5,2.238-5,5v0.115c0,2.762,2.239,5,5,5
					C260.84,425.243,263.078,423.005,263.078,420.243z"/>
				<path style="fill:#590BB2;" d="M287.585,420.243v-0.115c0-2.762-2.238-5-5-5s-5,2.238-5,5v0.115c0,2.762,2.238,5,5,5
					S287.585,423.005,287.585,420.243z"/>
				<path style="fill:#590BB2;" d="M312.092,420.243v-0.115c0-2.762-2.238-5-5-5s-5,2.238-5,5v0.115c0,2.762,2.238,5,5,5
					S312.092,423.005,312.092,420.243z"/>
				<path style="fill:#590BB2;" d="M98.785,434.429c-2.761,0-5,2.238-5,5v0.115c0,2.762,2.239,5,5,5s5-2.238,5-5v-0.115
					C103.785,436.667,101.546,434.429,98.785,434.429z"/>
				<path style="fill:#590BB2;" d="M123.291,434.429c-2.761,0-5,2.238-5,5v0.115c0,2.762,2.239,5,5,5s5-2.238,5-5v-0.115
					C128.291,436.667,126.053,434.429,123.291,434.429z"/>
				<path style="fill:#590BB2;" d="M142.798,439.544c0,2.762,2.239,5,5,5h98.026c2.761,0,5-2.238,5-5s-2.239-5-5-5h-98.026
					C145.037,434.544,142.798,436.782,142.798,439.544z"/>
				<path style="fill:#590BB2;" d="M265.331,439.544c0,2.762,2.238,5,5,5s5-2.238,5-5v-0.115c0-2.762-2.238-5-5-5s-5,2.238-5,5
					V439.544z"/>
				<path style="fill:#590BB2;" d="M289.838,439.544c0,2.762,2.238,5,5,5s5-2.238,5-5v-0.115c0-2.762-2.238-5-5-5s-5,2.238-5,5
					V439.544z"/>
				<path style="fill:#590BB2;" d="M314.345,439.544c0,2.762,2.238,5,5,5s5-2.238,5-5v-0.115c0-2.762-2.238-5-5-5s-5,2.238-5,5
					V439.544z"/>
			</g>
		</g>
	</g>
</g>
<g>
</g>
<g>
</g>
<g>
</g>
<g>
</g>
<g>
</g>
<g>
</g>
<g>
</g>
<g>
</g>
<g>
</g>
<g>
</g>
<g>
</g>
<g>
</g>
<g>
</g>
<g>
</g>
<g>
</g>
</svg>
