<?xml version="1.0" encoding="iso-8859-1"?>
<!-- Generator: Adobe Illustrator 23.0.3, SVG Export Plug-In . SVG Version: 6.00 Build 0)  -->
<svg version="1.1" id="Capa_1" xmlns="http://www.w3.org/2000/svg" xmlns:xlink="http://www.w3.org/1999/xlink" x="0px" y="0px"
	 viewBox="0 0 512 512" style="enable-background:new 0 0 512 512;" xml:space="preserve">
<g>
	<linearGradient id="SVGID_1_" gradientUnits="userSpaceOnUse" x1="225.8161" y1="255.9995" x2="864.887" y2="255.9995">
		<stop  offset="7.011211e-04" style="stop-color:#FFF0D5"/>
		<stop  offset="0.5112" style="stop-color:#FFDFFF"/>
		<stop  offset="1" style="stop-color:#D9CEFF"/>
	</linearGradient>
	<path style="fill:url(#SVGID_1_);" d="M505.626,291.917c-11.826-34.61-38.138-60.16-69.852-72.202
		c-16.43-6.239-27.346-21.856-27.587-39.429c-0.005-0.384-0.012-0.769-0.021-1.154c-1.507-64.582-55.488-116.33-120.077-115.221
		c-38.094,0.654-71.788,19.355-92.905,47.92c-18.185,24.599-46.49,39.965-77.08,39.949c-0.898,0-1.797,0.009-2.7,0.029
		C53.487,153.163,0.837,206.287,0.011,268.213c-0.879,65.932,52.303,119.654,118.032,119.654c50.947,0,94.349-32.277,110.886-77.497
		c4.327-11.832,17.152-18.174,29.283-14.772c0.151,0.042,0.303,0.085,0.455,0.127c11.099,3.064,18.458,13.64,17.55,25.119
		c-1.217,15.383,0.581,31.255,5.798,46.796c20.521,61.135,87.188,94.685,148.493,74.68
		C493.219,421.855,526.887,354.135,505.626,291.917z"/>
	<g>
		<g>
			<g>
				<g>
					<path style="opacity:0.1;fill:#590BB2;" d="M475.324,105.074v254.578c0,8.291-6.729,15.019-15.019,15.019H51.695
						c-8.291,0-15.019-6.729-15.019-15.019V105.074c0-8.291,6.729-15.019,15.019-15.019h408.609
						C468.595,90.054,475.324,96.783,475.324,105.074z"/>
					<g>
						<g>
							<polygon style="fill:#AFABC6;" points="293.717,468.5 180.15,468.5 202.861,378.479 271.006,378.479 							"/>
							<polygon style="fill:#8E8CA8;" points="278.916,409.821 194.951,409.821 202.861,378.479 271.006,378.479 							"/>
							<g>
								<path style="fill:#F5F4F9;" d="M437.193,126.104v254.578c0,8.291-6.729,15.019-15.019,15.019H51.695
									c-8.291,0-15.019-6.729-15.019-15.019V126.104c0-8.291,6.729-15.019,15.019-15.019h370.478
									C430.464,111.084,437.193,117.813,437.193,126.104z"/>
								<g>
									<g>
										<path style="fill:#C182F9;" d="M129.88,290.351h90.087c2.833,0,5.129-2.296,5.129-5.129s-2.296-5.129-5.129-5.129H129.88
											c-2.833,0-5.129,2.296-5.129,5.129S127.048,290.351,129.88,290.351z"/>
									</g>
									<g>
										<path style="fill:#FFBE92;" d="M79.936,290.351h24.606c2.833,0,5.129-2.296,5.129-5.129s-2.296-5.129-5.129-5.129H79.936
											c-2.833,0-5.129,2.296-5.129,5.129S77.103,290.351,79.936,290.351z"/>
									</g>
									<g>
										<path style="fill:#DDD9E4;" d="M79.936,310.695h140.031c2.833,0,5.129-2.296,5.129-5.129c0-2.832-2.296-5.129-5.129-5.129
											H79.936c-2.833,0-5.129,2.296-5.129,5.129C74.807,308.398,77.103,310.695,79.936,310.695z"/>
									</g>
								</g>
								<path style="fill:#FFD5B8;" d="M437.193,249.242V126.104c0-8.291-6.729-15.019-15.019-15.019H51.695
									c-8.291,0-15.019,6.729-15.019,15.019v123.138H437.193z"/>
								<path style="fill:#FFA052;" d="M437.193,159.318v-33.214c0-8.295-6.724-15.019-15.019-15.019H51.695
									c-8.295,0-15.019,6.724-15.019,15.019v33.214H437.193z"/>
								<path style="fill:#CECAE0;" d="M36.676,345.244v35.435c0,8.295,6.724,15.019,15.019,15.019h370.478
									c8.295,0,15.019-6.724,15.019-15.019v-35.435H36.676z"/>
							</g>
						</g>
					</g>
				</g>
				<g>
					<g>
						<g>
							<g>
								<g>
									<path style="fill:#F5F4F9;" d="M475.323,127.144v325.223c0,8.867-7.19,16.057-16.057,16.057H277.997
										c-8.867,0-16.057-7.19-16.057-16.057V127.144c0-8.867,7.19-16.057,16.057-16.057h181.269
										C468.133,111.087,475.323,118.277,475.323,127.144z"/>
									<ellipse style="fill:#E8E6ED;" cx="261.939" cy="264.981" rx="65.258" ry="65.965"/>
									<path style="fill:#FFD5B8;" d="M475.318,127.148v168.248H261.937V127.148c0-8.871,7.189-16.059,16.059-16.059h181.273
										C468.13,111.089,475.318,118.277,475.318,127.148z"/>
									<path style="fill:#FFBE92;" d="M327.194,264.98c0,10.973-2.643,21.315-7.339,30.416h-57.918v-96.383
										C297.979,199.012,327.194,228.547,327.194,264.98z"/>
									<path style="fill:#CECAE0;" d="M432.242,133.223l7.133-22.138H297.889l7.133,22.138c1.033,3.206,3.989,5.376,7.325,5.376
										h112.57C428.252,138.598,431.209,136.429,432.242,133.223z"/>
								</g>
							</g>
						</g>
					</g>
				</g>
				<g>
					<g>
						<ellipse style="fill:#FFA052;" cx="261.939" cy="253.468" rx="65.258" ry="65.965"/>
						<path style="fill:#F5F4F9;" d="M274.747,260.61c3.873-3.531,6.324-8.619,6.324-14.285c0-10.634-8.582-19.285-19.132-19.285
							s-19.133,8.651-19.133,19.285c0,5.666,2.452,10.754,6.325,14.285c-3.873,3.532-6.325,8.619-6.325,14.286c0,2.762,2.238,5,5,5
							s5-2.238,5-5c0-5.12,4.097-9.286,9.133-9.286c5.035,0,9.132,4.166,9.132,9.286c0,2.762,2.238,5,5,5s5-2.238,5-5
							C281.071,269.229,278.62,264.142,274.747,260.61z M252.807,246.325c0-5.12,4.097-9.285,9.133-9.285
							c5.035,0,9.132,4.165,9.132,9.285s-4.097,9.285-9.132,9.285C256.903,255.61,252.807,251.445,252.807,246.325z"/>
					</g>
				</g>
			</g>
			<g>
				<g>
					<path style="fill:#C182F9;" d="M348.561,349.063h90.087c2.833,0,5.129-2.296,5.129-5.129c0-2.832-2.296-5.129-5.129-5.129
						h-90.087c-2.833,0-5.129,2.296-5.129,5.129C343.432,346.767,345.728,349.063,348.561,349.063z"/>
				</g>
				<g>
					<path style="fill:#FFBE92;" d="M298.616,349.063h24.606c2.833,0,5.129-2.296,5.129-5.129c0-2.832-2.296-5.129-5.129-5.129
						h-24.606c-2.833,0-5.129,2.296-5.129,5.129C293.487,346.767,295.783,349.063,298.616,349.063z"/>
				</g>
				<g>
					<path style="fill:#DDD9E4;" d="M298.616,369.407h140.031c2.833,0,5.129-2.296,5.129-5.129c0-2.832-2.296-5.129-5.129-5.129
						H298.616c-2.833,0-5.129,2.296-5.129,5.129C293.487,367.11,295.783,369.407,298.616,369.407z"/>
				</g>
				<g>
					<path style="fill:#DDD9E4;" d="M298.616,390.57h140.031c2.833,0,5.129-2.296,5.129-5.129s-2.296-5.129-5.129-5.129H298.616
						c-2.833,0-5.129,2.296-5.129,5.129S295.783,390.57,298.616,390.57z"/>
				</g>
			</g>
			<g>
				<path style="fill:#590BB2;" d="M74.808,140.274c2.762,0,5-2.238,5-5v-0.146c0-2.762-2.238-5-5-5s-5,2.238-5,5v0.146
					C69.808,138.036,72.046,140.274,74.808,140.274z"/>
				<path style="fill:#590BB2;" d="M94.157,140.274c2.762,0,5-2.238,5-5v-0.146c0-2.762-2.238-5-5-5s-5,2.238-5,5v0.146
					C89.157,138.036,91.396,140.274,94.157,140.274z"/>
				<path style="fill:#590BB2;" d="M113.507,140.274c2.762,0,5-2.238,5-5v-0.146c0-2.762-2.238-5-5-5s-5,2.238-5,5v0.146
					C108.507,138.036,110.745,140.274,113.507,140.274z"/>
				<path style="fill:#590BB2;" d="M459.267,106.084H51.695c-11.039,0-20.02,8.98-20.02,20.02v254.575
					c0,11.039,8.98,20.02,20.02,20.02H192.1l-15.843,62.795h-15.355c-2.762,0-5,2.238-5,5s2.238,5,5,5h19.141
					c0.037,0.001,0.074,0.007,0.11,0.007c0.028,0,0.054-0.006,0.082-0.007l279.031-0.071c11.611,0,21.058-9.446,21.058-21.058
					V127.141C480.324,115.531,470.878,106.084,459.267,106.084z M432.51,116.084l-5.028,15.605
					c-0.368,1.142-1.398,1.908-2.565,1.908h-112.57c-1.167,0-2.198-0.768-2.566-1.908l-5.028-15.605h117.421H432.51z
					 M261.939,314.433c-33.227,0-60.258-27.35-60.258-60.966s27.031-60.965,60.258-60.965s60.258,27.349,60.258,60.965
					S295.166,314.433,261.939,314.433z M51.695,116.084H260.11c-1.997,3.218-3.171,6.999-3.171,11.057v55.561
					c-36.413,2.601-65.258,33.335-65.258,70.765c0,37.431,28.844,68.165,65.258,70.766v16.011H41.676V164.318h192.688
					c2.762,0,5-2.238,5-5s-2.238-5-5-5H41.676v-28.214C41.676,120.58,46.171,116.084,51.695,116.084z M202.412,400.699h54.527
					v51.666c0,4.088,1.19,7.895,3.214,11.129h-73.584L202.412,400.699z M470.324,452.365c0,6.098-4.96,11.058-11.058,11.058H277.996
					c-6.097,0-11.057-4.96-11.057-11.058v-79.548c0-2.762-2.238-5-5-5s-5,2.238-5,5v17.882H51.695c-5.524,0-10.02-4.495-10.02-10.02
					v-30.435h220.264c2.762,0,5-2.238,5-5v-21.011c36.413-2.601,65.258-33.335,65.258-70.766c0-37.43-28.844-68.164-65.258-70.765
					v-55.561c0-6.097,4.96-11.057,11.057-11.057h16.251l6.016,18.673c1.705,5.288,6.561,8.841,12.084,8.841h112.57
					c5.524,0,10.38-3.554,12.083-8.842l6.016-18.672h16.251c6.098,0,11.058,4.96,11.058,11.057V452.365z"/>
				<path style="fill:#590BB2;" d="M372.167,419.955c-1.951-1.953-5.117-1.952-7.07-0.001l-5.841,5.84
					c-1.953,1.953-1.953,5.118-0.001,7.071c0.977,0.977,2.257,1.465,3.536,1.465s2.559-0.488,3.535-1.464l2.306-2.306l2.305,2.305
					c1.951,1.953,5.119,1.953,7.07,0c1.953-1.952,1.953-5.118,0-7.07L372.167,419.955z"/>
			</g>
			<g>
				<g>
					<circle style="fill:#C182F9;" cx="117.092" cy="208.837" r="5.597"/>
					<circle style="fill:#C182F9;" cx="134.023" cy="208.837" r="5.597"/>
					<circle style="fill:#C182F9;" cx="150.954" cy="208.837" r="5.597"/>
				</g>
				<g>
					<circle style="fill:#C182F9;" cx="361.046" cy="208.837" r="5.597"/>
					<circle style="fill:#C182F9;" cx="377.977" cy="208.837" r="5.597"/>
					<circle style="fill:#C182F9;" cx="394.908" cy="208.837" r="5.597"/>
				</g>
			</g>
		</g>
		<path style="fill:#C182F9;" d="M97.656,470.874c-2.762,0-5-2.238-5-5c0-3.32-2.702-6.022-6.022-6.022c-2.762,0-5-2.238-5-5
			s2.238-5,5-5c3.32,0,6.022-2.702,6.022-6.022c0-2.762,2.238-5,5-5s5,2.238,5,5c0,3.32,2.702,6.022,6.022,6.022
			c2.762,0,5,2.238,5,5s-2.238,5-5,5c-3.32,0-6.022,2.702-6.022,6.022C102.656,468.635,100.418,470.874,97.656,470.874z"/>
		<path style="fill:#C182F9;" d="M355.449,95.34c-2.762,0-5-2.238-5-5c0-3.32-2.702-6.021-6.022-6.021c-2.762,0-5-2.238-5-5
			s2.238-5,5-5c3.32,0,6.022-2.702,6.022-6.022c0-2.762,2.238-5,5-5s5,2.238,5,5c0,3.32,2.701,6.022,6.021,6.022
			c2.762,0,5,2.238,5,5s-2.238,5-5,5c-3.32,0-6.021,2.701-6.021,6.021C360.449,93.102,358.211,95.34,355.449,95.34z"/>
		<path style="fill:#FFA052;" d="M146.948,448.356c-2.762,0-5-2.238-5-5c0-3.32-2.702-6.022-6.022-6.022c-2.762,0-5-2.238-5-5
			s2.238-5,5-5c3.32,0,6.022-2.702,6.022-6.022c0-2.762,2.238-5,5-5s5,2.238,5,5c0,3.32,2.701,6.022,6.021,6.022
			c2.762,0,5,2.238,5,5s-2.238,5-5,5c-3.32,0-6.021,2.702-6.021,6.022C151.948,446.118,149.71,448.356,146.948,448.356z"/>
		<path style="fill:#FFE783;" d="M403.943,70.514c-1.326,0-2.598-0.526-3.536-1.465L389.4,58.042
			c-1.952-1.952-1.952-5.118,0.001-7.07l11.007-11.007c1.951-1.953,5.119-1.953,7.07,0l11.007,11.007
			c1.953,1.952,1.953,5.118,0.001,7.07l-11.007,11.008C406.541,69.988,405.27,70.514,403.943,70.514z M400.008,54.506l3.936,3.937
			l3.936-3.937l-3.936-3.936L400.008,54.506z"/>
	</g>
</g>
<g>
</g>
<g>
</g>
<g>
</g>
<g>
</g>
<g>
</g>
<g>
</g>
<g>
</g>
<g>
</g>
<g>
</g>
<g>
</g>
<g>
</g>
<g>
</g>
<g>
</g>
<g>
</g>
<g>
</g>
</svg>
