<?xml version="1.0" encoding="iso-8859-1"?>
<!-- Generator: Adobe Illustrator 23.0.3, SVG Export Plug-In . SVG Version: 6.00 Build 0)  -->
<svg version="1.1" id="Capa_1" xmlns="http://www.w3.org/2000/svg" xmlns:xlink="http://www.w3.org/1999/xlink" x="0px" y="0px"
	 viewBox="0 0 512 512" style="enable-background:new 0 0 512 512;" xml:space="preserve">
<g>
	<linearGradient id="SVGID_1_" gradientUnits="userSpaceOnUse" x1="215.7087" y1="253.5107" x2="852.3452" y2="253.5107">
		<stop  offset="7.011211e-04" style="stop-color:#FFF0D5"/>
		<stop  offset="0.5112" style="stop-color:#FFDFFF"/>
		<stop  offset="1" style="stop-color:#D9CEFF"/>
	</linearGradient>
	<path style="fill:url(#SVGID_1_);" d="M408.228,151.772c-23.697-9.236-43.717-26.089-55.961-48.381
		c-20.59-37.487-60.43-62.898-106.221-62.898c-47.53,0-88.646,27.377-108.477,67.219c-12.146,24.401-32.814,43.56-58.09,53.761
		c-37.349,15.074-68.703,49.524-78.653,103.382c-1.092,5.91-1.108,11.986-0.016,17.896c15.448,83.572,82.399,120.435,143.334,110.66
		c34.126-5.474,68.672,5.909,93.967,29.462c51.434,47.892,133.884,62.907,213.923,11.57c9.377-6.014,21.957-18.634,27.966-28.015
		C548.967,298.759,497.879,186.714,408.228,151.772z"/>
	<g>
		<g>
			<g>
				<path style="opacity:0.1;fill:#590BB2;" d="M396.259,55.538v374.946c0,8.289-6.738,15.027-15.027,15.027H130.768
					c-8.289,0-15.027-6.738-15.027-15.027V55.538c0-8.289,6.738-15.027,15.027-15.027h250.465
					C389.522,40.511,396.259,47.248,396.259,55.538z"/>
				<g>
					<path style="fill:#F5F4F9;" d="M396.26,76.541v374.94c0,8.29-6.74,15.03-15.03,15.03H130.77c-8.29,0-15.03-6.74-15.03-15.03
						V76.541c0-8.29,6.74-15.03,15.03-15.03h250.46C389.52,61.511,396.26,68.251,396.26,76.541z"/>
					<path style="fill:#E8E6ED;" d="M396.26,76.541v106.12c-7.34,6.89-17.22,11.11-28.05,11.11c-10.84,0-20.71-4.23-28.06-11.12
						c-7.34,6.89-17.21,11.12-28.05,11.12c-10.84,0-20.7-4.23-28.05-11.12c-7.34,6.89-17.21,11.12-28.05,11.12
						s-20.71-4.23-28.05-11.12c-7.35,6.89-17.21,11.12-28.05,11.12s-20.71-4.23-28.05-11.12c-7.35,6.89-17.22,11.12-28.06,11.12
						c-10.83,0-20.71-4.22-28.05-11.11V76.541c0-8.29,6.74-15.03,15.03-15.03h250.46C389.52,61.511,396.26,68.251,396.26,76.541z"/>
					<rect x="186" y="109.771" style="fill:#E8E6ED;" width="140" height="236.8"/>
					<path style="fill:#DDD9E4;" d="M326,109.771v81.57c-4.34,1.57-9.02,2.43-13.9,2.43c-10.84,0-20.7-4.23-28.05-11.12
						c-7.34,6.89-17.21,11.12-28.05,11.12s-20.71-4.23-28.05-11.12c-7.35,6.89-17.21,11.12-28.05,11.12c-4.88,0-9.56-0.86-13.9-2.43
						v-81.57H326z"/>
					<path style="fill:#FFA052;" d="M143.794,180.774L143.794,180.774c-15.492,0-28.051-12.559-28.051-28.051v-42.949h56.103v42.949
						C171.846,168.215,159.287,180.774,143.794,180.774z"/>
					<path style="fill:#FFE783;" d="M199.897,180.774L199.897,180.774c-15.492,0-28.051-12.559-28.051-28.051v-42.949h56.103v42.949
						C227.949,168.215,215.39,180.774,199.897,180.774z"/>
					<path style="fill:#FFA052;" d="M256,180.774L256,180.774c-15.492,0-28.051-12.559-28.051-28.051v-42.949h56.103v42.949
						C284.051,168.215,271.492,180.774,256,180.774z"/>
					<path style="fill:#FFE783;" d="M312.103,180.774L312.103,180.774c-15.492,0-28.051-12.559-28.051-28.051v-42.949h56.103v42.949
						C340.154,168.215,327.595,180.774,312.103,180.774z"/>
					<path style="fill:#FFA052;" d="M368.206,180.774L368.206,180.774c-15.492,0-28.051-12.559-28.051-28.051v-42.949h56.103v42.949
						C396.257,168.215,383.698,180.774,368.206,180.774z"/>
					<path style="fill:#C182F9;" d="M396.257,109.774V76.542c0-8.299-6.728-15.028-15.028-15.028H130.77
						c-8.299,0-15.028,6.728-15.028,15.028v33.232H396.257z"/>
					<g>
						<path style="fill:#590BB2;" d="M148.895,85.571v0.146c0,2.762,2.238,5,5,5s5-2.238,5-5v-0.146c0-2.762-2.238-5-5-5
							S148.895,82.81,148.895,85.571z"/>
						<path style="fill:#590BB2;" d="M168.255,85.571v0.146c0,2.762,2.238,5,5,5s5-2.238,5-5v-0.146c0-2.762-2.238-5-5-5
							S168.255,82.81,168.255,85.571z"/>
						<path style="fill:#590BB2;" d="M187.615,85.571v0.146c0,2.762,2.238,5,5,5s5-2.238,5-5v-0.146c0-2.762-2.238-5-5-5
							S187.615,82.81,187.615,85.571z"/>
						<path style="fill:#590BB2;" d="M381.229,56.515H130.771c-11.043,0-20.027,8.984-20.027,20.027v33.232c0,2.762,2.238,5,5,5
							c0.175,0,0.34-0.034,0.51-0.052c0.17,0.018,0.335,0.052,0.51,0.052H368.89c2.762,0,5-2.238,5-5s-2.238-5-5-5H120.743V76.542
							c0-5.529,4.498-10.027,10.027-10.027h250.459c5.529,0,10.027,4.498,10.027,10.027v374.938c0,5.529-4.498,10.027-10.027,10.027
							H130.771c-5.529,0-10.027-4.498-10.027-10.027V137.314c0-2.762-2.238-5-5-5s-5,2.238-5,5v314.165
							c0,11.043,8.984,20.027,20.027,20.027h250.459c11.043,0,20.027-8.984,20.027-20.027V76.542
							C401.257,65.499,392.272,56.515,381.229,56.515z"/>
					</g>
				</g>
			</g>
			<g>
				<path style="fill:#FF8736;" d="M300.279,227.417c-0.95-1.135-2.354-1.79-3.834-1.79h-58.587l-3.222-9.968
					c-0.667-2.063-2.589-3.462-4.758-3.462h-14.323c-2.762,0-5,2.238-5,5s2.238,5,5,5h10.685l12.14,37.554h-0.86
					c-2.762,0-5,2.238-5,5s2.238,5,5,5h52.834c2.423,0,4.496-1.736,4.922-4.121l6.092-34.124
					C301.628,230.049,301.229,228.552,300.279,227.417z M286.167,259.751H248.89l-7.799-24.124h49.383L286.167,259.751z"/>
				<g>
					<path style="fill:#FF8736;" d="M248.227,300.458c-7.175,0-13.012-5.837-13.012-13.012s5.837-13.012,13.012-13.012
						s13.013,5.837,13.013,13.012S255.401,300.458,248.227,300.458z M248.227,284.435c-1.661,0-3.012,1.351-3.012,3.012
						s1.351,3.012,3.012,3.012s3.013-1.351,3.013-3.012S249.888,284.435,248.227,284.435z"/>
					<path style="fill:#FF8736;" d="M285.563,300.458c-7.175,0-13.012-5.837-13.012-13.012s5.837-13.012,13.012-13.012
						s13.012,5.837,13.012,13.012S292.738,300.458,285.563,300.458z M285.563,284.435c-1.661,0-3.012,1.351-3.012,3.012
						s1.351,3.012,3.012,3.012s3.012-1.351,3.012-3.012S287.225,284.435,285.563,284.435z"/>
				</g>
			</g>
			<g>
				<path style="fill:#D6B0FF;" d="M323,367.328H189c-1.657,0-3-1.343-3-3v-35.507c0-1.657,1.343-3,3-3h134c1.657,0,3,1.343,3,3
					v35.507C326,365.985,324.657,367.328,323,367.328z"/>
			</g>
			<g>
				<g>
					<path style="fill:#C182F9;" d="M235.929,406.497h90.087c2.833,0,5.129-2.296,5.129-5.129s-2.296-5.129-5.129-5.129h-90.087
						c-2.833,0-5.129,2.296-5.129,5.129S233.096,406.497,235.929,406.497z"/>
				</g>
				<g>
					<path style="fill:#FFBE92;" d="M185.984,406.497h24.606c2.833,0,5.129-2.296,5.129-5.129s-2.296-5.129-5.129-5.129h-24.606
						c-2.833,0-5.129,2.296-5.129,5.129S183.152,406.497,185.984,406.497z"/>
				</g>
				<g>
					<path style="fill:#DDD9E4;" d="M185.984,426.841h140.031c2.833,0,5.129-2.296,5.129-5.129s-2.296-5.129-5.129-5.129H185.984
						c-2.833,0-5.129,2.296-5.129,5.129S183.152,426.841,185.984,426.841z"/>
				</g>
			</g>
		</g>
		<g>
			<path style="fill:#FFE783;" d="M81.484,143.546c-1.279,0-2.56-0.488-3.535-1.465l-10.994-10.994c-1.953-1.952-1.953-5.118,0-7.07
				l10.994-10.994c1.951-1.953,5.119-1.953,7.07,0l10.994,10.994c1.953,1.952,1.953,5.118,0,7.07L85.02,142.081
				C84.044,143.058,82.764,143.546,81.484,143.546z M77.562,127.552l3.923,3.923l3.923-3.923l-3.923-3.923L77.562,127.552z"/>
			<path style="fill:#C182F9;" d="M428.484,286.94c-1.279,0-2.56-0.488-3.535-1.465l-10.994-10.994c-1.953-1.952-1.953-5.118,0-7.07
				l10.994-10.994c1.951-1.953,5.119-1.953,7.07,0l10.994,10.994c1.953,1.952,1.953,5.118,0,7.07l-10.994,10.994
				C431.044,286.452,429.764,286.94,428.484,286.94z M424.562,270.946l3.923,3.923l3.923-3.923l-3.923-3.923L424.562,270.946z"/>
			<path style="fill:#FFA052;" d="M449.521,347.464c-1.279,0-2.56-0.488-3.535-1.465l-10.994-10.994
				c-1.953-1.952-1.953-5.118,0-7.07l10.994-10.994c1.951-1.953,5.119-1.953,7.07,0l10.994,10.994c1.953,1.952,1.953,5.118,0,7.07
				l-10.994,10.994C452.081,346.976,450.801,347.464,449.521,347.464z M445.599,331.47l3.923,3.923l3.923-3.923l-3.923-3.923
				L445.599,331.47z"/>
			<path style="fill:#C182F9;" d="M62.479,313.184c-2.762,0-5-2.238-5-5c0-3.306-2.689-5.995-5.995-5.995c-2.762,0-5-2.238-5-5
				s2.238-5,5-5c3.306,0,5.995-2.689,5.995-5.995c0-2.762,2.238-5,5-5s5,2.238,5,5c0,3.306,2.689,5.995,5.995,5.995
				c2.762,0,5,2.238,5,5s-2.238,5-5,5c-3.306,0-5.995,2.689-5.995,5.995C67.479,310.945,65.241,313.184,62.479,313.184z"/>
		</g>
	</g>
</g>
<g>
</g>
<g>
</g>
<g>
</g>
<g>
</g>
<g>
</g>
<g>
</g>
<g>
</g>
<g>
</g>
<g>
</g>
<g>
</g>
<g>
</g>
<g>
</g>
<g>
</g>
<g>
</g>
<g>
</g>
</svg>
