<?xml version="1.0" encoding="iso-8859-1"?>
<!-- Generator: Adobe Illustrator 23.0.3, SVG Export Plug-In . SVG Version: 6.00 Build 0)  -->
<svg version="1.1" id="Capa_1" xmlns="http://www.w3.org/2000/svg" xmlns:xlink="http://www.w3.org/1999/xlink" x="0px" y="0px"
	 viewBox="0 0 512 512" style="enable-background:new 0 0 512 512;" xml:space="preserve">
<g>
	<linearGradient id="SVGID_1_" gradientUnits="userSpaceOnUse" x1="225.8161" y1="256.0029" x2="864.887" y2="256.0029">
		<stop  offset="7.011211e-04" style="stop-color:#FFF0D5"/>
		<stop  offset="0.5112" style="stop-color:#FFDFFF"/>
		<stop  offset="1" style="stop-color:#D9CEFF"/>
	</linearGradient>
	<path style="fill:url(#SVGID_1_);" d="M505.626,291.92c-11.826-34.61-38.138-60.16-69.852-72.202
		c-16.43-6.239-27.346-21.856-27.587-39.429c-0.005-0.384-0.012-0.769-0.021-1.154c-1.507-64.582-55.488-116.33-120.077-115.221
		c-38.094,0.654-71.788,19.355-92.905,47.92c-18.185,24.599-46.49,39.965-77.08,39.949c-0.898,0-1.797,0.009-2.7,0.029
		C53.487,153.167,0.837,206.29,0.011,268.216C-0.869,334.148,52.313,387.87,118.043,387.87c50.947,0,94.349-32.277,110.886-77.497
		c4.327-11.832,17.152-18.174,29.283-14.772c0.151,0.042,0.303,0.085,0.455,0.127c11.099,3.064,18.458,13.64,17.55,25.119
		c-1.217,15.383,0.581,31.255,5.798,46.796c20.521,61.135,87.188,94.685,148.493,74.68
		C493.219,421.858,526.887,354.139,505.626,291.92z"/>
	<g>
		<g>
			<g>
				<path style="opacity:0.1;fill:#590BB2;" d="M484.799,337.145l-28.793-48.403V103.474c0-8.28-6.72-15-15-15H284.477
					c-3.473-7.326-9.688-13.1-17.32-15.992c4.639-2.566,8.725-6.707,11.735-12.095c1.347-2.411,0.484-5.457-1.927-6.804
					c-2.411-1.345-5.457-0.484-6.804,1.927c-3.528,6.317-8.689,9.939-14.16,9.939c-5.471,0-10.632-3.622-14.16-9.939
					c-1.346-2.409-4.391-3.272-6.804-1.927c-2.411,1.347-3.274,4.393-1.927,6.804c3.01,5.388,7.096,9.529,11.735,12.095
					c-7.632,2.892-13.847,8.665-17.32,15.992H70.995c-8.28,0-15,6.72-15,15v185.268l-28.793,48.403
					c-1.956,3.288,0.413,7.453,4.239,7.453h24.555v13.133c0,8.28,6.72,15,15,15h370.011c8.28,0,15-6.72,15-15v-13.133h24.555
					C484.386,344.598,486.755,340.432,484.799,337.145z"/>
				<g>
					<g>
						<g>
							<g>
								<polygon style="fill:#AFABC6;" points="312.711,466.438 199.287,466.438 221.97,376.531 290.029,376.531 								"/>
								<polygon style="fill:#8E8CA8;" points="297.929,407.834 214.07,407.834 221.97,376.531 290.029,376.531 								"/>
								<g>
									<path style="fill:#FFEADC;" d="M456.006,124.474v254.258c0,8.28-6.72,15-15,15H70.995c-8.28,0-15-6.72-15-15V124.474
										c0-8.28,6.72-15,15-15h370.011C449.286,109.474,456.006,116.194,456.006,124.474z"/>
									<path style="fill:#FFD5B8;" d="M369.711,220.512l-11.202-11.202c-1.876-1.875-4.419-2.929-7.072-2.929h-23.358
										c-1.261-7.034-3.52-13.716-6.635-19.9l13.369-13.369l11.7,0c2.761,0,5.262-1.12,7.071-2.929
										c1.81-1.81,2.929-4.31,2.929-7.071c0-5.523-4.478-10-10.001-10.001h-15.843c-2.652,0-5.196,1.054-7.071,2.929
										l-13.724,13.724c-13.386-14.527-32.565-23.635-53.876-23.635s-40.49,9.108-53.876,23.635L188.4,156.04
										c-1.876-1.876-4.419-2.929-7.071-2.929h-15.843c-5.523,0-10,4.478-10.001,10.001c0,2.761,1.12,5.262,2.929,7.071
										c1.81,1.81,4.31,2.929,7.071,2.929l11.7,0l13.369,13.369c-3.115,6.184-5.375,12.866-6.635,19.9h-23.358
										c-2.652,0-5.196,1.054-7.071,2.929l-11.202,11.202c-3.905,3.905-3.905,10.238,0,14.143
										c1.953,1.952,4.512,2.929,7.071,2.929s5.119-0.977,7.072-2.929l8.273-8.274h18.383c1.049,11.064,4.559,21.408,9.977,30.485
										c-0.042,0.04-0.087,0.075-0.128,0.116l-15.75,15.75l-11.7,0c-2.761,0-5.262,1.12-7.071,2.929
										c-1.81,1.81-2.929,4.31-2.929,7.071c0,5.523,4.478,10,10.001,10.001h15.843c2.652,0,5.196-1.054,7.071-2.929l17.247-17.247
										c13.128,12.435,30.843,20.078,50.353,20.078s37.225-7.642,50.353-20.078l17.247,17.247
										c1.876,1.876,4.419,2.929,7.071,2.929h15.843c5.523,0,10-4.478,10.001-10.001c0-2.761-1.12-5.262-2.929-7.071
										c-1.81-1.81-4.31-2.929-7.071-2.929l-11.7,0l-15.75-15.75c-0.041-0.041-0.086-0.076-0.128-0.116
										c5.418-9.077,8.928-19.421,9.977-30.485h18.383l8.273,8.274c1.953,1.952,4.512,2.929,7.072,2.929
										c2.559,0,5.119-0.977,7.072-2.929C373.616,230.75,373.616,224.417,369.711,220.512z"/>
									<g>
										<g>
											<g>
												<path style="fill:#D6B0FF;" d="M145.926,192.619H416.02c2.833,0,5.129-2.296,5.129-5.129
													c0-2.832-2.296-5.129-5.129-5.129H145.926c-2.833,0-5.129,2.296-5.129,5.129
													C140.797,190.322,143.093,192.619,145.926,192.619z"/>
											</g>
											<g>
												<path style="fill:#D6B0FF;" d="M95.98,192.619h24.607c2.833,0,5.129-2.296,5.129-5.129c0-2.832-2.296-5.129-5.129-5.129
													H95.98c-2.833,0-5.129,2.296-5.129,5.129C90.851,190.322,93.147,192.619,95.98,192.619z"/>
											</g>
											<g>
												<path style="fill:#D6B0FF;" d="M95.98,212.963H416.02c2.833,0,5.129-2.296,5.129-5.129c0-2.832-2.296-5.129-5.129-5.129
													H95.98c-2.833,0-5.129,2.296-5.129,5.129C90.851,210.666,93.147,212.963,95.98,212.963z"/>
											</g>
										</g>
										<g>
											<g>
												<path style="fill:#D6B0FF;" d="M421.145,239.033c0,2.83-2.29,5.13-5.12,5.13H145.927c-2.83,0-5.13-2.3-5.13-5.13
													c0-1.61,0.74-3.04,1.9-3.98c0.88-0.72,2.01-1.15,3.23-1.15h270.098C418.855,233.903,421.145,236.203,421.145,239.033z"
													/>
											</g>
											<path style="fill:#CCA1FF;" d="M145.927,233.903h11.25l-0.75,0.75c-1.95,1.95-4.51,2.93-7.07,2.93
												c-2.38,0-4.77-0.85-6.66-2.53C143.577,234.333,144.707,233.903,145.927,233.903z"/>
											<path style="fill:#CCA1FF;" d="M370.393,233.903c-0.21,0.26-0.44,0.51-0.68,0.75c-1.95,1.95-4.51,2.93-7.07,2.93
												c-2.56,0-5.12-0.98-7.07-2.93l-0.75-0.75H370.393z"/>
											<g>
												<path style="fill:#D6B0FF;" d="M95.98,244.159h24.607c2.833,0,5.129-2.296,5.129-5.129c0-2.832-2.296-5.129-5.129-5.129
													H95.98c-2.833,0-5.129,2.296-5.129,5.129C90.851,241.863,93.147,244.159,95.98,244.159z"/>
											</g>
											<g>
												<path style="fill:#D6B0FF;" d="M95.98,264.503H416.02c2.833,0,5.129-2.296,5.129-5.129c0-2.832-2.296-5.129-5.129-5.129
													H95.98c-2.833,0-5.129,2.296-5.129,5.129C90.851,262.207,93.147,264.503,95.98,264.503z"/>
											</g>
										</g>
										<g>
											<g>
												<path style="fill:#D6B0FF;" d="M421.145,290.574c0,2.83-2.29,5.12-5.12,5.12H145.927c-2.83,0-5.13-2.29-5.13-5.12
													c0-2.84,2.3-5.13,5.13-5.13h270.098C418.855,285.444,421.145,287.734,421.145,290.574z"/>
											</g>
											<path style="fill:#CCA1FF;" d="M157.287,285.444h32.471l-1.36,1.36c-1.87,1.88-4.42,2.93-7.07,2.93h-15.84
												C162.087,289.734,159.087,288.034,157.287,285.444z"/>
											<path style="fill:#CCA1FF;" d="M231.549,285.444h48.901c-7.64,2.71-15.87,4.19-24.451,4.19
												C247.42,289.634,239.189,288.154,231.549,285.444z"/>
											<path style="fill:#CCA1FF;" d="M354.713,285.444c-1.8,2.59-4.8,4.29-8.2,4.29h-15.84c-2.65,0-5.2-1.05-7.07-2.93
												l-1.36-1.36H354.713z"/>
											<g>
												<path style="fill:#D6B0FF;" d="M95.98,295.699h24.607c2.833,0,5.129-2.296,5.129-5.129s-2.296-5.129-5.129-5.129H95.98
													c-2.833,0-5.129,2.296-5.129,5.129S93.147,295.699,95.98,295.699z"/>
											</g>
											<g>
												<path style="fill:#D6B0FF;" d="M95.98,316.044H416.02c2.833,0,5.129-2.296,5.129-5.129c0-2.832-2.296-5.129-5.129-5.129
													H95.98c-2.833,0-5.129,2.296-5.129,5.129C90.851,313.747,93.147,316.044,95.98,316.044z"/>
											</g>
										</g>
									</g>
									<path style="fill:#C182F9;" d="M456.006,157.647v-33.172c0-8.285-6.716-15-15-15H70.995c-8.285,0-15,6.716-15,15v33.172
										H456.006z"/>
									<path style="fill:#CECAE0;" d="M456.006,343.336v35.391c0,8.29-6.72,15-15,15H70.995c-8.28,0-15-6.71-15-15v-35.391
										H456.006z"/>
									<path style="fill:#AFABC6;" d="M456.006,343.336v34.261h-91.263c-3.83,0-6.19-4.16-4.24-7.45l15.95-26.811H456.006z"/>
									<path style="fill:#AFABC6;" d="M147.257,377.597H55.994v-34.261h79.552l15.95,26.811
										C153.447,373.437,151.087,377.597,147.257,377.597z"/>
								</g>
							</g>
						</g>
					</g>
					<g>
						<g>
							<g>
								<path style="fill:#FF8736;" d="M362.64,225.583c-2.559,0-5.119-0.977-7.071-2.929l-8.273-8.274h-22.274
									c-5.523,0-10-4.478-10-10c0-5.523,4.477-10,10-10h26.416c2.652,0,5.196,1.054,7.071,2.929l11.202,11.202
									c3.905,3.905,3.905,10.238,0,14.143C367.758,224.607,365.199,225.583,362.64,225.583z"/>
							</g>
							<g>
								<path style="fill:#FF8736;" d="M149.36,225.583c2.559,0,5.119-0.977,7.072-2.929l8.273-8.274h22.274c5.523,0,10-4.478,10-10
									c0-5.523-4.477-10-10-10h-26.416c-2.652,0-5.196,1.054-7.072,2.929l-11.202,11.202c-3.905,3.905-3.905,10.238,0,14.143
									C144.242,224.607,146.801,225.583,149.36,225.583z"/>
							</g>
						</g>
						<g>
							<g>
								<path style="fill:#FF8736;" d="M353.585,158.183c-1.81,1.81-4.31,2.929-7.071,2.929l-11.7,0l-15.75,15.75
									c-3.905,3.905-10.237,3.905-14.143,0c-3.905-3.905-3.905-10.237,0-14.143L323.6,144.04c1.876-1.876,4.419-2.929,7.071-2.929
									h15.843c5.523,0,10,4.478,10.001,10.001C356.514,153.872,355.395,156.373,353.585,158.183z"/>
							</g>
							<g>
								<path style="fill:#FF8736;" d="M158.415,158.183c1.81,1.81,4.31,2.929,7.071,2.929l11.7,0l15.75,15.75
									c3.905,3.905,10.237,3.905,14.143,0c3.905-3.905,3.905-10.237,0-14.143L188.4,144.04c-1.876-1.876-4.419-2.929-7.071-2.929
									h-15.843c-5.523,0-10,4.478-10.001,10.001C155.486,153.872,156.605,156.373,158.415,158.183z"/>
							</g>
						</g>
						<g>
							<g>
								<path style="fill:#FF8736;" d="M158.415,263.661c1.81-1.81,4.31-2.929,7.071-2.929l11.7,0l15.75-15.75
									c3.905-3.905,10.237-3.905,14.143,0c3.905,3.905,3.905,10.237,0,14.143L188.4,277.804c-1.876,1.876-4.419,2.929-7.071,2.929
									h-15.843c-5.523,0-10-4.478-10.001-10.001C155.486,267.971,156.605,265.471,158.415,263.661z"/>
							</g>
							<g>
								<path style="fill:#FF8736;" d="M353.585,263.661c-1.81-1.81-4.31-2.929-7.071-2.929l-11.7,0l-15.75-15.75
									c-3.905-3.905-10.237-3.905-14.143,0c-3.905,3.905-3.905,10.237,0,14.143l18.679,18.679
									c1.876,1.876,4.419,2.929,7.071,2.929h15.843c5.523,0,10-4.478,10.001-10.001
									C356.514,267.971,355.395,265.471,353.585,263.661z"/>
							</g>
						</g>
						<g>
							<circle style="fill:#FFD5B8;" cx="256" cy="122.95" r="31.501"/>
							<circle style="fill:#FDD250;" cx="256" cy="207.381" r="73.253"/>
						</g>
					</g>
					<g>
						<g>
							<path style="fill:#FDD250;" d="M364.743,365.599H480.56c3.825,0,6.194-4.166,4.239-7.453l-57.909-97.348
								c-1.912-3.214-6.565-3.214-8.477,0l-57.909,97.348C358.549,361.433,360.918,365.599,364.743,365.599z"/>
							<g>
								<path style="fill:#F5F4F9;" d="M422.652,332.767c-2.761,0-5-2.238-5-5v-29.391c0-2.762,2.239-5,5-5s5,2.238,5,5v29.391
									C427.652,330.528,425.413,332.767,422.652,332.767z"/>
								<path style="fill:#F5F4F9;" d="M422.652,348.61c-2.761,0-5-2.238-5-5v-0.115c0-2.762,2.239-5,5-5s5,2.238,5,5v0.115
									C427.652,346.372,425.413,348.61,422.652,348.61z"/>
							</g>
						</g>
						<g>
							<path style="fill:#FDD250;" d="M31.44,365.599h115.818c3.825,0,6.194-4.166,4.239-7.453l-57.909-97.348
								c-1.912-3.214-6.565-3.214-8.477,0l-57.909,97.348C25.245,361.433,27.614,365.599,31.44,365.599z"/>
							<g>
								<path style="fill:#F5F4F9;" d="M89.348,332.767c-2.761,0-5-2.238-5-5v-29.391c0-2.762,2.239-5,5-5s5,2.238,5,5v29.391
									C94.348,330.528,92.109,332.767,89.348,332.767z"/>
								<path style="fill:#F5F4F9;" d="M89.348,348.61c-2.761,0-5-2.238-5-5v-0.115c0-2.762,2.239-5,5-5s5,2.238,5,5v0.115
									C94.348,346.372,92.109,348.61,89.348,348.61z"/>
							</g>
						</g>
					</g>
				</g>
			</g>
			<path style="fill:#C182F9;" d="M160.932,448.132c-1.28,0-2.559-0.488-3.536-1.465l-10.995-10.995
				c-1.953-1.952-1.953-5.118,0-7.07l10.995-10.995c1.953-1.953,5.118-1.953,7.071,0l10.995,10.995c1.953,1.952,1.953,5.118,0,7.07
				l-10.995,10.995C163.491,447.644,162.212,448.132,160.932,448.132z M157.008,432.137l3.924,3.924l3.924-3.924l-3.924-3.924
				L157.008,432.137z"/>
			<path style="fill:#FFA052;" d="M113.402,464.211L113.402,464.211c-1.326,0-2.598-0.527-3.536-1.465L98.872,451.75
				c-1.953-1.952-1.953-5.118,0-7.07l10.995-10.995c1.953-1.953,5.118-1.953,7.071,0l10.996,10.995
				c0.938,0.938,1.464,2.209,1.464,3.535s-0.527,2.598-1.464,3.535l-10.996,10.996C116,463.685,114.729,464.211,113.402,464.211z
				 M109.478,448.215l3.924,3.925l3.924-3.925l-3.924-3.924L109.478,448.215z"/>
			<path style="fill:#FFA052;" d="M362.608,72.559c-1.28,0-2.559-0.488-3.536-1.465l-10.996-10.995
				c-0.938-0.938-1.464-2.209-1.464-3.535s0.527-2.598,1.464-3.535l10.996-10.996c0.938-0.938,2.209-1.465,3.536-1.465l0,0
				c1.326,0,2.598,0.527,3.536,1.465l10.995,10.996c1.953,1.952,1.953,5.118,0,7.07l-10.995,10.995
				C365.167,72.07,363.888,72.559,362.608,72.559z M358.684,56.563l3.924,3.924l3.924-3.924l-3.924-3.925L358.684,56.563z"/>
			<path style="fill:#FFE783;" d="M188.269,80.205c-2.761,0-5-2.238-5-5c0-3.318-2.7-6.019-6.018-6.019c-2.761,0-5-2.238-5-5
				s2.239-5,5-5c3.318,0,6.018-2.7,6.018-6.019c0-2.762,2.239-5,5-5s5,2.238,5,5c0,3.318,2.7,6.019,6.019,6.019c2.761,0,5,2.238,5,5
				s-2.239,5-5,5c-3.319,0-6.019,2.7-6.019,6.019C193.269,77.967,191.03,80.205,188.269,80.205z"/>
		</g>
		<g>
			<path style="fill:#590BB2;" d="M94.077,138.633c2.761,0,5-2.238,5-5v-0.146c0-2.762-2.239-5-5-5s-5,2.238-5,5v0.146
				C89.077,136.395,91.316,138.633,94.077,138.633z"/>
			<path style="fill:#590BB2;" d="M113.402,138.633c2.761,0,5-2.238,5-5v-0.146c0-2.762-2.239-5-5-5s-5,2.238-5,5v0.146
				C108.402,136.395,110.641,138.633,113.402,138.633z"/>
			<path style="fill:#590BB2;" d="M132.728,138.633c2.761,0,5-2.238,5-5v-0.146c0-2.762-2.239-5-5-5s-5,2.238-5,5v0.146
				C127.728,136.395,129.967,138.633,132.728,138.633z"/>
			<path style="fill:#590BB2;" d="M489.097,355.589l-28.094-47.226c0-0.009,0.003-0.018,0.003-0.027V124.475
				c0-11.028-8.972-20.001-20-20.001H311.792c-2.761,0-5,2.238-5,5s2.239,5,5,5h129.213c5.514,0,10,4.486,10,10.001v28.172h-89.571
				c0.051-0.507,0.079-1.019,0.079-1.535c0-8.271-6.729-15-15-15.001h-15.845c-4.007,0.002-7.773,1.563-10.605,4.395l-10.196,10.196
				c-5.907-5.616-12.673-10.335-20.099-13.902c1.806-4.385,2.732-9.029,2.732-13.85c0-14.421-8.407-26.912-20.576-32.838
				c2.67-2.343,5.039-5.276,6.966-8.725c1.347-2.411,0.484-5.457-1.927-6.804c-2.411-1.345-5.457-0.483-6.804,1.927
				c-3.528,6.316-8.689,9.938-14.16,9.938s-10.632-3.622-14.16-9.938c-1.346-2.41-4.392-3.272-6.804-1.927
				c-2.411,1.347-3.273,4.393-1.927,6.804c1.926,3.448,4.296,6.382,6.966,8.725c-6.482,3.156-11.891,8.179-15.536,14.362H70.995
				c-11.028,0-20,8.973-20,20.001v183.278c0,0.18,0.034,0.35,0.053,0.526l-28.143,47.31c-1.85,3.109-1.886,6.843-0.098,9.987
				c1.789,3.145,5.016,5.022,8.634,5.022h19.555v8.13c0,11.028,8.972,20.001,20,20.001h140.218l-15.819,62.703h-15.33
				c-2.761,0-5,2.238-5,5s2.239,5,5,5h151.872c2.761,0,5-2.238,5-5s-2.239-5-5-5h-15.331l-15.819-62.703h140.219
				c11.028,0,20-8.973,20-20.001v-8.13h19.555c3.618,0,6.845-1.877,8.633-5.021C490.982,362.433,490.946,358.699,489.097,355.589z
				 M327.136,147.575c0.944-0.944,2.2-1.464,3.535-1.465h15.842c2.758,0.001,5.001,2.244,5.001,5.001
				c0,1.336-0.52,2.591-1.465,3.536c-0.944,0.944-2.201,1.465-3.535,1.465l-11.7-0.001h0c-1.326,0-2.598,0.526-3.536,1.465
				l-8.717,8.717c-1.786-2.882-3.751-5.641-5.884-8.259L327.136,147.575z M187.747,207.381c0-14.068,4.281-27.154,11.604-38.028
				h51.372V275.41C215.548,272.705,187.747,243.238,187.747,207.381z M198.62,260.514l-13.755,13.755
				c-0.944,0.944-2.2,1.464-3.535,1.465h-15.842c-2.758-0.001-5.001-2.244-5.001-5.001c0-1.336,0.52-2.591,1.465-3.536
				c0.944-0.944,2.201-1.465,3.535-1.465l11.7,0.001h0c1.326,0,2.598-0.526,3.536-1.465l11.554-11.554
				C194.227,255.448,196.342,258.056,198.62,260.514z M177.798,209.381h-13.093c-1.326,0-2.598,0.526-3.536,1.465l-8.272,8.272
				c-0.945,0.944-2.202,1.465-3.537,1.465s-2.591-0.521-3.536-1.464c-1.95-1.95-1.95-5.122,0-7.072l11.202-11.202
				c0.945-0.944,2.201-1.465,3.536-1.465h17.59c-0.268,2.631-0.406,5.3-0.406,8.001
				C177.747,208.052,177.781,208.714,177.798,209.381z M189.439,166.293l-8.717-8.717c-0.938-0.938-2.21-1.465-3.536-1.465
				l-11.698,0.001c-1.337,0-2.593-0.521-3.538-1.465c-0.945-0.945-1.465-2.2-1.465-3.536c0-2.757,2.244-5,5-5.001h15.841
				c1.337,0.001,2.593,0.521,3.538,1.465l10.459,10.459C193.19,160.652,191.225,163.411,189.439,166.293z M260.724,169.353h51.925
				c7.324,10.874,11.604,23.96,11.604,38.028c0,36.045-28.092,65.634-63.529,68.071V169.353z M319.724,252.714l11.554,11.554
				c0.938,0.938,2.21,1.465,3.536,1.465l11.698-0.001c1.337,0,2.593,0.521,3.538,1.465c0.945,0.945,1.465,2.2,1.465,3.536
				c0,2.757-2.244,5-5,5.001h-15.841c-1.337-0.001-2.593-0.521-3.538-1.465l-13.755-13.755
				C315.658,258.056,317.773,255.448,319.724,252.714z M333.847,199.38h17.59c1.335,0,2.591,0.521,3.536,1.465l11.202,11.202
				c1.95,1.95,1.95,5.122,0,7.071c-0.945,0.944-2.201,1.465-3.536,1.465s-2.592-0.521-3.536-1.464l-8.273-8.273
				c-0.938-0.938-2.209-1.465-3.536-1.465h-13.093c0.017-0.667,0.051-1.329,0.051-2C334.253,204.68,334.115,202.011,333.847,199.38z
				 M304.441,159.353h-96.882c12.375-12.48,29.519-20.225,48.441-20.225S292.066,146.872,304.441,159.353z M256,96.448
				c14.613,0,26.501,11.889,26.501,26.501c0,3.529-0.681,6.925-2.01,10.125c-7.71-2.548-15.938-3.947-24.491-3.947
				c-8.551,0-16.777,1.398-24.485,3.945c-1.316-3.192-2.016-6.644-2.016-10.123C229.499,108.337,241.387,96.448,256,96.448z
				 M70.995,114.474h149.508c-0.65,2.722-1.004,5.557-1.004,8.476c0,4.753,0.95,9.473,2.74,13.846
				c-7.429,3.568-14.198,8.287-20.106,13.906l-10.196-10.196c-2.832-2.832-6.598-4.393-10.607-4.395h-15.844
				c-8.271,0.001-15,6.73-15,15.001c0,0.516,0.028,1.028,0.079,1.535H60.994v-28.172C60.994,118.96,65.48,114.474,70.995,114.474z
				 M60.994,162.646h94.492c0.129,0,0.249-0.028,0.375-0.038c2.695,2.264,6.062,3.503,9.625,3.504l9.629-0.001l9.429,9.429
				c-1.975,4.414-3.55,9.041-4.684,13.839h-19.297c-4.007,0-7.774,1.561-10.607,4.395l-11.202,11.202
				c-5.849,5.849-5.849,15.364,0,21.214c2.833,2.833,6.6,4.393,10.606,4.393c4.006,0,7.772-1.56,10.607-4.394l6.809-6.809h11.892
				c1.355,8.765,4.179,17.047,8.196,24.604l-11.748,11.748l-9.631-0.001c-4.006,0.001-7.772,1.562-10.605,4.395
				c-2.833,2.833-4.394,6.6-4.394,10.606c0,8.271,6.729,15,15,15.001h15.845c4.007-0.002,7.773-1.563,10.605-4.395l13.931-13.931
				c13.5,11.294,30.847,18.128,49.764,18.216c0.032,0,0.061,0.009,0.093,0.009c0.019,0,0.037-0.005,0.056-0.006
				c0.074,0,0.147,0.006,0.221,0.006c19.061,0,36.545-6.858,50.133-18.226l13.93,13.931c2.832,2.832,6.598,4.393,10.607,4.395
				h15.844c8.271-0.001,15-6.73,15-15.001c0-4.007-1.561-7.773-4.394-10.606c-2.833-2.833-6.599-4.394-10.607-4.395l-9.629,0.001
				l-11.748-11.748c4.017-7.557,6.841-15.839,8.196-24.604h11.892l6.81,6.81c2.834,2.833,6.601,4.393,10.606,4.393
				c4.006,0,7.773-1.56,10.607-4.394c5.849-5.849,5.849-15.364,0-21.213l-11.202-11.202c-2.833-2.834-6.601-4.395-10.607-4.395
				H332.14c-1.134-4.798-2.71-9.425-4.684-13.839l9.429-9.429l9.631,0.001c3.545-0.001,6.899-1.227,9.587-3.471
				c0.018,0,0.034,0.005,0.052,0.005h94.851v128.91l-19.818-33.315c-1.808-3.039-4.999-4.854-8.536-4.854s-6.728,1.814-8.536,4.854
				l-47.646,80.097H145.531l-47.647-80.096c-1.808-3.04-4.999-4.854-8.536-4.854c-3.537,0-6.728,1.814-8.536,4.854l-19.818,33.316
				V162.646z M89.349,263.453l57.788,97.146H31.559L89.349,263.453z M306.292,461.433H205.707l15.819-62.703h68.947L306.292,461.433
				z M456.006,360.599c-2.761,0-5,2.238-5,5v13.13c0,5.515-4.486,10.001-10,10.001H70.995c-5.514,0-10-4.486-10-10.001v-8.13h86.263
				c3.618,0,6.845-1.877,8.633-5.021c1.789-3.145,1.752-6.878-0.097-9.988l-4.313-7.251h209.041l-4.314,7.252
				c-1.849,3.109-1.886,6.843-0.097,9.987c1.788,3.145,5.016,5.021,8.633,5.021h63.722c2.761,0,5-2.238,5-5s-2.239-5-5-5
				l-63.602-0.001l57.789-97.145l57.788,97.146H456.006z"/>
		</g>
	</g>
</g>
<g>
</g>
<g>
</g>
<g>
</g>
<g>
</g>
<g>
</g>
<g>
</g>
<g>
</g>
<g>
</g>
<g>
</g>
<g>
</g>
<g>
</g>
<g>
</g>
<g>
</g>
<g>
</g>
<g>
</g>
</svg>
