<?xml version="1.0" encoding="iso-8859-1"?>
<!-- Generator: Adobe Illustrator 23.0.3, SVG Export Plug-In . SVG Version: 6.00 Build 0)  -->
<svg version="1.1" id="Capa_1" xmlns="http://www.w3.org/2000/svg" xmlns:xlink="http://www.w3.org/1999/xlink" x="0px" y="0px"
	 viewBox="0 0 512 512" style="enable-background:new 0 0 512 512;" xml:space="preserve">
<g>
	<g>
		<linearGradient id="SVGID_1_" gradientUnits="userSpaceOnUse" x1="215.7087" y1="256" x2="852.3452" y2="256">
			<stop  offset="7.011211e-04" style="stop-color:#FFF0D5"/>
			<stop  offset="0.5112" style="stop-color:#FFDFFF"/>
			<stop  offset="1" style="stop-color:#D9CEFF"/>
		</linearGradient>
		<path style="fill:url(#SVGID_1_);" d="M408.228,154.262c-23.697-9.236-43.717-26.089-55.961-48.381
			c-20.59-37.487-60.43-62.898-106.221-62.898c-47.53,0-88.646,27.377-108.477,67.219c-12.146,24.401-32.814,43.56-58.09,53.761
			c-37.349,15.074-68.703,49.524-78.653,103.382c-1.092,5.91-1.108,11.986-0.016,17.896
			c15.448,83.572,82.399,120.435,143.334,110.66c34.126-5.474,68.672,5.909,93.967,29.462
			c51.434,47.892,133.884,62.907,213.923,11.57c9.377-6.014,21.957-18.634,27.966-28.015
			C548.967,301.248,497.879,189.204,408.228,154.262z"/>
		<g>
			<g>
				<g>
					<path style="opacity:0.1;fill:#590BB2;" d="M456,99.539v254.25c0,8.28-6.72,15-15,15H71c-8.28,0-15-6.72-15-15V99.539
						c0-8.28,6.72-15,15-15h370C449.28,84.539,456,91.258,456,99.539z"/>
					<g>
						<g>
							<polygon style="fill:#AFABC6;" points="312.71,462.495 199.289,462.495 221.971,372.591 290.028,372.591 							"/>
							<polygon style="fill:#8E8CA8;" points="297.928,403.893 214.071,403.893 221.971,372.591 290.028,372.591 							"/>
							<g>
								<path style="fill:#8E8CA8;" d="M456,120.542v254.25c0,8.28-6.72,15-15,15H71c-8.28,0-15-6.72-15-15v-254.25
									c0-8.28,6.72-15,15-15h370C449.28,105.542,456,112.262,456,120.542z"/>
								<rect x="109.87" y="153.713" style="fill:#AFABC6;" width="292.26" height="185.686"/>
								<path style="fill:#C182F9;" d="M456,153.713v-33.171c0-8.284-6.716-15-15-15H71c-8.284,0-15,6.716-15,15v33.171H456z"/>
								<path style="fill:#CECAE0;" d="M56,339.399v35.39c0,8.284,6.716,15,15,15h370c8.284,0,15-6.716,15-15v-35.39H56z"/>
							</g>
							<g>
								<path style="fill:#590BB2;" d="M94.082,124.555c-2.761,0-5,2.238-5,5v0.146c0,2.762,2.239,5,5,5s5-2.238,5-5v-0.146
									C99.082,126.793,96.843,124.555,94.082,124.555z"/>
								<path style="fill:#590BB2;" d="M113.407,124.555c-2.761,0-5,2.238-5,5v0.146c0,2.762,2.239,5,5,5s5-2.238,5-5v-0.146
									C118.407,126.793,116.168,124.555,113.407,124.555z"/>
								<path style="fill:#590BB2;" d="M132.731,124.555c-2.761,0-5,2.238-5,5v0.146c0,2.762,2.239,5,5,5s5-2.238,5-5v-0.146
									C137.731,126.793,135.493,124.555,132.731,124.555z"/>
								<path style="fill:#590BB2;" d="M441,100.541H71c-11.028,0-20,8.972-20,20v33.172c0,2.762,2.239,5,5,5h395v153.146
									c0,2.762,2.239,5,5,5s5-2.238,5-5V120.541C461,109.513,452.028,100.541,441,100.541z M451,148.713H61v-28.172
									c0-5.514,4.486-10,10-10h370c5.514,0,10,4.486,10,10V148.713z"/>
								<path style="fill:#590BB2;" d="M456,334.399H61V181.253c0-2.762-2.239-5-5-5s-5,2.238-5,5v193.536c0,11.028,8.972,20,20,20
									h140.214l-15.819,62.701h-15.329c-2.761,0-5,2.238-5,5s2.239,5,5,5h151.868c2.761,0,5-2.238,5-5s-2.239-5-5-5h-15.331
									l-15.819-62.701H441c11.028,0,20-8.972,20-20v-35.39C461,336.638,458.761,334.399,456,334.399z M306.29,457.49H205.708
									l15.819-62.701h68.945L306.29,457.49z M451,374.789c0,5.514-4.486,10-10,10H71c-5.514,0-10-4.486-10-10v-30.39h390V374.789z
									"/>
							</g>
						</g>
					</g>
				</g>
				<g>
					<g>
						<g>
							<path style="fill:#B557FF;" d="M408.982,309.083c-1.28,0-2.56-0.488-3.536-1.465c-1.135-1.135-2.643-1.759-4.247-1.759
								s-3.112,0.624-4.247,1.759c-1.952,1.953-5.119,1.952-7.071,0.001c-0.977-0.977-1.465-2.256-1.465-3.536
								c0-1.279,0.488-2.559,1.464-3.535c2.342-2.343,2.342-6.153,0-8.496c-0.977-0.977-1.464-2.256-1.464-3.535
								c0-1.28,0.488-2.56,1.465-3.536c1.953-1.951,5.12-1.951,7.071,0.001c1.135,1.135,2.643,1.759,4.247,1.759
								s3.112-0.624,4.247-1.759c1.952-1.953,5.119-1.952,7.071-0.001c0.977,0.977,1.465,2.256,1.465,3.536
								c0,1.279-0.488,2.559-1.464,3.535c-2.342,2.343-2.342,6.153,0,8.496c0.977,0.977,1.464,2.256,1.464,3.535
								c0,1.28-0.488,2.56-1.465,3.536C411.541,308.595,410.261,309.083,408.982,309.083z"/>
							<path style="fill:#B557FF;" d="M408.982,273.22c-1.28,0-2.56-0.488-3.536-1.465c-1.135-1.135-2.643-1.76-4.247-1.76
								s-3.112,0.625-4.247,1.76c-1.952,1.953-5.119,1.952-7.071,0.001c-0.977-0.977-1.465-2.256-1.465-3.536
								c0-1.279,0.488-2.559,1.464-3.535c1.135-1.135,1.759-2.644,1.759-4.248s-0.625-3.112-1.759-4.246
								c-0.977-0.977-1.465-2.256-1.465-3.536c0-1.279,0.488-2.559,1.464-3.535c1.952-1.953,5.119-1.952,7.071-0.001
								c2.343,2.342,6.152,2.342,8.495,0c1.953-1.951,5.12-1.951,7.071,0.001c0.977,0.977,1.464,2.256,1.464,3.535
								c0,1.28-0.488,2.56-1.465,3.536c-1.134,1.134-1.759,2.642-1.759,4.246s0.625,3.113,1.759,4.248
								c0.977,0.977,1.464,2.256,1.464,3.535c0,1.28-0.488,2.56-1.465,3.536C411.541,272.731,410.261,273.22,408.982,273.22z"/>
						</g>
						<g>
							<path style="fill:#B557FF;" d="M118.583,246.792c-1.28,0-2.559-0.488-3.535-1.464c-2.343-2.342-6.152-2.342-8.495,0
								c-1.952,1.952-5.118,1.952-7.071-0.001c-0.977-0.977-1.464-2.256-1.464-3.535c0-1.28,0.488-2.56,1.465-3.536
								c1.134-1.134,1.759-2.643,1.759-4.246c0-1.604-0.625-3.113-1.759-4.247c-0.977-0.977-1.465-2.256-1.465-3.536
								c0-1.279,0.488-2.559,1.464-3.535c1.952-1.953,5.119-1.952,7.071-0.001c2.343,2.342,6.152,2.342,8.495,0
								c1.953-1.951,5.119-1.951,7.071,0.001c0.977,0.977,1.464,2.256,1.464,3.535c0,1.28-0.488,2.56-1.465,3.536
								c-1.134,1.134-1.759,2.643-1.759,4.247c0,1.604,0.625,3.112,1.759,4.246c0.977,0.977,1.465,2.256,1.465,3.536
								c0,1.279-0.488,2.559-1.464,3.535C121.143,246.304,119.863,246.792,118.583,246.792z"/>
							<path style="fill:#B557FF;" d="M118.583,210.929c-1.28,0-2.559-0.488-3.535-1.464c-2.343-2.342-6.152-2.342-8.495,0
								c-1.952,1.952-5.118,1.952-7.071-0.001c-0.977-0.977-1.464-2.256-1.464-3.535c0-1.28,0.488-2.56,1.465-3.536
								c1.134-1.134,1.759-2.642,1.759-4.246s-0.625-3.113-1.759-4.248c-0.977-0.977-1.464-2.256-1.464-3.535
								c0-1.28,0.488-2.56,1.465-3.536c1.953-1.951,5.119-1.951,7.071,0.001c1.135,1.135,2.643,1.759,4.247,1.759
								s3.112-0.624,4.247-1.759c1.952-1.953,5.119-1.952,7.071-0.001c0.977,0.977,1.465,2.256,1.465,3.536
								c0,1.279-0.488,2.559-1.464,3.535c-1.135,1.135-1.759,2.644-1.759,4.248s0.625,3.112,1.759,4.246
								c0.977,0.977,1.465,2.256,1.465,3.536c0,1.279-0.488,2.559-1.464,3.535C121.143,210.44,119.863,210.929,118.583,210.929z"/>
						</g>
					</g>
				</g>
			</g>
			<path style="fill:#C182F9;" d="M132.731,460.512L132.731,460.512c-1.326,0-2.598-0.526-3.536-1.465l-10.995-10.995
				c-0.938-0.938-1.464-2.209-1.464-3.535s0.527-2.598,1.464-3.535l10.995-10.994c1.953-1.953,5.119-1.952,7.071-0.001
				l10.995,10.994c0.938,0.938,1.465,2.21,1.465,3.536s-0.527,2.598-1.464,3.535l-10.995,10.995
				C135.329,459.985,134.058,460.512,132.731,460.512z M128.808,444.517l3.923,3.924l3.924-3.924l-3.924-3.923L128.808,444.517z"/>
			<path style="fill:#FFA052;" d="M93.204,439.538L93.204,439.538c-1.326,0-2.598-0.526-3.536-1.465l-10.995-10.995
				c-0.938-0.938-1.464-2.209-1.464-3.535s0.527-2.598,1.464-3.535l10.995-10.994c1.953-1.953,5.119-1.952,7.071-0.001
				l10.995,10.994c0.938,0.938,1.465,2.21,1.465,3.536s-0.527,2.598-1.464,3.535L96.74,438.073
				C95.802,439.012,94.53,439.538,93.204,439.538z M89.281,423.543l3.923,3.924l3.924-3.924l-3.924-3.923L89.281,423.543z"/>
			<path style="fill:#C182F9;" d="M413.026,466.512c-1.28,0-2.559-0.488-3.536-1.465l-10.995-10.995
				c-0.938-0.938-1.464-2.209-1.464-3.535s0.527-2.598,1.465-3.536l10.995-10.994c1.952-1.951,5.118-1.951,7.07,0l10.995,10.994
				c0.938,0.938,1.465,2.21,1.465,3.536s-0.527,2.598-1.464,3.535l-10.995,10.995C415.585,466.023,414.306,466.512,413.026,466.512z
				 M409.103,450.517l3.924,3.924l3.924-3.924l-3.924-3.924L409.103,450.517z"/>
		</g>
	</g>
	<g>
		<path style="fill:#E8E6ED;" d="M309.323,287.503c-0.541,0.541-1.012,1.124-1.426,1.734l-42.681-42.681l42.681-42.681
			c0.414,0.61,0.886,1.193,1.427,1.734c4.616,4.616,12.1,4.616,16.716,0c4.616-4.616,4.616-12.1,0-16.716
			c-2.457-2.457-5.725-3.592-8.942-3.434c0.158-3.217-0.977-6.485-3.434-8.941c-4.616-4.616-12.1-4.616-16.716,0
			c-4.616,4.616-4.616,12.1,0,16.716c0.541,0.541,1.124,1.012,1.734,1.426L256,237.341l-42.681-42.681
			c0.61-0.414,1.194-0.886,1.734-1.426c4.616-4.616,4.616-12.1,0-16.716c-4.616-4.616-12.1-4.616-16.715,0
			c-2.457,2.457-3.592,5.725-3.434,8.941c-3.217-0.158-6.485,0.977-8.942,3.434c-4.616,4.616-4.616,12.1,0,16.716
			c4.616,4.616,12.1,4.616,16.715,0c0.541-0.541,1.012-1.124,1.427-1.734l42.681,42.681l-42.681,42.681
			c-0.414-0.61-0.886-1.194-1.426-1.734c-4.616-4.616-12.1-4.616-16.715,0c-4.616,4.616-4.616,12.1,0,16.715
			c2.457,2.457,5.725,3.592,8.942,3.434c-0.158,3.217,0.977,6.485,3.434,8.942c4.616,4.616,12.1,4.616,16.715,0
			c4.616-4.616,4.616-12.1,0-16.715c-0.541-0.541-1.124-1.012-1.734-1.427L256,255.771l42.681,42.681
			c-0.61,0.414-1.194,0.886-1.734,1.427c-4.616,4.616-4.616,12.1,0,16.715c4.616,4.616,12.1,4.616,16.716,0
			c2.457-2.457,3.592-5.725,3.434-8.942c3.217,0.158,6.485-0.977,8.942-3.434c4.616-4.616,4.616-12.1,0-16.715
			C321.422,282.887,313.938,282.887,309.323,287.503z"/>
		<g>
			<path style="fill:#F5F4F9;" d="M293.966,260.794c6.101-8.392,9.501-18.874,8.879-30.18
				c-1.318-23.992-20.967-43.312-44.977-44.243c-26.763-1.039-48.786,20.35-48.786,46.881c0,10.296,3.329,19.806,8.952,27.542
				l-6.049,6.049c-1.018,1.018-1.018,2.668,0,3.686l4.724,4.724c3.046,3.046,4.758,7.178,4.758,11.486v0
				c0,2.399,1.945,4.344,4.344,4.344h9.122c2.399,0,4.344-1.945,4.344-4.344v-4.356c0-2.514,2.367-4.391,4.799-3.754
				c0.026,0.007,0.053,0.014,0.079,0.021c1.722,0.448,2.941,1.974,2.941,3.753v11.092c0,2.399,1.945,4.344,4.344,4.344h9.122
				c2.399,0,4.344-1.945,4.344-4.344v-11.092c0-1.779,1.22-3.305,2.941-3.753c0.026-0.007,0.053-0.014,0.079-0.021
				c2.432-0.638,4.799,1.24,4.799,3.754v4.356c0,2.399,1.945,4.344,4.344,4.344h9.122c2.399,0,4.344-1.945,4.344-4.344l0,0
				c0-4.308,1.711-8.44,4.758-11.486l4.724-4.724c1.018-1.018,1.018-2.668,0-3.686L293.966,260.794z"/>
			<g>
				<circle style="fill:#CECAE0;" cx="238.045" cy="234.831" r="11.523"/>
			</g>
			<path style="fill:#8E8CA8;" d="M299.169,256.617c-0.685,0-1.381-0.142-2.046-0.44c-38.002-17.078-60.108-63.169-61.031-65.123
				c-1.179-2.497-0.11-5.478,2.387-6.656c2.494-1.178,5.476-0.112,6.655,2.384l0,0c0.211,0.446,21.493,44.727,56.088,60.274
				c2.519,1.132,3.643,4.092,2.511,6.61C302.9,255.519,301.077,256.617,299.169,256.617z"/>
			<path style="fill:#FFA052;" d="M262.118,225.436c-1.428,0-2.64,1.133-2.643,2.561c0,0.009,0,0.018,0,0.026
				c0,9.596,7.779,17.375,17.375,17.375s17.375-7.779,17.375-17.375c0-0.009,0-0.018,0-0.026c-0.003-1.428-1.215-2.561-2.643-2.561
				H262.118z"/>
			<path style="fill:#CECAE0;" d="M253.796,250.832l-4.61,7.294c-1.097,1.735,0.15,3.999,2.203,3.999h9.219
				c2.053,0,3.3-2.263,2.203-3.999l-4.61-7.294C257.18,249.213,254.819,249.213,253.796,250.832z"/>
		</g>
	</g>
	<path style="fill:#FFE783;" d="M360.445,75.169c-2.761,0-5-2.238-5-5c0-3.323-2.704-6.027-6.028-6.027c-2.761,0-5-2.238-5-5
		s2.239-5,5-5c3.324,0,6.028-2.704,6.028-6.027c0-2.762,2.239-5,5-5s5,2.238,5,5c0,3.323,2.704,6.027,6.027,6.027
		c2.761,0,5,2.238,5,5s-2.239,5-5,5c-3.323,0-6.027,2.704-6.027,6.027C365.445,72.931,363.207,75.169,360.445,75.169z"/>
</g>
<g>
</g>
<g>
</g>
<g>
</g>
<g>
</g>
<g>
</g>
<g>
</g>
<g>
</g>
<g>
</g>
<g>
</g>
<g>
</g>
<g>
</g>
<g>
</g>
<g>
</g>
<g>
</g>
<g>
</g>
</svg>
