<?xml version="1.0" encoding="iso-8859-1"?>
<!-- Generator: Adobe Illustrator 23.0.3, SVG Export Plug-In . SVG Version: 6.00 Build 0)  -->
<svg version="1.1" id="Capa_1" xmlns="http://www.w3.org/2000/svg" xmlns:xlink="http://www.w3.org/1999/xlink" x="0px" y="0px"
	 viewBox="0 0 512 512" style="enable-background:new 0 0 512 512;" xml:space="preserve">
<g>
	<linearGradient id="SVGID_1_" gradientUnits="userSpaceOnUse" x1="163.7567" y1="256" x2="1007.3747" y2="256">
		<stop  offset="7.011211e-04" style="stop-color:#FFF0D5"/>
		<stop  offset="0.5112" style="stop-color:#FFDFFF"/>
		<stop  offset="1" style="stop-color:#D9CEFF"/>
	</linearGradient>
	<path style="fill:url(#SVGID_1_);" d="M310.075,89.353C288.645,36.684,236.804-0.37,176.349,0.003
		C99.225,0.478,35.813,62.687,33.942,139.789c-0.923,38.04,12.978,72.821,36.334,98.983c18.619,20.856,27.963,48.325,27.021,76.268
		c-0.125,3.714-0.144,7.455-0.052,11.22c2.464,101.4,89.087,185.801,190.517,185.74c105.133-0.063,190.34-85.31,190.34-190.457
		c0-77.074-45.784-143.448-111.637-173.423C340.798,136.437,320.703,115.473,310.075,89.353z"/>
	<g>
		<g>
			<g style="opacity:0.1;">
				<path style="fill:#590BB2;" d="M411.331,63.636H100.669c-5.529,0-10.011,4.482-10.011,10.011v40.085
					c0,5.529,4.482,10.011,10.011,10.011h310.661c5.529,0,10.011-4.482,10.011-10.011V73.647
					C421.341,68.118,416.859,63.636,411.331,63.636z"/>
				<path style="fill:#590BB2;" d="M411.331,160.415H100.669c-5.529,0-10.011,4.482-10.011,10.011v40.085
					c0,5.529,4.482,10.011,10.011,10.011h310.661c5.529,0,10.011-4.482,10.011-10.011v-40.085
					C421.341,164.897,416.859,160.415,411.331,160.415z"/>
				<path style="fill:#590BB2;" d="M411.331,257.193H100.669c-5.529,0-10.011,4.482-10.011,10.011v40.085
					c0,5.529,4.482,10.011,10.011,10.011h310.661c5.529,0,10.011-4.482,10.011-10.011v-40.085
					C421.341,261.675,416.859,257.193,411.331,257.193z"/>
				<path style="fill:#590BB2;" d="M330.58,387.368H181.42c-5.529,0-10.011,4.482-10.011,10.011v19.974
					c0,5.529,4.482,10.011,10.011,10.011H330.58c5.529,0,10.011-4.482,10.011-10.011v-19.974
					C340.59,391.85,336.108,387.368,330.58,387.368z"/>
			</g>
			<path style="fill:#C182F9;" d="M270.846,329.029v27.029c0,5.526-4.475,10.011-10.011,10.011h-9.67
				c-5.536,0-10.011-4.485-10.011-10.011v-27.029H270.846z"/>
			<rect x="241.154" y="329.029" style="fill:#B557FF;" width="29.692" height="21.613"/>
			<g>
				<rect x="108.513" y="131.052" style="fill:#C182F9;" width="294.975" height="162.834"/>
				<rect x="108.513" y="131.052" style="fill:#B557FF;" width="294.975" height="27.9"/>
				<rect x="108.513" y="195.621" style="fill:#B557FF;" width="294.975" height="60.104"/>
				<g>
					<g>
						<g>
							<path style="fill:#FFA052;" d="M411.331,144.743H100.669c-5.529,0-10.011-4.482-10.011-10.011V94.647
								c0-5.529,4.482-10.011,10.011-10.011h310.661c5.529,0,10.011,4.482,10.011,10.011v40.085
								C421.341,140.261,416.859,144.743,411.331,144.743z"/>
							<g>
								<circle style="fill:#FFD5B8;" cx="135.62" cy="114.69" r="5.603"/>
								<circle style="fill:#FFD5B8;" cx="152.57" cy="114.69" r="5.603"/>
								<circle style="fill:#FFD5B8;" cx="169.519" cy="114.69" r="5.603"/>
							</g>
						</g>
						<path style="fill:#E2CCFF;" d="M283.004,109.676l-76.818,0c-2.618,0-4.957,1.914-5.206,4.521
							c-0.285,2.99,2.058,5.507,4.99,5.507h77.033c2.769,0,5.014-2.245,5.014-5.014v0
							C288.018,111.921,285.773,109.676,283.004,109.676z"/>
						<path style="fill:#FFE783;" d="M382.611,109.676l-76.818,0c-2.618,0-4.957,1.914-5.206,4.521
							c-0.285,2.99,2.058,5.507,4.99,5.507h77.033c2.769,0,5.014-2.245,5.014-5.014v0
							C387.625,111.921,385.38,109.676,382.611,109.676z"/>
					</g>
					<g>
						<g>
							<path style="fill:#FFA052;" d="M411.331,241.521H100.669c-5.529,0-10.011-4.482-10.011-10.011v-40.085
								c0-5.529,4.482-10.011,10.011-10.011h310.661c5.529,0,10.011,4.482,10.011,10.011v40.085
								C421.341,237.04,416.859,241.521,411.331,241.521z"/>
							<g>
								<circle style="fill:#FFD5B8;" cx="135.62" cy="211.468" r="5.603"/>
								<circle style="fill:#FFD5B8;" cx="152.57" cy="211.468" r="5.603"/>
								<circle style="fill:#FFD5B8;" cx="169.519" cy="211.468" r="5.603"/>
							</g>
						</g>
						<path style="fill:#E2CCFF;" d="M283.004,206.454h-76.818c-2.618,0-4.957,1.914-5.206,4.521
							c-0.285,2.99,2.058,5.507,4.99,5.507h77.033c2.769,0,5.014-2.245,5.014-5.014l0,0
							C288.018,208.699,285.773,206.454,283.004,206.454z"/>
						<path style="fill:#FFE783;" d="M382.611,206.454h-76.818c-2.618,0-4.957,1.914-5.206,4.521
							c-0.285,2.99,2.058,5.507,4.99,5.507h77.033c2.769,0,5.014-2.245,5.014-5.014l0,0
							C387.625,208.699,385.38,206.454,382.611,206.454z"/>
					</g>
					<g>
						<g>
							<path style="fill:#FFA052;" d="M411.331,338.3H100.669c-5.529,0-10.011-4.482-10.011-10.011v-40.085
								c0-5.529,4.482-10.011,10.011-10.011h310.661c5.529,0,10.011,4.482,10.011,10.011v40.085
								C421.341,333.818,416.859,338.3,411.331,338.3z"/>
							<g>
								<circle style="fill:#FFD5B8;" cx="135.62" cy="308.247" r="5.603"/>
								<circle style="fill:#FFD5B8;" cx="152.57" cy="308.247" r="5.603"/>
								<circle style="fill:#FFD5B8;" cx="169.519" cy="308.247" r="5.603"/>
							</g>
						</g>
						<path style="fill:#E2CCFF;" d="M283.004,303.233h-76.818c-2.618,0-4.957,1.914-5.206,4.521
							c-0.285,2.99,2.058,5.507,4.99,5.507h77.033c2.769,0,5.014-2.245,5.014-5.014v0
							C288.018,305.478,285.773,303.233,283.004,303.233z"/>
						<path style="fill:#FFE783;" d="M382.611,303.233h-76.818c-2.618,0-4.957,1.914-5.206,4.521
							c-0.285,2.99,2.058,5.507,4.99,5.507h77.033c2.769,0,5.014-2.245,5.014-5.014v0
							C387.625,305.478,385.38,303.233,382.611,303.233z"/>
					</g>
				</g>
			</g>
			<path style="fill:#C182F9;" d="M330.58,448.363H181.42c-5.529,0-10.011-4.482-10.011-10.011v-19.974
				c0-5.529,4.482-10.011,10.011-10.011H330.58c5.529,0,10.011,4.482,10.011,10.011v19.974
				C340.59,443.881,336.108,448.363,330.58,448.363z"/>
			<path style="fill:#590BB2;" d="M466.275,423.366H345.59v-4.987c0-8.277-6.733-15.011-15.01-15.011h-47.011c-2.762,0-5,2.238-5,5
				s2.238,5,5,5h47.011c2.763,0,5.01,2.248,5.01,5.011v19.974c0,2.763-2.247,5.011-5.01,5.011H181.42
				c-2.763,0-5.011-2.248-5.011-5.011v-19.974c0-2.763,2.248-5.011,5.011-5.011H256c2.762,0,5-2.238,5-5V371.06
				c8.203-0.088,14.85-6.78,14.85-15.003V343.3h135.481c8.276,0,15.01-6.733,15.01-15.011v-40.085
				c0-8.277-6.733-15.011-15.01-15.011h-2.84v-26.672h2.84c8.276,0,15.01-6.733,15.01-15.011v-40.085
				c0-8.277-6.733-15.011-15.01-15.011h-2.84v-26.672h2.84c8.276,0,15.01-6.733,15.01-15.011V94.647
				c0-8.277-6.733-15.011-15.01-15.011H100.669c-8.277,0-15.011,6.733-15.011,15.011v40.085c0,8.277,6.734,15.011,15.011,15.011
				h2.84v26.672h-2.84c-8.277,0-15.011,6.733-15.011,15.011v40.085c0,8.277,6.734,15.011,15.011,15.011h2.84v26.672h-2.84
				c-8.277,0-15.011,6.733-15.011,15.011v40.085c0,8.277,6.734,15.011,15.011,15.011h135.481v12.758
				c0,8.223,6.647,14.915,14.849,15.003v32.308h-69.58c-8.277,0-15.011,6.733-15.011,15.011v4.987H45.725c-2.761,0-5,2.238-5,5
				s2.239,5,5,5H166.41v4.986c0,8.277,6.734,15.011,15.011,15.011h149.16c8.276,0,15.01-6.733,15.01-15.011v-4.986h120.686
				c2.762,0,5-2.238,5-5S469.037,423.366,466.275,423.366z M95.659,134.732V94.647c0-2.763,2.248-5.011,5.011-5.011h310.662
				c2.763,0,5.01,2.248,5.01,5.011v40.085c0,2.763-2.247,5.011-5.01,5.011H100.669C97.907,139.743,95.659,137.495,95.659,134.732z
				 M95.659,231.511v-40.085c0-2.763,2.248-5.011,5.011-5.011h7.843c2.761,0,5-2.238,5-5c0-0.012-0.003-0.022-0.003-0.034v-31.638
				h284.982v26.672H136.083c-2.761,0-5,2.238-5,5s2.239,5,5,5h275.249c2.763,0,5.01,2.248,5.01,5.011v40.085
				c0,2.763-2.247,5.011-5.01,5.011H100.669C97.907,236.521,95.659,234.273,95.659,231.511z M113.509,246.521h284.982v26.672
				H113.509V246.521z M95.659,328.289v-40.085c0-2.763,2.248-5.011,5.011-5.011h310.662c2.763,0,5.01,2.248,5.01,5.011v40.085
				c0,2.763-2.247,5.011-5.01,5.011H100.669C97.907,333.3,95.659,331.052,95.659,328.289z M246.151,356.058V343.3h19.699v12.758
				c0,2.763-2.248,5.011-5.011,5.011h-9.677C248.399,361.068,246.151,358.82,246.151,356.058z"/>
		</g>
		<g>
			<path style="fill:#C182F9;" d="M406.386,399.112c-2.762,0-5-2.238-5-5c0-3.323-2.704-6.027-6.027-6.027c-2.762,0-5-2.238-5-5
				s2.238-5,5-5c3.323,0,6.027-2.704,6.027-6.028c0-2.762,2.238-5,5-5s5,2.238,5,5c0,3.324,2.704,6.028,6.027,6.028
				c2.762,0,5,2.238,5,5s-2.238,5-5,5c-3.323,0-6.027,2.704-6.027,6.027C411.386,396.874,409.147,399.112,406.386,399.112z"/>
			<path style="fill:#FFA052;" d="M458.473,355.863c-2.762,0-5-2.238-5-5c0-3.323-2.704-6.027-6.027-6.027c-2.762,0-5-2.238-5-5
				s2.238-5,5-5c3.323,0,6.027-2.704,6.027-6.027c0-2.762,2.238-5,5-5s5,2.238,5,5c0,3.323,2.704,6.027,6.027,6.027
				c2.762,0,5,2.238,5,5s-2.238,5-5,5c-3.323,0-6.027,2.704-6.027,6.027C463.473,353.625,461.234,355.863,458.473,355.863z"/>
			<path style="fill:#FFA052;" d="M53.506,183.815c-1.28,0-2.559-0.488-3.536-1.465l-11.006-11.006c-1.953-1.952-1.953-5.118,0-7.07
				l11.006-11.006c1.953-1.953,5.118-1.953,7.071,0l11.006,11.006c1.953,1.952,1.953,5.118,0,7.07l-11.006,11.006
				C56.065,183.327,54.786,183.815,53.506,183.815z M49.571,167.81l3.935,3.935l3.935-3.935l-3.935-3.935L49.571,167.81z"/>
			<path style="fill:#FFE783;" d="M72.23,405.9c-1.28,0-2.559-0.488-3.536-1.465L57.688,393.43c-1.953-1.952-1.953-5.118,0-7.07
				l11.006-11.006c1.953-1.953,5.118-1.953,7.071,0l11.006,11.006c1.953,1.952,1.953,5.118,0,7.07l-11.006,11.006
				C74.789,405.412,73.51,405.9,72.23,405.9z M68.295,389.895l3.935,3.935l3.935-3.935l-3.935-3.935L68.295,389.895z"/>
		</g>
	</g>
</g>
<g>
</g>
<g>
</g>
<g>
</g>
<g>
</g>
<g>
</g>
<g>
</g>
<g>
</g>
<g>
</g>
<g>
</g>
<g>
</g>
<g>
</g>
<g>
</g>
<g>
</g>
<g>
</g>
<g>
</g>
</svg>
