<?xml version="1.0" encoding="iso-8859-1"?>
<!-- Generator: Adobe Illustrator 23.0.3, SVG Export Plug-In . SVG Version: 6.00 Build 0)  -->
<svg version="1.1" id="Capa_1" xmlns="http://www.w3.org/2000/svg" xmlns:xlink="http://www.w3.org/1999/xlink" x="0px" y="0px"
	 viewBox="0 0 512 512" style="enable-background:new 0 0 512 512;" xml:space="preserve">
<g>
	<linearGradient id="SVGID_1_" gradientUnits="userSpaceOnUse" x1="215.7087" y1="253.4999" x2="852.3452" y2="253.4999">
		<stop  offset="7.011211e-04" style="stop-color:#FFF0D5"/>
		<stop  offset="0.5112" style="stop-color:#FFDFFF"/>
		<stop  offset="1" style="stop-color:#D9CEFF"/>
	</linearGradient>
	<path style="fill:url(#SVGID_1_);" d="M408.228,151.761c-23.697-9.236-43.717-26.089-55.961-48.381
		c-20.59-37.487-60.43-62.898-106.221-62.898c-47.53,0-88.646,27.377-108.477,67.219c-12.146,24.401-32.814,43.56-58.09,53.761
		c-37.349,15.074-68.703,49.524-78.653,103.382c-1.092,5.91-1.108,11.986-0.016,17.896c15.448,83.573,82.399,120.435,143.334,110.66
		c34.126-5.474,68.672,5.909,93.967,29.462c51.434,47.892,133.884,62.907,213.923,11.57c9.377-6.014,21.957-18.634,27.966-28.015
		C548.967,298.748,497.879,186.704,408.228,151.761z"/>
	<g>
		<g>
			<g>
				<path style="opacity:0.1;fill:#590BB2;" d="M441,88.71H323.267C314.116,60.287,287.466,39.715,256,39.715
					s-58.116,20.572-67.267,48.995H71c-8.28,0-15,6.72-15,15v254.25c0,8.28,6.72,15,15,15h370c8.28,0,15-6.72,15-15V103.71
					C456,95.43,449.28,88.71,441,88.71z"/>
				<g>
					<g>
						<polygon style="fill:#AFABC6;" points="312.71,466.667 199.289,466.667 221.971,376.763 290.028,376.763 						"/>
						<polygon style="fill:#8E8CA8;" points="297.928,408.065 214.071,408.065 221.971,376.763 290.028,376.763 						"/>
						<g>
							<path style="fill:#F5F4F9;" d="M456,124.713v254.25c0,8.28-6.72,15-15,15H71c-8.28,0-15-6.72-15-15v-254.25
								c0-8.28,6.72-15,15-15h370C449.28,109.713,456,116.433,456,124.713z"/>
							<path style="fill:#E2CCFF;" d="M56,294.355v84.608c0,8.28,6.72,15,15,15h370c8.28,0,15-6.72,15-15v-84.608H56z"/>
							<path style="fill:#FFD5B8;" d="M105.678,274.367H56v-70.678h49.678c1.657,0,3,1.343,3,3v64.678
								C108.678,273.024,107.335,274.367,105.678,274.367z"/>
							<path style="fill:#FFD5B8;" d="M456,274.367h-49.678c-1.657,0-3-1.343-3-3v-64.678c0-1.657,1.343-3,3-3H456V274.367z"/>
							<path style="fill:#FFD5B8;" d="M375.396,274.367H136.604c-1.657,0-3-1.343-3-3v-64.678c0-1.657,1.343-3,3-3h238.792
								c1.657,0,3,1.343,3,3v64.678C378.396,273.024,377.053,274.367,375.396,274.367z"/>
							<ellipse style="fill:#FFBE92;" cx="256" cy="249.364" rx="41.928" ry="9.324"/>
							<path style="fill:#C182F9;" d="M456,157.885v-33.171c0-8.284-6.716-15-15-15H71c-8.284,0-15,6.716-15,15v33.171H456z"/>
							<path style="fill:#CECAE0;" d="M56,343.571v35.39c0,8.284,6.716,15,15,15h370c8.284,0,15-6.716,15-15v-35.39H56z"/>
						</g>
					</g>
				</g>
			</g>
			<path style="fill:#FFA052;" d="M326.667,131.382c0,30.938-44.405,90.54-62.816,113.921c-4.003,5.084-11.699,5.084-15.702,0
				c-18.41-23.381-62.816-82.983-62.816-113.921c0-39.028,31.639-70.667,70.667-70.667S326.667,92.354,326.667,131.382z"/>
			<circle style="fill:#F5F4F9;" cx="256" cy="127.218" r="34.405"/>
			<g>
				<path style="fill:#590BB2;" d="M94.082,128.726c-2.762,0-5,2.238-5,5v0.145c0,2.762,2.238,5,5,5s5-2.238,5-5v-0.145
					C99.082,130.965,96.844,128.726,94.082,128.726z"/>
				<path style="fill:#590BB2;" d="M113.407,128.726c-2.762,0-5,2.238-5,5v0.145c0,2.762,2.238,5,5,5s5-2.238,5-5v-0.145
					C118.407,130.965,116.169,128.726,113.407,128.726z"/>
				<path style="fill:#590BB2;" d="M132.731,128.726c-2.762,0-5,2.238-5,5v0.145c0,2.762,2.238,5,5,5s5-2.238,5-5v-0.145
					C137.731,130.965,135.493,128.726,132.731,128.726z"/>
				<path style="fill:#590BB2;" d="M441,104.713H326.8c-10.809-28.6-38.462-48.998-70.8-48.998s-59.99,20.398-70.8,48.998H71
					c-11.028,0-20,8.972-20,20V378.96c0,11.028,8.972,20,20,20h140.215l-15.819,62.701h-15.329c-2.762,0-5,2.238-5,5s2.238,5,5,5
					h151.867c2.762,0,5-2.238,5-5s-2.238-5-5-5h-15.33l-15.819-62.701H441c11.028,0,20-8.972,20-20v-35.389c0-2.762-2.238-5-5-5
					c-0.095,0-0.183,0.023-0.276,0.028c-0.093-0.005-0.182-0.028-0.276-0.028H61V162.885h127.851
					c4.474,10.016,10.695,21.363,18.656,33.998c1.472,2.337,4.56,3.038,6.896,1.565c2.337-1.472,3.037-4.56,1.565-6.896
					c-16.771-26.618-25.635-47.425-25.635-60.171c0-36.209,29.458-65.667,65.667-65.667s65.667,29.458,65.667,65.667
					c0,30.076-47.26,92.433-61.743,110.827c-0.954,1.212-2.385,1.906-3.924,1.906s-2.97-0.694-3.923-1.905
					c-5.029-6.388-12.751-16.443-20.978-28.08c-1.595-2.255-4.715-2.788-6.97-1.196c-2.255,1.595-2.79,4.715-1.196,6.97
					c8.351,11.811,16.185,22.014,21.287,28.493c2.862,3.635,7.155,5.719,11.779,5.719s8.917-2.084,11.78-5.72
					c17.052-21.656,42.358-56.178,55.413-85.511H451V316.03c0,2.762,2.238,5,5,5s5-2.238,5-5V124.713
					C461,113.684,452.028,104.713,441,104.713z M306.291,461.661H205.708l15.818-62.701h68.945L306.291,461.661z M451,348.571
					v30.389c0,5.514-4.486,10-10,10H71c-5.514,0-10-4.486-10-10v-30.389H451z M61,152.885v-28.172c0-5.514,4.486-10,10-10h111.206
					c-1.212,5.367-1.873,10.941-1.873,16.669c0,6,1.52,13.194,4.49,21.503H61z M327.222,152.885
					c2.808-7.887,4.445-15.192,4.445-21.503c0-5.728-0.661-11.302-1.873-16.669H441c5.514,0,10,4.486,10,10v28.172H327.222z"/>
				<path style="fill:#590BB2;" d="M256,166.623c21.729,0,39.405-17.677,39.405-39.405S277.729,87.812,256,87.812
					s-39.405,17.677-39.405,39.405S234.271,166.623,256,166.623z M256,97.812c16.214,0,29.405,13.191,29.405,29.405
					S272.214,156.623,256,156.623s-29.405-13.191-29.405-29.405S239.786,97.812,256,97.812z"/>
			</g>
			<g>
				<g>
					<circle style="fill:#F5F4F9;" cx="104.553" cy="315.266" r="5.597"/>
					<circle style="fill:#F5F4F9;" cx="121.484" cy="315.266" r="5.597"/>
					<circle style="fill:#F5F4F9;" cx="138.416" cy="315.266" r="5.597"/>
				</g>
				<g>
					<path style="fill:#F5F4F9;" d="M207.372,310.257h-16.736c-2.616,0-4.952,1.912-5.2,4.516c-0.285,2.987,2.056,5.501,4.985,5.501
						h16.951c2.766,0,5.008-2.242,5.008-5.009l0,0C212.38,312.5,210.138,310.257,207.372,310.257z"/>
					<path style="fill:#FFA052;" d="M407.82,310.257H231.726c-2.766,0-5.008,2.242-5.008,5.008l0,0c0,2.766,2.242,5.009,5.008,5.009
						h176.309c2.929,0,5.27-2.514,4.985-5.501C412.772,312.17,410.436,310.257,407.82,310.257z"/>
				</g>
			</g>
		</g>
		<path style="fill:#FFE783;" d="M361.046,71.845c-2.762,0-5-2.238-5-5c0-3.317-2.698-6.016-6.016-6.016c-2.762,0-5-2.238-5-5
			s2.238-5,5-5c3.317,0,6.016-2.698,6.016-6.016c0-2.762,2.238-5,5-5s5,2.238,5,5c0,3.317,2.698,6.016,6.016,6.016
			c2.762,0,5,2.238,5,5s-2.238,5-5,5c-3.317,0-6.016,2.698-6.016,6.016C366.046,69.606,363.808,71.845,361.046,71.845z"/>
		<path style="fill:#C182F9;" d="M127.081,448.746c-2.762,0-5-2.238-5-5c0-3.317-2.698-6.016-6.016-6.016c-2.762,0-5-2.238-5-5
			s2.238-5,5-5c3.317,0,6.016-2.698,6.016-6.016c0-2.762,2.238-5,5-5s5,2.238,5,5c0,3.317,2.698,6.016,6.016,6.016
			c2.762,0,5,2.238,5,5s-2.238,5-5,5c-3.317,0-6.016,2.698-6.016,6.016C132.081,446.508,129.843,448.746,127.081,448.746z"/>
		<path style="fill:#FFA052;" d="M361.046,448.725c-1.279,0-2.56-0.488-3.535-1.465l-10.994-10.994c-1.953-1.952-1.953-5.118,0-7.07
			l10.994-10.994c1.951-1.953,5.119-1.953,7.07,0l10.994,10.994c1.953,1.952,1.953,5.118,0,7.07l-10.994,10.994
			C363.605,448.236,362.325,448.725,361.046,448.725z M357.123,432.73l3.923,3.923l3.923-3.923l-3.923-3.923L357.123,432.73z"/>
		<path style="fill:#FFA052;" d="M413.044,472.285c-1.279,0-2.56-0.488-3.535-1.465l-10.994-10.994c-1.953-1.952-1.953-5.118,0-7.07
			l10.994-10.994c1.951-1.953,5.119-1.953,7.07,0l10.994,10.994c1.953,1.952,1.953,5.118,0,7.07l-10.994,10.994
			C415.604,471.797,414.323,472.285,413.044,472.285z M409.121,456.291l3.923,3.923l3.923-3.923l-3.923-3.923L409.121,456.291z"/>
	</g>
</g>
<g>
</g>
<g>
</g>
<g>
</g>
<g>
</g>
<g>
</g>
<g>
</g>
<g>
</g>
<g>
</g>
<g>
</g>
<g>
</g>
<g>
</g>
<g>
</g>
<g>
</g>
<g>
</g>
<g>
</g>
</svg>
