<?xml version="1.0" encoding="iso-8859-1"?>
<!-- Generator: Adobe Illustrator 23.0.3, SVG Export Plug-In . SVG Version: 6.00 Build 0)  -->
<svg version="1.1" id="Capa_1" xmlns="http://www.w3.org/2000/svg" xmlns:xlink="http://www.w3.org/1999/xlink" x="0px" y="0px"
	 viewBox="0 0 512 512" style="enable-background:new 0 0 512 512;" xml:space="preserve">
<g>
	<linearGradient id="SVGID_1_" gradientUnits="userSpaceOnUse" x1="225.8161" y1="256.0027" x2="864.887" y2="256.0027">
		<stop  offset="7.011211e-04" style="stop-color:#FFF0D5"/>
		<stop  offset="0.5112" style="stop-color:#FFDFFF"/>
		<stop  offset="1" style="stop-color:#D9CEFF"/>
	</linearGradient>
	<path style="fill:url(#SVGID_1_);" d="M505.626,291.92c-11.826-34.61-38.138-60.16-69.852-72.202
		c-16.43-6.239-27.346-21.856-27.587-39.429c-0.005-0.384-0.012-0.769-0.021-1.154c-1.507-64.582-55.488-116.33-120.077-115.221
		c-38.094,0.654-71.788,19.355-92.905,47.92c-18.185,24.599-46.49,39.965-77.08,39.949c-0.898,0-1.797,0.009-2.7,0.029
		C53.487,153.166,0.837,206.29,0.011,268.216C-0.869,334.147,52.313,387.87,118.043,387.87c50.947,0,94.349-32.277,110.886-77.497
		c4.327-11.832,17.152-18.174,29.283-14.772c0.151,0.042,0.303,0.085,0.455,0.127c11.099,3.064,18.458,13.64,17.55,25.119
		c-1.217,15.383,0.581,31.255,5.798,46.796c20.521,61.135,87.188,94.685,148.493,74.68
		C493.219,421.858,526.887,354.138,505.626,291.92z"/>
	<g>
		<g>
			<path style="opacity:0.1;fill:#590BB2;" d="M456,203.733v-92.979c0-8.28-6.72-15-15-15H295.869l-31.274-52.574
				c-3.877-6.517-13.312-6.517-17.189,0l-31.274,52.574H71c-8.28,0-15,6.72-15,15v92.979H456z"/>
			<g>
				<g>
					<polygon style="fill:#AFABC6;" points="312.71,473.712 199.289,473.712 221.971,383.808 290.028,383.808 					"/>
					<polygon style="fill:#8E8CA8;" points="297.928,415.109 214.071,415.109 221.971,383.808 290.028,383.808 					"/>
					<g>
						<path style="fill:#F5F4F9;" d="M456,131.758v254.25c0,8.28-6.72,15-15,15H71c-8.28,0-15-6.72-15-15v-254.25
							c0-8.28,6.72-15,15-15h370C449.28,116.758,456,123.478,456,131.758z"/>
						<path style="fill:#E8E6ED;" d="M138.584,290.176h234.831c7.756,0,12.56-8.447,8.594-15.112L264.595,77.681
							c-3.877-6.517-13.312-6.517-17.189,0L129.99,275.064C126.025,281.73,130.828,290.176,138.584,290.176z"/>
						<path style="fill:#FFD5B8;" d="M456,206.733v-74.975c0-8.28-6.72-15-15-15H71c-8.28,0-15,6.72-15,15v74.975H456z"/>
						<path style="fill:#FFA052;" d="M456,164.929v-33.171c0-8.284-6.716-15-15-15H71c-8.284,0-15,6.716-15,15v33.171H456z"/>
						<path style="fill:#CECAE0;" d="M56,350.616v35.39c0,8.284,6.716,15,15,15h370c8.284,0,15-6.716,15-15v-35.39H56z"/>
					</g>
					<g>
						<path style="fill:#590BB2;" d="M94.082,145.916c-2.762,0-5-2.239-5-5v-0.145c0-2.761,2.238-5,5-5s5,2.239,5,5v0.145
							C99.082,143.677,96.844,145.916,94.082,145.916z"/>
						<path style="fill:#590BB2;" d="M113.406,145.916c-2.762,0-5-2.239-5-5v-0.145c0-2.761,2.238-5,5-5s5,2.239,5,5v0.145
							C118.406,143.677,116.168,145.916,113.406,145.916z"/>
						<path style="fill:#590BB2;" d="M132.731,145.916c-2.762,0-5-2.239-5-5v-0.145c0-2.761,2.238-5,5-5s5,2.239,5,5v0.145
							C137.731,143.677,135.493,145.916,132.731,145.916z"/>
					</g>
				</g>
			</g>
			<path style="fill:#FDD250;" d="M138.584,276.676h234.831c7.756,0,12.56-8.447,8.594-15.112L264.595,64.181
				c-3.877-6.517-13.312-6.517-17.189,0L129.99,261.564C126.025,268.23,130.828,276.676,138.584,276.676z"/>
			<path style="fill:#590BB2;" d="M441,111.758H323.354c-2.762,0-5,2.239-5,5s2.238,5,5,5H441c5.514,0,10,4.486,10,10v28.171
				H327.369l-58.478-98.305c-2.731-4.59-7.551-7.331-12.893-7.331c-5.341,0-10.16,2.741-12.89,7.332l-29.823,50.133H71
				c-11.028,0-20,8.972-20,20v254.247c0,11.028,8.972,20,20,20h140.215l-9.71,38.487c-0.676,2.678,0.947,5.396,3.625,6.071
				c0.41,0.104,0.821,0.153,1.227,0.153c2.236,0,4.272-1.511,4.844-3.778l10.327-40.934h68.945l15.819,62.701H180.066
				c-2.762,0-5,2.239-5,5s2.238,5,5,5h151.867c2.762,0,5-2.239,5-5s-2.238-5-5-5h-15.33l-15.819-62.701H441c11.028,0,20-8.972,20-20
				V131.758C461,120.73,452.028,111.758,441,111.758z M451,169.929v175.686H61V169.929h117.683l-52.989,89.078
				c-2.794,4.696-2.85,10.334-0.148,15.084s7.575,7.585,13.039,7.585h234.832c5.464,0,10.338-2.835,13.039-7.585
				s2.646-10.388-0.148-15.083l-52.989-89.078H451z M251.703,66.737c1.313-2.206,3.441-2.443,4.297-2.444
				c0.854,0,2.985,0.238,4.298,2.444L377.713,264.12c1.342,2.256,0.481,4.268,0.05,5.027c-0.433,0.76-1.722,2.528-4.347,2.528
				H138.584c-2.625,0-3.914-1.768-4.347-2.528c-0.432-0.76-1.292-2.771,0.05-5.028L251.703,66.737z M71,121.758h136.338
				l-22.707,38.171H61v-28.171C61,126.244,65.486,121.758,71,121.758z M441,396.005H71c-5.514,0-10-4.486-10-10v-30.39h390v30.39
				C451,391.519,446.514,396.005,441,396.005z"/>
			<g>
				<g>
					<path style="fill:#F5F4F9;" d="M256,209.87c-5.522,0-10-4.477-10-10v-65.75c0-5.523,4.478-10,10-10s10,4.477,10,10v65.75
						C266,205.393,261.522,209.87,256,209.87z"/>
				</g>
				<g>
					<path style="fill:#F5F4F9;" d="M256,240.928c-5.522,0-10-4.477-10-10v-0.115c0-5.523,4.478-10,10-10s10,4.477,10,10v0.115
						C266,236.451,261.522,240.928,256,240.928z"/>
				</g>
			</g>
			<g>
				<g>
					<path style="fill:#FFA052;" d="M123.104,322.921c-1.279,0-2.56-0.488-3.535-1.464c-2.34-2.339-6.146-2.341-8.485,0
						c-1.951,1.952-5.119,1.952-7.07,0c-0.977-0.977-1.465-2.256-1.465-3.536s0.488-2.559,1.465-3.536
						c1.133-1.133,1.757-2.64,1.757-4.243s-0.624-3.109-1.757-4.242c-0.977-0.976-1.465-2.256-1.465-3.535
						c0-1.28,0.488-2.56,1.464-3.536c1.953-1.953,5.118-1.954,7.071,0c1.134,1.133,2.641,1.757,4.243,1.757s3.108-0.624,4.241-1.757
						c1.953-1.953,5.118-1.954,7.071,0c0.977,0.976,1.465,2.256,1.465,3.535c0,1.28-0.488,2.56-1.464,3.536
						c-2.34,2.34-2.34,6.146-0.001,8.485c0.977,0.977,1.465,2.256,1.465,3.536s-0.488,2.559-1.465,3.536
						C125.664,322.433,124.384,322.921,123.104,322.921z"/>
					<path style="fill:#FFA052;" d="M163.771,322.921c-1.279,0-2.56-0.488-3.535-1.464c-2.34-2.34-6.146-2.34-8.486,0
						c-1.951,1.952-5.119,1.952-7.07,0c-0.977-0.977-1.465-2.256-1.465-3.536s0.488-2.559,1.465-3.536
						c1.133-1.133,1.757-2.64,1.757-4.243s-0.624-3.109-1.757-4.242c-0.977-0.976-1.465-2.256-1.465-3.535
						c0-1.28,0.488-2.56,1.464-3.536c1.953-1.953,5.118-1.954,7.071,0c2.34,2.339,6.146,2.339,8.486,0
						c1.951-1.952,5.118-1.953,7.071,0c0.976,0.976,1.464,2.256,1.464,3.536c0,1.279-0.488,2.559-1.465,3.535
						c-1.133,1.133-1.757,2.64-1.757,4.242s0.624,3.109,1.757,4.243c0.977,0.977,1.465,2.256,1.465,3.536s-0.488,2.559-1.465,3.536
						C166.331,322.433,165.051,322.921,163.771,322.921z"/>
					<path style="fill:#FFA052;" d="M204.438,322.921c-1.279,0-2.56-0.488-3.535-1.464c-2.34-2.34-6.146-2.34-8.486,0
						c-1.951,1.952-5.119,1.952-7.07,0c-0.977-0.977-1.465-2.256-1.465-3.536s0.488-2.559,1.465-3.536
						c1.133-1.133,1.757-2.64,1.757-4.243s-0.624-3.109-1.757-4.242c-0.977-0.976-1.465-2.256-1.465-3.535
						c0-1.28,0.488-2.56,1.464-3.536c1.953-1.953,5.118-1.954,7.071,0c2.34,2.339,6.146,2.339,8.486,0
						c1.951-1.952,5.118-1.953,7.071,0c0.976,0.976,1.464,2.256,1.464,3.536c0,1.279-0.488,2.559-1.465,3.535
						c-1.133,1.133-1.757,2.64-1.757,4.242s0.624,3.109,1.757,4.243c0.977,0.977,1.465,2.256,1.465,3.536s-0.488,2.559-1.465,3.536
						C206.998,322.433,205.718,322.921,204.438,322.921z"/>
				</g>
				<g>
					<g>
						<path style="fill:#DDD9E4;" d="M399.443,305.694H242.289c-2.766,0-5.008-2.242-5.008-5.008c0-2.766,2.242-5.008,5.008-5.008
							h157.154c2.766,0,5.008,2.242,5.008,5.008C404.451,303.452,402.21,305.694,399.443,305.694z"/>
					</g>
					<g>
						<path style="fill:#DDD9E4;" d="M399.443,324.608H242.289c-2.766,0-5.008-2.242-5.008-5.008c0-2.766,2.242-5.008,5.008-5.008
							h157.154c2.766,0,5.008,2.242,5.008,5.008C404.451,322.365,402.21,324.608,399.443,324.608z"/>
					</g>
				</g>
			</g>
		</g>
		<path style="fill:#FFA052;" d="M143.749,455.796L143.749,455.796c-1.326,0-2.598-0.527-3.535-1.464l-11.018-11.018
			c-1.953-1.953-1.953-5.119,0-7.071l11.018-11.018c0.938-0.938,2.209-1.464,3.535-1.464s2.598,0.527,3.535,1.464l11.019,11.018
			c0.938,0.938,1.465,2.209,1.465,3.536s-0.526,2.598-1.465,3.536l-11.019,11.018C146.347,455.269,145.075,455.796,143.749,455.796z
			 M139.803,439.778l3.946,3.947l3.947-3.947l-3.947-3.947L139.803,439.778z"/>
		<path style="fill:#C182F9;" d="M320.866,84.021c-1.326,0-2.598-0.527-3.535-1.464l-11.019-11.018
			c-0.938-0.938-1.465-2.209-1.465-3.536s0.526-2.598,1.465-3.536l11.019-11.018c0.938-0.938,2.209-1.464,3.535-1.464l0,0
			c1.326,0,2.598,0.527,3.535,1.464l11.018,11.018c1.953,1.953,1.953,5.119,0,7.071l-11.018,11.018
			C323.464,83.494,322.192,84.021,320.866,84.021z M316.919,68.003l3.947,3.947l3.946-3.947l-3.946-3.947L316.919,68.003z"/>
		<path style="fill:#FFE783;" d="M364.982,65.329c-2.762,0-5-2.239-5-5c0-3.318-2.7-6.018-6.019-6.018c-2.762,0-5-2.239-5-5
			s2.238-5,5-5c3.318,0,6.019-2.7,6.019-6.018c0-2.761,2.238-5,5-5s5,2.239,5,5c0,3.318,2.699,6.018,6.018,6.018
			c2.762,0,5,2.239,5,5s-2.238,5-5,5c-3.318,0-6.018,2.7-6.018,6.018C369.982,63.091,367.744,65.329,364.982,65.329z"/>
		<path style="fill:#FFE783;" d="M163.771,84.021c-2.762,0-5-2.239-5-5c0-3.318-2.699-6.018-6.018-6.018c-2.762,0-5-2.239-5-5
			s2.238-5,5-5c3.318,0,6.018-2.7,6.018-6.018c0-2.761,2.238-5,5-5s5,2.239,5,5c0,3.318,2.7,6.018,6.019,6.018c2.762,0,5,2.239,5,5
			s-2.238,5-5,5c-3.318,0-6.019,2.7-6.019,6.018C168.771,81.782,166.533,84.021,163.771,84.021z"/>
	</g>
</g>
<g>
</g>
<g>
</g>
<g>
</g>
<g>
</g>
<g>
</g>
<g>
</g>
<g>
</g>
<g>
</g>
<g>
</g>
<g>
</g>
<g>
</g>
<g>
</g>
<g>
</g>
<g>
</g>
<g>
</g>
</svg>
