<?xml version="1.0" encoding="iso-8859-1"?>
<!-- Generator: Adobe Illustrator 23.0.3, SVG Export Plug-In . SVG Version: 6.00 Build 0)  -->
<svg version="1.1" id="Capa_1" xmlns="http://www.w3.org/2000/svg" xmlns:xlink="http://www.w3.org/1999/xlink" x="0px" y="0px"
	 viewBox="0 0 512 512" style="enable-background:new 0 0 512 512;" xml:space="preserve">
<g>
	<linearGradient id="SVGID_1_" gradientUnits="userSpaceOnUse" x1="225.8161" y1="253.5" x2="864.887" y2="253.5">
		<stop  offset="7.011211e-04" style="stop-color:#FFF0D5"/>
		<stop  offset="0.5112" style="stop-color:#FFDFFF"/>
		<stop  offset="1" style="stop-color:#D9CEFF"/>
	</linearGradient>
	<path style="fill:url(#SVGID_1_);" d="M505.626,289.418c-11.826-34.61-38.138-60.16-69.852-72.202
		c-16.43-6.239-27.346-21.856-27.587-39.429c-0.005-0.384-0.012-0.769-0.021-1.154c-1.507-64.582-55.488-116.33-120.077-115.221
		c-38.094,0.654-71.788,19.355-92.905,47.92c-18.185,24.599-46.49,39.965-77.08,39.949c-0.898,0-1.797,0.009-2.7,0.029
		C53.487,150.664,0.837,203.788,0.011,265.713c-0.879,65.932,52.303,119.654,118.032,119.654c50.947,0,94.349-32.277,110.886-77.497
		c4.327-11.832,17.152-18.174,29.283-14.772c0.151,0.042,0.303,0.085,0.455,0.127c11.099,3.064,18.458,13.64,17.55,25.119
		c-1.217,15.383,0.581,31.255,5.798,46.796c20.521,61.135,87.188,94.685,148.493,74.68
		C493.219,419.355,526.887,351.636,505.626,289.418z"/>
	<g>
		<g>
			<path style="opacity:0.1;fill:#590BB2;" d="M452.735,227.581c-0.635-4.982-4.884-8.704-9.907-8.704h-23.113
				c-13.046-70.645-66.516-127.112-135.531-144.521c0.225-1.829,0.354-3.687,0.354-5.577c0-25.007-20.272-45.279-45.279-45.279
				c-25.007,0-45.279,20.272-45.279,45.279c0,1.868,0.126,3.705,0.346,5.514c-19.01,4.766-36.842,12.494-52.983,22.666
				c-4.494-1.494-9.294-2.315-14.289-2.315c-25.007,0-45.279,20.272-45.279,45.279c0,4.931,0.799,9.673,2.256,14.116
				c-18.084,28.444-28.564,62.196-28.564,98.398c0,101.432,82.227,183.659,183.659,183.659c32.878,0,63.733-8.648,90.429-23.78
				l26.369,16.396c7.271,4.521,16.479,4.521,23.75,0l67.895-42.217c2.5-1.554,4.19-4.124,4.611-7.037
				c2.654-18.353,4.352-46.465,4.352-77.982C456.533,272.215,455.069,245.887,452.735,227.581z"/>
			<circle style="fill:#E2CCFF;" cx="239.126" cy="270.417" r="183.659"/>
			<path style="fill:#D6B0FF;" d="M172.33,172.889c0,25-20.266,45.276-45.276,45.276c-24.131,0-43.838-18.867-45.196-42.649
				c11.027-18.238,25.14-34.399,41.61-47.773c1.189-0.09,2.377-0.14,3.586-0.14C152.064,127.603,172.33,147.879,172.33,172.889z"/>
			<path style="fill:#D6B0FF;" d="M284.536,101.744c0,25-20.266,45.276-45.276,45.276s-45.276-20.276-45.276-45.276
				c0-3.306,0.36-6.542,1.029-9.648c14.133-3.486,28.906-5.334,44.117-5.334c15.302,0,30.174,1.868,44.387,5.404
				C284.186,95.252,284.536,98.458,284.536,101.744z"/>
			<path style="fill:#D6B0FF;" d="M422.781,270.413c0,74.931-44.856,139.374-109.19,167.939l-25.559-15.901
				c-2.507-1.548-4.195-4.125-4.615-7.032c-2.657-18.358-4.355-46.465-4.355-77.987c0-29.265,1.468-55.594,3.805-73.892
				c0.629-4.984,4.884-8.71,9.898-8.71h129.355C422.561,259.965,422.781,265.169,422.781,270.413z"/>
			<g>
				<circle style="fill:#FDD250;" cx="127.054" cy="157.902" r="45.279"/>
				<path style="fill:#F5F4F9;" d="M143.653,149.68c0-9.153-7.446-16.6-16.599-16.6c-9.153,0-16.6,7.446-16.6,16.6
					c0,4.512,1.815,8.604,4.747,11.6c-2.932,2.995-4.747,7.087-4.747,11.6c0,2.762,2.238,5,5,5s5-2.238,5-5
					c0-3.639,2.961-6.6,6.6-6.6s6.599,2.961,6.599,6.6c0,2.762,2.238,5,5,5s5-2.238,5-5c0-4.512-1.815-8.604-4.747-11.6
					C141.838,158.284,143.653,154.192,143.653,149.68z M127.055,143.08c3.639,0,6.599,2.961,6.599,6.6s-2.96,6.6-6.599,6.6
					s-6.6-2.961-6.6-6.6S123.416,143.08,127.055,143.08z"/>
			</g>
			<g>
				<circle style="fill:#FFA052;" cx="239.259" cy="86.758" r="45.279"/>
				<path style="fill:#F5F4F9;" d="M255.858,78.535c0-9.152-7.446-16.599-16.599-16.599c-9.153,0-16.6,7.446-16.6,16.599
					c0,4.512,1.815,8.604,4.747,11.6c-2.932,2.995-4.747,7.087-4.747,11.6c0,2.762,2.238,5,5,5s5-2.238,5-5
					c0-3.639,2.961-6.6,6.6-6.6s6.599,2.961,6.599,6.6c0,2.762,2.238,5,5,5s5-2.238,5-5c0-4.512-1.815-8.604-4.747-11.6
					C254.043,87.14,255.858,83.047,255.858,78.535z M239.26,71.937c3.639,0,6.599,2.96,6.599,6.599s-2.96,6.6-6.599,6.6
					s-6.6-2.961-6.6-6.6S235.621,71.937,239.26,71.937z"/>
			</g>
			<g>
				<circle style="fill:#FDD250;" cx="171.887" cy="438.221" r="45.279"/>
				<path style="fill:#F5F4F9;" d="M188.486,429.998c0-9.152-7.446-16.599-16.6-16.599c-9.152,0-16.599,7.446-16.599,16.599
					c0,4.512,1.815,8.604,4.747,11.6c-2.931,2.995-4.747,7.087-4.747,11.6c0,2.762,2.238,5,5,5s5-2.238,5-5
					c0-3.639,2.96-6.6,6.599-6.6s6.6,2.961,6.6,6.6c0,2.762,2.238,5,5,5s5-2.238,5-5c0-4.512-1.815-8.604-4.747-11.6
					C186.671,438.603,188.486,434.51,188.486,429.998z M171.887,423.399c3.639,0,6.6,2.96,6.6,6.599s-2.961,6.6-6.6,6.6
					s-6.599-2.961-6.599-6.6S168.248,423.399,171.887,423.399z"/>
			</g>
			<path style="fill:#C182F9;" d="M447.57,404.475c2.5-1.554,4.19-4.124,4.611-7.037c2.654-18.353,4.352-46.465,4.352-77.982
				c0-29.264-1.464-55.591-3.798-73.898c-0.635-4.982-4.884-8.704-9.907-8.704H292.771c-5.022,0-9.272,3.722-9.907,8.704
				c-2.334,18.306-3.798,44.634-3.798,73.898c0,31.517,1.698,59.629,4.352,77.982c0.421,2.913,2.111,5.482,4.611,7.037
				l67.895,42.217c7.271,4.521,16.479,4.521,23.75,0L447.57,404.475z"/>
			<path style="fill:#590BB2;" d="M457.695,244.928c-0.949-7.452-7.341-13.072-14.866-13.072h-89.071
				c-2.764-21.569-7.831-41.911-14.812-60.251c12.925-4.97,24.913-10.917,35.632-17.754c13.922,16.176,25.02,34.923,32.509,55.525
				c0.738,2.031,2.656,3.293,4.699,3.293c0.567,0,1.145-0.097,1.708-0.302c2.596-0.943,3.935-3.813,2.991-6.407
				c-20.866-57.4-68.265-101.152-126.992-117.383c0.022-0.605,0.046-1.209,0.046-1.818c0-27.724-22.556-50.279-50.279-50.279
				S188.98,59.034,188.98,86.758c0,0.582,0.024,1.157,0.044,1.734c-17.035,4.681-33.304,11.74-48.407,21.005
				c-4.318-1.212-8.863-1.874-13.562-1.874c-27.724,0-50.279,22.556-50.279,50.279s22.556,50.279,50.279,50.279
				c0.502,0,0.998-0.023,1.496-0.038c-3.972,18.401-6.139,37.619-6.452,57.273H60.54c0.609-22.402,5.314-44.134,14.02-64.671
				c1.078-2.542-0.109-5.477-2.652-6.555c-2.54-1.08-5.477,0.108-6.555,2.652c-9.878,23.303-14.886,48.056-14.886,73.573
				c0,30.313,6.973,59.266,20.724,86.05c12.792,24.916,31.322,47.009,53.649,64.042c-2.082,5.513-3.231,11.48-3.231,17.712
				c0,27.724,22.555,50.279,50.278,50.279c20.741,0,38.587-12.626,46.262-30.595c6.928,0.766,13.974,1.171,20.978,1.171
				c31.558,0,62.764-7.948,90.292-22.978l23.868,14.841c4.477,2.783,9.495,4.175,14.515,4.175s10.038-1.392,14.516-4.175
				l67.896-42.217c3.765-2.341,6.286-6.193,6.918-10.567c2.799-19.352,4.404-48.036,4.404-78.697
				C461.533,291.223,460.135,264.058,457.695,244.928z M343.667,231.855h-50.897c-7.525,0-13.917,5.62-14.866,13.071
				c-0.776,6.089-1.446,12.998-2,20.49h-31.778v-76.182c30.091-0.497,59.396-5.477,85.448-14.257
				C336.149,192.247,340.959,211.451,343.667,231.855z M159.465,389.497c-2.487-4.619-4.817-9.423-6.984-14.393
				c24.848-8.302,52.829-13.014,81.645-13.503v87.277c-4.256-0.332-8.496-1.088-12.675-2.258c0.462-2.734,0.715-5.537,0.715-8.4
				c0-27.724-22.556-50.279-50.279-50.279C167.601,387.941,163.44,388.483,159.465,389.497z M274.764,353.68
				c-10.055-1.201-20.299-1.91-30.638-2.082v-76.181h31.13c-0.772,13.617-1.189,28.664-1.189,44.04
				C274.066,331.304,274.309,342.848,274.764,353.68z M234.126,351.598c-30.1,0.496-59.385,5.47-85.422,14.243
				c-10.291-27.002-16.062-58.155-16.603-90.424h102.025V351.598z M244.126,361.6c10.526,0.181,20.94,0.938,31.139,2.215
				c0.75,13.109,1.833,24.85,3.206,34.338c0.632,4.375,3.153,8.228,6.918,10.568l14.253,8.862
				c-16.537,19.031-35.58,29.755-55.516,31.292V361.6z M170.796,133.156c7.09-9.844,14.861-18.104,23.16-24.6
				c7.427,15.373,22.452,26.416,40.17,28.221v42.456c-20.288-0.334-40.048-2.698-58.87-7.048c1.345-4.53,2.078-9.321,2.078-14.282
				C177.334,148.909,174.949,140.468,170.796,133.156z M284.49,108.699c16.636,13.078,30.777,32.839,41.308,57.016
				c-24.864,8.309-52.864,13.028-81.672,13.518v-42.435C261.903,135.082,277.002,124.073,284.49,108.699z M367.732,146.345
				c-9.839,6.13-20.778,11.49-32.544,16.006c-11.778-27.228-27.963-49.346-47.13-63.491c0.023-0.093,0.042-0.187,0.065-0.28
				C318.786,107.303,346.136,123.958,367.732,146.345z M239.26,46.479c22.21,0,40.279,18.069,40.279,40.279
				s-18.069,40.279-40.279,40.279s-40.279-18.069-40.279-40.279S217.05,46.479,239.26,46.479z M190.377,98.491
				c0.015,0.064,0.029,0.129,0.045,0.193c-9.253,6.788-17.896,15.484-25.751,25.907c-3.594-4.054-7.831-7.52-12.55-10.246
				C164.225,107.582,177.048,102.263,190.377,98.491z M86.775,157.902c0-22.21,18.069-40.279,40.279-40.279
				s40.279,18.069,40.279,40.279s-18.069,40.279-40.279,40.279S86.775,180.112,86.775,157.902z M139.116,206.709
				c13.971-3.454,25.656-12.759,32.294-25.161c20.036,4.759,41.094,7.342,62.715,7.687v76.182H132.1
				C132.434,245.205,134.791,225.489,139.116,206.709z M60.539,275.417h61.561c0.543,33.399,6.523,65.714,17.201,93.814
				c-12.892,4.959-24.86,10.885-35.564,17.705c-9.229-10.716-17.211-22.496-23.649-35.036
				C67.826,328.018,61.262,302.311,60.539,275.417z M110.586,394.452c9.821-6.113,20.729-11.458,32.461-15.964
				c2.156,4.99,4.474,9.821,6.939,14.482c-8.459,4.111-15.591,10.531-20.593,18.428
				C122.736,406.205,116.449,400.534,110.586,394.452z M171.887,478.5c-22.21,0-40.278-18.069-40.278-40.279
				s18.068-40.279,40.278-40.279s40.279,18.069,40.279,40.279S194.097,478.5,171.887,478.5z M287.594,442.375
				c7.221-5.277,14.129-11.776,20.642-19.447l11.332,7.046C309.341,435.134,298.622,439.278,287.594,442.375z M447.232,396.724
				c-0.21,1.448-1.049,2.727-2.303,3.506l-67.895,42.217c-5.697,3.541-12.774,3.541-18.47,0l-67.896-42.217
				c-1.254-0.779-2.093-2.058-2.303-3.507c-2.733-18.899-4.301-47.062-4.301-77.266c0-27.831,1.37-54.535,3.758-73.266
				c0.314-2.472,2.441-4.336,4.946-4.336h150.059c2.505,0,4.632,1.864,4.946,4.337c2.388,18.729,3.758,45.434,3.758,73.265
				C451.533,349.661,449.966,377.823,447.232,396.724z"/>
			<path style="fill:#FFBE92;" d="M367.802,266.821v61.527h-58.72c-0.03-2.946-0.05-5.913-0.05-8.889
				c0-17.819,0.574-35.082,1.615-49.861c0.11-1.566,1.419-2.777,2.989-2.777H367.802z"/>
			<path style="fill:#FFD5B8;" d="M309.083,328.348h58.72v90.442l-54.607-33.953c-0.787-0.489-1.305-1.306-1.399-2.228
				C310.267,367.712,309.305,348.54,309.083,328.348z"/>
			<path style="fill:#FFD5B8;" d="M426.572,319.458c0,2.976-0.02,5.943-0.05,8.889h-58.72v-61.527h54.158
				c1.569,0,2.878,1.209,2.989,2.775C425.998,284.375,426.572,301.638,426.572,319.458z"/>
			<path style="fill:#FFBE92;" d="M426.522,328.348c-0.222,20.193-1.185,39.364-2.714,54.261c-0.095,0.921-0.613,1.739-1.399,2.228
				l-54.606,33.953v-90.442H426.522z"/>
		</g>
		<path style="fill:#FFE783;" d="M437.574,193.13c-2.762,0-5-2.238-5-5c0-3.31-2.692-6.003-6.002-6.003c-2.762,0-5-2.238-5-5
			s2.238-5,5-5c3.31,0,6.002-2.693,6.002-6.003c0-2.762,2.238-5,5-5s5,2.238,5,5c0,3.31,2.693,6.003,6.003,6.003
			c2.762,0,5,2.238,5,5s-2.238,5-5,5c-3.31,0-6.003,2.693-6.003,6.003C442.574,190.892,440.336,193.13,437.574,193.13z"/>
		<path style="fill:#FFA052;" d="M81.858,445.979c-1.326,0-2.598-0.526-3.535-1.465l-10.981-10.981
			c-0.938-0.938-1.465-2.209-1.465-3.535s0.527-2.598,1.465-3.536l10.981-10.98c1.951-1.951,5.119-1.952,7.07,0.001l10.98,10.98
			c1.953,1.952,1.953,5.118,0.001,7.07l-10.98,10.981C84.456,445.452,83.185,445.979,81.858,445.979z M77.948,429.998l3.91,3.91
			l3.909-3.91l-3.909-3.909L77.948,429.998z"/>
		<path style="fill:#C182F9;" d="M408.168,137.205c-1.279,0-2.56-0.488-3.535-1.465l-10.98-10.98
			c-1.953-1.952-1.953-5.118-0.001-7.07l10.98-10.981c0.938-0.938,2.21-1.465,3.536-1.465s2.598,0.526,3.535,1.465l10.981,10.981
			c0.938,0.938,1.465,2.209,1.465,3.535s-0.527,2.598-1.465,3.536l-10.981,10.98C410.728,136.717,409.447,137.205,408.168,137.205z
			 M404.259,121.225l3.909,3.909l3.91-3.909l-3.91-3.91L404.259,121.225z"/>
		<path style="fill:#C182F9;" d="M154.128,72.383c-1.279,0-2.559-0.488-3.535-1.464l-10.981-10.98
			c-0.938-0.938-1.465-2.21-1.465-3.536s0.526-2.598,1.465-3.535l10.981-10.981c0.938-0.938,2.209-1.465,3.535-1.465l0,0
			c1.326,0,2.598,0.527,3.536,1.465l10.98,10.981c1.952,1.952,1.952,5.118-0.001,7.07l-10.98,10.98
			C156.688,71.895,155.407,72.383,154.128,72.383z M150.218,56.402l3.91,3.909l3.909-3.909l-3.909-3.91L150.218,56.402z"/>
	</g>
</g>
<g>
</g>
<g>
</g>
<g>
</g>
<g>
</g>
<g>
</g>
<g>
</g>
<g>
</g>
<g>
</g>
<g>
</g>
<g>
</g>
<g>
</g>
<g>
</g>
<g>
</g>
<g>
</g>
<g>
</g>
</svg>
