<?xml version="1.0" encoding="iso-8859-1"?>
<!-- Generator: Adobe Illustrator 23.0.3, SVG Export Plug-In . SVG Version: 6.00 Build 0)  -->
<svg version="1.1" id="Capa_1" xmlns="http://www.w3.org/2000/svg" xmlns:xlink="http://www.w3.org/1999/xlink" x="0px" y="0px"
	 viewBox="0 0 512 512" style="enable-background:new 0 0 512 512;" xml:space="preserve">
<g>
	<linearGradient id="SVGID_1_" gradientUnits="userSpaceOnUse" x1="206.8671" y1="253.5011" x2="802.4096" y2="253.5011">
		<stop  offset="7.011211e-04" style="stop-color:#FFF0D5"/>
		<stop  offset="0.5112" style="stop-color:#FFDFFF"/>
		<stop  offset="1" style="stop-color:#D9CEFF"/>
	</linearGradient>
	<path style="fill:url(#SVGID_1_);" d="M382.606,171.517c-0.192-0.001-0.385-0.002-0.577-0.002
		c-32.034-0.05-62.385-13.844-83.44-37.986c-31.366-35.964-77.6-58.622-129.121-58.393C75.956,75.551-1.195,154.117,0.014,247.621
		c1.203,92.986,76.955,167.995,170.227,167.995c26.343,0,51.286-5.987,73.547-16.672c19.194-9.213,42.065-6.784,58.968,6.161
		c21.863,16.745,49.19,26.713,78.846,26.763c71.382,0.119,129.981-58.02,130.396-129.401
		C512.416,230.418,454.556,171.941,382.606,171.517z"/>
	<g>
		<path style="opacity:0.1;fill:#590BB2;" d="M375.727,60.522v364.959c0,9.951-8.069,18.019-18.019,18.019H154.291
			c-9.951,0-18.019-8.069-18.019-18.019V60.522c0-9.951,8.069-18.019,18.019-18.019h203.417
			C367.658,42.502,375.727,50.571,375.727,60.522z"/>
		<g>
			<g>
				<g>
					<g>
						<g>
							<g>
								<path style="fill:#F5F4F9;" d="M375.727,81.522v364.959c0,9.951-8.069,18.019-18.019,18.019H154.291
									c-9.951,0-18.019-8.069-18.019-18.019V81.522c0-9.951,8.069-18.019,18.019-18.019h203.417
									C367.658,63.502,375.727,71.571,375.727,81.522z"/>
								<path style="fill:#FFD5B8;" d="M136.272,387.176v59.305c0,9.951,8.069,18.019,18.019,18.019h203.417
									c9.951,0,18.019-8.069,18.019-18.019v-59.305H136.272z"/>
								<path style="fill:#CECAE0;" d="M327.382,88.343l8.004-24.843H176.614l8.004,24.843c1.159,3.598,4.477,6.032,8.22,6.032
									h126.324C322.905,94.376,326.223,91.941,327.382,88.343z"/>
								<path style="fill:#590BB2;" d="M357.709,58.5h-22.323c-2.171,0-4.093,1.4-4.759,3.467l-8.004,24.843
									c-0.494,1.534-1.885,2.565-3.46,2.565H192.838c-1.576,0-2.966-1.031-3.46-2.565l-5.899-18.31h124.329c2.761,0,5-2.238,5-5
									c0-2.762-2.239-5-5-5H154.29c-12.692,0-23.019,10.326-23.019,23.019v278.077c0,2.762,2.239,5,5,5s5-2.238,5-5V81.519
									c0-7.179,5.84-13.019,13.019-13.019h18.681l6.887,21.376c1.831,5.682,7.046,9.499,12.979,9.499h126.324
									c5.933,0,11.149-3.817,12.979-9.499l6.887-21.376h18.681c7.178,0,13.019,5.84,13.019,13.019v364.96
									c0,7.179-5.84,13.019-13.019,13.019H154.29c-7.178,0-13.019-5.84-13.019-13.019v-59.303c0-2.762-2.239-5-5-5s-5,2.238-5,5
									v59.303c0,12.692,10.326,23.019,23.019,23.019h203.419c12.692,0,23.019-10.326,23.019-23.019V81.519
									C380.728,68.826,370.402,58.5,357.709,58.5z"/>
							</g>
						</g>
						<g>
							<g>
								<g>
									<path style="fill:#FDD250;" d="M289.184,328.002h-66.368c-2.82,0-5.106-2.311-5.106-5.161c0-2.85,2.286-5.161,5.106-5.161
										h66.368c2.82,0,5.106,2.311,5.106,5.161C294.29,325.691,292.004,328.002,289.184,328.002z"/>
								</g>
								<g>
									<path style="fill:#DDD9E4;" d="M271.243,347.145h-30.486c-2.82,0-5.106-2.311-5.106-5.161c0-2.85,2.286-5.161,5.106-5.161
										h30.486c2.82,0,5.106,2.311,5.106,5.161C276.349,344.834,274.063,347.145,271.243,347.145z"/>
								</g>
							</g>
						</g>
						<g>
							<g>
								<g>
									<path style="fill:#DDD9E4;" d="M271.243,366.288h-30.486c-2.82,0-5.106-2.311-5.106-5.161c0-2.85,2.286-5.161,5.106-5.161
										h30.486c2.82,0,5.106,2.311,5.106,5.161C276.349,363.977,274.063,366.288,271.243,366.288z"/>
								</g>
							</g>
						</g>
						<g>
							<ellipse style="fill:#FFA052;" cx="272.855" cy="420.814" rx="5.572" ry="5.632"/>
							<ellipse style="fill:#FFA052;" cx="256" cy="420.814" rx="5.572" ry="5.632"/>
							<ellipse style="fill:#FFA052;" cx="239.145" cy="420.814" rx="5.572" ry="5.632"/>
						</g>
					</g>
				</g>
			</g>
			<g>
				<g>
					<path style="fill:#FFBE92;" d="M256.002,144.341l-86.123,72.737h20.029c1.659,0,3.004,1.345,3.004,3.004v76.962
						c0,1.659,1.345,3.004,3.004,3.004h120.172c1.659,0,3.004-1.345,3.004-3.004v-76.962c0-1.659,1.345-3.004,3.004-3.004h20.029
						L256.002,144.341z"/>
					<path style="fill:#FFA052;" d="M342.122,222.078c-1.14,0-2.285-0.388-3.224-1.18l-82.897-70.013l-82.897,70.013
						c-2.109,1.78-5.264,1.516-7.046-0.594c-1.782-2.11-1.516-5.265,0.594-7.047l86.124-72.737c1.863-1.572,4.589-1.572,6.452,0
						l86.123,72.737c2.11,1.782,2.375,4.937,0.594,7.047C344.956,221.476,343.544,222.078,342.122,222.078z"/>
					<path style="fill:#C182F9;" d="M260.341,300.049h-42.06v-67.762c0-2.765,2.242-5.007,5.007-5.007h32.046
						c2.765,0,5.007,2.242,5.007,5.007V300.049z"/>
				</g>
				<circle style="fill:#FFEADC;" cx="285.305" cy="239.964" r="12.685"/>
			</g>
			<path style="fill:#C182F9;" d="M198.138,137.084c0-9.17-7.46-16.63-16.63-16.63s-16.63,7.46-16.63,16.63
				c0,4.525,1.822,8.628,4.764,11.63c-2.942,3.001-4.764,7.105-4.764,11.63c0,2.762,2.239,5,5,5s5-2.238,5-5
				c0-3.655,2.974-6.63,6.63-6.63s6.63,2.975,6.63,6.63c0,2.762,2.239,5,5,5s5-2.238,5-5c0-4.525-1.822-8.628-4.764-11.63
				C196.316,145.713,198.138,141.609,198.138,137.084z M181.508,130.454c3.656,0,6.63,2.975,6.63,6.63s-2.974,6.63-6.63,6.63
				s-6.63-2.975-6.63-6.63S177.852,130.454,181.508,130.454z"/>
			<g>
				<path style="fill:#FFE783;" d="M413.5,170.522c-2.761,0-5-2.238-5-5c0-3.326-2.706-6.032-6.031-6.032c-2.761,0-5-2.238-5-5
					s2.239-5,5-5c3.326,0,6.031-2.706,6.031-6.031c0-2.762,2.239-5,5-5s5,2.238,5,5c0,3.325,2.706,6.031,6.031,6.031
					c2.761,0,5,2.238,5,5s-2.239,5-5,5c-3.326,0-6.031,2.706-6.031,6.032C418.5,168.283,416.262,170.522,413.5,170.522z"/>
				<path style="fill:#C182F9;" d="M92.7,337.132c-2.761,0-5-2.238-5-5c0-3.325-2.706-6.031-6.032-6.031c-2.761,0-5-2.238-5-5
					s2.239-5,5-5c3.326,0,6.032-2.706,6.032-6.032c0-2.762,2.239-5,5-5s5,2.238,5,5c0,3.326,2.706,6.032,6.031,6.032
					c2.761,0,5,2.238,5,5s-2.239,5-5,5c-3.326,0-6.031,2.706-6.031,6.031C97.7,334.894,95.461,337.132,92.7,337.132z"/>
				<path style="fill:#FFA052;" d="M419.322,235.2c-1.28,0-2.559-0.488-3.536-1.465l-11.01-11.01c-1.953-1.952-1.953-5.118,0-7.07
					l11.01-11.01c1.953-1.953,5.118-1.953,7.071,0l11.01,11.01c1.953,1.952,1.953,5.118,0,7.07l-11.01,11.01
					C421.881,234.712,420.602,235.2,419.322,235.2z M415.384,219.191l3.938,3.938l3.938-3.938l-3.938-3.938L415.384,219.191z"/>
			</g>
			<path style="fill:#C182F9;" d="M101.979,281.529c-2.761,0-5-2.238-5-5c0-3.326-2.706-6.032-6.031-6.032c-2.761,0-5-2.238-5-5
				s2.239-5,5-5c3.326,0,6.031-2.706,6.031-6.031c0-2.762,2.239-5,5-5s5,2.238,5,5c0,3.325,2.706,6.031,6.032,6.031
				c2.761,0,5,2.238,5,5s-2.239,5-5,5c-3.326,0-6.032,2.706-6.032,6.032C106.979,279.291,104.74,281.529,101.979,281.529z"/>
		</g>
	</g>
</g>
<g>
</g>
<g>
</g>
<g>
</g>
<g>
</g>
<g>
</g>
<g>
</g>
<g>
</g>
<g>
</g>
<g>
</g>
<g>
</g>
<g>
</g>
<g>
</g>
<g>
</g>
<g>
</g>
<g>
</g>
</svg>
