<?xml version="1.0" encoding="iso-8859-1"?>
<!-- Generator: Adobe Illustrator 23.0.3, SVG Export Plug-In . SVG Version: 6.00 Build 0)  -->
<svg version="1.1" id="Capa_1" xmlns="http://www.w3.org/2000/svg" xmlns:xlink="http://www.w3.org/1999/xlink" x="0px" y="0px"
	 viewBox="0 0 512 512" style="enable-background:new 0 0 512 512;" xml:space="preserve">
<g>
	<linearGradient id="SVGID_1_" gradientUnits="userSpaceOnUse" x1="175.9175" y1="256.0024" x2="833.6678" y2="256.0024">
		<stop  offset="7.011211e-04" style="stop-color:#FFF0D5"/>
		<stop  offset="0.5112" style="stop-color:#FFDFFF"/>
		<stop  offset="1" style="stop-color:#D9CEFF"/>
	</linearGradient>
	<path style="fill:url(#SVGID_1_);" d="M482.969,143.723c-34.945-35.948-89.48-40.907-129.831-14.878
		c-11.48,7.405-25.381,9.888-38.717,6.927c-31.565-7.009-64.584-2.222-92.707,13.042c-18.907,10.261-41.936,8.477-59.579-3.83
		c-11.712-8.169-25.312-14.023-40.257-16.777C66.44,117.99,12.541,154.76,1.884,210.115
		C-9.015,266.723,28.512,321.127,85.08,331.203c13.821,2.462,27.488,2.047,40.388-0.816c20.936-4.646,42.81,3.122,56.321,19.776
		c8.528,10.512,18.812,19.894,30.757,27.689c61.731,40.28,144.427,22.89,184.707-38.84c0.043-0.065,0.085-0.131,0.128-0.196
		c7.377-11.349,18.851-19.44,32.12-22.119c19.353-3.907,37.801-13.404,52.756-28.495C521.63,248.47,521.958,183.832,482.969,143.723
		z"/>
	<g>
		<path style="opacity:0.1;fill:#590BB2;" d="M456.002,105.059v254.25c0,8.28-6.72,15-15,15h-370c-8.28,0-15-6.72-15-15v-254.25
			c0-8.28,6.72-15,15-15h370C449.282,90.059,456.002,96.779,456.002,105.059z"/>
		<polygon style="fill:#AFABC6;" points="312.712,468.015 199.291,468.015 221.973,378.111 290.03,378.111 		"/>
		<polygon style="fill:#8E8CA8;" points="297.93,409.413 214.073,409.413 221.973,378.111 290.03,378.111 		"/>
		<g>
			<path style="fill:#F5F4F9;" d="M455.998,126.058v254.25c0,8.28-6.72,15-15,15h-370c-8.28,0-15-6.72-15-15v-254.25
				c0-8.28,6.72-15,15-15h370C449.278,111.058,455.998,117.778,455.998,126.058z"/>
			<path style="fill:#FFD5B8;" d="M440.998,111.058h-68.72v284.25h68.72c8.28,0,15-6.72,15-15v-254.25
				C455.998,117.778,449.278,111.058,440.998,111.058z"/>
			<g>
				<g>
					<path style="fill:#FFBE92;" d="M256.002,198.552l-86,72.633h20c1.657,0,3,1.343,3,3v79.852h126v-79.852c0-1.657,1.343-3,3-3h20
						L256.002,198.552z"/>
					<path style="fill:#FFA052;" d="M342,276.185c-1.14,0-2.285-0.388-3.224-1.18l-82.774-69.908l-82.774,69.908
						c-2.109,1.781-5.265,1.517-7.046-0.594c-1.782-2.11-1.516-5.265,0.594-7.047l86-72.633c1.863-1.572,4.589-1.572,6.452,0
						l86,72.633c2.11,1.782,2.375,4.937,0.594,7.047C344.833,275.583,343.421,276.185,342,276.185z"/>
					<path style="fill:#C182F9;" d="M260.335,354.037h-42v-67.665c0-2.761,2.239-5,5-5h32c2.761,0,5,2.239,5,5V354.037z"/>
				</g>
				<circle style="fill:#FFEADC;" cx="285.263" cy="294.038" r="12.667"/>
			</g>
			<path style="fill:#C182F9;" d="M456.002,159.233v-33.171c0-8.284-6.716-15-15-15h-370c-8.284,0-15,6.716-15,15v33.171H456.002z"
				/>
			<path style="fill:#CECAE0;" d="M56.002,344.919v35.39c0,8.284,6.716,15,15,15h370c8.284,0,15-6.716,15-15v-35.39H56.002z"/>
		</g>
		<g>
			<path style="fill:#590BB2;" d="M94.084,140.22c2.761,0,5-2.238,5-5v-0.146c0-2.762-2.239-5-5-5s-5,2.238-5,5v0.146
				C89.084,137.982,91.323,140.22,94.084,140.22z"/>
			<path style="fill:#590BB2;" d="M113.409,140.22c2.761,0,5-2.238,5-5v-0.146c0-2.762-2.239-5-5-5s-5,2.238-5,5v0.146
				C108.409,137.982,110.647,140.22,113.409,140.22z"/>
			<path style="fill:#590BB2;" d="M132.733,140.22c2.761,0,5-2.238,5-5v-0.146c0-2.762-2.239-5-5-5s-5,2.238-5,5v0.146
				C127.733,137.982,129.972,140.22,132.733,140.22z"/>
			<path style="fill:#590BB2;" d="M441.002,106.062h-370c-11.028,0-20,8.972-20,20v254.247c0,11.028,8.972,20,20,20h140.214
				l-15.819,62.701h-15.329c-2.761,0-5,2.238-5,5s2.239,5,5,5h151.868c2.761,0,5-2.238,5-5s-2.239-5-5-5h-15.33l-15.819-62.701
				h34.721c2.761,0,5-2.238,5-5s-2.239-5-5-5H71.002c-5.514,0-10-4.486-10-10v-30.39h390v30.39c0,5.514-4.486,10-10,10h-77.954
				c-2.761,0-5,2.238-5,5s2.239,5,5,5h77.954c11.028,0,20-8.972,20-20V126.062C461.002,115.034,452.03,106.062,441.002,106.062z
				 M306.292,463.01H205.71l15.819-62.701h68.945L306.292,463.01z M61.002,339.919V126.062c0-5.514,4.486-10,10-10h370
				c5.514,0,10,4.486,10,10v28.171H83.542c-2.761,0-5,2.238-5,5s2.239,5,5,5h367.459v175.687H61.002z"/>
		</g>
		<g>
			<g>
				<g>
					<path style="fill:#DDD9E4;" d="M124.295,219.265H89.709c-2.766,0-5.007-2.242-5.007-5.007c0-2.765,2.241-5.007,5.007-5.007
						h34.586c2.766,0,5.007,2.242,5.007,5.007C129.302,217.023,127.06,219.265,124.295,219.265z"/>
				</g>
				<g>
					<path style="fill:#FFBE92;" d="M429.295,254.835h-34.586c-2.766,0-5.007-2.242-5.007-5.007s2.241-5.007,5.007-5.007h34.586
						c2.766,0,5.007,2.242,5.007,5.007S432.06,254.835,429.295,254.835z"/>
				</g>
				<g>
					<path style="fill:#FFBE92;" d="M429.295,276.192h-34.586c-2.766,0-5.007-2.242-5.007-5.007c0-2.765,2.241-5.007,5.007-5.007
						h34.586c2.766,0,5.007,2.242,5.007,5.007C434.302,273.95,432.06,276.192,429.295,276.192z"/>
				</g>
				<g>
					<path style="fill:#FFBE92;" d="M429.295,297.549h-34.586c-2.766,0-5.007-2.242-5.007-5.007s2.241-5.007,5.007-5.007h34.586
						c2.766,0,5.007,2.242,5.007,5.007S432.06,297.549,429.295,297.549z"/>
				</g>
				<g>
					<path style="fill:#FDD250;" d="M166.295,192.481H89.709c-2.766,0-5.007-2.242-5.007-5.007c0-2.765,2.241-5.007,5.007-5.007
						h76.586c2.766,0,5.007,2.242,5.007,5.007C171.302,190.239,169.06,192.481,166.295,192.481z"/>
				</g>
			</g>
			<g>
				<g>
					<path style="fill:#FFBE92;" d="M124.295,237.05H89.709c-2.766,0-5.007-2.242-5.007-5.007s2.241-5.007,5.007-5.007h34.586
						c2.766,0,5.007,2.242,5.007,5.007S127.06,237.05,124.295,237.05z"/>
				</g>
			</g>
			<g>
				<g>
					<path style="fill:#FFBE92;" d="M124.295,254.835H89.709c-2.766,0-5.007-2.242-5.007-5.007s2.241-5.007,5.007-5.007h34.586
						c2.766,0,5.007,2.242,5.007,5.007S127.06,254.835,124.295,254.835z"/>
				</g>
			</g>
		</g>
		<g>
			<circle style="fill:#FFA052;" cx="395.175" cy="186.698" r="5.603"/>
			<circle style="fill:#FFA052;" cx="395.175" cy="206.648" r="5.603"/>
			<circle style="fill:#FFA052;" cx="395.175" cy="226.597" r="5.603"/>
		</g>
		<path style="fill:#C182F9;" d="M118.409,292.514c0-9.16-7.453-16.613-16.613-16.613s-16.613,7.453-16.613,16.613
			c0,4.518,1.818,8.615,4.755,11.613c-2.936,2.998-4.755,7.095-4.755,11.613c0,2.762,2.239,5,5,5s5-2.238,5-5
			c0-3.646,2.967-6.613,6.613-6.613s6.613,2.967,6.613,6.613c0,2.762,2.239,5,5,5s5-2.238,5-5c0-4.518-1.818-8.615-4.755-11.613
			C116.591,301.129,118.409,297.032,118.409,292.514z M101.795,285.901c3.646,0,6.613,2.967,6.613,6.613s-2.967,6.613-6.613,6.613
			s-6.613-2.967-6.613-6.613S98.149,285.901,101.795,285.901z"/>
		<path style="fill:#FFE783;" d="M400.778,71.021c-2.761,0-5-2.238-5-5c0-3.317-2.699-6.016-6.016-6.016c-2.761,0-5-2.238-5-5
			s2.239-5,5-5c3.317,0,6.016-2.698,6.016-6.016c0-2.762,2.239-5,5-5s5,2.238,5,5c0,3.317,2.699,6.016,6.016,6.016
			c2.761,0,5,2.238,5,5s-2.239,5-5,5c-3.317,0-6.016,2.698-6.016,6.016C405.778,68.783,403.54,71.021,400.778,71.021z"/>
		<path style="fill:#C182F9;" d="M165.445,441.027c-2.761,0-5-2.238-5-5c0-3.317-2.699-6.016-6.016-6.016c-2.761,0-5-2.238-5-5
			s2.239-5,5-5c3.317,0,6.016-2.698,6.016-6.016c0-2.762,2.239-5,5-5s5,2.238,5,5c0,3.317,2.699,6.016,6.016,6.016
			c2.761,0,5,2.238,5,5s-2.239,5-5,5c-3.317,0-6.016,2.698-6.016,6.016C170.445,438.789,168.206,441.027,165.445,441.027z"/>
		<path style="fill:#C182F9;" d="M107.002,455.705c-2.761,0-5-2.238-5-5c0-3.317-2.699-6.016-6.016-6.016c-2.761,0-5-2.238-5-5
			s2.239-5,5-5c3.317,0,6.016-2.698,6.016-6.016c0-2.762,2.239-5,5-5s5,2.238,5,5c0,3.317,2.699,6.016,6.016,6.016
			c2.761,0,5,2.238,5,5s-2.239,5-5,5c-3.317,0-6.016,2.698-6.016,6.016C112.002,453.466,109.763,455.705,107.002,455.705z"/>
		<path style="fill:#FFA052;" d="M346.284,83.995c-1.28,0-2.559-0.488-3.536-1.465l-10.994-10.994c-1.953-1.952-1.953-5.118,0-7.07
			l10.994-10.994c1.953-1.953,5.118-1.953,7.071,0l10.994,10.994c1.953,1.952,1.953,5.118,0,7.07L349.82,82.53
			C348.843,83.506,347.564,83.995,346.284,83.995z M342.361,68l3.923,3.923L350.207,68l-3.923-3.923L342.361,68z"/>
	</g>
</g>
<g>
</g>
<g>
</g>
<g>
</g>
<g>
</g>
<g>
</g>
<g>
</g>
<g>
</g>
<g>
</g>
<g>
</g>
<g>
</g>
<g>
</g>
<g>
</g>
<g>
</g>
<g>
</g>
<g>
</g>
</svg>
