<?xml version="1.0" encoding="iso-8859-1"?>
<!-- Generator: Adobe Illustrator 23.0.3, SVG Export Plug-In . SVG Version: 6.00 Build 0)  -->
<svg version="1.1" id="Capa_1" xmlns="http://www.w3.org/2000/svg" xmlns:xlink="http://www.w3.org/1999/xlink" x="0px" y="0px"
	 viewBox="0 0 512 512" style="enable-background:new 0 0 512 512;" xml:space="preserve">
<g>
	<linearGradient id="SVGID_1_" gradientUnits="userSpaceOnUse" x1="215.7087" y1="256" x2="852.3452" y2="256">
		<stop  offset="7.011211e-04" style="stop-color:#FFF0D5"/>
		<stop  offset="0.5112" style="stop-color:#FFDFFF"/>
		<stop  offset="1" style="stop-color:#D9CEFF"/>
	</linearGradient>
	<path style="fill:url(#SVGID_1_);" d="M408.228,154.262c-23.697-9.236-43.717-26.089-55.961-48.381
		c-20.59-37.487-60.43-62.898-106.221-62.898c-47.53,0-88.646,27.377-108.477,67.219c-12.146,24.401-32.814,43.56-58.09,53.761
		c-37.349,15.074-68.703,49.524-78.653,103.382c-1.092,5.91-1.108,11.986-0.016,17.896c15.448,83.572,82.399,120.435,143.334,110.66
		c34.126-5.474,68.672,5.909,93.967,29.462c51.434,47.892,133.884,62.907,213.923,11.57c9.377-6.014,21.957-18.634,27.966-28.015
		C548.967,301.248,497.879,189.204,408.228,154.262z"/>
	<g>
		<path style="opacity:0.1;fill:#590BB2;" d="M164.607,410.617H74.569c-5.529,0-10.012-4.482-10.012-10.012V80.226
			c0-5.529,4.482-10.012,10.012-10.012h90.037c5.529,0,10.012,4.482,10.012,10.012v320.379
			C174.618,406.134,170.136,410.617,164.607,410.617z"/>
		<path style="opacity:0.1;fill:#590BB2;" d="M301.019,410.617h-90.037c-5.529,0-10.012-4.482-10.012-10.012V80.226
			c0-5.529,4.482-10.012,10.012-10.012h90.037c5.529,0,10.012,4.482,10.012,10.012v320.379
			C311.03,406.134,306.548,410.617,301.019,410.617z"/>
		<path style="opacity:0.1;fill:#590BB2;" d="M437.431,410.617h-90.037c-5.529,0-10.012-4.482-10.012-10.012V80.226
			c0-5.529,4.482-10.012,10.012-10.012h90.037c5.529,0,10.012,4.482,10.012,10.012v320.379
			C447.442,406.134,442.96,410.617,437.431,410.617z"/>
		<g>
			<g>
				<g>
					<path style="fill:#F5F4F9;" d="M164.607,431.642H74.569c-5.529,0-10.012-4.482-10.012-10.012V101.251
						c0-5.529,4.482-10.012,10.012-10.012h90.037c5.529,0,10.012,4.482,10.012,10.012V421.63
						C174.618,427.159,170.136,431.642,164.607,431.642z"/>
					<path style="fill:#590BB2;" d="M164.606,436.642H74.569c-8.277,0-15.012-6.734-15.012-15.012V101.251
						c0-8.277,6.734-15.012,15.012-15.012h90.037c8.277,0,15.012,6.734,15.012,15.012v259.537c0,2.762-2.239,5-5,5s-5-2.238-5-5
						V101.251c0-2.764-2.248-5.012-5.012-5.012H74.569c-2.764,0-5.012,2.248-5.012,5.012V421.63c0,2.764,2.248,5.012,5.012,5.012
						h90.037c2.764,0,5.012-2.248,5.012-5.012v-33.27c0-2.762,2.239-5,5-5s5,2.238,5,5v33.27
						C179.618,429.907,172.884,436.642,164.606,436.642z"/>
					<path style="fill:#FFD5B8;" d="M147.748,159.64H91.428c-1.659,0-3.004-1.345-3.004-3.004v-39.989
						c0-1.659,1.345-3.004,3.004-3.004h56.319c1.659,0,3.004,1.345,3.004,3.004v39.989
						C150.751,158.296,149.407,159.64,147.748,159.64z"/>
					<path style="fill:#FFBE92;" d="M147.748,220.476H91.428c-1.659,0-3.004-1.345-3.004-3.004v-39.989
						c0-1.659,1.345-3.004,3.004-3.004h56.319c1.659,0,3.004,1.345,3.004,3.004v39.989
						C150.751,219.132,149.407,220.476,147.748,220.476z"/>
					<path style="fill:#FFA052;" d="M147.748,281.312H91.428c-1.659,0-3.004-1.345-3.004-3.004V238.32
						c0-1.659,1.345-3.004,3.004-3.004h56.319c1.659,0,3.004,1.345,3.004,3.004v39.989
						C150.751,279.967,149.407,281.312,147.748,281.312z"/>
					<path style="fill:#FF8736;" d="M147.748,342.148H91.428c-1.659,0-3.004-1.345-3.004-3.004v-39.989
						c0-1.659,1.345-3.004,3.004-3.004h56.319c1.659,0,3.004,1.345,3.004,3.004v39.989
						C150.751,340.803,149.407,342.148,147.748,342.148z"/>
					<g>
						<path style="fill:#DDD9E4;" d="M109.916,364.478h19.344c2.227,0,4.032-1.805,4.032-4.032c0-2.227-1.805-4.032-4.032-4.032
							h-19.344c-2.227,0-4.032,1.805-4.032,4.032C105.884,362.673,107.689,364.478,109.916,364.478z"/>
					</g>
				</g>
				<g>
					<path style="fill:#F5F4F9;" d="M301.019,431.642h-90.037c-5.529,0-10.012-4.482-10.012-10.012V101.251
						c0-5.529,4.482-10.012,10.012-10.012h90.037c5.529,0,10.012,4.482,10.012,10.012V421.63
						C311.03,427.159,306.548,431.642,301.019,431.642z"/>
					<path style="fill:#590BB2;" d="M301.019,436.642h-90.037c-8.277,0-15.012-6.734-15.012-15.012V101.251
						c0-8.277,6.734-15.012,15.012-15.012h26.911c1.349,0,2.64,0.545,3.582,1.511c0.941,0.966,1.452,2.271,1.417,3.62
						c-0.003,0.118-0.01,0.236-0.019,0.354c-0.08,2.691-2.287,4.849-4.998,4.849c-0.635,0-1.242-0.118-1.8-0.334h-25.093
						c-2.764,0-5.012,2.248-5.012,5.012V421.63c0,2.764,2.248,5.012,5.012,5.012h90.037c2.764,0,5.012-2.248,5.012-5.012V101.251
						c0-2.764-2.248-5.012-5.012-5.012h-33.77c-0.559,0.216-1.166,0.334-1.801,0.334c-2.712,0-4.919-2.158-4.998-4.851
						c-0.009-0.128-0.015-0.239-0.018-0.353c-0.035-1.349,0.476-2.654,1.417-3.62c0.94-0.966,2.232-1.511,3.581-1.511h35.588
						c8.277,0,15.012,6.734,15.012,15.012V421.63C316.03,429.907,309.296,436.642,301.019,436.642z M242.875,91.591
						c0,0.004,0,0.008,0,0.011C242.875,91.598,242.875,91.595,242.875,91.591z M260.448,91.592c0,0.001,0,0.002,0,0.003
						C260.448,91.594,260.448,91.593,260.448,91.592z M242.875,91.573c0,0.005,0,0.01,0,0.016
						C242.875,91.583,242.875,91.578,242.875,91.573z M260.448,91.573c0,0.005,0,0.01,0,0.015
						C260.448,91.583,260.448,91.578,260.448,91.573z"/>
					<path style="fill:#FFE783;" d="M284.16,159.64H227.84c-1.659,0-3.004-1.345-3.004-3.004v-39.989
						c0-1.659,1.345-3.004,3.004-3.004h56.319c1.659,0,3.004,1.345,3.004,3.004v39.989
						C287.163,158.296,285.819,159.64,284.16,159.64z"/>
					<path style="fill:#FDD250;" d="M284.16,220.476H227.84c-1.659,0-3.004-1.345-3.004-3.004v-39.989
						c0-1.659,1.345-3.004,3.004-3.004h56.319c1.659,0,3.004,1.345,3.004,3.004v39.989
						C287.163,219.132,285.819,220.476,284.16,220.476z"/>
					<path style="fill:#FFC136;" d="M284.16,281.312H227.84c-1.659,0-3.004-1.345-3.004-3.004V238.32
						c0-1.659,1.345-3.004,3.004-3.004h56.319c1.659,0,3.004,1.345,3.004,3.004v39.989
						C287.163,279.967,285.819,281.312,284.16,281.312z"/>
					<path style="fill:#FFAB15;" d="M284.16,342.148H227.84c-1.659,0-3.004-1.345-3.004-3.004v-39.989
						c0-1.659,1.345-3.004,3.004-3.004h56.319c1.659,0,3.004,1.345,3.004,3.004v39.989
						C287.163,340.803,285.819,342.148,284.16,342.148z"/>
					<g>
						<path style="fill:#DDD9E4;" d="M246.328,364.478h19.344c2.227,0,4.032-1.805,4.032-4.032c0-2.227-1.805-4.032-4.032-4.032
							h-19.344c-2.227,0-4.032,1.805-4.032,4.032C242.296,362.673,244.101,364.478,246.328,364.478z"/>
					</g>
				</g>
				<g>
					<path style="fill:#F5F4F9;" d="M437.431,431.642h-90.037c-5.529,0-10.012-4.482-10.012-10.012V101.251
						c0-5.529,4.482-10.012,10.012-10.012h90.037c5.529,0,10.012,4.482,10.012,10.012V421.63
						C447.442,427.159,442.96,431.642,437.431,431.642z"/>
					<path style="fill:#590BB2;" d="M437.431,436.642h-90.037c-8.277,0-15.012-6.734-15.012-15.012V101.251
						c0-8.277,6.734-15.012,15.012-15.012h90.037c8.277,0,15.012,6.734,15.012,15.012V421.63
						C452.442,429.907,445.708,436.642,437.431,436.642z M347.394,96.239c-2.764,0-5.012,2.248-5.012,5.012V421.63
						c0,2.764,2.248,5.012,5.012,5.012h90.037c2.764,0,5.012-2.248,5.012-5.012V101.251c0-2.764-2.248-5.012-5.012-5.012H347.394z"
						/>
					<path style="fill:#D6B0FF;" d="M420.572,159.64h-56.319c-1.659,0-3.004-1.345-3.004-3.004v-39.989
						c0-1.659,1.345-3.004,3.004-3.004h56.319c1.659,0,3.004,1.345,3.004,3.004v39.989
						C423.575,158.296,422.231,159.64,420.572,159.64z"/>
					<path style="fill:#C182F9;" d="M420.572,220.476h-56.319c-1.659,0-3.004-1.345-3.004-3.004v-39.989
						c0-1.659,1.345-3.004,3.004-3.004h56.319c1.659,0,3.004,1.345,3.004,3.004v39.989
						C423.575,219.132,422.231,220.476,420.572,220.476z"/>
					<path style="fill:#B557FF;" d="M420.572,281.312h-56.319c-1.659,0-3.004-1.345-3.004-3.004V238.32
						c0-1.659,1.345-3.004,3.004-3.004h56.319c1.659,0,3.004,1.345,3.004,3.004v39.989
						C423.575,279.967,422.231,281.312,420.572,281.312z"/>
					<path style="fill:#9526DD;" d="M420.572,342.148h-56.319c-1.659,0-3.004-1.345-3.004-3.004v-39.989
						c0-1.659,1.345-3.004,3.004-3.004h56.319c1.659,0,3.004,1.345,3.004,3.004v39.989
						C423.575,340.803,422.231,342.148,420.572,342.148z"/>
					<g>
						<path style="fill:#DDD9E4;" d="M382.74,364.478h19.344c2.227,0,4.032-1.805,4.032-4.032c0-2.227-1.805-4.032-4.032-4.032
							H382.74c-2.227,0-4.032,1.805-4.032,4.032C378.708,362.673,380.513,364.478,382.74,364.478z"/>
					</g>
				</g>
			</g>
			<path style="fill:#FFE783;" d="M139.014,73.558c-2.761,0-5-2.238-5-5c0-3.324-2.705-6.028-6.029-6.028c-2.761,0-5-2.238-5-5
				s2.239-5,5-5c3.324,0,6.029-2.705,6.029-6.029c0-2.762,2.239-5,5-5s5,2.238,5,5c0,3.324,2.704,6.029,6.028,6.029
				c2.761,0,5,2.238,5,5s-2.239,5-5,5c-3.324,0-6.028,2.704-6.028,6.028C144.014,71.319,141.775,73.558,139.014,73.558z"/>
			<path style="fill:#C182F9;" d="M320.204,480.5c-2.762,0-5-2.238-5-5c0-3.324-2.704-6.028-6.028-6.028c-2.762,0-5-2.238-5-5
				s2.238-5,5-5c3.324,0,6.028-2.705,6.028-6.029c0-2.762,2.238-5,5-5s5,2.238,5,5c0,3.324,2.705,6.029,6.029,6.029
				c2.762,0,5,2.238,5,5s-2.238,5-5,5c-3.324,0-6.029,2.704-6.029,6.028C325.204,478.262,322.966,480.5,320.204,480.5z"/>
			<path style="fill:#FFA052;" d="M194.154,63.515L194.154,63.515c-1.326,0-2.598-0.526-3.536-1.465l-11.007-11.008
				c-1.953-1.952-1.953-5.118,0-7.07l11.007-11.007c1.953-1.953,5.118-1.953,7.071,0l11.007,11.007
				c0.938,0.938,1.464,2.209,1.464,3.535s-0.527,2.598-1.464,3.535L197.689,62.05C196.752,62.987,195.48,63.515,194.154,63.515z
				 M190.218,47.507l3.936,3.937l3.936-3.937l-3.936-3.936L190.218,47.507z"/>
			<path style="fill:#FFA052;" d="M267.007,480.479c-1.279,0-2.56-0.488-3.535-1.465l-11.007-11.007
				c-1.953-1.952-1.953-5.118,0-7.07l11.006-11.008c0.938-0.938,2.21-1.465,3.536-1.465s2.598,0.526,3.535,1.465l11.008,11.008
				c0.938,0.938,1.465,2.209,1.465,3.535s-0.527,2.598-1.465,3.536l-11.008,11.007C269.566,479.99,268.286,480.479,267.007,480.479z
				 M263.071,464.472l3.936,3.936l3.937-3.936l-3.937-3.937L263.071,464.472z"/>
		</g>
	</g>
</g>
<g>
</g>
<g>
</g>
<g>
</g>
<g>
</g>
<g>
</g>
<g>
</g>
<g>
</g>
<g>
</g>
<g>
</g>
<g>
</g>
<g>
</g>
<g>
</g>
<g>
</g>
<g>
</g>
<g>
</g>
</svg>
