<?xml version="1.0" encoding="iso-8859-1"?>
<!-- Generator: Adobe Illustrator 23.0.3, SVG Export Plug-In . SVG Version: 6.00 Build 0)  -->
<svg version="1.1" id="Capa_1" xmlns="http://www.w3.org/2000/svg" xmlns:xlink="http://www.w3.org/1999/xlink" x="0px" y="0px"
	 viewBox="0 0 512 512" style="enable-background:new 0 0 512 512;" xml:space="preserve">
<g>
	<linearGradient id="SVGID_1_" gradientUnits="userSpaceOnUse" x1="175.9175" y1="253.5021" x2="833.6678" y2="253.5021">
		<stop  offset="7.011211e-04" style="stop-color:#FFF0D5"/>
		<stop  offset="0.5112" style="stop-color:#FFDFFF"/>
		<stop  offset="1" style="stop-color:#D9CEFF"/>
	</linearGradient>
	<path style="fill:url(#SVGID_1_);" d="M482.969,141.223c-34.945-35.948-89.48-40.907-129.831-14.878
		c-11.48,7.405-25.381,9.888-38.717,6.927c-31.565-7.009-64.584-2.222-92.707,13.042c-18.907,10.261-41.936,8.477-59.579-3.83
		c-11.712-8.169-25.312-14.023-40.257-16.777C66.44,115.49,12.541,152.26,1.884,207.614
		C-9.015,264.223,28.512,318.626,85.08,328.703c13.821,2.462,27.488,2.047,40.388-0.816c20.936-4.646,42.81,3.122,56.321,19.776
		c8.528,10.512,18.812,19.894,30.757,27.689c61.731,40.28,144.427,22.89,184.707-38.84c0.043-0.065,0.085-0.131,0.128-0.196
		c7.377-11.349,18.851-19.44,32.12-22.119c19.353-3.907,37.801-13.404,52.756-28.495C521.63,245.97,521.958,181.331,482.969,141.223
		z"/>
	<g>
		<path style="opacity:0.1;fill:#590BB2;" d="M322.492,28.541c-1.841-0.05-3.372,1.406-3.372,3.248v27.912c-0.001,0-0.002,0-0.002,0
			c-24.934,0-47.505,10.115-63.835,26.466H86.505c-8.283,0-15.005,6.712-15.005,14.995v344.292c0,8.282,6.722,15.005,15.005,15.005
			h220.021c8.283,0,15.005-6.722,15.005-15.005V240.107c48.711-1.279,87.806-41.167,87.806-90.187c0,0,0,0,0-0.001h27.913
			c1.842,0,3.298-1.531,3.248-3.372C438.743,82.169,386.871,30.297,322.492,28.541z"/>
		<g>
			<g>
				<g>
					<g>
						<path style="fill:#F5F4F9;" d="M321.531,119.168V463.46c0,8.282-6.722,15.005-15.005,15.005H86.505
							c-8.283,0-15.005-6.722-15.005-15.005V119.168c0-8.283,6.722-14.995,15.005-14.995h220.021
							C314.809,104.173,321.531,110.885,321.531,119.168z"/>
						<path style="fill:#E8E6ED;" d="M321.531,326.545v90.529c-24.288-0.82-43.734-20.767-43.734-45.265
							C277.797,347.312,297.243,327.365,321.531,326.545z"/>
						<path style="fill:#E8E6ED;" d="M321.531,119.168v152.079c-0.8,0.02-1.601,0.03-2.411,0.03
							c-49.826,0-90.219-40.393-90.219-90.219c0-32.521,17.206-61.02,43.014-76.885h34.611
							C314.809,104.173,321.531,110.885,321.531,119.168z"/>
						<g>
							<path style="fill:#FFE783;" d="M153.788,478.463H97.17v-40.544c0-1.657,1.344-3.001,3.001-3.001h50.616
								c1.657,0,3.001,1.344,3.001,3.001V478.463z"/>
							<path style="fill:#FFE783;" d="M224.824,478.463h-56.618v-40.544c0-1.657,1.344-3.001,3.001-3.001h50.616
								c1.657,0,3.001,1.344,3.001,3.001V478.463z"/>
							<path style="fill:#FFE783;" d="M295.86,478.463h-56.618v-40.544c0-1.657,1.344-3.001,3.001-3.001h50.616
								c1.657,0,3.001,1.344,3.001,3.001V478.463z"/>
						</g>
						<path style="fill:#C182F9;" d="M321.529,152.346v-33.175c0-8.285-6.717-15.002-15.002-15.002H86.502
							c-8.285,0-15.002,6.717-15.002,15.002v33.175H321.529z"/>
					</g>
					<g>
						<path style="fill:#FDD250;" d="M220.897,316h16.002c1.657,0,3-1.343,3-3v-60.873c0-1.657-1.343-3-3-3h-16.002
							c-1.657,0-3,1.343-3,3v60.873C217.897,314.656,219.24,316,220.897,316z"/>
						<path style="fill:#FFE783;" d="M253.613,316h16.002c1.657,0,3-1.343,3-3v-37.662c0-1.657-1.343-3-3-3h-16.002
							c-1.657,0-3,1.343-3,3v37.662C250.613,314.656,251.956,316,253.613,316z"/>
						<path style="fill:#FFBE92;" d="M188.18,316h16.002c1.657,0,3-1.343,3-3V234.65c0-1.657-1.343-3-3-3H188.18
							c-1.657,0-3,1.343-3,3v78.349C185.18,314.656,186.523,316,188.18,316z"/>
						<path style="fill:#FFA052;" d="M155.464,316h16.002c1.657,0,3-1.343,3-3v-96.877c0-1.657-1.343-3-3-3h-16.002
							c-1.657,0-3,1.343-3,3v96.877C152.464,314.656,153.807,316,155.464,316z"/>
						<path style="fill:#FF8736;" d="M122.747,316h16.002c1.657,0,3-1.343,3-3V198.646c0-1.657-1.343-3-3-3h-16.002
							c-1.657,0-3,1.343-3,3v114.353C119.747,314.656,121.09,316,122.747,316z"/>
					</g>
					<g>
						<g>
							<g>
								<g>
									<path style="fill:#DDD9E4;" d="M148.779,383.418h-46.601c-2.767,0-5.009-2.243-5.009-5.009
										c0-2.766,2.242-5.009,5.009-5.009h46.601c2.767,0,5.009,2.243,5.009,5.009
										C153.788,381.175,151.546,383.418,148.779,383.418z"/>
								</g>
								<g>
									<path style="fill:#FFA052;" d="M148.779,356.625h-46.601c-2.767,0-5.009-2.243-5.009-5.009
										c0-2.766,2.242-5.009,5.009-5.009h46.601c2.767,0,5.009,2.243,5.009,5.009
										C153.788,354.383,151.546,356.625,148.779,356.625z"/>
								</g>
							</g>
							<g>
								<g>
									<path style="fill:#DDD9E4;" d="M148.779,401.209h-46.601c-2.767,0-5.009-2.243-5.009-5.009s2.242-5.009,5.009-5.009h46.601
										c2.767,0,5.009,2.243,5.009,5.009S151.546,401.209,148.779,401.209z"/>
								</g>
							</g>
							<g>
								<g>
									<path style="fill:#DDD9E4;" d="M148.779,419h-46.601c-2.767,0-5.009-2.243-5.009-5.009c0-2.766,2.242-5.009,5.009-5.009
										h46.601c2.767,0,5.009,2.243,5.009,5.009C153.788,416.757,151.546,419,148.779,419z"/>
								</g>
							</g>
						</g>
						<g>
							<g>
								<g>
									<path style="fill:#DDD9E4;" d="M219.482,383.418h-46.601c-2.767,0-5.009-2.243-5.009-5.009
										c0-2.766,2.242-5.009,5.009-5.009h46.601c2.767,0,5.009,2.243,5.009,5.009C224.49,381.175,222.248,383.418,219.482,383.418
										z"/>
								</g>
								<g>
									<path style="fill:#FDD250;" d="M219.482,356.625h-46.601c-2.767,0-5.009-2.243-5.009-5.009
										c0-2.766,2.242-5.009,5.009-5.009h46.601c2.767,0,5.009,2.243,5.009,5.009C224.49,354.383,222.248,356.625,219.482,356.625
										z"/>
								</g>
							</g>
							<g>
								<g>
									<path style="fill:#DDD9E4;" d="M219.482,401.209h-46.601c-2.767,0-5.009-2.243-5.009-5.009s2.242-5.009,5.009-5.009h46.601
										c2.767,0,5.009,2.243,5.009,5.009S222.248,401.209,219.482,401.209z"/>
								</g>
							</g>
							<g>
								<g>
									<path style="fill:#DDD9E4;" d="M219.482,419h-46.601c-2.767,0-5.009-2.243-5.009-5.009c0-2.766,2.242-5.009,5.009-5.009
										h46.601c2.767,0,5.009,2.243,5.009,5.009C224.49,416.757,222.248,419,219.482,419z"/>
								</g>
							</g>
						</g>
						<g>
							<g>
								<g>
									<path style="fill:#DDD9E4;" d="M290.184,383.418h-46.601c-2.767,0-5.009-2.243-5.009-5.009
										c0-2.766,2.242-5.009,5.009-5.009h46.601c2.767,0,5.009,2.243,5.009,5.009
										C295.193,381.175,292.951,383.418,290.184,383.418z"/>
								</g>
								<g>
									<path style="fill:#FFE783;" d="M290.184,356.625h-46.601c-2.767,0-5.009-2.243-5.009-5.009
										c0-2.766,2.242-5.009,5.009-5.009h46.601c2.767,0,5.009,2.243,5.009,5.009
										C295.193,354.383,292.951,356.625,290.184,356.625z"/>
								</g>
							</g>
							<g>
								<g>
									<path style="fill:#DDD9E4;" d="M290.184,401.209h-46.601c-2.767,0-5.009-2.243-5.009-5.009s2.242-5.009,5.009-5.009h46.601
										c2.767,0,5.009,2.243,5.009,5.009S292.951,401.209,290.184,401.209z"/>
								</g>
							</g>
							<g>
								<g>
									<path style="fill:#DDD9E4;" d="M290.184,419h-46.601c-2.767,0-5.009-2.243-5.009-5.009c0-2.766,2.242-5.009,5.009-5.009
										h46.601c2.767,0,5.009,2.243,5.009,5.009C295.193,416.757,292.951,419,290.184,419z"/>
								</g>
							</g>
						</g>
					</g>
				</g>
				<g>
					<g>
						<circle style="fill:#FFE783;" cx="319.117" cy="167.926" r="90.22"/>
						<path style="fill:#FDD250;" d="M409.339,167.922c0,4.802-0.37,9.513-1.1,14.115h-85.868c-1.801,0-3.251-1.45-3.251-3.241
							V77.703C368.946,77.703,409.339,118.096,409.339,167.922z"/>
						<path style="fill:#FFA052;" d="M437.25,167.926H322.368c-1.794,0-3.248-1.454-3.248-3.248V49.795
							c0-1.842,1.53-3.299,3.372-3.248c64.379,1.756,116.251,53.628,118.007,118.007
							C440.549,166.395,439.092,167.926,437.25,167.926z"/>
					</g>
					<g>
						<path style="fill:#F5F4F9;" d="M358.313,147.739h-5.333c-6.509,0-11.805-5.296-11.805-11.805v-16.462
							c0-6.509,5.296-11.805,11.805-11.805h5.333c6.509,0,11.805,5.296,11.805,11.805v16.462
							C370.117,142.444,364.821,147.739,358.313,147.739z M352.979,117.668c-0.995,0-1.805,0.81-1.805,1.805v16.462
							c0,0.995,0.81,1.805,1.805,1.805h5.333c0.995,0,1.805-0.81,1.805-1.805v-16.462c0-0.995-0.81-1.805-1.805-1.805H352.979z"/>
						<path style="fill:#F5F4F9;" d="M387.139,147.739c-2.762,0-5-2.238-5-5v-25.071h-0.446c-2.762,0-5-2.238-5-5s2.238-5,5-5h5.446
							c2.762,0,5,2.238,5,5v30.071C392.139,145.501,389.9,147.739,387.139,147.739z"/>
					</g>
					<g>
						<path style="fill:#FFC136;" d="M302.262,227.672h-5.333c-6.509,0-11.805-5.296-11.805-11.805v-16.463
							c0-6.509,5.296-11.805,11.805-11.805h5.333c6.509,0,11.805,5.296,11.805,11.805v16.463
							C314.066,222.376,308.771,227.672,302.262,227.672z M296.929,197.6c-0.995,0-1.805,0.81-1.805,1.805v16.463
							c0,0.995,0.81,1.805,1.805,1.805h5.333c0.995,0,1.805-0.81,1.805-1.805v-16.463c0-0.995-0.81-1.805-1.805-1.805H296.929z"/>
						<path style="fill:#FFC136;" d="M343.756,227.232h-18.114c-2.122,0-4.012-1.34-4.716-3.341s-0.068-4.229,1.586-5.559
							c5.044-4.051,12.85-11.456,14.411-15.234c0.601-1.452,0.506-3.053-0.247-4.179c-0.585-0.875-1.456-1.319-2.589-1.319
							c-1.899,0-3.445,1.546-3.445,3.445c0,2.762-2.238,5-5,5s-5-2.238-5-5c0-7.414,6.031-13.445,13.445-13.445
							c4.48,0,8.454,2.1,10.902,5.761c2.623,3.924,3.063,8.992,1.176,13.558c-1.354,3.276-4.401,7.001-7.599,10.313h5.189
							c2.762,0,5,2.238,5,5S346.518,227.232,343.756,227.232z"/>
					</g>
				</g>
			</g>
			<g>
				<circle style="fill:#FFA052;" cx="323.096" cy="360.472" r="45.294"/>
				<g>
					<path style="fill:#590BB2;" d="M109.586,123.185c-2.762,0-5,2.238-5,5v0.146c0,2.762,2.238,5,5,5s5-2.238,5-5v-0.146
						C114.586,125.423,112.348,123.185,109.586,123.185z"/>
					<path style="fill:#590BB2;" d="M128.913,123.185c-2.762,0-5,2.238-5,5v0.146c0,2.762,2.238,5,5,5s5-2.238,5-5v-0.146
						C133.913,125.423,131.675,123.185,128.913,123.185z"/>
					<path style="fill:#590BB2;" d="M148.24,123.185c-2.762,0-5,2.238-5,5v0.146c0,2.762,2.238,5,5,5s5-2.238,5-5v-0.146
						C153.24,125.423,151.002,123.185,148.24,123.185z"/>
					<path style="fill:#590BB2;" d="M322.627,41.549c-2.246-0.074-4.423,0.794-6.016,2.346c-1.606,1.563-2.491,3.659-2.491,5.9
						v23.069c-22.916,1.184-44.341,10.461-60.894,26.354c-0.159-0.015-0.313-0.048-0.476-0.048H86.502
						c-11.029,0-20.002,8.973-20.002,20.002v33.175c0,2.762,2.238,5,5,5h153c-0.385,3.492-0.602,7.021-0.602,10.581
						c0,51.638,41.32,93.806,92.632,95.182v47.511c-24.639,3.229-43.728,24.345-43.728,49.851s19.089,46.622,43.728,49.851v53.135
						c0,5.515-4.487,10.002-10.002,10.002H86.502c-5.515,0-10.002-4.487-10.002-10.002V179.89c0-2.762-2.238-5-5-5s-5,2.238-5,5
						v283.568c0,11.029,8.973,20.002,20.002,20.002h220.025c11.029,0,20.002-8.973,20.002-20.002v-52.823
						c26.135-1.772,46.86-23.586,46.86-50.164s-20.725-48.391-46.86-50.164v-47.449c47.409-3.667,85.196-42.206,87.677-89.933
						h23.044c2.242,0,4.338-0.885,5.901-2.491c1.551-1.594,2.406-3.786,2.346-6.018C443.668,97.349,389.697,43.378,322.627,41.549z
						 M76.5,147.346v-28.175c0-5.515,4.487-10.002,10.002-10.002h157.695c-8.872,11.276-14.996,24.287-18.048,38.177H76.5z
						 M363.39,360.472c0,22.218-18.076,40.294-40.294,40.294s-40.294-18.076-40.294-40.294s18.076-40.294,40.294-40.294
						S363.39,338.254,363.39,360.472z M409.337,162.926c-2.762,0-5,2.238-5,5c0,0,0,0,0,0s0,0,0,0
						c0,46.99-38.229,85.219-85.22,85.219s-85.22-38.229-85.22-85.219c0-22.333,8.578-43.443,24.153-59.441
						c14.954-15.361,34.785-24.382,56.069-25.611v81.803c0,4.548,3.699,8.248,8.247,8.248h59.421c2.762,0,5-2.238,5-5s-2.238-5-5-5
						H324.12V51.607c60.356,2.546,108.773,50.964,111.319,111.319H409.337z"/>
				</g>
				<path style="fill:#F5F4F9;" d="M339.699,352.247c0-9.155-7.448-16.604-16.604-16.604s-16.604,7.448-16.604,16.604
					c0,4.514,1.816,8.607,4.749,11.604c-2.933,2.996-4.749,7.089-4.749,11.603c0,2.762,2.238,5,5,5s5-2.238,5-5
					c0-3.641,2.962-6.603,6.604-6.603s6.604,2.962,6.604,6.603c0,2.762,2.238,5,5,5s5-2.238,5-5c0-4.513-1.816-8.607-4.749-11.603
					C337.883,360.855,339.699,356.761,339.699,352.247z M323.096,345.644c3.642,0,6.604,2.962,6.604,6.604s-2.962,6.604-6.604,6.604
					s-6.604-2.962-6.604-6.604S319.454,345.644,323.096,345.644z"/>
			</g>
		</g>
		<path style="fill:#FFA052;" d="M413.359,278.489c-1.279,0-2.56-0.488-3.535-1.465L398.84,266.04c-1.953-1.952-1.953-5.118,0-7.07
			l10.984-10.984c1.951-1.953,5.119-1.953,7.07,0l10.984,10.984c1.953,1.952,1.953,5.118,0,7.07l-10.984,10.984
			C415.919,278.001,414.639,278.489,413.359,278.489z M409.446,262.505l3.913,3.913l3.913-3.913l-3.913-3.913L409.446,262.505z"/>
		<path style="fill:#FFA052;" d="M245.016,76.388c-1.279,0-2.56-0.488-3.535-1.465l-10.984-10.984
			c-1.953-1.952-1.953-5.118-0.001-7.07l10.984-10.985c0.938-0.938,2.21-1.465,3.536-1.465s2.598,0.526,3.536,1.465l10.984,10.985
			c1.952,1.952,1.952,5.118-0.001,7.07l-10.984,10.984C247.575,75.9,246.295,76.388,245.016,76.388z M241.103,60.404l3.913,3.913
			l3.913-3.913l-3.913-3.914L241.103,60.404z"/>
		<path style="fill:#C182F9;" d="M384.693,318.762c-2.762,0-5-2.238-5-5c0-3.318-2.7-6.019-6.02-6.019c-2.762,0-5-2.238-5-5
			s2.238-5,5-5c3.319,0,6.02-2.7,6.02-6.02c0-2.762,2.238-5,5-5s5,2.238,5,5c0,3.319,2.7,6.02,6.02,6.02c2.762,0,5,2.238,5,5
			s-2.238,5-5,5c-3.319,0-6.02,2.7-6.02,6.019C389.693,316.524,387.455,318.762,384.693,318.762z"/>
		<path style="fill:#FFE783;" d="M364.229,450.937c-2.762,0-5-2.238-5-5c0-3.319-2.7-6.02-6.02-6.02c-2.762,0-5-2.238-5-5
			s2.238-5,5-5c3.319,0,6.02-2.7,6.02-6.019c0-2.762,2.238-5,5-5s5,2.238,5,5c0,3.318,2.7,6.019,6.02,6.019c2.762,0,5,2.238,5,5
			s-2.238,5-5,5c-3.319,0-6.02,2.7-6.02,6.02C369.229,448.698,366.991,450.937,364.229,450.937z"/>
	</g>
</g>
<g>
</g>
<g>
</g>
<g>
</g>
<g>
</g>
<g>
</g>
<g>
</g>
<g>
</g>
<g>
</g>
<g>
</g>
<g>
</g>
<g>
</g>
<g>
</g>
<g>
</g>
<g>
</g>
<g>
</g>
</svg>
