<?xml version="1.0" encoding="iso-8859-1"?>
<!-- Generator: Adobe Illustrator 23.0.3, SVG Export Plug-In . SVG Version: 6.00 Build 0)  -->
<svg version="1.1" id="Capa_1" xmlns="http://www.w3.org/2000/svg" xmlns:xlink="http://www.w3.org/1999/xlink" x="0px" y="0px"
	 viewBox="0 0 512 512" style="enable-background:new 0 0 512 512;" xml:space="preserve">
<g>
	<linearGradient id="SVGID_1_" gradientUnits="userSpaceOnUse" x1="215.7087" y1="256.0024" x2="852.3452" y2="256.0024">
		<stop  offset="7.011211e-04" style="stop-color:#FFF0D5"/>
		<stop  offset="0.5112" style="stop-color:#FFDFFF"/>
		<stop  offset="1" style="stop-color:#D9CEFF"/>
	</linearGradient>
	<path style="fill:url(#SVGID_1_);" d="M408.228,154.264c-23.697-9.236-43.717-26.089-55.961-48.381
		c-20.59-37.487-60.43-62.898-106.221-62.898c-47.53,0-88.646,27.377-108.477,67.219c-12.146,24.401-32.814,43.56-58.09,53.761
		C42.131,179.04,10.777,213.489,0.827,267.348c-1.092,5.91-1.108,11.986-0.016,17.896c15.448,83.572,82.399,120.435,143.334,110.66
		c34.126-5.474,68.672,5.909,93.967,29.462c51.434,47.892,133.884,62.907,213.923,11.57c9.377-6.014,21.957-18.634,27.966-28.015
		C548.967,301.251,497.879,189.206,408.228,154.264z"/>
	<g>
		<g>
			<path style="opacity:0.1;fill:#590BB2;" d="M441,92.484H321.779c-4.676-6.496-10.284-12.277-16.639-17.132
				c-6.616-5.055-16.15-0.435-16.15,7.891v9.241h-65.98v-9.239c0-8.309-9.518-12.957-16.123-7.914
				c-6.366,4.86-11.984,10.647-16.667,17.153H71c-8.28,0-15,6.72-15,15v254.25c0,8.28,6.72,15,15,15h370c8.28,0,15-6.72,15-15
				v-254.25C456,99.204,449.28,92.484,441,92.484z"/>
			<g>
				<g>
					<g>
						<polygon style="fill:#AFABC6;" points="312.71,470.441 199.289,470.441 221.971,380.537 290.028,380.537 						"/>
						<polygon style="fill:#8E8CA8;" points="297.928,411.839 214.071,411.839 221.971,380.537 290.028,380.537 						"/>
						<g>
							<path style="fill:#F5F4F9;" d="M456,128.487v254.25c0,8.28-6.72,15-15,15H71c-8.28,0-15-6.72-15-15v-254.25
								c0-8.28,6.72-15,15-15h370C449.28,113.487,456,120.207,456,128.487z"/>
							<path style="fill:#FFD5B8;" d="M456,205.508v-77.021c0-8.28-6.72-15-15-15H71c-8.28,0-15,6.72-15,15v77.021H456z"/>
							<rect x="227.5" y="207.463" style="fill:#AFABC6;" width="57" height="139.88"/>
							<path style="fill:#8E8CA8;" d="M284.5,207.463v42.98c-8.87,3.35-18.47,5.17-28.5,5.17c-10.01,0-19.62-1.87-28.5-5.27v-42.88
								H284.5z"/>
							<path style="fill:#FFA052;" d="M456,161.659v-33.171c0-8.284-6.716-15-15-15H71c-8.284,0-15,6.716-15,15v33.171H456z"/>
							<path style="fill:#CECAE0;" d="M56,347.345v35.39c0,8.284,6.716,15,15,15h370c8.284,0,15-6.716,15-15v-35.39H56z"/>
						</g>
					</g>
				</g>
				<g>
					<path style="fill:#AFABC6;" d="M337,160.744c0,44.739-36.259,80.999-80.998,81c-44.763,0.001-81.573-37.307-80.996-82.066
						c0.333-25.829,12.762-48.751,31.88-63.347c6.605-5.042,16.123-0.395,16.123,7.914v34.498c0,5.523,4.477,10,10,10h45.98
						c5.523,0,10-4.477,10-10v-34.501c0-8.326,9.534-12.946,16.15-7.891C324.506,111.149,337,134.492,337,160.744z"/>
					<g>
						<path style="fill:#590BB2;" d="M94.082,142.646c2.762,0,5-2.238,5-5V137.5c0-2.762-2.238-5-5-5s-5,2.238-5,5v0.146
							C89.082,140.408,91.32,142.646,94.082,142.646z"/>
						<path style="fill:#590BB2;" d="M113.407,142.646c2.762,0,5-2.238,5-5V137.5c0-2.762-2.238-5-5-5s-5,2.238-5,5v0.146
							C108.407,140.408,110.646,142.646,113.407,142.646z"/>
						<path style="fill:#590BB2;" d="M132.731,142.646c2.762,0,5-2.238,5-5V137.5c0-2.762-2.238-5-5-5s-5,2.238-5,5v0.146
							C127.731,140.408,129.97,142.646,132.731,142.646z"/>
						<path style="fill:#590BB2;" d="M441,108.487H324.351c-4.587-5.968-10-11.39-16.175-16.107
							c-4.606-3.52-10.683-4.113-15.862-1.556c-5.134,2.539-8.323,7.681-8.323,13.419v4.244h-33.45c-2.762,0-5,2.238-5,5
							s2.238,5,5,5h33.45v20.257c0,2.757-2.243,5-5,5h-45.98c-2.757,0-5-2.243-5-5v-34.498c0-5.74-3.192-10.886-8.332-13.428
							c-5.17-2.558-11.232-1.967-15.824,1.539c-6.177,4.716-11.596,10.147-16.191,16.13H71c-11.028,0-20,8.972-20,20v254.248
							c0,11.028,8.972,20,20,20h140.214l-15.819,62.701h-15.329c-2.762,0-5,2.238-5,5s2.238,5,5,5h151.867c2.762,0,5-2.238,5-5
							s-2.238-5-5-5h-15.33l-15.819-62.701H441c11.028,0,20-8.972,20-20V128.487C461,117.458,452.028,108.487,441,108.487z
							 M61,342.345V166.659h109.228c1.407,20.38,10.026,39.471,24.727,54.361c8.055,8.16,17.399,14.505,27.545,18.858v102.467H61z
							 M232.5,243.429c7.561,2.17,15.448,3.315,23.502,3.315c8.147,0,16.023-1.164,23.498-3.291v76.349c0,2.762,2.238,5,5,5
							s5-2.238,5-5v-79.853c29.099-12.354,50.02-40.299,52.274-73.29H451v175.687H232.5V243.429z M441,118.487
							c5.514,0,10,4.486,10,10v28.172H341.897c-0.631-13.633-4.407-26.638-10.923-38.172H441z M209.922,100.306
							c0.922-0.704,1.988-1.063,3.067-1.063c0.761,0,1.527,0.178,2.255,0.537c0.831,0.411,2.766,1.67,2.766,4.465v34.498
							c0,8.271,6.729,15,15,15h45.98c8.271,0,15-6.729,15-15v-34.501c0-2.791,1.927-4.045,2.756-4.454
							c1.769-0.874,3.772-0.675,5.358,0.536C321.104,114.841,332,136.864,332,160.744c0,41.905-34.093,75.999-75.998,76
							c-20.294,0.001-39.447-8.078-53.931-22.749c-14.49-14.678-22.327-33.945-22.064-54.252
							C180.31,136.251,191.213,114.587,209.922,100.306z M71,118.487h110.044c-6.517,11.538-10.31,24.547-10.944,38.172H61v-28.172
							C61,122.973,65.486,118.487,71,118.487z M306.291,465.436H205.708l15.818-62.701h68.945L306.291,465.436z M441,392.735H71
							c-5.514,0-10-4.486-10-10v-30.39h390v30.39C451,388.249,446.514,392.735,441,392.735z"/>
					</g>
				</g>
			</g>
		</g>
		<g>
			<g>
				<g>
					<g>
						<path style="fill:#DDD9E4;" d="M160.798,244.941h-14.981c-2.829,0-5.123-2.294-5.123-5.123c0-2.829,2.293-5.123,5.123-5.123
							h14.981c2.829,0,5.123,2.294,5.123,5.123C165.921,242.647,163.628,244.941,160.798,244.941z"/>
						<path style="fill:#FFBE92;" d="M186.684,244.941h-6.577c-2.829,0-5.123-2.294-5.123-5.123c0-2.829,2.293-5.123,5.123-5.123
							h6.577c2.829,0,5.123,2.294,5.123,5.123C191.807,242.647,189.514,244.941,186.684,244.941z"/>
						<path style="fill:#DDD9E4;" d="M186.684,265.26h-40.866c-2.829,0-5.123-2.294-5.123-5.123s2.293-5.123,5.123-5.123h40.866
							c2.829,0,5.123,2.294,5.123,5.123S189.514,265.26,186.684,265.26z"/>
					</g>
					<path style="fill:#B557FF;" d="M99.504,260.511c-1.326,0-2.598-0.527-3.535-1.464l-6.978-6.978
						c-1.953-1.953-1.953-5.119,0-7.071c1.951-1.952,5.119-1.952,7.07,0l3.442,3.442l12.28-12.28c1.951-1.952,5.119-1.952,7.07,0
						c1.953,1.953,1.953,5.119,0,7.071l-15.815,15.816C102.102,259.984,100.83,260.511,99.504,260.511z"/>
				</g>
				<g>
					<g>
						<path style="fill:#DDD9E4;" d="M160.798,299.793h-14.981c-2.829,0-5.123-2.294-5.123-5.123s2.293-5.123,5.123-5.123h14.981
							c2.829,0,5.123,2.294,5.123,5.123S163.628,299.793,160.798,299.793z"/>
						<path style="fill:#FFBE92;" d="M186.684,299.793h-6.577c-2.829,0-5.123-2.294-5.123-5.123s2.293-5.123,5.123-5.123h6.577
							c2.829,0,5.123,2.294,5.123,5.123S189.514,299.793,186.684,299.793z"/>
						<path style="fill:#DDD9E4;" d="M186.684,320.112h-40.866c-2.829,0-5.123-2.294-5.123-5.123c0-2.829,2.293-5.123,5.123-5.123
							h40.866c2.829,0,5.123,2.294,5.123,5.123C191.807,317.819,189.514,320.112,186.684,320.112z"/>
					</g>
					<path style="fill:#B557FF;" d="M99.504,315.363c-1.326,0-2.598-0.527-3.535-1.464l-6.978-6.978
						c-1.953-1.953-1.953-5.119,0-7.071c1.951-1.952,5.119-1.952,7.07,0l3.442,3.442l12.28-12.28c1.951-1.952,5.119-1.952,7.07,0
						c1.953,1.953,1.953,5.119,0,7.071l-15.815,15.816C102.102,314.836,100.83,315.363,99.504,315.363z"/>
				</g>
			</g>
			<g>
				<g>
					<g>
						<path style="fill:#DDD9E4;" d="M393.465,244.941h-14.981c-2.829,0-5.123-2.294-5.123-5.123c0-2.829,2.293-5.123,5.123-5.123
							h14.981c2.829,0,5.123,2.294,5.123,5.123C398.588,242.647,396.294,244.941,393.465,244.941z"/>
						<path style="fill:#FFBE92;" d="M419.351,244.941h-6.577c-2.829,0-5.123-2.294-5.123-5.123c0-2.829,2.293-5.123,5.123-5.123
							h6.577c2.829,0,5.123,2.294,5.123,5.123C424.474,242.647,422.18,244.941,419.351,244.941z"/>
						<path style="fill:#DDD9E4;" d="M419.351,265.26h-40.866c-2.829,0-5.123-2.294-5.123-5.123s2.293-5.123,5.123-5.123h40.866
							c2.829,0,5.123,2.294,5.123,5.123S422.18,265.26,419.351,265.26z"/>
					</g>
					<path style="fill:#B557FF;" d="M332.171,260.511c-1.326,0-2.598-0.527-3.535-1.464l-6.978-6.978
						c-1.953-1.953-1.953-5.119,0-7.071c1.951-1.952,5.119-1.952,7.07,0l3.442,3.442l12.28-12.28c1.951-1.952,5.119-1.952,7.07,0
						c1.953,1.953,1.953,5.119,0,7.071l-15.815,15.816C334.768,259.984,333.497,260.511,332.171,260.511z"/>
				</g>
				<g>
					<g>
						<path style="fill:#DDD9E4;" d="M393.465,299.793h-14.981c-2.829,0-5.123-2.294-5.123-5.123s2.293-5.123,5.123-5.123h14.981
							c2.829,0,5.123,2.294,5.123,5.123S396.294,299.793,393.465,299.793z"/>
						<path style="fill:#FFBE92;" d="M419.351,299.793h-6.577c-2.829,0-5.123-2.294-5.123-5.123s2.293-5.123,5.123-5.123h6.577
							c2.829,0,5.123,2.294,5.123,5.123S422.18,299.793,419.351,299.793z"/>
						<path style="fill:#DDD9E4;" d="M419.351,320.112h-40.866c-2.829,0-5.123-2.294-5.123-5.123c0-2.829,2.293-5.123,5.123-5.123
							h40.866c2.829,0,5.123,2.294,5.123,5.123C424.474,317.819,422.18,320.112,419.351,320.112z"/>
					</g>
					<path style="fill:#B557FF;" d="M332.171,315.363c-1.326,0-2.598-0.527-3.535-1.464l-6.978-6.978
						c-1.953-1.953-1.953-5.119,0-7.071c1.951-1.952,5.119-1.952,7.07,0l3.442,3.442l12.28-12.28c1.951-1.952,5.119-1.952,7.07,0
						c1.953,1.953,1.953,5.119,0,7.071l-15.815,15.816C334.768,314.836,333.497,315.363,332.171,315.363z"/>
				</g>
			</g>
		</g>
		<path style="fill:#C182F9;" d="M366.204,463.292c-2.762,0-5-2.238-5-5c0-3.317-2.698-6.016-6.016-6.016c-2.762,0-5-2.238-5-5
			s2.238-5,5-5c3.317,0,6.016-2.698,6.016-6.016c0-2.762,2.238-5,5-5s5,2.238,5,5c0,3.317,2.698,6.016,6.016,6.016
			c2.762,0,5,2.238,5,5s-2.238,5-5,5c-3.317,0-6.016,2.698-6.016,6.016C371.204,461.053,368.966,463.292,366.204,463.292z"/>
		<path style="fill:#FFE783;" d="M342.949,89.621c-2.762,0-5-2.238-5-5c0-3.317-2.698-6.016-6.016-6.016c-2.762,0-5-2.238-5-5
			s2.238-5,5-5c3.317,0,6.016-2.698,6.016-6.016c0-2.762,2.238-5,5-5s5,2.238,5,5c0,3.317,2.698,6.016,6.016,6.016
			c2.762,0,5,2.238,5,5s-2.238,5-5,5c-3.317,0-6.016,2.698-6.016,6.016C347.949,87.382,345.711,89.621,342.949,89.621z"/>
		<path style="fill:#FFA052;" d="M273.484,68.595c-2.762,0-5-2.238-5-5c0-3.317-2.698-6.016-6.016-6.016c-2.762,0-5-2.238-5-5
			s2.238-5,5-5c3.317,0,6.016-2.698,6.016-6.016c0-2.762,2.238-5,5-5s5,2.238,5,5c0,3.317,2.698,6.016,6.016,6.016
			c2.762,0,5,2.238,5,5s-2.238,5-5,5c-3.317,0-6.016,2.698-6.016,6.016C278.484,66.357,276.246,68.595,273.484,68.595z"/>
		<path style="fill:#FFA052;" d="M164.937,446.521c-2.762,0-5-2.238-5-5c0-3.317-2.698-6.017-6.016-6.017c-2.762,0-5-2.238-5-5
			s2.238-5,5-5c3.317,0,6.016-2.698,6.016-6.016c0-2.762,2.238-5,5-5s5,2.238,5,5c0,3.317,2.698,6.016,6.016,6.016
			c2.762,0,5,2.238,5,5s-2.238,5-5,5c-3.317,0-6.016,2.699-6.016,6.017C169.937,444.283,167.698,446.521,164.937,446.521z"/>
	</g>
</g>
<g>
</g>
<g>
</g>
<g>
</g>
<g>
</g>
<g>
</g>
<g>
</g>
<g>
</g>
<g>
</g>
<g>
</g>
<g>
</g>
<g>
</g>
<g>
</g>
<g>
</g>
<g>
</g>
<g>
</g>
</svg>
