<?xml version="1.0" encoding="iso-8859-1"?>
<!-- Generator: Adobe Illustrator 23.0.3, SVG Export Plug-In . SVG Version: 6.00 Build 0)  -->
<svg version="1.1" id="Capa_1" xmlns="http://www.w3.org/2000/svg" xmlns:xlink="http://www.w3.org/1999/xlink" x="0px" y="0px"
	 viewBox="0 0 512 512" style="enable-background:new 0 0 512 512;" xml:space="preserve">
<g>
	<linearGradient id="SVGID_1_" gradientUnits="userSpaceOnUse" x1="225.8161" y1="253.5" x2="864.887" y2="253.5">
		<stop  offset="7.011211e-04" style="stop-color:#FFF0D5"/>
		<stop  offset="0.5112" style="stop-color:#FFDFFF"/>
		<stop  offset="1" style="stop-color:#D9CEFF"/>
	</linearGradient>
	<path style="fill:url(#SVGID_1_);" d="M505.626,289.418c-11.826-34.61-38.138-60.16-69.852-72.202
		c-16.43-6.239-27.346-21.856-27.587-39.429c-0.005-0.384-0.012-0.769-0.021-1.154c-1.507-64.582-55.488-116.33-120.077-115.221
		c-38.094,0.654-71.788,19.355-92.905,47.92c-18.185,24.599-46.49,39.965-77.08,39.949c-0.898,0-1.797,0.009-2.7,0.029
		C53.487,150.664,0.837,203.788,0.011,265.713c-0.879,65.932,52.303,119.654,118.032,119.654c50.947,0,94.349-32.277,110.886-77.497
		c4.327-11.832,17.152-18.174,29.283-14.772c0.151,0.042,0.303,0.085,0.455,0.127c11.099,3.064,18.458,13.64,17.55,25.119
		c-1.217,15.383,0.581,31.255,5.798,46.796c20.521,61.135,87.188,94.685,148.493,74.68
		C493.219,419.355,526.887,351.636,505.626,289.418z"/>
	<g>
		<path style="opacity:0.1;fill:#590BB2;" d="M460.567,363.017l-16.276-4.635c-1.594-6.498-4.16-12.617-7.537-18.186l8.235-14.791
			c0.698-1.258,0.479-2.831-0.538-3.848l-11.124-11.124c-1.018-1.018-2.591-1.236-3.848-0.538l-14.792,8.235
			c-5.569-3.377-11.688-5.943-18.186-7.536l-4.635-16.276c-0.395-1.388-1.661-2.343-3.104-2.343h-7.865V44.99
			c0-8.274-6.715-14.99-14.99-14.99H146.06c-8.274,0-14.99,6.715-14.99,14.99v34.083H89.163c-8.271,0-14.992,6.721-14.992,14.992
			V408.07c0,8.281,6.721,14.992,14.992,14.992h219.845c3.538,0,6.786-1.235,9.352-3.288l-1.555,2.792
			c-0.698,1.257-0.479,2.831,0.538,3.848l11.124,11.124c1.018,1.018,2.591,1.236,3.848,0.538l14.792-8.235
			c5.568,3.377,11.688,5.943,18.186,7.537l4.635,16.276c0.395,1.388,1.661,2.343,3.104,2.343h15.73c1.443,0,2.709-0.955,3.104-2.343
			l4.635-16.276c6.498-1.594,12.617-4.159,18.186-7.537l14.792,8.235c1.258,0.698,2.83,0.479,3.848-0.538l11.124-11.124
			c1.018-1.018,1.236-2.591,0.538-3.848l-8.235-14.792c3.377-5.568,5.943-11.688,7.537-18.186l16.276-4.635
			c1.388-0.395,2.343-1.661,2.343-3.104V366.12C462.91,364.678,461.955,363.412,460.567,363.017z M323.884,409.851
			c0.069-0.585,0.115-1.177,0.115-1.781v-2.087c0.339,0.602,0.683,1.201,1.041,1.791L323.884,409.851z M380.897,399.781
			c-14.245,0-25.794-11.549-25.796-25.793h10.806c8.274,0,14.99-6.715,14.99-14.99v-10.809c14.246,0,25.796,11.55,25.796,25.796
			C406.693,388.231,395.143,399.781,380.897,399.781z"/>
		<g>
			<g>
				<g>
					<g>
						<g>
							<path style="fill:#E2CCFF;" d="M324,115.067v314.006c0,8.281-6.721,14.992-14.992,14.992H89.163
								c-8.271,0-14.992-6.711-14.992-14.992V115.067c0-8.271,6.721-14.992,14.992-14.992h219.845
								C317.279,100.075,324,106.796,324,115.067z"/>
							<path style="fill:#D6B0FF;" d="M299.546,299.634V175.719c0-1.656-1.342-2.998-2.998-2.998H101.623
								c-1.656,0-2.998,1.342-2.998,2.998v123.914c0,1.656,1.342,2.998,2.998,2.998h194.925
								C298.204,302.632,299.546,301.289,299.546,299.634z"/>
							<path style="fill:#D6B0FF;" d="M323.999,254.15v157.437H146.062c-8.274,0-14.99-6.715-14.99-14.99V254.15H323.999z"/>
							<path style="fill:#B557FF;" d="M324.002,148.212v-33.148c0-8.279-6.711-14.99-14.99-14.99H89.164
								c-8.279,0-14.99,6.711-14.99,14.99v33.148H324.002z"/>
						</g>
						<g>
							<path style="fill:#AFABC6;" d="M380.897,65.992v314.009c0,8.274-6.715,14.99-14.99,14.99H146.06
								c-8.274,0-14.99-6.715-14.99-14.99V65.992c0-8.274,6.715-14.99,14.99-14.99h219.848
								C374.182,51.002,380.897,57.718,380.897,65.992z"/>
							<path style="fill:#DDD9E4;" d="M131.07,356.307v23.694c0,8.274,6.715,14.99,14.99,14.99h219.848
								c8.274,0,14.99-6.715,14.99-14.99v-23.694H131.07z"/>
							<path style="fill:#F5F4F9;" d="M185.615,51.003H146.06c-8.274,0-14.99,6.715-14.99,14.99v314.009
								c0,8.274,6.715,14.99,14.99,14.99h39.555V51.003z"/>
							<path style="fill:#FFA052;" d="M380.897,99.14V65.992c0-8.279-6.711-14.99-14.99-14.99H146.06
								c-8.279,0-14.99,6.711-14.99,14.99V99.14H380.897z"/>
						</g>
					</g>
					<path style="fill:#FFA052;" d="M460.567,384.019l-16.276-4.635c-1.594-6.498-4.159-12.617-7.537-18.186l8.235-14.792
						c0.698-1.258,0.479-2.83-0.538-3.848l-11.124-11.124c-1.018-1.018-2.591-1.236-3.848-0.538l-14.792,8.235
						c-5.568-3.377-11.688-5.943-18.186-7.537l-4.635-16.276c-0.395-1.388-1.661-2.343-3.104-2.343h-15.73
						c-1.443,0-2.708,0.955-3.104,2.343l-4.635,16.276c-6.498,1.594-12.617,4.159-18.186,7.537l-14.792-8.235
						c-1.258-0.698-2.83-0.479-3.848,0.538l-11.124,11.124c-1.018,1.018-1.237,2.591-0.538,3.848l8.235,14.792
						c-3.377,5.568-5.943,11.688-7.537,18.186l-16.276,4.635c-1.388,0.395-2.343,1.661-2.343,3.104v15.73
						c0,1.443,0.955,2.709,2.343,3.104l16.276,4.635c1.594,6.498,4.159,12.617,7.537,18.186l-8.235,14.792
						c-0.698,1.258-0.479,2.83,0.538,3.848l11.124,11.124c1.018,1.018,2.591,1.237,3.848,0.538l14.792-8.235
						c5.568,3.377,11.688,5.943,18.186,7.537l4.635,16.276c0.395,1.388,1.661,2.343,3.104,2.343h15.73
						c1.443,0,2.708-0.955,3.104-2.343l4.635-16.276c6.498-1.594,12.617-4.159,18.186-7.537l14.792,8.235
						c1.258,0.698,2.83,0.479,3.848-0.538l11.124-11.124c1.018-1.018,1.237-2.591,0.538-3.848l-8.235-14.792
						c3.377-5.568,5.943-11.688,7.537-18.186l16.276-4.635c1.388-0.395,2.343-1.661,2.343-3.104v-15.73
						C462.91,385.68,461.955,384.414,460.567,384.019z M380.897,420.783c-14.246,0-25.796-11.55-25.796-25.796
						c0-14.246,11.55-25.796,25.796-25.796s25.796,11.55,25.796,25.796C406.693,409.233,395.143,420.783,380.897,420.783z"/>
				</g>
				<path style="fill:#FFA052;" d="M99.521,63.873c-2.761,0-5-2.238-5-5c0-3.309-2.692-6.001-6.001-6.001c-2.761,0-5-2.238-5-5
					s2.239-5,5-5c3.309,0,6.001-2.692,6.001-6.002c0-2.762,2.239-5,5-5s5,2.238,5,5c0,3.31,2.692,6.002,6.001,6.002
					c2.761,0,5,2.238,5,5s-2.239,5-5,5c-3.309,0-6.001,2.692-6.001,6.001C104.521,61.635,102.282,63.873,99.521,63.873z"/>
				<g>
					<g>
						<path style="fill:#FFA052;" d="M411.816,116.084h40.871c2.83,0,5.123-2.294,5.123-5.123s-2.293-5.123-5.123-5.123h-40.871
							c-2.83,0-5.123,2.294-5.123,5.123S408.987,116.084,411.816,116.084z"/>
						<path style="fill:#B557FF;" d="M411.816,134.086h19.869c2.83,0,5.123-2.294,5.123-5.123c0-2.829-2.293-5.123-5.123-5.123
							h-19.869c-2.83,0-5.123,2.294-5.123,5.123C406.693,131.792,408.987,134.086,411.816,134.086z"/>
						<path style="fill:#B557FF;" d="M411.816,152.088h19.869c2.83,0,5.123-2.294,5.123-5.123s-2.293-5.123-5.123-5.123h-19.869
							c-2.83,0-5.123,2.294-5.123,5.123S408.987,152.088,411.816,152.088z"/>
					</g>
					<g>
						<path style="fill:#FFA052;" d="M411.816,188.092h40.871c2.83,0,5.123-2.294,5.123-5.123c0-2.829-2.293-5.123-5.123-5.123
							h-40.871c-2.83,0-5.123,2.294-5.123,5.123C406.693,185.798,408.987,188.092,411.816,188.092z"/>
						<path style="fill:#B557FF;" d="M411.816,206.094h19.869c2.83,0,5.123-2.294,5.123-5.123c0-2.829-2.293-5.123-5.123-5.123
							h-19.869c-2.83,0-5.123,2.294-5.123,5.123C406.693,203.8,408.987,206.094,411.816,206.094z"/>
						<path style="fill:#B557FF;" d="M411.816,224.096h19.869c2.83,0,5.123-2.294,5.123-5.123s-2.293-5.123-5.123-5.123h-19.869
							c-2.83,0-5.123,2.294-5.123,5.123S408.987,224.096,411.816,224.096z"/>
					</g>
					<g>
						<path style="fill:#B557FF;" d="M452.688,159.844h-19.869c-2.83,0-5.123,2.294-5.123,5.123c0,2.829,2.293,5.123,5.123,5.123
							h19.869c2.83,0,5.123-2.294,5.123-5.123C457.811,162.138,455.517,159.844,452.688,159.844z"/>
					</g>
					<g>
						<path style="fill:#FFA052;" d="M411.816,260.1h40.871c2.83,0,5.123-2.294,5.123-5.123s-2.293-5.123-5.123-5.123h-40.871
							c-2.83,0-5.123,2.294-5.123,5.123S408.987,260.1,411.816,260.1z"/>
						<path style="fill:#B557FF;" d="M411.816,278.102h19.869c2.83,0,5.123-2.294,5.123-5.123s-2.293-5.123-5.123-5.123h-19.869
							c-2.83,0-5.123,2.294-5.123,5.123S408.987,278.102,411.816,278.102z"/>
						<path style="fill:#B557FF;" d="M411.816,296.104h19.869c2.83,0,5.123-2.294,5.123-5.123c0-2.829-2.293-5.123-5.123-5.123
							h-19.869c-2.83,0-5.123,2.294-5.123,5.123C406.693,293.811,408.987,296.104,411.816,296.104z"/>
					</g>
					<g>
						<path style="fill:#B557FF;" d="M452.688,231.852h-19.869c-2.83,0-5.123,2.294-5.123,5.123c0,2.829,2.293,5.123,5.123,5.123
							h19.869c2.83,0,5.123-2.294,5.123-5.123C457.811,234.146,455.517,231.852,452.688,231.852z"/>
					</g>
				</g>
				<g>
					<path style="fill:#F5F4F9;" d="M244.026,134.512c-0.925-3.821-4.316-6.489-8.247-6.489h-4.892
						c-3.931,0-7.322,2.668-8.247,6.489l-10.193,42.122c-0.649,2.684,1,5.386,3.684,6.036c2.683,0.651,5.387-1,6.036-3.684
						l4.493-18.569h13.342l4.493,18.569c0.554,2.289,2.601,3.826,4.857,3.826c0.389,0,0.785-0.046,1.18-0.142
						c2.684-0.649,4.334-3.352,3.685-6.036L244.026,134.512z M229.083,150.416l2.999-12.392h2.505l2.999,12.392H229.083z"/>
					<path style="fill:#F5F4F9;" d="M285.288,128.023h-17.651c-2.762,0-5.001,2.239-5.001,5.001v44.786
						c0,2.762,2.239,5.001,5.001,5.001s5.001-2.239,5.001-5.001v-14.623h12.65c4.678,0,8.484-3.806,8.484-8.484v-18.195
						C293.771,131.829,289.966,128.023,285.288,128.023z M283.77,153.186h-11.133v-15.162h11.133V153.186z"/>
					<path style="fill:#F5F4F9;" d="M316.548,173.105v-35.377c1.955-0.679,3.368-2.518,3.368-4.705c0-2.762-2.239-5.001-5.001-5.001
						h-6.735c-2.762,0-5.001,2.239-5.001,5.001c0,2.187,1.412,4.026,3.368,4.705v35.377c-1.955,0.679-3.368,2.518-3.368,4.705
						c0,2.762,2.239,5.001,5.001,5.001h6.735c2.762,0,5.001-2.239,5.001-5.001C319.916,175.623,318.503,173.784,316.548,173.105z"/>
					<g>
						<path style="fill:#F5F4F9;" d="M335.93,182.919c-2.762,0-5.001-2.239-5.001-5.001v-0.145c0-2.762,2.239-5.001,5.001-5.001
							s5.001,2.239,5.001,5.001v0.145C340.931,180.68,338.692,182.919,335.93,182.919z"/>
					</g>
				</g>
				<g>
					<g>
						<path style="fill:#E2CCFF;" d="M231.19,223.643h-15.733c-2.615,0-4.951,1.912-5.199,4.515c-0.285,2.987,2.056,5.5,4.984,5.5
							h15.948c2.766,0,5.008-2.242,5.008-5.008l0,0C236.198,225.885,233.956,223.643,231.19,223.643z"/>
						<path style="fill:#FFE783;" d="M291.621,223.643h-37.414c-2.766,0-5.008,2.242-5.008,5.008l0,0
							c0,2.766,2.242,5.008,5.008,5.008h37.629c2.928,0,5.269-2.513,4.984-5.5C296.572,225.555,294.236,223.643,291.621,223.643z"/>
					</g>
					<g>
						<path style="fill:#E2CCFF;" d="M267.194,244.609h-51.737c-2.615,0-4.951,1.912-5.199,4.515c-0.285,2.987,2.056,5.5,4.984,5.5
							h51.952c2.766,0,5.008-2.242,5.008-5.008v0C272.202,246.851,269.96,244.609,267.194,244.609z"/>
						<path style="fill:#FFE783;" d="M321.624,244.609h-31.414c-2.766,0-5.008,2.242-5.008,5.008v0c0,2.766,2.242,5.008,5.008,5.008
							h31.629c2.929,0,5.269-2.514,4.984-5.5C326.575,246.521,324.24,244.609,321.624,244.609z"/>
					</g>
					<g>
						<path style="fill:#E2CCFF;" d="M252.192,265.576h-36.735c-2.615,0-4.951,1.912-5.199,4.515c-0.285,2.987,2.056,5.5,4.984,5.5
							h36.951c2.766,0,5.008-2.242,5.008-5.008v0C257.2,267.818,254.958,265.576,252.192,265.576z"/>
						<path style="fill:#FFE783;" d="M291.621,265.576h-16.412c-2.766,0-5.008,2.242-5.008,5.008v0c0,2.766,2.242,5.008,5.008,5.008
							h16.627c2.928,0,5.269-2.513,4.984-5.5C296.572,267.488,294.236,265.576,291.621,265.576z"/>
					</g>
					<g>
						<path style="fill:#FFE783;" d="M321.625,286.542h-61.417c-2.766,0-5.008,2.242-5.008,5.008v0c0,2.766,2.242,5.008,5.008,5.008
							h61.632c2.928,0,5.269-2.513,4.984-5.5C326.575,288.454,324.24,286.542,321.625,286.542z"/>
						<path style="fill:#E2CCFF;" d="M237.191,286.542h-21.734c-2.615,0-4.951,1.912-5.199,4.515c-0.285,2.987,2.056,5.5,4.984,5.5
							h21.949c2.766,0,5.008-2.242,5.008-5.008v0C242.198,288.784,239.956,286.542,237.191,286.542z"/>
					</g>
				</g>
				<g>
					<path style="fill:#590BB2;" d="M461.938,379.21c0,0-0.001,0-0.001,0l-13.55-3.858c-1.433-4.938-3.404-9.694-5.884-14.199
						l6.857-12.318c1.775-3.194,1.209-7.229-1.374-9.811l-11.124-11.124c-2.582-2.583-6.617-3.148-9.817-1.372l-12.314,6.855
						c-4.506-2.48-9.262-4.451-14.198-5.885l-3.859-13.551c-1.002-3.517-4.256-5.973-7.913-5.973h-2.865V65.992
						c0-11.022-8.967-19.989-19.99-19.989H146.06c-11.022,0-19.99,8.967-19.99,19.989v29.082H89.164
						c-11.022,0-19.989,8.967-19.989,19.989v33.145c0,0.002,0,0.003,0,0.005c0,2.762,2.239,5,5,5h51.896v226.785
						c0,11.022,8.967,19.989,19.99,19.989h125.298c2.761,0,5-2.238,5-5s-2.239-5-5-5H146.06c-5.508,0-9.99-4.481-9.99-9.989V104.141
						h239.827v203.834h-2.865c-3.657,0-6.91,2.456-7.913,5.974l-3.858,13.55c-4.936,1.434-9.692,3.404-14.198,5.885l-12.319-6.858
						c-3.194-1.773-7.23-1.208-9.811,1.375l-11.123,11.123c-2.584,2.583-3.149,6.617-1.373,9.815l6.855,12.314
						c-2.48,4.506-4.451,9.262-5.884,14.199l-13.551,3.858c-3.516,1.002-5.972,4.256-5.972,7.913v15.729
						c0,3.656,2.456,6.91,5.974,7.912l13.55,3.858c1.433,4.938,3.404,9.693,5.884,14.199l-4.775,8.578
						c-1.633,1.083-3.522,1.66-5.505,1.66H89.164c-5.508,0-9.989-4.481-9.989-9.99V175.756c0-2.762-2.239-5-5-5s-5,2.238-5,5
						v253.313c0,11.022,8.967,19.99,19.989,19.99h219.848c1.101,0,2.188-0.089,3.254-0.263c0.387,0.784,0.902,1.515,1.543,2.156
						l11.124,11.124c2.584,2.584,6.617,3.148,9.816,1.372l12.314-6.855c4.505,2.479,9.261,4.45,14.198,5.884l3.859,13.551
						c1.002,3.517,4.256,5.973,7.913,5.973h15.729c3.657,0,6.91-2.456,7.913-5.974l3.858-13.55
						c4.938-1.434,9.693-3.404,14.198-5.884l12.319,6.858c3.193,1.771,7.228,1.207,9.811-1.375l11.125-11.124
						c2.581-2.583,3.146-6.617,1.371-9.815l-6.855-12.314c2.479-4.505,4.451-9.262,5.884-14.199l13.552-3.858
						c3.516-1.002,5.972-4.256,5.972-7.912v-15.729C467.91,383.466,465.454,380.212,461.938,379.21z M126.07,143.213H79.175v-28.149
						c0-5.508,4.481-9.989,9.989-9.989h36.906V143.213z M136.07,94.141V65.992c0-5.508,4.481-9.989,9.99-9.989h219.848
						c5.508,0,9.99,4.481,9.99,9.989v28.148H136.07z M457.91,401.514l-14.988,4.269c-1.728,0.492-3.059,1.873-3.487,3.617
						c-1.453,5.922-3.793,11.569-6.956,16.784c-0.932,1.536-0.967,3.455-0.093,5.024l7.583,13.62l-9.23,9.23l-13.62-7.583
						c-1.57-0.873-3.489-0.838-5.025,0.094c-5.215,3.163-10.862,5.503-16.784,6.955c-1.745,0.429-3.126,1.76-3.618,3.487
						L387.424,472h-13.054l-4.268-14.988c-0.492-1.728-1.874-3.059-3.618-3.487c-5.921-1.452-11.568-3.792-16.784-6.955
						c-1.537-0.932-3.454-0.966-5.025-0.094l-13.62,7.582l-9.229-9.229l7.583-13.62c0.874-1.569,0.838-3.488-0.093-5.024
						c-3.164-5.216-5.504-10.863-6.956-16.784c-0.428-1.744-1.759-3.125-3.487-3.617l-14.988-4.269v-13.053l14.988-4.269
						c1.728-0.492,3.059-1.873,3.487-3.617c1.452-5.921,3.792-11.568,6.956-16.784c0.932-1.536,0.967-3.455,0.093-5.024
						l-7.582-13.62l9.23-9.229l13.619,7.582c1.569,0.874,3.488,0.839,5.025-0.093c5.217-3.164,10.864-5.505,16.784-6.956
						c1.745-0.429,3.126-1.76,3.618-3.487l4.268-14.988h13.054l4.268,14.988c0.492,1.728,1.873,3.059,3.618,3.487
						c5.92,1.452,11.567,3.792,16.784,6.956c1.537,0.932,3.456,0.967,5.025,0.093l13.619-7.582l9.23,9.229l-7.582,13.62
						c-0.874,1.569-0.838,3.488,0.093,5.024c3.163,5.215,5.503,10.862,6.956,16.784c0.428,1.744,1.759,3.125,3.487,3.617
						l14.988,4.269V401.514z"/>
					<path style="fill:#590BB2;" d="M380.897,364.191c-16.981,0-30.796,13.815-30.796,30.796s13.815,30.796,30.796,30.796
						s30.796-13.815,30.796-30.796S397.878,364.191,380.897,364.191z M375.897,374.824v5.174c0,5.508-4.481,9.989-9.99,9.989h-5.173
						C362.584,382.537,368.447,376.674,375.897,374.824z M380.897,415.783c-9.74,0-17.915-6.741-20.163-15.796h5.173
						c11.022,0,19.99-8.967,19.99-19.989v-5.174c9.055,2.248,15.796,10.422,15.796,20.163
						C401.693,406.454,392.364,415.783,380.897,415.783z"/>
					<path style="fill:#590BB2;" d="M112.23,129.216c2.761,0,5-2.238,5-5v-0.145c0-2.762-2.239-5-5-5s-5,2.238-5,5v0.145
						C107.23,126.978,109.469,129.216,112.23,129.216z"/>
					<path style="fill:#590BB2;" d="M169.126,69.999c-2.761,0-5,2.238-5,5v0.145c0,2.762,2.239,5,5,5s5-2.238,5-5v-0.145
						C174.126,72.237,171.887,69.999,169.126,69.999z"/>
					<path style="fill:#590BB2;" d="M188.438,69.999c-2.761,0-5,2.238-5,5v0.145c0,2.762,2.239,5,5,5s5-2.238,5-5v-0.145
						C193.438,72.237,191.199,69.999,188.438,69.999z"/>
					<path style="fill:#590BB2;" d="M207.749,69.999c-2.761,0-5,2.238-5,5v0.145c0,2.762,2.239,5,5,5s5-2.238,5-5v-0.145
						C212.749,72.237,210.51,69.999,207.749,69.999z"/>
					<path style="fill:#590BB2;" d="M163.343,228.578c0-2.762-2.239-5-5.001-5s-5.001,2.239-5.001,5v0.145
						c0,2.762,2.239,5.001,5.001,5.001s5.001-2.239,5.001-5.001V228.578z"/>
					<path style="fill:#590BB2;" d="M158.343,286.477c-2.762,0-5.001,2.239-5.001,5.001v0.145c0,2.762,2.239,5,5.001,5
						s5.001-2.239,5.001-5v-0.145C163.343,288.716,161.104,286.477,158.343,286.477z"/>
				</g>
			</g>
			<path style="fill:#FFE783;" d="M427.696,77.993c-1.28,0-2.559-0.488-3.536-1.465l-10.996-10.995
				c-0.938-0.938-1.464-2.209-1.464-3.535s0.527-2.598,1.464-3.535l10.996-10.996c0.938-0.938,2.209-1.465,3.536-1.465l0,0
				c1.326,0,2.598,0.527,3.536,1.465l10.995,10.996c1.953,1.952,1.953,5.118,0,7.07l-10.995,10.995
				C430.255,77.505,428.976,77.993,427.696,77.993z M423.771,61.998l3.924,3.924l3.924-3.924l-3.924-3.925L423.771,61.998z"/>
			<path style="fill:#C182F9;" d="M468.828,328.992c-2.761,0-5-2.238-5-5c0-3.318-2.699-6.018-6.017-6.018c-2.761,0-5-2.238-5-5
				s2.239-5,5-5c3.318,0,6.017-2.699,6.017-6.017c0-2.762,2.239-5,5-5s5,2.238,5,5c0,3.317,2.699,6.017,6.017,6.017
				c2.761,0,5,2.238,5,5s-2.239,5-5,5c-3.318,0-6.017,2.699-6.017,6.018C473.828,326.754,471.589,328.992,468.828,328.992z"/>
			<path style="fill:#C182F9;" d="M43.172,171.434c-2.761,0-5-2.238-5-5c0-3.317-2.699-6.017-6.017-6.017c-2.761,0-5-2.238-5-5
				s2.239-5,5-5c3.318,0,6.017-2.699,6.017-6.018c0-2.762,2.239-5,5-5s5,2.238,5,5c0,3.318,2.699,6.018,6.017,6.018
				c2.761,0,5,2.238,5,5s-2.239,5-5,5c-3.318,0-6.017,2.699-6.017,6.017C48.172,169.195,45.934,171.434,43.172,171.434z"/>
		</g>
	</g>
</g>
<g>
</g>
<g>
</g>
<g>
</g>
<g>
</g>
<g>
</g>
<g>
</g>
<g>
</g>
<g>
</g>
<g>
</g>
<g>
</g>
<g>
</g>
<g>
</g>
<g>
</g>
<g>
</g>
<g>
</g>
</svg>
