<?xml version="1.0" encoding="iso-8859-1"?>
<!-- Generator: Adobe Illustrator 23.0.3, SVG Export Plug-In . SVG Version: 6.00 Build 0)  -->
<svg version="1.1" id="Capa_1" xmlns="http://www.w3.org/2000/svg" xmlns:xlink="http://www.w3.org/1999/xlink" x="0px" y="0px"
	 viewBox="0 0 512 512" style="enable-background:new 0 0 512 512;" xml:space="preserve">
<g>
	<linearGradient id="SVGID_1_" gradientUnits="userSpaceOnUse" x1="163.7567" y1="256" x2="1007.3747" y2="256">
		<stop  offset="7.011211e-04" style="stop-color:#FFF0D5"/>
		<stop  offset="0.5112" style="stop-color:#FFDFFF"/>
		<stop  offset="1" style="stop-color:#D9CEFF"/>
	</linearGradient>
	<path style="fill:url(#SVGID_1_);" d="M310.075,89.353C288.645,36.684,236.804-0.37,176.349,0.003
		C99.225,0.478,35.813,62.687,33.942,139.789c-0.923,38.04,12.978,72.821,36.334,98.983c18.619,20.856,27.963,48.325,27.021,76.268
		c-0.125,3.714-0.144,7.455-0.052,11.22c2.464,101.4,89.087,185.801,190.517,185.74c105.133-0.063,190.34-85.31,190.34-190.457
		c0-77.074-45.784-143.448-111.637-173.423C340.798,136.437,320.703,115.473,310.075,89.353z"/>
	<g>
		<g>
			<g>
				<path style="opacity:0.1;fill:#590BB2;" d="M468.5,133.036c0-43.947-35.626-79.574-79.574-79.574
					c-30.061,0-56.221,16.674-69.757,41.274H58.493c-8.276,0-14.993,6.717-14.993,14.993v254.129
					c0,8.276,6.717,14.993,14.993,14.993h369.824c8.276,0,14.993-6.717,14.993-14.993V191.099
					C458.805,176.58,468.5,155.945,468.5,133.036z"/>
				<g>
					<g>
						<polygon style="fill:#AFABC6;" points="300.087,472.513 186.721,472.513 209.392,382.651 277.417,382.651 						"/>
						<polygon style="fill:#8E8CA8;" points="285.313,413.938 201.496,413.938 209.392,382.651 277.417,382.651 						"/>
						<g>
							<path style="fill:#F5F4F9;" d="M443.311,130.72v254.129c0,8.276-6.717,14.993-14.993,14.993H58.494
								c-8.276,0-14.993-6.717-14.993-14.993V130.72c0-8.276,6.717-14.993,14.993-14.993h369.824
								C436.594,115.727,443.311,122.444,443.311,130.72z"/>
							<path style="fill:#E8E6ED;" d="M443.311,130.72v95.684c-14.213,13.334-33.344,21.5-54.384,21.5
								c-43.949,0-79.572-35.633-79.572-79.572c0-20.161,7.496-38.582,19.881-52.605h99.083
								C436.594,115.727,443.311,122.444,443.311,130.72z"/>
							<path style="fill:#FFE783;" d="M138.884,257.785h-61.4c-1.656,0-2.999-1.342-2.999-2.999v-90.909h67.397v90.909
								C141.882,256.442,140.54,257.785,138.884,257.785z"/>
							<path style="fill:#D6B0FF;" d="M415.134,163.877v90.904c0,1.659-1.349,2.999-2.999,2.999H170.801
								c-1.659,0-2.999-1.339-2.999-2.999v-90.904H415.134z"/>
							<path style="fill:#CCA1FF;" d="M415.134,164.264v79.222c-8.206,2.869-17.022,4.418-26.208,4.418
								c-43.949,0-79.572-35.633-79.572-79.572c0-1.359,0.03-2.719,0.11-4.068H415.134z"/>
							<path style="fill:#FFD5B8;" d="M123.411,326.662H77.484c-1.656,0-2.999-1.343-2.999-2.999v-45.927
								c0-1.656,1.343-2.999,2.999-2.999h45.927c1.656,0,2.999,1.343,2.999,2.999v45.927
								C126.409,325.319,125.067,326.662,123.411,326.662z"/>
							<path style="fill:#FFE783;" d="M198.497,326.662h-45.927c-1.656,0-2.999-1.343-2.999-2.999v-45.927
								c0-1.656,1.342-2.999,2.999-2.999h45.927c1.656,0,2.999,1.343,2.999,2.999v45.927
								C201.496,325.319,200.153,326.662,198.497,326.662z"/>
							<path style="fill:#FFA052;" d="M306.354,326.662h-78.696c-1.656,0-2.999-1.343-2.999-2.999v-45.927
								c0-1.656,1.343-2.999,2.999-2.999h78.696c1.656,0,2.999,1.343,2.999,2.999v45.927
								C309.353,325.319,308.01,326.662,306.354,326.662z"/>
							<path style="fill:#FFBE92;" d="M412.133,326.662h-78.696c-1.656,0-2.999-1.343-2.999-2.999v-45.927
								c0-1.656,1.343-2.999,2.999-2.999h78.696c1.656,0,2.999,1.343,2.999,2.999v45.927
								C415.132,325.319,413.789,326.662,412.133,326.662z"/>
							<path style="fill:#C182F9;" d="M443.31,163.877v-33.156c0-8.28-6.713-14.993-14.993-14.993H58.493
								c-8.28,0-14.993,6.713-14.993,14.993v33.156H443.31z"/>
							<path style="fill:#CECAE0;" d="M43.5,349.475v35.373c0,8.28,6.713,14.993,14.993,14.993h369.824
								c8.28,0,14.993-6.713,14.993-14.993v-35.373H43.5z"/>
						</g>
					</g>
				</g>
				<g>
					<g>
						<circle style="fill:#FFA052;" cx="388.926" cy="154.026" r="79.574"/>
						<g>
							<path style="fill:#590BB2;" d="M76.564,139.73v0.146c0,2.762,2.239,5,5,5s5-2.238,5-5v-0.146c0-2.762-2.239-5-5-5
								S76.564,136.969,76.564,139.73z"/>
							<path style="fill:#590BB2;" d="M95.879,139.73v0.146c0,2.762,2.239,5,5,5s5-2.238,5-5v-0.146c0-2.762-2.239-5-5-5
								S95.879,136.969,95.879,139.73z"/>
							<path style="fill:#590BB2;" d="M115.195,139.73v0.146c0,2.762,2.239,5,5,5s5-2.238,5-5v-0.146c0-2.762-2.239-5-5-5
								S115.195,136.969,115.195,139.73z"/>
							<path style="fill:#590BB2;" d="M388.926,69.452c-46.634,0-84.574,37.939-84.574,84.573c0,1.629,0.057,3.245,0.149,4.852H48.5
								v-28.155c0-5.511,4.483-9.993,9.993-9.993h232.975c2.761,0,5-2.238,5-5s-2.239-5-5-5H58.493
								c-11.024,0-19.993,8.969-19.993,19.993v254.126c0,11.024,8.969,19.993,19.993,19.993h140.144l-15.81,62.666h-15.32
								c-2.761,0-5,2.238-5,5s2.239,5,5,5h151.796c2.761,0,5-2.238,5-5s-2.239-5-5-5h-15.322l-15.81-62.666h140.145
								c11.024,0,19.993-8.969,19.993-19.993V212.155c0-4.218-5.272-6.634-8.436-3.672c-13.86,12.972-31.954,20.116-50.947,20.116
								c-41.12,0-74.574-33.454-74.574-74.574s33.454-74.573,74.574-74.573s74.574,33.453,74.574,74.573
								c0,12.485-3.144,24.836-9.092,35.717c-1.325,2.423-0.434,5.461,1.989,6.786c2.424,1.324,5.462,0.433,6.786-1.989
								c6.75-12.348,10.318-26.356,10.318-40.514C473.5,107.392,435.561,69.452,388.926,69.452z M293.668,467.507H193.14
								l15.81-62.666h68.908L293.668,467.507z M428.317,394.841H58.493c-5.51,0-9.993-4.483-9.993-9.993v-30.373h389.81v30.373
								C438.31,390.357,433.827,394.841,428.317,394.841z M388.926,238.6c17.891,0,35.067-5.605,49.383-15.929v121.804H48.5V168.877
								h257.185C312.728,208.45,347.361,238.6,388.926,238.6z"/>
						</g>
						<circle style="fill:#FFF4C5;" cx="388.926" cy="154.026" r="59.001"/>
					</g>
					<g>
						<g>
							<path style="fill:#FFA052;" d="M368.561,179.389c-1.279,0-2.558-0.488-3.534-1.464c-1.952-1.951-1.952-5.116,0-7.067
								l40.731-40.731c1.952-1.952,5.116-1.952,7.068,0c1.952,1.951,1.952,5.116,0,7.067l-40.731,40.731
								C371.119,178.901,369.84,179.389,368.561,179.389z"/>
						</g>
						<g>
							<g>
								<path style="fill:#FFA052;" d="M370.31,149.718c-7.89,0-14.309-6.419-14.309-14.31c0-7.89,6.419-14.309,14.309-14.309
									s14.309,6.419,14.309,14.309C384.619,143.299,378.2,149.718,370.31,149.718z M370.31,131.095
									c-2.379,0-4.314,1.935-4.314,4.313s1.935,4.314,4.314,4.314s4.314-1.936,4.314-4.314S372.688,131.095,370.31,131.095z"/>
							</g>
							<g>
								<path style="fill:#FFA052;" d="M407.543,186.951c-7.89,0-14.309-6.419-14.309-14.31c0-7.89,6.419-14.309,14.309-14.309
									s14.309,6.419,14.309,14.309C421.852,180.533,415.433,186.951,407.543,186.951z M407.543,168.329
									c-2.379,0-4.314,1.935-4.314,4.313s1.935,4.314,4.314,4.314s4.314-1.936,4.314-4.314S409.922,168.329,407.543,168.329z"/>
							</g>
						</g>
					</g>
				</g>
			</g>
			<g>
				<ellipse style="fill:#F5F4F9;" cx="223.154" cy="238.15" rx="5.569" ry="5.629"/>
				<ellipse style="fill:#F5F4F9;" cx="206.307" cy="238.15" rx="5.569" ry="5.629"/>
				<ellipse style="fill:#F5F4F9;" cx="189.46" cy="238.15" rx="5.569" ry="5.629"/>
			</g>
			<g>
				<path style="fill:#FFD5B8;" d="M261.556,295.665h-14.973c-2.828,0-5.12-2.293-5.12-5.12s2.292-5.12,5.12-5.12h14.973
					c2.828,0,5.12,2.293,5.12,5.12S264.384,295.665,261.556,295.665z"/>
				<path style="fill:#FFD5B8;" d="M287.429,295.665h-6.574c-2.828,0-5.12-2.293-5.12-5.12s2.292-5.12,5.12-5.12h6.574
					c2.828,0,5.12,2.293,5.12,5.12S290.257,295.665,287.429,295.665z"/>
				<path style="fill:#FF8736;" d="M287.429,315.975h-40.847c-2.828,0-5.12-2.293-5.12-5.12s2.292-5.12,5.12-5.12h40.847
					c2.828,0,5.12,2.293,5.12,5.12S290.257,315.975,287.429,315.975z"/>
			</g>
			<g>
				<path style="fill:#FFEADC;" d="M367.335,295.665h-14.973c-2.828,0-5.12-2.293-5.12-5.12s2.292-5.12,5.12-5.12h14.973
					c2.828,0,5.12,2.293,5.12,5.12S370.163,295.665,367.335,295.665z"/>
				<path style="fill:#FFEADC;" d="M393.208,295.665h-6.574c-2.828,0-5.12-2.293-5.12-5.12s2.292-5.12,5.12-5.12h6.574
					c2.828,0,5.12,2.293,5.12,5.12S396.036,295.665,393.208,295.665z"/>
				<path style="fill:#FFA052;" d="M393.208,315.975h-40.847c-2.828,0-5.12-2.293-5.12-5.12s2.292-5.12,5.12-5.12h40.847
					c2.828,0,5.12,2.293,5.12,5.12S396.036,315.975,393.208,315.975z"/>
			</g>
		</g>
		<path style="fill:#FFE783;" d="M315.711,66.479L315.711,66.479c-1.326,0-2.598-0.527-3.536-1.465l-10.995-10.996
			c-1.953-1.952-1.953-5.118,0-7.07l10.995-10.995c1.953-1.953,5.118-1.953,7.071,0l10.996,10.995
			c0.938,0.938,1.464,2.209,1.464,3.535s-0.527,2.598-1.464,3.535l-10.996,10.996C318.31,65.951,317.038,66.479,315.711,66.479z
			 M311.787,50.482l3.924,3.925l3.924-3.925l-3.924-3.924L311.787,50.482z"/>
		<path style="fill:#C182F9;" d="M340.92,446.266c-1.28,0-2.559-0.488-3.536-1.465l-10.996-10.995
			c-0.938-0.938-1.464-2.209-1.464-3.535s0.527-2.598,1.464-3.535l10.996-10.995c1.954-1.953,5.119-1.952,7.071,0l10.995,10.995
			c1.953,1.952,1.953,5.118,0,7.07l-10.995,10.995C343.479,445.777,342.2,446.266,340.92,446.266z M336.996,430.271l3.924,3.924
			l3.924-3.924l-3.924-3.924L336.996,430.271z"/>
		<path style="fill:#FFA052;" d="M384.619,471.108c-2.761,0-5-2.238-5-5c0-3.317-2.699-6.016-6.016-6.016c-2.761,0-5-2.238-5-5
			s2.239-5,5-5c3.317,0,6.016-2.698,6.016-6.016c0-2.762,2.239-5,5-5s5,2.238,5,5c0,3.317,2.699,6.016,6.016,6.016
			c2.761,0,5,2.238,5,5s-2.239,5-5,5c-3.317,0-6.016,2.698-6.016,6.016C389.619,468.87,387.38,471.108,384.619,471.108z"/>
		<path style="fill:#FFA052;" d="M180.068,80.493c-2.761,0-5-2.238-5-5c0-3.317-2.699-6.016-6.016-6.016c-2.761,0-5-2.238-5-5
			s2.239-5,5-5c3.317,0,6.016-2.698,6.016-6.016c0-2.762,2.239-5,5-5s5,2.238,5,5c0,3.317,2.699,6.016,6.016,6.016
			c2.761,0,5,2.238,5,5s-2.239,5-5,5c-3.317,0-6.016,2.698-6.016,6.016C185.068,78.255,182.829,80.493,180.068,80.493z"/>
	</g>
</g>
<g>
</g>
<g>
</g>
<g>
</g>
<g>
</g>
<g>
</g>
<g>
</g>
<g>
</g>
<g>
</g>
<g>
</g>
<g>
</g>
<g>
</g>
<g>
</g>
<g>
</g>
<g>
</g>
<g>
</g>
</svg>
