<?xml version="1.0" encoding="iso-8859-1"?>
<!-- Generator: Adobe Illustrator 23.0.3, SVG Export Plug-In . SVG Version: 6.00 Build 0)  -->
<svg version="1.1" id="Capa_1" xmlns="http://www.w3.org/2000/svg" xmlns:xlink="http://www.w3.org/1999/xlink" x="0px" y="0px"
	 viewBox="0 0 512 512" style="enable-background:new 0 0 512 512;" xml:space="preserve">
<g>
	<linearGradient id="SVGID_1_" gradientUnits="userSpaceOnUse" x1="225.8161" y1="256" x2="864.887" y2="256">
		<stop  offset="7.011211e-04" style="stop-color:#FFF0D5"/>
		<stop  offset="0.5112" style="stop-color:#FFDFFF"/>
		<stop  offset="1" style="stop-color:#D9CEFF"/>
	</linearGradient>
	<path style="fill:url(#SVGID_1_);" d="M505.626,291.918c-11.826-34.61-38.138-60.16-69.852-72.202
		c-16.43-6.239-27.346-21.856-27.587-39.429c-0.005-0.384-0.012-0.769-0.021-1.154c-1.507-64.582-55.488-116.33-120.077-115.221
		c-38.094,0.654-71.788,19.355-92.905,47.92c-18.185,24.599-46.49,39.965-77.08,39.949c-0.898,0-1.797,0.009-2.7,0.029
		C53.487,153.164,0.837,206.288,0.011,268.213c-0.879,65.932,52.303,119.654,118.032,119.654c50.947,0,94.349-32.277,110.886-77.497
		c4.327-11.832,17.152-18.174,29.283-14.772c0.151,0.042,0.303,0.085,0.455,0.127c11.099,3.064,18.458,13.64,17.55,25.119
		c-1.217,15.383,0.581,31.255,5.798,46.796c20.521,61.135,87.188,94.685,148.493,74.68
		C493.219,421.855,526.887,354.136,505.626,291.918z"/>
	<g>
		<path style="opacity:0.1;fill:#590BB2;" d="M458.614,79.216H88.686c-8.278,0-14.997,6.719-14.997,14.997v173.062l-32.753,58.527
			c-4.496,8.034-2.925,18.1,3.805,24.383l28.948,27.02v1.203c0,8.278,6.719,14.997,14.997,14.997h369.928
			c8.279,0,14.997-6.719,14.997-14.997V94.213C473.611,85.935,466.893,79.216,458.614,79.216z"/>
		<g>
			<g>
				<path style="fill:#F5F4F9;" d="M473.611,115.209v284.195c0,8.278-6.719,14.997-14.997,14.997H88.686
					c-8.278,0-14.997-6.719-14.997-14.997V115.209c0-8.278,6.719-14.997,14.997-14.997h369.928
					C466.892,100.212,473.611,106.931,473.611,115.209z"/>
				<path style="fill:#FFE783;" d="M340.665,375.151H178.464c-1.657,0-2.999-1.343-2.999-2.999V216.55
					c0-1.657,1.343-2.999,2.999-2.999h162.202c1.657,0,2.999,1.343,2.999,2.999v155.601
					C343.665,373.808,342.322,375.151,340.665,375.151z"/>
				<path style="fill:#DDD9E4;" d="M473.611,195.528v-80.318c0-8.278-6.719-14.997-14.997-14.997H88.686
					c-8.278,0-14.997,6.719-14.997,14.997v80.318H473.611z"/>
				<path style="fill:#C182F9;" d="M473.611,148.374v-33.165c0-8.283-6.714-14.997-14.997-14.997H88.686
					c-8.283,0-14.997,6.714-14.997,14.997v33.165H473.611z"/>
			</g>
			<path style="fill:#C182F9;" d="M224.952,72.025L224.952,72.025c-1.326,0-2.598-0.526-3.536-1.465l-10.993-10.993
				c-1.953-1.952-1.953-5.118,0-7.07l10.993-10.993c0.938-0.938,2.209-1.465,3.536-1.465s2.598,0.526,3.536,1.465l10.993,10.993
				c1.953,1.952,1.953,5.118,0,7.07l-10.993,10.993C227.549,71.499,226.278,72.025,224.952,72.025z M221.03,56.032l3.922,3.922
				l3.922-3.922l-3.922-3.922L221.03,56.032z"/>
			<path style="fill:#FFE783;" d="M376.449,489c-2.762,0-5-2.238-5-5c0-3.316-2.697-6.014-6.014-6.014c-2.762,0-5-2.238-5-5
				s2.238-5,5-5c3.316,0,6.014-2.697,6.014-6.014c0-2.762,2.238-5,5-5s5,2.238,5,5c0,3.316,2.697,6.014,6.014,6.014
				c2.762,0,5,2.238,5,5s-2.238,5-5,5c-3.316,0-6.014,2.697-6.014,6.014C381.449,486.762,379.211,489,376.449,489z"/>
			<g>
				<g>
					<path style="fill:#CECAE0;" d="M444.855,380.385H368.87c-1.657,0-2.999-1.343-2.999-2.999V189.422
						c0-1.657,1.343-2.999,2.999-2.999h75.985c1.657,0,2.999,1.343,2.999,2.999v187.964
						C447.855,379.042,446.512,380.385,444.855,380.385z"/>
					<path style="fill:#CECAE0;" d="M444.855,380.385H368.87c-1.657,0-2.999-1.343-2.999-2.999V189.422
						c0-1.657,1.343-2.999,2.999-2.999h75.985c1.657,0,2.999,1.343,2.999,2.999v187.964
						C447.855,379.042,446.512,380.385,444.855,380.385z"/>
					<path style="fill:#AFABC6;" d="M447.855,208.907h-81.984v-19.486c0-1.657,1.343-2.999,2.999-2.999h75.985
						c1.657,0,2.999,1.343,2.999,2.999V208.907z"/>
					<rect x="365.871" y="267.478" style="fill:#AFABC6;" width="81.984" height="22.485"/>
				</g>
				<g>
					<path style="fill:#DDD9E4;" d="M398.948,310.661h-20.329c-1.657,0-2.999-1.343-2.999-2.999v-2.5
						c0-1.657,1.343-2.999,2.999-2.999h20.329c1.657,0,2.999,1.343,2.999,2.999v2.5
						C401.947,309.318,400.604,310.661,398.948,310.661z"/>
					<path style="fill:#DDD9E4;" d="M435.107,310.661h-20.329c-1.657,0-2.999-1.343-2.999-2.999v-2.5
						c0-1.657,1.343-2.999,2.999-2.999h20.329c1.657,0,2.999,1.343,2.999,2.999v2.5
						C438.107,309.318,436.764,310.661,435.107,310.661z"/>
				</g>
				<g>
					<path style="fill:#DDD9E4;" d="M398.948,324.908h-20.329c-1.657,0-2.999-1.343-2.999-2.999v-2.5
						c0-1.657,1.343-2.999,2.999-2.999h20.329c1.657,0,2.999,1.343,2.999,2.999v2.5
						C401.947,323.565,400.604,324.908,398.948,324.908z"/>
					<path style="fill:#DDD9E4;" d="M435.107,324.908h-20.329c-1.657,0-2.999-1.343-2.999-2.999v-2.5
						c0-1.657,1.343-2.999,2.999-2.999h20.329c1.657,0,2.999,1.343,2.999,2.999v2.5
						C438.107,323.565,436.764,324.908,435.107,324.908z"/>
				</g>
				<g>
					<path style="fill:#DDD9E4;" d="M398.948,339.155h-20.329c-1.657,0-2.999-1.343-2.999-2.999v-2.5
						c0-1.657,1.343-2.999,2.999-2.999h20.329c1.657,0,2.999,1.343,2.999,2.999v2.5
						C401.947,337.812,400.604,339.155,398.948,339.155z"/>
					<path style="fill:#DDD9E4;" d="M435.107,339.155h-20.329c-1.657,0-2.999-1.343-2.999-2.999v-2.5
						c0-1.657,1.343-2.999,2.999-2.999h20.329c1.657,0,2.999,1.343,2.999,2.999v2.5
						C438.107,337.812,436.764,339.155,435.107,339.155z"/>
				</g>
			</g>
			<g>
				<g>
					<path style="fill:#CECAE0;" d="M157.754,267.847v-78.425c0-1.657-1.343-2.999-2.999-2.999h-39.992
						c-1.657,0-2.999,1.343-2.999,2.999v78.425c0,1.657,1.343,2.999,2.999,2.999h39.992
						C156.412,270.846,157.754,269.503,157.754,267.847z"/>
					<path style="fill:#CECAE0;" d="M157.754,267.847v-78.425c0-1.657-1.343-2.999-2.999-2.999h-39.992
						c-1.657,0-2.999,1.343-2.999,2.999v78.425c0,1.657,1.343,2.999,2.999,2.999h39.992
						C156.412,270.846,157.754,269.503,157.754,267.847z"/>
					<path style="fill:#AFABC6;" d="M157.754,208.907h-45.991v-19.486c0-1.657,1.343-2.999,2.999-2.999h39.992
						c1.657,0,2.999,1.343,2.999,2.999V208.907z"/>
				</g>
			</g>
			<g>
				<path style="fill:#B557FF;" d="M138.425,449H85.102c-5.522,0-9.998-4.476-9.998-9.998v-21.996h73.319v21.996
					C148.423,444.524,143.947,449,138.425,449z"/>
				<rect x="75.104" y="417.006" style="fill:#9526DD;" width="73.319" height="19.994"/>
				<path style="fill:#DDD9E4;" d="M84.905,408.675h53.716l40.164-37.49c6.73-6.282,8.301-16.348,3.805-24.383l-64.489-115.236
					c-2.773-4.955-9.904-4.955-12.677,0L40.936,346.802c-4.496,8.034-2.925,18.1,3.805,24.383L84.905,408.675z"/>
				<circle style="fill:#8E8CA8;" cx="111.763" cy="349.686" r="19.965"/>
				<path style="fill:#FFA052;" d="M152.528,425.201H70.999c-5.522,0-9.998-4.476-9.998-9.998v-5.762
					c0-5.522,4.476-9.998,9.998-9.998h81.529c5.522,0,9.998,4.476,9.998,9.998v5.762
					C162.526,420.724,158.05,425.201,152.528,425.201z"/>
				<g>
					<path style="fill:#590BB2;" d="M116.763,124.365v-0.145c0-2.762-2.239-5-5-5s-5,2.238-5,5v0.145c0,2.762,2.239,5,5,5
						S116.763,127.127,116.763,124.365z"/>
					<path style="fill:#590BB2;" d="M136.084,124.365v-0.145c0-2.762-2.239-5-5-5s-5,2.238-5,5v0.145c0,2.762,2.239,5,5,5
						S136.084,127.127,136.084,124.365z"/>
					<path style="fill:#590BB2;" d="M155.405,124.365v-0.145c0-2.762-2.239-5-5-5s-5,2.238-5,5v0.145c0,2.762,2.239,5,5,5
						S155.405,127.127,155.405,124.365z"/>
					<path style="fill:#590BB2;" d="M458.614,95.212H88.686c-11.026,0-19.997,8.971-19.997,19.997v5.63c0,2.762,2.239,5,5,5
						s5-2.238,5-5v-5.63c0-5.513,4.485-9.997,9.997-9.997h369.928c5.513,0,9.997,4.484,9.997,9.997v28.165H73.689
						c-2.761,0-5,2.238-5,5v138.598l-32.116,57.389c-5.636,10.07-3.68,22.604,4.757,30.479l22.801,21.282
						C59.309,398.62,56,403.647,56,409.44v5.762c0,7.968,6.251,14.486,14.104,14.953v8.847c0,8.27,6.728,14.998,14.998,14.998
						h53.323c8.27,0,14.998-6.729,14.998-14.998v-8.847c7.853-0.467,14.104-6.985,14.104-14.953v-5.762
						c0-5.794-3.309-10.821-8.13-13.318l22.801-21.283c8.436-7.875,10.392-20.409,4.756-30.479l-64.489-115.236
						c-2.199-3.93-6.199-6.275-10.702-6.275c-4.503,0-8.503,2.346-10.702,6.275l-22.373,39.978V153.374h389.922v246.027
						c0,5.513-4.484,9.997-9.997,9.997H191.416c-2.761,0-5,2.238-5,5s2.239,5,5,5h267.198c11.026,0,19.997-8.971,19.997-19.997
						V115.209C478.611,104.183,469.641,95.212,458.614,95.212z M138.425,444H85.102c-2.756,0-4.998-2.242-4.998-4.998V430.2h63.319
						v8.802C143.423,441.758,141.181,444,138.425,444z M157.526,415.202c0,2.756-2.242,4.998-4.999,4.998H70.999
						c-2.756,0-4.998-2.242-4.998-4.998v-5.762c0-2.756,2.242-4.998,4.998-4.998h81.529c2.756,0,4.999,2.242,4.999,4.998V415.202z
						 M111.763,334.721c8.251,0,14.965,6.714,14.965,14.966s-6.713,14.965-14.965,14.965s-14.965-6.713-14.965-14.965
						S103.512,334.721,111.763,334.721z M106.763,239.413v85.811c-11.378,2.322-19.965,12.408-19.965,24.462
						c0,13.766,11.199,24.965,24.965,24.965s24.965-11.199,24.965-24.965c0-12.054-8.587-22.14-19.965-24.462v-85.812
						l61.464,109.832c3.381,6.042,2.208,13.562-2.854,18.286l-28.549,26.647c-0.088,0.082-0.151,0.178-0.232,0.265H76.934
						c-0.08-0.086-0.144-0.183-0.232-0.265L48.153,367.53c-5.062-4.725-6.235-12.244-2.854-18.286L106.763,239.413z"/>
				</g>
			</g>
			<g>
				<path style="fill:#FFA052;" d="M342.593,445.049L331.6,434.056c-0.938-0.938-2.209-1.465-3.535-1.465s-2.598,0.527-3.536,1.465
					l-10.992,10.993c-1.952,1.952-1.952,5.118,0,7.07l10.992,10.993c0.938,0.938,2.21,1.465,3.536,1.465s2.598-0.526,3.535-1.465
					l10.993-10.993C344.546,450.167,344.546,447.001,342.593,445.049z M328.064,452.506l-3.922-3.922l3.922-3.922l3.922,3.922
					L328.064,452.506z"/>
				<path style="fill:#FFA052;" d="M259.564,44.014c3.316,0,6.014,2.697,6.014,6.014c0,2.762,2.238,5,5,5s5-2.238,5-5
					c0-3.316,2.697-6.014,6.014-6.014c2.762,0,5-2.238,5-5s-2.238-5-5-5c-3.316,0-6.014-2.697-6.014-6.014c0-2.762-2.238-5-5-5
					s-5,2.238-5,5c0,3.316-2.697,6.014-6.014,6.014c-2.761,0-5,2.238-5,5S256.803,44.014,259.564,44.014z"/>
				<path style="fill:#FFA052;" d="M327.468,334.156v-89.638c0-5.514-4.485-9.999-9.999-9.999H206.157
					c-5.514,0-9.999,4.485-9.999,9.999v89.638c0,5.514,4.485,9.999,9.999,9.999h111.312
					C322.982,344.155,327.468,339.67,327.468,334.156z M292.98,334.156V280.25h24.49l0.004,53.905L292.98,334.156z M317.468,244.519
					l0.002,25.731H206.157l0-25.73L317.468,244.519z M206.157,280.25h76.823v53.906l-76.823,0.001L206.157,280.25z"/>
			</g>
			<path style="fill:#CECAE0;" d="M115.795,177.978h19.344c2.227,0,4.032-1.805,4.032-4.032s-1.805-4.032-4.032-4.032h-19.344
				c-2.227,0-4.032,1.805-4.032,4.032S113.568,177.978,115.795,177.978z"/>
			<path style="fill:#CECAE0;" d="M161.786,177.978h19.344c2.227,0,4.032-1.805,4.032-4.032s-1.805-4.032-4.032-4.032h-19.344
				c-2.227,0-4.032,1.805-4.032,4.032S159.559,177.978,161.786,177.978z"/>
			<path style="fill:#CECAE0;" d="M207.777,177.978h19.344c2.227,0,4.032-1.805,4.032-4.032s-1.805-4.032-4.032-4.032h-19.344
				c-2.227,0-4.032,1.805-4.032,4.032S205.55,177.978,207.777,177.978z"/>
			<path style="fill:#CECAE0;" d="M253.768,177.978h19.344c2.227,0,4.032-1.805,4.032-4.032s-1.805-4.032-4.032-4.032h-19.344
				c-2.227,0-4.032,1.805-4.032,4.032S251.541,177.978,253.768,177.978z"/>
			<path style="fill:#CECAE0;" d="M299.759,177.978h19.344c2.227,0,4.032-1.805,4.032-4.032s-1.805-4.032-4.032-4.032h-19.344
				c-2.227,0-4.032,1.805-4.032,4.032S297.533,177.978,299.759,177.978z"/>
		</g>
	</g>
</g>
<g>
</g>
<g>
</g>
<g>
</g>
<g>
</g>
<g>
</g>
<g>
</g>
<g>
</g>
<g>
</g>
<g>
</g>
<g>
</g>
<g>
</g>
<g>
</g>
<g>
</g>
<g>
</g>
<g>
</g>
</svg>
