<?xml version="1.0" encoding="iso-8859-1"?>
<!-- Generator: Adobe Illustrator 23.0.3, SVG Export Plug-In . SVG Version: 6.00 Build 0)  -->
<svg version="1.1" id="Capa_1" xmlns="http://www.w3.org/2000/svg" xmlns:xlink="http://www.w3.org/1999/xlink" x="0px" y="0px"
	 viewBox="0 0 512 512" style="enable-background:new 0 0 512 512;" xml:space="preserve">
<g>
	<linearGradient id="SVGID_1_" gradientUnits="userSpaceOnUse" x1="206.8671" y1="255.9993" x2="802.4096" y2="255.9993">
		<stop  offset="7.011211e-04" style="stop-color:#FFF0D5"/>
		<stop  offset="0.5112" style="stop-color:#FFDFFF"/>
		<stop  offset="1" style="stop-color:#D9CEFF"/>
	</linearGradient>
	<path style="fill:url(#SVGID_1_);" d="M382.606,174.015c-0.192-0.001-0.385-0.002-0.577-0.002
		c-32.034-0.05-62.385-13.844-83.44-37.986c-31.366-35.964-77.6-58.622-129.121-58.393C75.956,78.049-1.195,156.615,0.014,250.12
		c1.203,92.986,76.955,167.995,170.227,167.995c26.343,0,51.286-5.987,73.547-16.672c19.194-9.213,42.065-6.784,58.968,6.161
		c21.863,16.745,49.19,26.713,78.846,26.763c71.382,0.119,129.981-58.02,130.396-129.401
		C512.416,232.916,454.556,174.439,382.606,174.015z"/>
	<g>
		<g>
			<path style="opacity:0.1;fill:#590BB2;" d="M456,94.912v284.25c0,8.28-6.72,15-15,15H71c-8.28,0-15-6.72-15-15V94.912
				c0-8.28,6.72-15,15-15h370C449.28,79.912,456,86.632,456,94.912z"/>
			<g>
				<path style="fill:#F5F4F9;" d="M456,115.912v284.25c0,8.28-6.72,15-15,15H71c-8.28,0-15-6.72-15-15v-284.25
					c0-8.28,6.72-15,15-15h370C449.28,100.912,456,107.632,456,115.912z"/>
				<rect x="92.436" y="149.084" style="fill:#E8E6ED;" width="327.127" height="108.163"/>
				<path style="fill:#C182F9;" d="M456,149.084v-33.171c0-8.284-6.716-15-15-15H71c-8.284,0-15,6.716-15,15v33.171H456z"/>
			</g>
		</g>
		<g>
			<g>
				<path style="fill:#FFD5B8;" d="M175.463,280.317H92.537c-2.057,0-3.724-1.667-3.724-3.724v-66.78
					c0-2.057,1.667-3.724,3.724-3.724h82.926c2.057,0,3.724,1.667,3.724,3.724v66.78
					C179.187,278.649,177.52,280.317,175.463,280.317z"/>
				<g>
					<path style="fill:#DDD9E4;" d="M167.293,316.615h-66.586c-2.829,0-5.123-2.294-5.123-5.123s2.293-5.123,5.123-5.123h66.586
						c2.829,0,5.123,2.294,5.123,5.123S170.122,316.615,167.293,316.615z"/>
				</g>
			</g>
			<g>
				<path style="fill:#E2CCFF;" d="M297.463,280.317h-82.926c-2.057,0-3.724-1.667-3.724-3.724v-66.78
					c0-2.057,1.667-3.724,3.724-3.724h82.926c2.057,0,3.724,1.667,3.724,3.724v66.78
					C301.187,278.649,299.52,280.317,297.463,280.317z"/>
				<g>
					<path style="fill:#DDD9E4;" d="M289.293,316.615h-66.586c-2.829,0-5.123-2.294-5.123-5.123s2.293-5.123,5.123-5.123h66.586
						c2.829,0,5.123,2.294,5.123,5.123S292.122,316.615,289.293,316.615z"/>
				</g>
			</g>
			<g>
				<path style="fill:#FFE783;" d="M419.463,280.317h-82.926c-2.057,0-3.724-1.667-3.724-3.724v-66.78
					c0-2.057,1.667-3.724,3.724-3.724h82.926c2.057,0,3.724,1.667,3.724,3.724v66.78
					C423.187,278.649,421.52,280.317,419.463,280.317z"/>
				<g>
					<g>
						<path style="fill:#DDD9E4;" d="M411.293,316.615h-66.586c-2.829,0-5.123-2.294-5.123-5.123s2.293-5.123,5.123-5.123h66.586
							c2.829,0,5.123,2.294,5.123,5.123S414.122,316.615,411.293,316.615z"/>
					</g>
					<g>
						<path style="fill:#FFC136;" d="M419.463,201.088h-82.926c-4.811,0-8.725,3.914-8.725,8.725v66.779
							c0,4.811,3.914,8.725,8.725,8.725h82.926c4.811,0,8.725-3.914,8.725-8.725v-66.779
							C428.187,205.002,424.273,201.088,419.463,201.088z M418.187,238.202h-49.521v-27.114h49.521V238.202z M337.812,211.088
							h20.854v64.229h-20.854V211.088z M368.667,275.317v-27.114h49.521v27.114H368.667z"/>
						<path style="fill:#FFC136;" d="M393.293,325.37h-30.586c-2.829,0-5.123,2.293-5.123,5.123c0,2.829,2.293,5.123,5.123,5.123
							h30.586c2.829,0,5.123-2.294,5.123-5.123C398.415,327.663,396.122,325.37,393.293,325.37z"/>
					</g>
				</g>
			</g>
		</g>
		<path style="fill:#FFD5B8;" d="M157,381.631h-46c-1.657,0-3-1.343-3-3v-16.667c0-1.657,1.343-3,3-3h46c1.657,0,3,1.343,3,3v16.667
			C160,380.288,158.657,381.631,157,381.631z"/>
		<path style="fill:#E2CCFF;" d="M280.057,381.631h-46c-1.657,0-3-1.343-3-3v-16.667c0-1.657,1.343-3,3-3h46c1.657,0,3,1.343,3,3
			v16.667C283.057,380.288,281.714,381.631,280.057,381.631z"/>
		<path style="fill:#FFE783;" d="M403.115,381.631h-46c-1.657,0-3-1.343-3-3v-16.667c0-1.657,1.343-3,3-3h46c1.657,0,3,1.343,3,3
			v16.667C406.115,380.288,404.772,381.631,403.115,381.631z"/>
		<g>
			<path style="fill:#FFBE92;" d="M257.345,384.647l31.29,84.203c1.317,3.544,6.18,3.922,8.028,0.624l17.785-31.727
				c0.399-0.713,0.988-1.301,1.701-1.701l31.727-17.785c3.298-1.849,2.92-6.711-0.624-8.028l-84.203-31.29
				C259.49,377.62,256.023,381.088,257.345,384.647z"/>
			<g>
				<path style="fill:#590BB2;" d="M89.082,124.925v0.146c0,2.762,2.238,5,5,5s5-2.238,5-5v-0.146c0-2.762-2.238-5-5-5
					S89.082,122.163,89.082,124.925z"/>
				<path style="fill:#590BB2;" d="M108.407,124.925v0.146c0,2.762,2.238,5,5,5s5-2.238,5-5v-0.146c0-2.762-2.238-5-5-5
					S108.407,122.163,108.407,124.925z"/>
				<path style="fill:#590BB2;" d="M127.731,124.925v0.146c0,2.762,2.238,5,5,5s5-2.238,5-5v-0.146c0-2.762-2.238-5-5-5
					S127.731,122.163,127.731,124.925z"/>
				<path style="fill:#590BB2;" d="M441,95.912H71c-11.028,0-20,8.972-20,20v33.171c0,2.762,2.238,5,5,5h365.667
					c2.762,0,5-2.238,5-5s-2.238-5-5-5H61v-28.171c0-5.514,4.486-10,10-10h370c5.514,0,10,4.486,10,10V400.16
					c0,5.514-4.486,10-10,10h-86.865c-1.042-2.095-2.833-3.756-5.142-4.613l-84.203-31.29c-3.502-1.304-7.318-0.469-9.959,2.173
					c-2.642,2.642-3.475,6.458-2.173,9.959l8.834,23.771H71c-5.514,0-10-4.486-10-10V176.624c0-2.762-2.238-5-5-5s-5,2.238-5,5
					V400.16c0,11.028,8.972,20,20,20h194.208l18.741,50.433c1.296,3.487,4.405,5.833,8.115,6.12c0.254,0.02,0.507,0.029,0.758,0.029
					c3.414,0,6.51-1.801,8.203-4.823l17.708-31.588l31.589-17.708c1.139-0.638,2.092-1.484,2.853-2.463H441c11.028,0,20-8.972,20-20
					V115.912C461,104.884,452.028,95.912,441,95.912z M313.702,431.686c-1.517,0.851-2.767,2.102-3.615,3.615l-17.189,30.665
					l-30.438-81.908l81.908,30.438L313.702,431.686z"/>
			</g>
		</g>
		<path style="fill:#FFE783;" d="M245.073,468.646c-2.762,0-5-2.238-5-5c0-3.317-2.698-6.016-6.016-6.016c-2.762,0-5-2.238-5-5
			s2.238-5,5-5c3.317,0,6.016-2.699,6.016-6.017c0-2.762,2.238-5,5-5s5,2.238,5,5c0,3.317,2.698,6.017,6.016,6.017
			c2.762,0,5,2.238,5,5s-2.238,5-5,5c-3.317,0-6.016,2.698-6.016,6.016C250.073,466.408,247.835,468.646,245.073,468.646z"/>
		<g>
			<path style="fill:#FFA052;" d="M175.463,201.088H92.537c-4.811,0-8.725,3.914-8.725,8.725v66.779
				c0,4.811,3.914,8.725,8.725,8.725h82.926c4.811,0,8.725-3.914,8.725-8.725v-66.779
				C184.187,205.002,180.273,201.088,175.463,201.088z M174.187,211.088v16.619H93.812v-16.619H174.187z M93.812,237.707h54.683
				v37.609H93.812V237.707z M158.495,275.317v-37.609h15.692v37.609H158.495z"/>
			<path style="fill:#FFA052;" d="M149.293,325.37h-30.586c-2.829,0-5.123,2.293-5.123,5.123c0,2.829,2.293,5.123,5.123,5.123
				h30.586c2.829,0,5.123-2.294,5.123-5.123C154.415,327.663,152.122,325.37,149.293,325.37z"/>
			<path style="fill:#FFA052;" d="M245.588,65.004l-10.995-10.995c-1.951-1.953-5.119-1.953-7.07,0l-10.995,10.995
				c-0.938,0.938-1.465,2.209-1.465,3.535s0.527,2.598,1.465,3.536l10.995,10.994c0.977,0.976,2.256,1.464,3.535,1.464
				s2.559-0.488,3.535-1.464l10.995-10.994c0.938-0.938,1.465-2.21,1.465-3.536S246.526,65.942,245.588,65.004z M231.057,72.463
				l-3.924-3.924l3.924-3.924l3.924,3.924L231.057,72.463z"/>
		</g>
		<g>
			<path style="fill:#C182F9;" d="M297.463,201.088h-82.926c-4.811,0-8.725,3.914-8.725,8.725v66.779
				c0,4.811,3.914,8.725,8.725,8.725h82.926c4.811,0,8.725-3.914,8.725-8.725v-66.779
				C306.187,205.002,302.273,201.088,297.463,201.088z M296.187,239.707H270v-28.619h26.188V239.707z M260,211.088v28.619h-44.188
				v-28.619H260z M215.812,249.707H238v25.609h-22.188V249.707z M248,275.317v-25.609h48.188v25.609H248z"/>
			<path style="fill:#C182F9;" d="M271.293,325.37h-30.586c-2.829,0-5.123,2.293-5.123,5.123c0,2.829,2.293,5.123,5.123,5.123
				h30.586c2.829,0,5.123-2.294,5.123-5.123C276.415,327.663,274.122,325.37,271.293,325.37z"/>
			<path style="fill:#C182F9;" d="M183.43,46.274c-3.316,0-6.015-2.698-6.015-6.016c0-2.762-2.238-5-5-5s-5,2.238-5,5
				c0,3.317-2.699,6.016-6.017,6.016c-2.762,0-5,2.238-5,5s2.238,5,5,5c3.317,0,6.017,2.698,6.017,6.016c0,2.762,2.238,5,5,5
				s5-2.238,5-5c0-3.317,2.698-6.016,6.015-6.016c2.762,0,5-2.238,5-5S186.192,46.274,183.43,46.274z"/>
			<path style="fill:#C182F9;" d="M367.74,65.004l-10.995-10.995c-1.951-1.953-5.119-1.953-7.07,0L338.68,65.004
				c-0.938,0.938-1.465,2.209-1.465,3.535s0.527,2.598,1.465,3.536l10.995,10.994c0.977,0.976,2.256,1.464,3.535,1.464
				s2.559-0.488,3.535-1.464l10.995-10.994c0.938-0.938,1.465-2.21,1.465-3.536S368.679,65.942,367.74,65.004z M353.21,72.463
				l-3.924-3.924l3.924-3.924l3.924,3.924L353.21,72.463z"/>
		</g>
	</g>
</g>
<g>
</g>
<g>
</g>
<g>
</g>
<g>
</g>
<g>
</g>
<g>
</g>
<g>
</g>
<g>
</g>
<g>
</g>
<g>
</g>
<g>
</g>
<g>
</g>
<g>
</g>
<g>
</g>
<g>
</g>
</svg>
