<?xml version="1.0" encoding="iso-8859-1"?>
<!-- Generator: Adobe Illustrator 23.0.3, SVG Export Plug-In . SVG Version: 6.00 Build 0)  -->
<svg version="1.1" id="Capa_1" xmlns="http://www.w3.org/2000/svg" xmlns:xlink="http://www.w3.org/1999/xlink" x="0px" y="0px"
	 viewBox="0 0 512 512" style="enable-background:new 0 0 512 512;" xml:space="preserve">
<g>
	<linearGradient id="SVGID_1_" gradientUnits="userSpaceOnUse" x1="163.7567" y1="256" x2="1007.3747" y2="256">
		<stop  offset="7.011211e-04" style="stop-color:#FFF0D5"/>
		<stop  offset="0.5112" style="stop-color:#FFDFFF"/>
		<stop  offset="1" style="stop-color:#D9CEFF"/>
	</linearGradient>
	<path style="fill:url(#SVGID_1_);" d="M310.075,89.353C288.645,36.684,236.804-0.37,176.349,0.003
		C99.225,0.478,35.813,62.687,33.942,139.789c-0.923,38.04,12.978,72.821,36.334,98.983c18.619,20.856,27.963,48.325,27.021,76.268
		c-0.125,3.714-0.144,7.455-0.052,11.22c2.464,101.4,89.087,185.801,190.517,185.74c105.133-0.063,190.34-85.31,190.34-190.457
		c0-77.074-45.784-143.448-111.637-173.423C340.798,136.437,320.703,115.473,310.075,89.353z"/>
	<g>
		<g>
			<path style="opacity:0.1;fill:#590BB2;" d="M456,103.375v284.25c0,8.28-6.72,15-15,15H71c-8.28,0-15-6.72-15-15v-284.25
				c0-8.28,6.72-15,15-15h370C449.28,88.375,456,95.095,456,103.375z"/>
			<g>
				<g>
					<g>
						<g>
							<path style="fill:#F5F4F9;" d="M456,124.375v284.25c0,8.28-6.72,15-15,15H71c-8.28,0-15-6.72-15-15v-284.25
								c0-8.28,6.72-15,15-15h370C449.28,109.375,456,116.095,456,124.375z"/>
							<path style="fill:#E2CCFF;" d="M417.713,423.624H94.287V396.5c0-1.657,1.343-3,3-3h317.425c1.657,0,3,1.343,3,3V423.624z"/>
							<path style="fill:#E8E6ED;" d="M94.287,157.545h323.425v21.124c0,1.657-1.343,3-3,3H97.287c-1.657,0-3-1.343-3-3V157.545z"/>
							<path style="fill:#C182F9;" d="M456,157.545v-33.171c0-8.284-6.716-15-15-15H71c-8.284,0-15,6.716-15,15v33.171H456z"/>
						</g>
						<g>
							<path style="fill:#590BB2;" d="M94.082,138.532c-2.762,0-5-2.239-5-5v-0.145c0-2.761,2.238-5,5-5s5,2.239,5,5v0.145
								C99.082,136.293,96.844,138.532,94.082,138.532z"/>
							<path style="fill:#590BB2;" d="M113.407,138.532c-2.762,0-5-2.239-5-5v-0.145c0-2.761,2.238-5,5-5s5,2.239,5,5v0.145
								C118.407,136.293,116.169,138.532,113.407,138.532z"/>
							<path style="fill:#590BB2;" d="M132.731,138.532c-2.762,0-5-2.239-5-5v-0.145c0-2.761,2.238-5,5-5s5,2.239,5,5v0.145
								C137.731,136.293,135.493,138.532,132.731,138.532z"/>
						</g>
						<g>
							<path style="fill:#590BB2;" d="M441,104.374H71c-11.028,0-20,8.972-20,20v33.224c0,2.761,2.238,5,5,5
								c0.179,0,0.349-0.034,0.523-0.053H456c2.762,0,5-2.239,5-5v-33.171C461,113.346,452.028,104.374,441,104.374z M71,114.374
								h370c5.514,0,10,4.486,10,10v28.171H61v-28.171C61,118.859,65.486,114.374,71,114.374z"/>
							<path style="fill:#590BB2;" d="M456,180.085c-2.762,0-5,2.239-5,5v223.535c0,5.514-4.486,10-10,10H71
								c-5.514,0-10-4.486-10-10V185.033c0-2.761-2.238-5-5-5s-5,2.239-5,5v223.588c0,11.028,8.972,20,20,20h370
								c11.028,0,20-8.972,20-20V185.085C461,182.324,458.762,180.085,456,180.085z"/>
						</g>
					</g>
				</g>
				<g>
					<g>
						<g>
							<path style="fill:#FFA052;" d="M213.954,286.344H97.287c-1.657,0-3-1.343-3-3v-81.149c0-1.657,1.343-3,3-3h116.667
								c1.657,0,3,1.343,3,3v81.149C216.954,285.001,215.611,286.344,213.954,286.344z"/>
							<path style="fill:#F5F4F9;" d="M141.122,229.407v26.724c0,2.313,2.507,3.756,4.507,2.594l22.997-13.362
								c1.99-1.157,1.99-4.031,0-5.188l-22.997-13.362C143.629,225.651,141.122,227.094,141.122,229.407z"/>
						</g>
						<g>
							<g>
								<path style="fill:#DDD9E4;" d="M238.45,355.771H99.296c-2.766,0-5.008-2.242-5.008-5.008c0-2.766,2.242-5.008,5.008-5.008
									H238.45c2.766,0,5.008,2.242,5.008,5.008C243.458,353.529,241.216,355.771,238.45,355.771z"/>
							</g>
							<g>
								<path style="fill:#C182F9;" d="M238.45,318.787h-68.32c-2.766,0-5.008-2.242-5.008-5.008s2.242-5.008,5.008-5.008h68.32
									c2.766,0,5.008,2.242,5.008,5.008S241.216,318.787,238.45,318.787z"/>
							</g>
							<g>
								<path style="fill:#DDD9E4;" d="M238.45,375.637H99.296c-2.766,0-5.008-2.242-5.008-5.008c0-2.766,2.242-5.008,5.008-5.008
									H238.45c2.766,0,5.008,2.242,5.008,5.008C243.458,373.394,241.216,375.637,238.45,375.637z"/>
							</g>
						</g>
						<g>
							<g>
								<path style="fill:#DDD9E4;" d="M412.704,245.985H245.962c-2.766,0-5.008-2.242-5.008-5.008c0-2.766,2.242-5.008,5.008-5.008
									h166.742c2.766,0,5.008,2.242,5.008,5.008C417.713,243.743,415.471,245.985,412.704,245.985z"/>
							</g>
							<g>
								<path style="fill:#FFBE92;" d="M352.704,209.211H245.962c-2.766,0-5.008-2.242-5.008-5.008c0-2.766,2.242-5.008,5.008-5.008
									h106.742c2.766,0,5.008,2.242,5.008,5.008C357.713,206.968,355.471,209.211,352.704,209.211z"/>
							</g>
							<g>
								<path style="fill:#DDD9E4;" d="M412.704,265.851H245.962c-2.766,0-5.008-2.242-5.008-5.008c0-2.766,2.242-5.008,5.008-5.008
									h166.742c2.766,0,5.008,2.242,5.008,5.008C417.713,263.609,415.471,265.851,412.704,265.851z"/>
							</g>
							<g>
								<path style="fill:#DDD9E4;" d="M412.704,286.135H245.962c-2.766,0-5.008-2.242-5.008-5.008c0-2.766,2.242-5.008,5.008-5.008
									h166.742c2.766,0,5.008,2.242,5.008,5.008C417.713,283.892,415.471,286.135,412.704,286.135z"/>
							</g>
						</g>
					</g>
					<path style="fill:#C182F9;" d="M414.713,375.637H265.996c-1.657,0-3-1.343-3-3v-60.866c0-1.657,1.343-3,3-3h148.717
						c1.657,0,3,1.343,3,3v60.866C417.713,374.294,416.369,375.637,414.713,375.637z"/>
					<g>
						<circle style="fill:#E2CCFF;" cx="357.264" cy="342.204" r="5.59"/>
						<circle style="fill:#E2CCFF;" cx="340.354" cy="342.204" r="5.59"/>
						<circle style="fill:#E2CCFF;" cx="323.444" cy="342.204" r="5.59"/>
					</g>
				</g>
			</g>
		</g>
		<path style="fill:#C182F9;" d="M106.688,475.142L106.688,475.142c-1.326,0-2.598-0.527-3.535-1.464l-11.018-11.018
			c-1.953-1.953-1.953-5.119,0-7.071l11.018-11.018c0.938-0.938,2.209-1.464,3.535-1.464s2.598,0.527,3.535,1.464l11.019,11.018
			c0.938,0.938,1.465,2.209,1.465,3.536s-0.526,2.598-1.465,3.536l-11.019,11.018C109.286,474.615,108.015,475.142,106.688,475.142z
			 M102.742,459.124l3.946,3.947l3.947-3.947l-3.947-3.947L102.742,459.124z"/>
		<path style="fill:#C182F9;" d="M288.982,61.982c-1.326,0-2.598-0.527-3.535-1.464L274.429,49.5
			c-0.938-0.938-1.465-2.209-1.465-3.536s0.527-2.598,1.465-3.536l11.019-11.018c1.951-1.952,5.119-1.952,7.07,0l11.018,11.018
			c1.953,1.953,1.953,5.119,0,7.071l-11.018,11.018C291.58,61.455,290.309,61.982,288.982,61.982z M285.035,45.964l3.947,3.947
			l3.946-3.947l-3.946-3.947L285.035,45.964z"/>
		<path style="fill:#FFA052;" d="M417.713,482.054c-1.279,0-2.559-0.488-3.535-1.464l-11.019-11.018
			c-0.938-0.938-1.465-2.209-1.465-3.536s0.526-2.598,1.465-3.536l11.019-11.018c0.938-0.938,2.209-1.464,3.535-1.464l0,0
			c1.326,0,2.598,0.527,3.535,1.464l11.018,11.018c1.953,1.953,1.953,5.119,0,7.071l-11.018,11.018
			C420.272,481.565,418.992,482.054,417.713,482.054z M413.766,466.036l3.947,3.947l3.946-3.947l-3.946-3.947L413.766,466.036z"/>
		<path style="fill:#FFE783;" d="M340.354,73c-2.762,0-5-2.239-5-5c0-3.318-2.7-6.018-6.019-6.018c-2.762,0-5-2.239-5-5s2.238-5,5-5
			c3.318,0,6.019-2.7,6.019-6.018c0-2.761,2.238-5,5-5s5,2.239,5,5c0,3.318,2.699,6.018,6.018,6.018c2.762,0,5,2.239,5,5
			s-2.238,5-5,5c-3.318,0-6.018,2.7-6.018,6.018C345.354,70.761,343.116,73,340.354,73z"/>
	</g>
</g>
<g>
</g>
<g>
</g>
<g>
</g>
<g>
</g>
<g>
</g>
<g>
</g>
<g>
</g>
<g>
</g>
<g>
</g>
<g>
</g>
<g>
</g>
<g>
</g>
<g>
</g>
<g>
</g>
<g>
</g>
</svg>
