<?xml version="1.0" encoding="iso-8859-1"?>
<!-- Generator: Adobe Illustrator 23.0.3, SVG Export Plug-In . SVG Version: 6.00 Build 0)  -->
<svg version="1.1" id="Capa_1" xmlns="http://www.w3.org/2000/svg" xmlns:xlink="http://www.w3.org/1999/xlink" x="0px" y="0px"
	 viewBox="0 0 512 512" style="enable-background:new 0 0 512 512;" xml:space="preserve">
<g>
	<linearGradient id="SVGID_1_" gradientUnits="userSpaceOnUse" x1="215.7087" y1="256" x2="852.3452" y2="256">
		<stop  offset="7.011211e-04" style="stop-color:#FFF0D5"/>
		<stop  offset="0.5112" style="stop-color:#FFDFFF"/>
		<stop  offset="1" style="stop-color:#D9CEFF"/>
	</linearGradient>
	<path style="fill:url(#SVGID_1_);" d="M408.228,154.262c-23.697-9.236-43.717-26.089-55.961-48.381
		c-20.59-37.487-60.43-62.898-106.221-62.898c-47.53,0-88.646,27.377-108.477,67.219c-12.146,24.401-32.814,43.56-58.09,53.761
		c-37.349,15.074-68.703,49.524-78.653,103.382c-1.092,5.91-1.108,11.986-0.016,17.896c15.448,83.572,82.399,120.435,143.334,110.66
		c34.126-5.474,68.672,5.909,93.967,29.462c51.434,47.892,133.884,62.907,213.923,11.57c9.377-6.014,21.957-18.634,27.966-28.015
		C548.967,301.248,497.879,189.204,408.228,154.262z"/>
	<g>
		<g>
			<g>
				<path style="opacity:0.1;fill:#590BB2;" d="M456,99.539v254.25c0,8.28-6.72,15-15,15H71c-8.28,0-15-6.72-15-15V99.539
					c0-8.28,6.72-15,15-15h370C449.28,84.539,456,91.258,456,99.539z"/>
				<g>
					<g>
						<polygon style="fill:#AFABC6;" points="312.71,462.495 199.289,462.495 221.971,372.591 290.028,372.591 						"/>
						<polygon style="fill:#8E8CA8;" points="297.928,403.893 214.071,403.893 221.971,372.591 290.028,372.591 						"/>
						<g>
							<path style="fill:#F5F4F9;" d="M456,120.542v254.25c0,8.28-6.72,15-15,15H71c-8.28,0-15-6.72-15-15v-254.25
								c0-8.28,6.72-15,15-15h370C449.28,105.542,456,112.262,456,120.542z"/>
							<rect x="130.87" y="153.713" style="fill:#FFEADC;" width="250.26" height="185.686"/>
							<path style="fill:#FFA052;" d="M456,153.713v-33.171c0-8.284-6.716-15-15-15H71c-8.284,0-15,6.716-15,15v33.171H456z"/>
							<path style="fill:#CECAE0;" d="M56,339.399v35.39c0,8.284,6.716,15,15,15h370c8.284,0,15-6.716,15-15v-35.39H56z"/>
						</g>
						<g>
							<path style="fill:#590BB2;" d="M94.082,124.555c-2.762,0-5,2.238-5,5v0.146c0,2.762,2.238,5,5,5s5-2.238,5-5v-0.146
								C99.082,126.793,96.844,124.555,94.082,124.555z"/>
							<path style="fill:#590BB2;" d="M113.407,124.555c-2.762,0-5,2.238-5,5v0.146c0,2.762,2.238,5,5,5s5-2.238,5-5v-0.146
								C118.407,126.793,116.169,124.555,113.407,124.555z"/>
							<path style="fill:#590BB2;" d="M132.731,124.555c-2.762,0-5,2.238-5,5v0.146c0,2.762,2.238,5,5,5s5-2.238,5-5v-0.146
								C137.731,126.793,135.493,124.555,132.731,124.555z"/>
							<path style="fill:#590BB2;" d="M441,100.541H71c-11.028,0-20,8.972-20,20v33.172c0,2.762,2.238,5,5,5h395v153.146
								c0,2.762,2.238,5,5,5s5-2.238,5-5V120.541C461,109.513,452.028,100.541,441,100.541z M451,148.713H61v-28.172
								c0-5.514,4.486-10,10-10h370c5.514,0,10,4.486,10,10V148.713z"/>
							<path style="fill:#590BB2;" d="M456,334.399H61V181.253c0-2.762-2.238-5-5-5s-5,2.238-5,5v193.536c0,11.028,8.972,20,20,20
								h140.215l-15.819,62.701h-15.329c-2.762,0-5,2.238-5,5s2.238,5,5,5h151.867c2.762,0,5-2.238,5-5s-2.238-5-5-5h-15.33
								l-15.819-62.701H441c11.028,0,20-8.972,20-20v-35.39C461,336.638,458.762,334.399,456,334.399z M306.291,457.49H205.708
								l15.819-62.701h68.946L306.291,457.49z M451,374.789c0,5.514-4.486,10-10,10H71c-5.514,0-10-4.486-10-10v-30.39h390V374.789z
								"/>
						</g>
					</g>
				</g>
			</g>
			<g>
				<g>
					<path style="fill:#FFA052;" d="M210.434,184.432c-4.778,0-8.652,3.873-8.652,8.652v13.731h-9.729v-13.731
						c0-4.779-3.874-8.652-8.652-8.652c-4.778,0-8.652,3.873-8.652,8.652v22.383c0,4.779,3.874,8.652,8.652,8.652h18.381v19.916
						c0,4.779,3.874,8.652,8.652,8.652c4.778,0,8.652-3.873,8.652-8.652v-50.95C219.086,188.305,215.212,184.432,210.434,184.432z"
						/>
					<path style="fill:#FFA052;" d="M328.598,184.432c-4.778,0-8.652,3.873-8.652,8.652v13.731h-9.729v-13.731
						c0-4.779-3.874-8.652-8.652-8.652c-4.778,0-8.652,3.873-8.652,8.652v22.383c0,4.779,3.874,8.652,8.652,8.652h18.381v19.916
						c0,4.779,3.874,8.652,8.652,8.652c4.778,0,8.652-3.873,8.652-8.652v-50.95C337.25,188.305,333.376,184.432,328.598,184.432z"/>
					<path style="fill:#FFA052;" d="M260.862,183.898h-9.224c-11.261,0-20.423,9.162-20.423,20.423v28.476
						c0,11.261,9.162,20.423,20.423,20.423h9.224c11.261,0,20.423-9.162,20.423-20.423v-28.476
						C281.285,193.06,272.123,183.898,260.862,183.898z M263.982,232.797c0,1.72-1.399,3.119-3.119,3.119h-9.224
						c-1.72,0-3.119-1.399-3.119-3.119v-28.476c0-1.72,1.399-3.119,3.119-3.119h9.224c1.72,0,3.119,1.399,3.119,3.119V232.797z"/>
				</g>
				<g>
					<g>
						<path style="fill:#C182F9;" d="M387.982,294.083c-1.279,0-2.56-0.488-3.535-1.465c-1.135-1.135-2.644-1.759-4.248-1.759
							s-3.113,0.624-4.248,1.759c-1.951,1.953-5.119,1.953-7.07,0c-0.977-0.976-1.465-2.256-1.465-3.535s0.488-2.56,1.465-3.535
							c1.135-1.135,1.759-2.644,1.759-4.248s-0.624-3.113-1.759-4.248c-0.977-0.976-1.465-2.256-1.465-3.535s0.488-2.56,1.465-3.535
							c1.951-1.953,5.119-1.953,7.07,0c1.135,1.135,2.644,1.759,4.248,1.759s3.113-0.624,4.248-1.759
							c1.951-1.953,5.119-1.953,7.07,0c0.977,0.976,1.465,2.256,1.465,3.535s-0.488,2.56-1.465,3.535
							c-1.135,1.135-1.759,2.644-1.759,4.248s0.624,3.113,1.759,4.248c0.977,0.976,1.465,2.256,1.465,3.535s-0.488,2.56-1.465,3.535
							C390.542,293.595,389.262,294.083,387.982,294.083z"/>
						<path style="fill:#C182F9;" d="M387.982,258.22c-1.279,0-2.56-0.488-3.535-1.465c-1.135-1.135-2.644-1.76-4.248-1.76
							s-3.113,0.625-4.248,1.76c-1.951,1.953-5.119,1.953-7.07,0c-0.977-0.976-1.465-2.256-1.465-3.535s0.488-2.56,1.465-3.535
							c1.135-1.135,1.759-2.644,1.759-4.248s-0.624-3.112-1.759-4.246c-0.977-0.977-1.465-2.256-1.465-3.535
							c0-1.28,0.488-2.56,1.464-3.536c1.953-1.953,5.118-1.952,7.071-0.001c2.342,2.342,6.154,2.342,8.496,0
							c1.953-1.953,5.118-1.952,7.071,0.001c0.976,0.977,1.464,2.256,1.464,3.536c0,1.279-0.488,2.559-1.465,3.535
							c-1.135,1.134-1.759,2.642-1.759,4.246s0.624,3.113,1.759,4.248c0.977,0.976,1.465,2.256,1.465,3.535s-0.488,2.56-1.465,3.535
							C390.542,257.731,389.262,258.22,387.982,258.22z"/>
					</g>
					<g>
						<path style="fill:#C182F9;" d="M139.584,237.792c-1.279,0-2.559-0.488-3.535-1.464c-2.342-2.342-6.154-2.342-8.496,0
							c-1.954,1.951-5.119,1.951-7.071-0.001c-0.976-0.977-1.464-2.256-1.464-3.536c0-1.279,0.488-2.559,1.465-3.535
							c1.135-1.134,1.759-2.643,1.759-4.246c0-1.604-0.624-3.113-1.759-4.247c-0.977-0.977-1.465-2.256-1.465-3.535
							c0-1.28,0.488-2.56,1.464-3.536c1.953-1.953,5.118-1.952,7.071-0.001c2.342,2.342,6.154,2.342,8.496,0
							c1.954-1.953,5.119-1.952,7.071,0.001c0.976,0.977,1.464,2.256,1.464,3.536c0,1.279-0.488,2.559-1.465,3.535
							c-1.135,1.134-1.759,2.643-1.759,4.247c0,1.604,0.624,3.112,1.759,4.246c0.977,0.977,1.465,2.256,1.465,3.535
							c0,1.28-0.488,2.56-1.464,3.536C142.144,237.304,140.863,237.792,139.584,237.792z"/>
						<path style="fill:#C182F9;" d="M139.584,201.929c-1.279,0-2.559-0.488-3.535-1.464c-2.342-2.342-6.154-2.342-8.496,0
							c-1.954,1.951-5.119,1.951-7.071-0.001c-0.976-0.977-1.464-2.256-1.464-3.536c0-1.279,0.488-2.559,1.465-3.535
							c1.135-1.134,1.759-2.643,1.759-4.246c0-1.604-0.624-3.113-1.759-4.248c-0.977-0.976-1.465-2.256-1.465-3.535
							s0.488-2.56,1.465-3.535c1.951-1.953,5.119-1.953,7.07,0c1.135,1.135,2.644,1.759,4.248,1.759s3.113-0.624,4.248-1.759
							c1.951-1.953,5.119-1.953,7.07,0c0.977,0.976,1.465,2.256,1.465,3.535s-0.488,2.56-1.465,3.535
							c-1.135,1.135-1.759,2.644-1.759,4.248c0,1.604,0.624,3.112,1.759,4.246c0.977,0.977,1.465,2.256,1.465,3.535
							c0,1.28-0.488,2.56-1.464,3.536C142.144,201.44,140.863,201.929,139.584,201.929z"/>
					</g>
				</g>
			</g>
			<g>
				<g>
					<path style="fill:#FFA052;" d="M235.929,290.128h90.087c2.833,0,5.129-2.296,5.129-5.129c0-2.832-2.296-5.129-5.129-5.129
						h-90.087c-2.833,0-5.129,2.296-5.129,5.129C230.8,287.832,233.096,290.128,235.929,290.128z"/>
				</g>
				<g>
					<path style="fill:#D6B0FF;" d="M185.984,290.128h24.606c2.833,0,5.129-2.296,5.129-5.129c0-2.832-2.296-5.129-5.129-5.129
						h-24.606c-2.833,0-5.129,2.296-5.129,5.129C180.856,287.832,183.152,290.128,185.984,290.128z"/>
				</g>
				<g>
					<path style="fill:#FFBE92;" d="M185.984,310.472h140.031c2.833,0,5.129-2.296,5.129-5.129c0-2.832-2.296-5.129-5.129-5.129
						H185.984c-2.833,0-5.129,2.296-5.129,5.129C180.856,308.176,183.152,310.472,185.984,310.472z"/>
				</g>
			</g>
		</g>
		<path style="fill:#FFA052;" d="M343.138,76.494c-1.279,0-2.559-0.488-3.535-1.464l-10.995-10.994
			c-0.938-0.938-1.465-2.21-1.465-3.536s0.526-2.598,1.465-3.535l10.995-10.995c1.951-1.953,5.119-1.953,7.07,0l10.995,10.995
			c0.938,0.938,1.465,2.209,1.465,3.535s-0.527,2.598-1.465,3.536L346.673,75.03C345.696,76.006,344.417,76.494,343.138,76.494z
			 M339.214,60.5l3.924,3.924l3.924-3.924l-3.924-3.924L339.214,60.5z"/>
		<path style="fill:#C182F9;" d="M132.731,460.512c-1.279,0-2.56-0.488-3.535-1.465l-10.995-10.995
			c-0.938-0.938-1.465-2.209-1.465-3.535s0.527-2.598,1.465-3.536l10.995-10.994c1.953-1.951,5.117-1.951,7.07,0l10.995,10.994
			c0.938,0.938,1.465,2.21,1.465,3.536s-0.526,2.598-1.465,3.535l-10.995,10.995C135.291,460.023,134.011,460.512,132.731,460.512z
			 M128.808,444.517l3.924,3.924l3.924-3.924l-3.924-3.924L128.808,444.517z"/>
		<path style="fill:#FFA052;" d="M363.204,439.538c-1.279,0-2.56-0.488-3.535-1.465l-10.995-10.995
			c-0.938-0.938-1.465-2.209-1.465-3.535s0.527-2.598,1.465-3.536l10.995-10.994c1.953-1.951,5.117-1.951,7.07,0l10.995,10.994
			c0.938,0.938,1.465,2.21,1.465,3.536s-0.526,2.598-1.465,3.535l-10.995,10.995C365.764,439.05,364.483,439.538,363.204,439.538z
			 M359.28,423.543l3.924,3.924l3.924-3.924l-3.924-3.924L359.28,423.543z"/>
		<path style="fill:#C182F9;" d="M413.026,466.512c-1.279,0-2.56-0.488-3.535-1.465l-10.995-10.995
			c-0.938-0.938-1.465-2.209-1.465-3.535s0.527-2.598,1.465-3.536l10.995-10.994c1.953-1.951,5.117-1.951,7.07,0l10.995,10.994
			c0.938,0.938,1.465,2.21,1.465,3.536s-0.526,2.598-1.465,3.535l-10.995,10.995C415.586,466.023,414.306,466.512,413.026,466.512z
			 M409.103,450.517l3.924,3.924l3.924-3.924l-3.924-3.924L409.103,450.517z"/>
	</g>
</g>
<g>
</g>
<g>
</g>
<g>
</g>
<g>
</g>
<g>
</g>
<g>
</g>
<g>
</g>
<g>
</g>
<g>
</g>
<g>
</g>
<g>
</g>
<g>
</g>
<g>
</g>
<g>
</g>
<g>
</g>
</svg>
