<?xml version="1.0" encoding="iso-8859-1"?>
<!-- Generator: Adobe Illustrator 23.0.3, SVG Export Plug-In . SVG Version: 6.00 Build 0)  -->
<svg version="1.1" id="Capa_1" xmlns="http://www.w3.org/2000/svg" xmlns:xlink="http://www.w3.org/1999/xlink" x="0px" y="0px"
	 viewBox="0 0 512 512" style="enable-background:new 0 0 512 512;" xml:space="preserve">
<g>
	<linearGradient id="SVGID_1_" gradientUnits="userSpaceOnUse" x1="215.7087" y1="256.0012" x2="852.3452" y2="256.0012">
		<stop  offset="7.011211e-04" style="stop-color:#FFF0D5"/>
		<stop  offset="0.5112" style="stop-color:#FFDFFF"/>
		<stop  offset="1" style="stop-color:#D9CEFF"/>
	</linearGradient>
	<path style="fill:url(#SVGID_1_);" d="M408.228,154.263c-23.697-9.236-43.717-26.089-55.961-48.381
		c-20.59-37.487-60.43-62.898-106.221-62.898c-47.53,0-88.646,27.377-108.477,67.219c-12.146,24.401-32.814,43.56-58.09,53.761
		c-37.349,15.074-68.703,49.524-78.653,103.382c-1.092,5.91-1.108,11.986-0.016,17.896c15.448,83.572,82.399,120.435,143.334,110.66
		c34.126-5.474,68.672,5.909,93.967,29.462c51.434,47.892,133.884,62.907,213.923,11.57c9.377-6.014,21.957-18.634,27.966-28.015
		C548.967,301.249,497.879,189.205,408.228,154.263z"/>
	<g>
		<path style="opacity:0.1;fill:#590BB2;" d="M450.488,102.191h-81.423V64.162c0-9.936-8.057-17.993-17.993-17.993H147.946
			c-9.936,0-17.993,8.057-17.993,17.993v58.232h-83.97c-4.133,0-7.483,3.386-7.483,7.564v70.937c0,4.177,3.35,7.564,7.483,7.564
			h83.97v39.848h-83.97c-4.133,0-7.483,3.386-7.483,7.564v131.302c0,4.177,3.35,7.564,7.483,7.564h83.97v33.862
			c0,9.936,8.057,17.993,17.993,17.993h203.126c9.936,0,17.993-8.057,17.993-17.993v-88.407h36.782c5.501,0,9.96-4.507,9.96-10.068
			v-48.116c0-5.56-4.459-10.068-9.96-10.068h-36.782v-51.709h81.423c5.54,0,10.031-4.491,10.031-10.031v-97.978
			C460.519,106.682,456.028,102.191,450.488,102.191z"/>
		<g>
			<g>
				<g>
					<g>
						<path style="fill:#F5F4F9;" d="M369.065,85.154v364.437c0,9.936-8.057,17.993-17.993,17.993H147.946
							c-9.936,0-17.993-8.057-17.993-17.993V85.154c0-9.936,8.057-17.993,17.993-17.993h203.126
							C361.008,67.161,369.065,75.218,369.065,85.154z"/>
						<path style="fill:#E8E6ED;" d="M369.065,307.923v68.255h-19.073c-5.498,0-9.966-4.508-9.966-10.066v-48.112
							c0-5.568,4.468-10.076,9.966-10.076H369.065z"/>
						<path style="fill:#E8E6ED;" d="M161.271,165.945v70.934c0,4.178-3.349,7.567-7.477,7.567h-23.841v-86.069h23.841
							C157.923,158.378,161.271,161.766,161.271,165.945z"/>
						<path style="fill:#E8E6ED;" d="M161.271,291.859v131.302c0,4.178-3.349,7.567-7.477,7.567h-23.841V284.292h23.841
							C157.923,284.292,161.271,287.68,161.271,291.859z"/>
						<path style="fill:#E8E6ED;" d="M369.065,138.175v118.047H328.85c-5.538,0-10.036-4.498-10.036-10.036v-97.974
							c0-5.538,4.498-10.036,10.036-10.036H369.065z"/>
						<path style="fill:#FFD5B8;" d="M369.066,170.786V85.249c0-9.991-8.013-18.09-17.896-18.09H147.849
							c-9.884,0-17.896,8.099-17.896,18.09v85.537H369.066z"/>
						<path style="fill:#CECAE0;" d="M320.789,91.966l7.993-24.808H170.237l7.993,24.808c1.157,3.592,4.47,6.024,8.208,6.024
							h126.144C316.319,97.99,319.632,95.559,320.789,91.966z"/>
						<path style="fill:#590BB2;" d="M312.582,102.99H186.438c-5.927,0-11.138-3.814-12.967-9.49l-7.993-24.808
							c-0.847-2.628,0.598-5.445,3.226-6.292c2.629-0.848,5.446,0.598,6.292,3.226l7.993,24.808
							c0.493,1.529,1.879,2.557,3.449,2.557h126.144c1.57,0,2.956-1.028,3.449-2.558l7.992-24.807
							c0.847-2.628,3.663-4.073,6.292-3.226c2.628,0.847,4.073,3.664,3.226,6.292l-7.993,24.808
							C323.719,99.176,318.508,102.99,312.582,102.99z"/>
						<path style="fill:#590BB2;" d="M351.073,472.582H147.946c-12.679,0-22.993-10.315-22.993-22.993v-31.254c0-2.761,2.239-5,5-5
							s5,2.239,5,5v31.254c0,7.165,5.829,12.993,12.993,12.993h203.127c7.165,0,12.993-5.829,12.993-12.993V362.72
							c0-2.761,2.239-5,5-5s5,2.239,5,5v86.869C374.066,462.267,363.752,472.582,351.073,472.582z"/>
						<path style="fill:#590BB2;" d="M369.066,296.335c-2.761,0-5-2.239-5-5v-48c0-2.761,2.239-5,5-5s5,2.239,5,5v48
							C374.066,294.096,371.828,296.335,369.066,296.335z"/>
						<path style="fill:#590BB2;" d="M129.953,145.386c-2.761,0-5-2.239-5-5V85.152c0-12.679,10.314-22.993,22.993-22.993h203.127
							c12.679,0,22.993,10.314,22.993,22.993v35.85c0,2.761-2.239,5-5,5s-5-2.239-5-5v-35.85c0-7.165-5.829-12.993-12.993-12.993
							H147.946c-7.165,0-12.993,5.829-12.993,12.993v55.235C134.953,143.148,132.714,145.386,129.953,145.386z"/>
						<path style="fill:#590BB2;" d="M129.953,274.3c-2.761,0-5-2.239-5-5v-36.965c0-2.761,2.239-5,5-5s5,2.239,5,5V269.3
							C134.953,272.061,132.714,274.3,129.953,274.3z"/>
					</g>
				</g>
				<g>
					<g>
						<ellipse style="fill:#FFA052;" cx="249.509" cy="242.122" rx="44.789" ry="45.274"/>
						<path style="fill:#F5F4F9;" d="M261.866,248.671c3.441-3.299,5.6-7.945,5.6-13.098c0-9.979-8.056-18.098-17.958-18.098
							c-9.901,0-17.957,8.119-17.957,18.098c0,5.153,2.159,9.799,5.6,13.098c-3.441,3.299-5.6,7.945-5.6,13.098c0,2.761,2.239,5,5,5
							s5-2.239,5-5c0-4.465,3.569-8.098,7.957-8.098s7.958,3.633,7.958,8.098c0,2.761,2.239,5,5,5s5-2.239,5-5
							C267.467,256.616,265.308,251.97,261.866,248.671z M241.552,235.573c0-4.465,3.569-8.098,7.957-8.098s7.958,3.633,7.958,8.098
							s-3.57,8.098-7.958,8.098S241.552,240.038,241.552,235.573z"/>
					</g>
					<g>
						<g>
							<path style="fill:#DDD9E4;" d="M282.646,326.398h-66.273c-2.816,0-5.099-2.308-5.099-5.154s2.282-5.154,5.099-5.154h66.273
								c2.816,0,5.099,2.308,5.099,5.154S285.462,326.398,282.646,326.398z"/>
						</g>
						<g>
							<path style="fill:#C182F9;" d="M264.731,345.514h-30.442c-2.816,0-5.099-2.308-5.099-5.154c0-2.846,2.282-5.154,5.099-5.154
								h30.442c2.816,0,5.099,2.308,5.099,5.154C269.829,343.206,267.547,345.514,264.731,345.514z"/>
						</g>
					</g>
				</g>
				<g>
					<ellipse style="fill:#E2CCFF;" cx="266.34" cy="402.961" rx="5.564" ry="5.624"/>
					<ellipse style="fill:#E2CCFF;" cx="249.51" cy="402.961" rx="5.564" ry="5.624"/>
					<ellipse style="fill:#E2CCFF;" cx="232.679" cy="402.961" rx="5.564" ry="5.624"/>
				</g>
				<g>
					<g>
						<path style="fill:#FFE783;" d="M405.847,361.184h-55.856c-5.501,0-9.96-4.507-9.96-10.068V303
							c0-5.56,4.459-10.068,9.96-10.068h55.856c5.501,0,9.96,4.507,9.96,10.068v48.116
							C415.807,356.676,411.348,361.184,405.847,361.184z"/>
						<path style="fill:#590BB2;" d="M405.847,366.184h-55.856c-8.249,0-14.96-6.759-14.96-15.068V303
							c0-8.308,6.711-15.067,14.96-15.067h55.856c8.249,0,14.959,6.759,14.959,15.067v48.116
							C420.807,359.425,414.096,366.184,405.847,366.184z M349.991,297.932c-2.735,0-4.96,2.273-4.96,5.067v48.116
							c0,2.794,2.225,5.068,4.96,5.068h55.856c2.735,0,4.959-2.273,4.959-5.068V303c0-2.794-2.225-5.067-4.959-5.067H349.991z"/>
						<g>
							<g>
								<path style="fill:#FFC136;" d="M371.145,344.209c-0.83,0-1.67-0.21-2.443-0.651c-2.396-1.367-3.241-4.438-1.888-6.859
									l13.537-24.233c1.352-2.421,4.39-3.275,6.784-1.908c2.396,1.367,3.241,4.438,1.888,6.859l-13.537,24.233
									C374.571,343.288,372.883,344.209,371.145,344.209z"/>
							</g>
						</g>
					</g>
					<g>
						<path style="fill:#FFA052;" d="M153.79,229.451H45.983c-4.133,0-7.483-3.387-7.483-7.564V150.95
							c0-4.178,3.35-7.564,7.483-7.564H153.79c4.133,0,7.483,3.387,7.483,7.564v70.937
							C161.273,226.065,157.923,229.451,153.79,229.451z"/>
						<path style="fill:#590BB2;" d="M153.791,234.451H45.983c-6.883,0-12.483-5.636-12.483-12.564V150.95
							c0-6.928,5.6-12.564,12.483-12.564h107.808c6.883,0,12.483,5.636,12.483,12.564v70.937
							C166.273,228.815,160.674,234.451,153.791,234.451z M45.983,148.386c-1.369,0-2.483,1.15-2.483,2.564v70.937
							c0,1.414,1.114,2.564,2.483,2.564h107.808c1.369,0,2.483-1.15,2.483-2.564V150.95c0-1.414-1.114-2.564-2.483-2.564H45.983z"/>
						<g>
							<g>
								<g>
									<path style="fill:#F5F4F9;" d="M76.625,203.551c-1.273,0-2.547-0.491-3.517-1.473l-11.974-12.104
										c-1.943-1.964-1.943-5.148,0-7.111l11.974-12.104c1.941-1.963,5.093-1.963,7.034,0c1.943,1.964,1.943,5.148,0,7.111
										l-8.456,8.548l8.456,8.548c1.943,1.964,1.943,5.148,0,7.111C79.172,203.06,77.898,203.551,76.625,203.551z"/>
								</g>
								<g>
									<path style="fill:#F5F4F9;" d="M123.148,169.287c1.273,0,2.547,0.491,3.517,1.473l11.974,12.104
										c1.943,1.964,1.943,5.148,0,7.111l-11.974,12.104c-1.941,1.963-5.093,1.963-7.034,0c-1.943-1.964-1.943-5.148,0-7.111
										l8.456-8.548l-8.456-8.548c-1.943-1.964-1.943-5.148,0-7.111C120.602,169.778,121.876,169.287,123.148,169.287z"/>
								</g>
							</g>
							<g>
								<path style="fill:#F5F4F9;" d="M93.121,203.552c-0.829,0-1.668-0.21-2.441-0.651c-2.393-1.366-3.237-4.433-1.886-6.851
									l13.522-24.207c1.35-2.418,4.386-3.271,6.777-1.906c2.393,1.366,3.237,4.433,1.886,6.851l-13.522,24.207
									C96.543,202.631,94.857,203.552,93.121,203.552z"/>
							</g>
						</g>
					</g>
					<g>
						<path style="fill:#FFC136;" d="M153.79,415.73H45.983c-4.133,0-7.483-3.387-7.483-7.564V276.864
							c0-4.178,3.35-7.564,7.483-7.564H153.79c4.133,0,7.483,3.387,7.483,7.564v131.302
							C161.273,412.343,157.923,415.73,153.79,415.73z"/>
						<path style="fill:#590BB2;" d="M153.791,420.73H45.983c-6.883,0-12.483-5.636-12.483-12.564V276.864
							c0-6.928,5.6-12.564,12.483-12.564h56.559c2.761,0,5,2.239,5,5s-2.239,5-5,5H45.983c-1.369,0-2.483,1.15-2.483,2.564v131.302
							c0,1.414,1.114,2.564,2.483,2.564h107.808c1.369,0,2.483-1.15,2.483-2.564V276.864c0-1.414-1.114-2.564-2.483-2.564h-23.838
							c-2.761,0-5-2.239-5-5s2.239-5,5-5h23.838c6.883,0,12.483,5.636,12.483,12.564v131.302
							C166.273,415.094,160.674,420.73,153.791,420.73z"/>
					</g>
					<g>
						<g>
							<path style="fill:#F5F4F9;" d="M450.488,241.223h-121.64c-5.54,0-10.031-4.491-10.031-10.031v-97.978
								c0-5.54,4.491-10.031,10.031-10.031h121.64c5.54,0,10.031,4.491,10.031,10.031v97.978
								C460.519,236.732,456.028,241.223,450.488,241.223z"/>
							<path style="fill:#FFE783;" d="M450.542,123.183h-34v118.04h34c5.51,0,9.977-4.515,9.977-10.085v-97.87
								C460.519,127.698,456.052,123.183,450.542,123.183z"/>
							<path style="fill:#FFC136;" d="M460.519,156.128v-22.86c0-5.57-4.467-10.085-9.977-10.085H328.794
								c-5.51,0-9.977,4.515-9.977,10.085v22.86H460.519z"/>
							<path style="fill:#590BB2;" d="M450.542,246.223H328.794c-8.258,0-14.977-6.767-14.977-15.085v-97.87
								c0-8.318,6.719-15.085,14.977-15.085h121.748c8.258,0,14.977,6.767,14.977,15.085v22.859c0,2.761-2.239,5-5,5s-5-2.239-5-5
								v-22.859c0-2.804-2.233-5.085-4.977-5.085H328.794c-2.744,0-4.977,2.281-4.977,5.085v97.87c0,2.804,2.233,5.085,4.977,5.085
								h121.748c2.744,0,4.977-2.281,4.977-5.085v-47.302c0-2.761,2.239-5,5-5s5,2.239,5,5v47.302
								C465.519,239.456,458.8,246.223,450.542,246.223z"/>
							<path style="fill:#590BB2;" d="M460.519,161.128H318.817c-2.761,0-5-2.239-5-5s2.239-5,5-5h141.702c2.761,0,5,2.239,5,5
								S463.28,161.128,460.519,161.128z"/>
						</g>
						<g>
							<g>
								<path style="fill:#DDD9E4;" d="M396.494,217.676h-49.482c-2.755,0-4.987-2.257-4.987-5.041s2.233-5.041,4.987-5.041h49.482
									c2.755,0,4.987,2.257,4.987,5.041S399.248,217.676,396.494,217.676z"/>
							</g>
							<g>
								<path style="fill:#DDD9E4;" d="M369.557,196.745h-22.545c-2.755,0-4.987-2.257-4.987-5.041s2.233-5.041,4.987-5.041h22.545
									c2.755,0,4.987,2.257,4.987,5.041S372.311,196.745,369.557,196.745z"/>
							</g>
						</g>
					</g>
					<g>
						<g>
							<g>
								<path style="fill:#F5F4F9;" d="M129.042,344.827H70.731c-2.753,0-4.984-2.256-4.984-5.038c0-2.782,2.231-5.038,4.984-5.038
									h58.311c2.753,0,4.984,2.256,4.984,5.038C134.026,342.571,131.795,344.827,129.042,344.827z"/>
							</g>
							<g>
								<path style="fill:#FFE783;" d="M117.098,317.88H82.675c-2.753,0-4.984-2.256-4.984-5.038c0-2.782,2.231-5.038,4.984-5.038
									h34.423c2.753,0,4.984,2.256,4.984,5.038C122.082,315.624,119.851,317.88,117.098,317.88z"/>
							</g>
						</g>
						<g>
							<g>
								<path style="fill:#F5F4F9;" d="M129.042,362.72H70.731c-2.753,0-4.984-2.256-4.984-5.038c0-2.782,2.231-5.038,4.984-5.038
									h58.311c2.753,0,4.984,2.256,4.984,5.038C134.026,360.465,131.795,362.72,129.042,362.72z"/>
							</g>
						</g>
						<g>
							<g>
								<path style="fill:#F5F4F9;" d="M129.042,380.614H70.731c-2.753,0-4.984-2.256-4.984-5.038c0-2.782,2.231-5.038,4.984-5.038
									h58.311c2.753,0,4.984,2.256,4.984,5.038C134.026,378.358,131.795,380.614,129.042,380.614z"/>
							</g>
						</g>
					</g>
				</g>
			</g>
			<path style="fill:#C182F9;" d="M462.528,386.63L462.528,386.63c-1.335,0-2.615-0.534-3.555-1.483l-10.972-11.091
				c-1.927-1.948-1.927-5.085,0-7.033l10.972-11.091c0.939-0.949,2.219-1.483,3.555-1.483s2.615,0.534,3.555,1.483l10.972,11.091
				c1.927,1.948,1.927,5.085,0,7.033l-10.972,11.091C465.143,386.095,463.863,386.63,462.528,386.63z M458.589,370.539l3.938,3.981
				l3.939-3.981l-3.939-3.981L458.589,370.539z"/>
			<path style="fill:#FFA052;" d="M412.166,414.832c-1.335,0-2.615-0.534-3.555-1.483l-10.972-11.091
				c-1.927-1.948-1.927-5.085,0-7.033l10.972-11.091c0.939-0.949,2.219-1.483,3.555-1.483l0,0c1.335,0,2.615,0.534,3.555,1.483
				l10.972,11.091c1.927,1.948,1.927,5.085,0,7.033l-10.972,11.091C414.781,414.298,413.501,414.832,412.166,414.832z
				 M408.227,398.741l3.939,3.981l3.938-3.981l-3.938-3.981L408.227,398.741z"/>
			<path style="fill:#FFE783;" d="M89.299,122.632c-2.761,0-5-2.239-5-5c0-3.346-2.668-6.067-5.949-6.067c-2.761,0-5-2.239-5-5
				s2.239-5,5-5c3.28,0,5.949-2.722,5.949-6.067c0-2.761,2.239-5,5-5s5,2.239,5,5c0,3.346,2.668,6.067,5.949,6.067
				c2.761,0,5,2.239,5,5s-2.239,5-5,5c-3.28,0-5.949,2.722-5.949,6.067C94.299,120.393,92.06,122.632,89.299,122.632z"/>
			<path style="fill:#C182F9;" d="M107.586,71.552c-2.761,0-5-2.239-5-5c0-3.346-2.668-6.067-5.949-6.067c-2.761,0-5-2.239-5-5
				s2.239-5,5-5c3.28,0,5.949-2.722,5.949-6.067c0-2.761,2.239-5,5-5s5,2.239,5,5c0,3.346,2.668,6.067,5.949,6.067
				c2.761,0,5,2.239,5,5s-2.239,5-5,5c-3.28,0-5.949,2.722-5.949,6.067C112.586,69.314,110.347,71.552,107.586,71.552z"/>
		</g>
	</g>
</g>
<g>
</g>
<g>
</g>
<g>
</g>
<g>
</g>
<g>
</g>
<g>
</g>
<g>
</g>
<g>
</g>
<g>
</g>
<g>
</g>
<g>
</g>
<g>
</g>
<g>
</g>
<g>
</g>
<g>
</g>
</svg>
