<?xml version="1.0" encoding="iso-8859-1"?>
<!-- Generator: Adobe Illustrator 23.0.3, SVG Export Plug-In . SVG Version: 6.00 Build 0)  -->
<svg version="1.1" id="Capa_1" xmlns="http://www.w3.org/2000/svg" xmlns:xlink="http://www.w3.org/1999/xlink" x="0px" y="0px"
	 viewBox="0 0 512 512" style="enable-background:new 0 0 512 512;" xml:space="preserve">
<g>
	<linearGradient id="SVGID_1_" gradientUnits="userSpaceOnUse" x1="225.8161" y1="253.4995" x2="864.887" y2="253.4995">
		<stop  offset="7.011211e-04" style="stop-color:#FFF0D5"/>
		<stop  offset="0.5112" style="stop-color:#FFDFFF"/>
		<stop  offset="1" style="stop-color:#D9CEFF"/>
	</linearGradient>
	<path style="fill:url(#SVGID_1_);" d="M505.626,289.417c-11.826-34.61-38.138-60.16-69.852-72.202
		c-16.43-6.239-27.346-21.856-27.587-39.429c-0.005-0.384-0.012-0.769-0.021-1.154c-1.507-64.582-55.488-116.33-120.077-115.221
		c-38.094,0.654-71.788,19.355-92.905,47.92c-18.185,24.599-46.49,39.965-77.08,39.949c-0.898,0-1.797,0.009-2.7,0.029
		C53.487,150.663,0.837,203.787,0.011,265.713c-0.879,65.932,52.303,119.654,118.032,119.654c50.947,0,94.349-32.277,110.886-77.497
		c4.327-11.832,17.152-18.174,29.283-14.772c0.151,0.042,0.303,0.085,0.455,0.127c11.099,3.064,18.458,13.64,17.55,25.119
		c-1.217,15.383,0.581,31.255,5.798,46.796c20.521,61.135,87.188,94.685,148.493,74.68
		C493.219,419.355,526.887,351.635,505.626,289.417z"/>
	<g>
		<path style="opacity:0.1;fill:#590BB2;" d="M441,104.019H335c-0.002-43.629-35.37-78.997-79-78.997s-78.998,35.368-79,78.997H71
			c-8.28,0-15,6.72-15,15v254.25c0,8.28,6.72,15,15,15h370c8.28,0,15-6.72,15-15v-254.25C456,110.739,449.28,104.019,441,104.019z"
			/>
		<g>
			<g>
				<g>
					<g>
						<polygon style="fill:#AFABC6;" points="312.71,481.976 199.289,481.976 221.971,392.072 290.028,392.072 						"/>
						<polygon style="fill:#8E8CA8;" points="297.928,423.374 214.071,423.374 221.971,392.072 290.028,392.072 						"/>
						<g>
							<path style="fill:#F5F4F9;" d="M456,140.018v254.25c0,8.28-6.72,15-15,15H71c-8.28,0-15-6.72-15-15v-254.25
								c0-8.28,6.72-15,15-15h370C449.28,125.018,456,131.738,456,140.018z"/>
							<path style="fill:#E8E6ED;" d="M335,142.058c0,43.63-35.37,79-79,79s-79-35.37-79-79c0-5.85,0.64-11.56,1.85-17.04h154.31
								C334.36,130.498,335,136.208,335,142.058z"/>
							<path style="fill:#C182F9;" d="M456,140.018v33.18H56v-33.18c0-8.28,6.72-15,15-15h370
								C449.28,125.018,456,131.738,456,140.018z"/>
							<path style="fill:#B557FF;" d="M335,142.058c0,11.06-2.27,21.59-6.38,31.14H183.38c-4.11-9.55-6.38-20.08-6.38-31.14
								c0-5.85,0.64-11.56,1.85-17.04h154.31C334.36,130.498,335,136.208,335,142.058z"/>
							<path style="fill:#590BB2;" d="M456,178.194H320c-2.761,0-5-2.239-5-5s2.239-5,5-5h136c2.761,0,5,2.239,5,5
								S458.761,178.194,456,178.194z"/>
							<path style="fill:#590BB2;" d="M191.333,178.194H56c-2.761,0-5-2.239-5-5s2.239-5,5-5h135.333c2.761,0,5,2.239,5,5
								S194.095,178.194,191.333,178.194z"/>
							<path style="fill:#590BB2;" d="M306.179,461.106c-2.236,0-4.272-1.511-4.844-3.778l-11.368-45.06
								c-0.675-2.678,0.947-5.396,3.625-6.071c2.675-0.677,5.396,0.948,6.071,3.625l11.368,45.06
								c0.675,2.678-0.947,5.396-3.625,6.071C306.996,461.057,306.583,461.106,306.179,461.106z"/>
							<path style="fill:#590BB2;" d="M199.293,486.977c-0.405,0-0.816-0.049-1.227-0.153c-2.678-0.676-4.3-3.394-3.625-6.071
								l17.896-70.932c0.675-2.678,3.394-4.3,6.071-3.625c2.678,0.676,4.3,3.394,3.625,6.071L204.137,483.2
								C203.565,485.467,201.529,486.977,199.293,486.977z"/>
							<path style="fill:#CECAE0;" d="M56,358.88v35.39c0,8.284,6.716,15,15,15h370c8.284,0,15-6.716,15-15v-35.39H56z"/>
							<path style="fill:#590BB2;" d="M455.447,363.88H56c-2.761,0-5-2.239-5-5s2.239-5,5-5h399.447c2.761,0,5,2.239,5,5
								S458.208,363.88,455.447,363.88z"/>
						</g>
						<path style="fill:#590BB2;" d="M331.934,486.971H180.066c-2.761,0-5-2.239-5-5s2.239-5,5-5h151.868c2.761,0,5,2.239,5,5
							S334.695,486.971,331.934,486.971z"/>
						<g>
							<path style="fill:#590BB2;" d="M94.082,154.181c-2.761,0-5-2.239-5-5v-0.145c0-2.761,2.239-5,5-5s5,2.239,5,5v0.145
								C99.082,151.942,96.843,154.181,94.082,154.181z"/>
							<path style="fill:#590BB2;" d="M113.407,154.181c-2.761,0-5-2.239-5-5v-0.145c0-2.761,2.239-5,5-5s5,2.239,5,5v0.145
								C118.407,151.942,116.168,154.181,113.407,154.181z"/>
							<path style="fill:#590BB2;" d="M132.731,154.181c-2.761,0-5-2.239-5-5v-0.145c0-2.761,2.239-5,5-5s5,2.239,5,5v0.145
								C137.731,151.942,135.493,154.181,132.731,154.181z"/>
						</g>
						<path style="fill:#590BB2;" d="M441,414.269H71c-11.028,0-20-8.972-20-20V140.022c0-11.028,8.972-20,20-20h103.5
							c2.761,0,5,2.239,5,5s-2.239,5-5,5H71c-5.514,0-10,4.486-10,10v254.247c0,5.514,4.486,10,10,10h370c5.514,0,10-4.486,10-10
							V140.022c0-5.514-4.486-10-10-10h-78.459c-2.761,0-5-2.239-5-5s2.239-5,5-5H441c11.028,0,20,8.972,20,20v254.247
							C461,405.297,452.028,414.269,441,414.269z"/>
					</g>
				</g>
				<path style="fill:#590BB2;" d="M203.667,297.594H122c-2.761,0-5-2.239-5-5s2.239-5,5-5h76.667v-28.62c0-2.761,2.239-5,5-5
					h45.951c2.761,0,5,2.239,5,5s-2.239,5-5,5h-40.951v28.62C208.667,295.355,206.428,297.594,203.667,297.594z"/>
				<path style="fill:#590BB2;" d="M421,297.594H239.063c-2.761,0-5-2.239-5-5s2.239-5,5-5H416v-79.793c0-2.761,2.239-5,5-5
					s5,2.239,5,5v84.793C426,295.355,423.761,297.594,421,297.594z"/>
				<path style="fill:#590BB2;" d="M306,363.88c-2.761,0-5-2.239-5-5v-27.368h-97.333c-2.761,0-5-2.239-5-5v-41.015
					c0-2.761,2.239-5,5-5s5,2.239,5,5v36.015H306c2.761,0,5,2.239,5,5v32.368C311,361.642,308.761,363.88,306,363.88z"/>
				<path style="fill:#590BB2;" d="M455.447,331.513H340c-2.761,0-5-2.239-5-5s2.239-5,5-5h115.447c2.761,0,5,2.239,5,5
					S458.208,331.513,455.447,331.513z"/>
				<path style="fill:#590BB2;" d="M171,333.189H88.667c-2.761,0-5-2.239-5-5v-48.453c0-2.761,2.239-5,5-5s5,2.239,5,5v43.453H171
					c2.761,0,5,2.239,5,5S173.761,333.189,171,333.189z"/>
				<path style="fill:#590BB2;" d="M140.333,363.88c-2.761,0-5-2.239-5-5v-30.691c0-2.761,2.239-5,5-5s5,2.239,5,5v30.691
					C145.333,361.642,143.095,363.88,140.333,363.88z"/>
				<path style="fill:#590BB2;" d="M166.333,263.664H122c-2.761,0-5-2.239-5-5v-84.17c0-2.761,2.239-5,5-5s5,2.239,5,5v79.17h39.333
					c2.761,0,5,2.239,5,5S169.095,263.664,166.333,263.664z"/>
				<path style="fill:#590BB2;" d="M88.667,252.457H56c-2.761,0-5-2.239-5-5s2.239-5,5-5h27.667v-29.125c0-2.761,2.239-5,5-5
					s5,2.239,5,5v34.125C93.667,250.218,91.428,252.457,88.667,252.457z"/>
				<path style="fill:#590BB2;" d="M288,263.974c-1.323,0-2.593-0.524-3.53-1.459c-0.941-0.938-1.47-2.212-1.47-3.541v-34.309
					c0-2.761,2.239-5,5-5h63.333c2.761,0,5,2.239,5,5s-2.239,5-5,5H293v24.294l91-0.279v-80.486c0-2.761,2.239-5,5-5s5,2.239,5,5
					v85.471c0,2.755-2.229,4.992-4.985,5l-101,0.309C288.01,263.974,288.005,263.974,288,263.974z"/>
				<path style="fill:#590BB2;" d="M288,229.664H159c-2.761,0-5-2.239-5-5s2.239-5,5-5h129c2.761,0,5,2.239,5,5
					S290.761,229.664,288,229.664z"/>
				<g>
					<circle style="fill:#FDD250;" cx="256" cy="125.023" r="79"/>
					<path style="fill:#590BB2;" d="M256,209.022c-46.318,0-84-37.682-84-84s37.682-84,84-84s84,37.682,84,84
						S302.318,209.022,256,209.022z M256,51.022c-40.804,0-74,33.196-74,74s33.196,74,74,74s74-33.196,74-74
						S296.804,51.022,256,51.022z"/>
					<circle style="fill:#FFF4C5;" cx="256" cy="125.023" r="58.576"/>
				</g>
				<g>
					<g>
						<g>
							<path style="fill:#FFC136;" d="M232.619,142.058c-1.279,0-2.56-0.488-3.535-1.464l-12.035-12.035
								c-1.953-1.953-1.953-5.119,0-7.071l12.035-12.035c1.951-1.952,5.119-1.952,7.07,0c1.953,1.953,1.953,5.119,0,7.071
								l-8.499,8.5l8.499,8.5c1.953,1.953,1.953,5.119,0,7.071C235.179,141.569,233.898,142.058,232.619,142.058z"/>
						</g>
						<g>
							<path style="fill:#FFC136;" d="M279.381,142.058c-1.279,0-2.56-0.488-3.535-1.464c-1.953-1.953-1.953-5.119,0-7.071
								l8.499-8.5l-8.499-8.5c-1.953-1.953-1.953-5.119,0-7.071c1.951-1.952,5.119-1.952,7.07,0l12.035,12.035
								c1.953,1.953,1.953,5.119,0,7.071l-12.035,12.035C281.94,141.569,280.66,142.058,279.381,142.058z"/>
						</g>
					</g>
					<g>
						<path style="fill:#FFC136;" d="M249.199,142.059c-0.833,0-1.677-0.208-2.453-0.647c-2.405-1.358-3.254-4.408-1.896-6.813
							l13.592-24.07c1.357-2.404,4.408-3.253,6.812-1.896c2.405,1.358,3.254,4.408,1.896,6.813l-13.592,24.07
							C252.639,141.144,250.944,142.059,249.199,142.059z"/>
					</g>
				</g>
			</g>
			<path style="fill:#C182F9;" d="M374.533,472.129c-1.326,0-2.598-0.527-3.536-1.464l-11.024-11.024
				c-0.938-0.938-1.464-2.209-1.464-3.536s0.527-2.598,1.464-3.536l11.024-11.023c1.954-1.952,5.119-1.951,7.071,0l11.023,11.023
				c1.953,1.953,1.953,5.119,0,7.071l-11.023,11.024C377.131,471.602,375.859,472.129,374.533,472.129z M370.58,456.105l3.953,3.953
				l3.953-3.953l-3.953-3.953L370.58,456.105z"/>
			<path style="fill:#FFE783;" d="M152.462,462.19c-2.761,0-5-2.239-5-5c0-3.309-2.692-6-6-6c-2.761,0-5-2.239-5-5s2.239-5,5-5
				c3.309,0,6-2.692,6-6c0-2.761,2.239-5,5-5s5,2.239,5,5c0,3.309,2.691,6,6,6c2.761,0,5,2.239,5,5s-2.239,5-5,5
				c-3.309,0-6,2.692-6,6C157.462,459.951,155.224,462.19,152.462,462.19z"/>
			<path style="fill:#FFA052;" d="M357.342,76.896c-2.761,0-5-2.239-5-5c0-3.309-2.691-6-6-6c-2.761,0-5-2.239-5-5s2.239-5,5-5
				c3.309,0,6-2.692,6-6c0-2.761,2.239-5,5-5s5,2.239,5,5c0,3.309,2.692,6,6,6c2.761,0,5,2.239,5,5s-2.239,5-5,5
				c-3.309,0-6,2.692-6,6C362.342,74.658,360.104,76.896,357.342,76.896z"/>
			<path style="fill:#FFA052;" d="M412,95.13c-2.761,0-5-2.239-5-5c0-3.309-2.692-6-6-6c-2.761,0-5-2.239-5-5s2.239-5,5-5
				c3.309,0,6-2.692,6-6c0-2.761,2.239-5,5-5s5,2.239,5,5c0,3.309,2.691,6,6,6c2.761,0,5,2.239,5,5s-2.239,5-5,5
				c-3.309,0-6,2.692-6,6C417,92.891,414.762,95.13,412,95.13z"/>
		</g>
	</g>
</g>
<g>
</g>
<g>
</g>
<g>
</g>
<g>
</g>
<g>
</g>
<g>
</g>
<g>
</g>
<g>
</g>
<g>
</g>
<g>
</g>
<g>
</g>
<g>
</g>
<g>
</g>
<g>
</g>
<g>
</g>
</svg>
