<?xml version="1.0" encoding="iso-8859-1"?>
<!-- Generator: Adobe Illustrator 23.0.3, SVG Export Plug-In . SVG Version: 6.00 Build 0)  -->
<svg version="1.1" id="Capa_1" xmlns="http://www.w3.org/2000/svg" xmlns:xlink="http://www.w3.org/1999/xlink" x="0px" y="0px"
	 viewBox="0 0 512 512" style="enable-background:new 0 0 512 512;" xml:space="preserve">
<g>
	<linearGradient id="SVGID_1_" gradientUnits="userSpaceOnUse" x1="163.7567" y1="256" x2="1007.3747" y2="256">
		<stop  offset="7.011211e-04" style="stop-color:#FFF0D5"/>
		<stop  offset="0.5112" style="stop-color:#FFDFFF"/>
		<stop  offset="1" style="stop-color:#D9CEFF"/>
	</linearGradient>
	<path style="fill:url(#SVGID_1_);" d="M310.075,89.353C288.645,36.684,236.804-0.37,176.349,0.003
		C99.225,0.478,35.813,62.687,33.942,139.789c-0.923,38.04,12.978,72.821,36.334,98.983c18.619,20.856,27.963,48.325,27.021,76.268
		c-0.125,3.714-0.144,7.455-0.052,11.22c2.464,101.4,89.087,185.801,190.517,185.74c105.133-0.063,190.34-85.31,190.34-190.457
		c0-77.074-45.784-143.448-111.637-173.423C340.798,136.437,320.703,115.473,310.075,89.353z"/>
	<g>
		<g>
			<g>
				<g>
					<g>
						<g>
							<g>
								<path style="opacity:0.1;fill:#590BB2;" d="M430.307,334.633h-26.376V68.627c0-8.285-6.734-15.019-15.019-15.019h-250.33
									c-8.285,0-15.019,6.734-15.019,15.019v75.803H97.187c-5.527,0-10.007,4.48-10.007,10.007v47.825
									c0,5.527,4.48,10.007,10.007,10.007h26.376v231.103c0,8.285,6.734,15.019,15.019,15.019h250.33
									c8.285,0,15.019-6.734,15.019-15.019v-40.901h26.376c5.527,0,10.007-4.48,10.007-10.007V344.64
									C440.313,339.113,435.833,334.633,430.307,334.633z"/>
								<path style="fill:#F5F4F9;" d="M403.931,89.64v374.745c0,8.285-6.734,15.019-15.019,15.019h-250.33
									c-8.285,0-15.019-6.734-15.019-15.019V89.64c0-8.285,6.734-15.019,15.019-15.019h250.33
									C397.197,74.621,403.931,81.355,403.931,89.64z"/>
								<path style="fill:#E8E6ED;" d="M403.931,367.657v67.831h-29.748c-5.523,0-10.006-4.473-10.006-10.006v-47.819
									c0-5.533,4.483-10.006,10.006-10.006H403.931z"/>
								<path style="fill:#E8E6ED;" d="M163.316,187.459v47.819c0,5.533-4.483,10.016-10.006,10.016h-29.748v-67.841h29.748
									C158.834,177.453,163.316,181.936,163.316,187.459z"/>
								<path style="fill:#C182F9;" d="M403.929,122.859V89.644c0-8.295-6.724-15.02-15.02-15.02H138.584
									c-8.295,0-15.019,6.724-15.019,15.02v33.215H403.929z"/>
								<path style="fill:#590BB2;" d="M403.929,127.859H151.938c-2.761,0-5-2.239-5-5s2.239-5,5-5h251.991c2.762,0,5,2.239,5,5
									S406.69,127.859,403.929,127.859z"/>
							</g>
							<g>
								<path style="fill:#590BB2;" d="M161.696,103.814c-2.761,0-5-2.239-5-5v-0.145c0-2.761,2.239-5,5-5s5,2.239,5,5v0.145
									C166.696,101.576,164.458,103.814,161.696,103.814z"/>
								<path style="fill:#590BB2;" d="M181.046,103.814c-2.761,0-5-2.239-5-5v-0.145c0-2.761,2.239-5,5-5s5,2.239,5,5v0.145
									C186.046,101.576,183.807,103.814,181.046,103.814z"/>
								<path style="fill:#590BB2;" d="M200.396,103.814c-2.761,0-5-2.239-5-5v-0.145c0-2.761,2.239-5,5-5s5,2.239,5,5v0.145
									C205.396,101.576,203.157,103.814,200.396,103.814z"/>
							</g>
						</g>
					</g>
					<path style="fill:#590BB2;" d="M388.909,484.4H138.584c-11.039,0-20.02-8.981-20.02-20.02V235.404c0-2.761,2.239-5,5-5
						s5,2.239,5,5v228.977c0,5.525,4.495,10.02,10.02,10.02h250.325c5.524,0,10.02-4.495,10.02-10.02v-38.875c0-2.761,2.238-5,5-5
						s5,2.239,5,5v38.875C408.929,475.419,399.948,484.4,388.909,484.4z"/>
					<path style="fill:#590BB2;" d="M403.929,333.089c-2.762,0-5-2.239-5-5V89.645c0-5.525-4.495-10.02-10.02-10.02H138.584
						c-5.525,0-10.02,4.495-10.02,10.02v73.78c0,2.761-2.239,5-5,5s-5-2.239-5-5v-73.78c0-11.039,8.981-20.02,20.02-20.02h250.325
						c11.039,0,20.02,8.981,20.02,20.02v238.444C408.929,330.85,406.69,333.089,403.929,333.089z"/>
				</g>
				<path style="fill:#FFBE92;" d="M375.484,208.372v98.719c0,1.661-1.351,3.002-3.002,3.002H155.011
					c-1.651,0-3.002-1.341-3.002-3.002v-98.719c0-1.661,1.351-3.002,3.002-3.002h217.471
					C374.133,205.37,375.484,206.71,375.484,208.372z"/>
				<path style="fill:#FFA052;" d="M163.316,205.37v29.908c0,5.533-4.483,10.016-10.006,10.016h-1.301v-36.922
					c0-1.661,1.351-3.002,3.002-3.002H163.316z"/>
				<path style="fill:#FFA052;" d="M352.132,183.99c-1.279,0-2.56-0.488-3.536-1.465c-0.976-0.976-1.464-2.256-1.464-3.536
					c0-1.279,0.488-2.559,1.465-3.535c1.135-1.135,1.76-2.643,1.76-4.248c0-1.604-0.625-3.112-1.76-4.247
					c-0.977-0.976-1.465-2.256-1.465-3.535c0-1.28,0.488-2.56,1.464-3.536c1.953-1.953,5.118-1.954,7.071,0
					c1.135,1.135,2.644,1.759,4.248,1.759s3.112-0.625,4.246-1.759c1.953-1.953,5.118-1.954,7.071,0
					c0.977,0.976,1.465,2.256,1.465,3.535c0,1.28-0.488,2.56-1.464,3.536c-2.342,2.342-2.342,6.153,0,8.495
					c0.976,0.976,1.464,2.256,1.464,3.536c0,1.279-0.488,2.559-1.465,3.535c-1.951,1.952-5.118,1.953-7.071,0
					c-1.134-1.134-2.642-1.759-4.246-1.759s-3.113,0.625-4.248,1.76C354.69,183.502,353.411,183.99,352.132,183.99z"/>
				<path style="fill:#FFA052;" d="M311.219,183.99c-1.279,0-2.56-0.488-3.536-1.465c-0.976-0.976-1.464-2.256-1.464-3.536
					c0-1.279,0.488-2.559,1.465-3.535c1.135-1.135,1.759-2.643,1.759-4.248c0-1.604-0.624-3.112-1.759-4.247
					c-0.977-0.976-1.465-2.256-1.465-3.535c0-1.28,0.488-2.56,1.464-3.536c1.953-1.953,5.118-1.954,7.071,0
					c1.135,1.135,2.644,1.759,4.248,1.759s3.112-0.625,4.246-1.759c1.953-1.953,5.118-1.954,7.071,0
					c0.977,0.976,1.465,2.256,1.465,3.535c0,1.28-0.488,2.56-1.464,3.536c-2.342,2.342-2.342,6.153,0,8.495
					c0.976,0.976,1.464,2.256,1.464,3.536c0,1.279-0.488,2.559-1.465,3.535c-1.951,1.952-5.118,1.953-7.071,0
					c-1.134-1.134-2.642-1.759-4.246-1.759s-3.113,0.625-4.248,1.76C313.778,183.502,312.498,183.99,311.219,183.99z"/>
				<path style="fill:#FFA052;" d="M270.306,183.99c-1.279,0-2.56-0.488-3.536-1.465c-0.976-0.976-1.464-2.256-1.464-3.536
					c0-1.279,0.488-2.559,1.465-3.535c1.135-1.135,1.759-2.643,1.759-4.248c0-1.604-0.624-3.112-1.759-4.247
					c-0.977-0.976-1.465-2.256-1.465-3.535c0-1.28,0.488-2.56,1.464-3.536c1.953-1.953,5.118-1.954,7.071,0
					c2.342,2.342,6.154,2.342,8.496,0c1.951-1.952,5.118-1.953,7.071,0c0.976,0.976,1.464,2.256,1.464,3.536
					c0,1.279-0.488,2.559-1.465,3.535c-1.135,1.135-1.759,2.643-1.759,4.247s0.624,3.112,1.759,4.247
					c0.977,0.976,1.465,2.256,1.465,3.535c0,1.28-0.488,2.56-1.464,3.536c-1.953,1.953-5.118,1.954-7.071,0
					c-2.341-2.341-6.151-2.342-8.496,0C272.865,183.502,271.585,183.99,270.306,183.99z"/>
				<g>
					<g>
						<g>
							<path style="fill:#CCA1FF;" d="M209.21,340.035h-52.186c-2.768,0-5.011-2.244-5.011-5.011c0-2.767,2.243-5.011,5.011-5.011
								h52.186c2.768,0,5.011,2.244,5.011,5.011C214.221,337.791,211.978,340.035,209.21,340.035z"/>
						</g>
						<g>
							<path style="fill:#F5F4F9;" d="M233.558,246.646h-37.177c-2.768,0-5.011-2.244-5.011-5.011c0-2.767,2.243-5.011,5.011-5.011
								h37.177c2.768,0,5.011,2.244,5.011,5.011C238.569,244.402,236.326,246.646,233.558,246.646z"/>
						</g>
						<g>
							<path style="fill:#F5F4F9;" d="M308.603,274.011H196.381c-2.768,0-5.011-2.244-5.011-5.011s2.243-5.011,5.011-5.011h112.222
								c2.768,0,5.011,2.244,5.011,5.011S311.371,274.011,308.603,274.011z"/>
						</g>
						<g>
							<path style="fill:#F5F4F9;" d="M308.603,292.681H196.381c-2.768,0-5.011-2.244-5.011-5.011s2.243-5.011,5.011-5.011h112.222
								c2.768,0,5.011,2.244,5.011,5.011S311.371,292.681,308.603,292.681z"/>
						</g>
						<g>
							<path style="fill:#DDD9E4;" d="M209.21,374.056h-52.186c-2.768,0-5.011-2.244-5.011-5.011s2.243-5.011,5.011-5.011h52.186
								c2.768,0,5.011,2.244,5.011,5.011S211.978,374.056,209.21,374.056z"/>
						</g>
						<g>
							<path style="fill:#DDD9E4;" d="M209.21,395.568h-52.186c-2.768,0-5.011-2.244-5.011-5.011c0-2.767,2.243-5.011,5.011-5.011
								h52.186c2.768,0,5.011,2.244,5.011,5.011C214.221,393.325,211.978,395.568,209.21,395.568z"/>
						</g>
						<g>
							<path style="fill:#DDD9E4;" d="M209.21,417.081h-52.186c-2.768,0-5.011-2.244-5.011-5.011s2.243-5.011,5.011-5.011h52.186
								c2.768,0,5.011,2.244,5.011,5.011S211.978,417.081,209.21,417.081z"/>
						</g>
						<g>
							<path style="fill:#DDD9E4;" d="M209.21,438.594h-52.186c-2.768,0-5.011-2.244-5.011-5.011c0-2.767,2.243-5.011,5.011-5.011
								h52.186c2.768,0,5.011,2.244,5.011,5.011C214.221,436.351,211.978,438.594,209.21,438.594z"/>
						</g>
					</g>
					<g>
						<g>
							<path style="fill:#CCA1FF;" d="M287.393,340.035h-52.186c-2.768,0-5.011-2.244-5.011-5.011c0-2.767,2.243-5.011,5.011-5.011
								h52.186c2.768,0,5.011,2.244,5.011,5.011C292.405,337.791,290.161,340.035,287.393,340.035z"/>
						</g>
						<g>
							<path style="fill:#DDD9E4;" d="M287.393,374.056h-52.186c-2.768,0-5.011-2.244-5.011-5.011s2.243-5.011,5.011-5.011h52.186
								c2.768,0,5.011,2.244,5.011,5.011S290.161,374.056,287.393,374.056z"/>
						</g>
						<g>
							<path style="fill:#DDD9E4;" d="M287.393,395.568h-52.186c-2.768,0-5.011-2.244-5.011-5.011c0-2.767,2.243-5.011,5.011-5.011
								h52.186c2.768,0,5.011,2.244,5.011,5.011C292.405,393.325,290.161,395.568,287.393,395.568z"/>
						</g>
						<g>
							<path style="fill:#DDD9E4;" d="M287.393,417.081h-52.186c-2.768,0-5.011-2.244-5.011-5.011s2.243-5.011,5.011-5.011h52.186
								c2.768,0,5.011,2.244,5.011,5.011S290.161,417.081,287.393,417.081z"/>
						</g>
						<g>
							<path style="fill:#DDD9E4;" d="M287.393,438.594h-52.186c-2.768,0-5.011-2.244-5.011-5.011c0-2.767,2.243-5.011,5.011-5.011
								h52.186c2.768,0,5.011,2.244,5.011,5.011C292.405,436.351,290.161,438.594,287.393,438.594z"/>
						</g>
					</g>
					<g>
						<g>
							<path style="fill:#CCA1FF;" d="M365.577,340.035h-52.186c-2.768,0-5.011-2.244-5.011-5.011c0-2.767,2.243-5.011,5.011-5.011
								h52.186c2.768,0,5.011,2.244,5.011,5.011C370.588,337.791,368.345,340.035,365.577,340.035z"/>
						</g>
						<g>
							<path style="fill:#DDD9E4;" d="M365.577,374.056h-52.186c-2.768,0-5.011-2.244-5.011-5.011s2.243-5.011,5.011-5.011h52.186
								c2.768,0,5.011,2.244,5.011,5.011S368.345,374.056,365.577,374.056z"/>
						</g>
						<g>
							<path style="fill:#DDD9E4;" d="M365.577,395.568h-52.186c-2.768,0-5.011-2.244-5.011-5.011c0-2.767,2.243-5.011,5.011-5.011
								h52.186c2.768,0,5.011,2.244,5.011,5.011C370.588,393.325,368.345,395.568,365.577,395.568z"/>
						</g>
						<g>
							<path style="fill:#DDD9E4;" d="M365.577,417.081h-52.186c-2.768,0-5.011-2.244-5.011-5.011s2.243-5.011,5.011-5.011h52.186
								c2.768,0,5.011,2.244,5.011,5.011S368.345,417.081,365.577,417.081z"/>
						</g>
						<g>
							<path style="fill:#DDD9E4;" d="M365.577,438.594h-52.186c-2.768,0-5.011-2.244-5.011-5.011c0-2.767,2.243-5.011,5.011-5.011
								h52.186c2.768,0,5.011,2.244,5.011,5.011C370.588,436.351,368.345,438.594,365.577,438.594z"/>
						</g>
					</g>
				</g>
				<path style="fill:#C182F9;" d="M223.749,196.234c0-9.163-7.455-16.618-16.618-16.618s-16.618,7.455-16.618,16.618
					c0,4.52,1.819,8.619,4.757,11.618c-2.938,2.999-4.757,7.098-4.757,11.618c0,2.761,2.239,5,5,5s5-2.239,5-5
					c0-3.649,2.969-6.618,6.618-6.618s6.618,2.969,6.618,6.618c0,2.761,2.239,5,5,5s5-2.239,5-5c0-4.52-1.819-8.619-4.757-11.618
					C221.93,204.854,223.749,200.754,223.749,196.234z M207.131,189.617c3.649,0,6.618,2.969,6.618,6.618
					c0,3.649-2.969,6.618-6.618,6.618s-6.618-2.969-6.618-6.618C200.514,192.585,203.482,189.617,207.131,189.617z"/>
			</g>
			<g>
				<g>
					<path style="fill:#FFA052;" d="M430.307,423.484h-56.12c-5.527,0-10.007-4.48-10.007-10.007v-47.825
						c0-5.527,4.48-10.007,10.007-10.007h56.12c5.527,0,10.007,4.48,10.007,10.007v47.825
						C440.313,419.004,435.833,423.484,430.307,423.484z"/>
					<path style="fill:#590BB2;" d="M430.307,428.484h-56.12c-8.274,0-15.007-6.732-15.007-15.006v-47.825
						c0-8.275,6.732-15.007,15.007-15.007h56.12c8.274,0,15.007,6.732,15.007,15.007v47.825
						C445.313,421.752,438.581,428.484,430.307,428.484z M374.187,360.646c-2.761,0-5.007,2.246-5.007,5.007v47.825
						c0,2.761,2.246,5.006,5.007,5.006h56.12c2.761,0,5.007-2.246,5.007-5.006v-47.825c0-2.761-2.246-5.007-5.007-5.007H374.187z"/>
					<g>
						<g>
							<path style="fill:#F5F4F9;" d="M395.441,406.612c-0.834,0-1.678-0.209-2.455-0.647c-2.407-1.359-3.256-4.411-1.897-6.817
								l13.601-24.087c1.358-2.406,4.411-3.255,6.816-1.897c2.407,1.359,3.256,4.411,1.897,6.817l-13.601,24.087
								C398.883,405.697,397.188,406.612,395.441,406.612z"/>
						</g>
					</g>
				</g>
				<g>
					<path style="fill:#FFE783;" d="M153.307,233.282h-56.12c-5.527,0-10.007-4.48-10.007-10.007V175.45
						c0-5.527,4.48-10.007,10.007-10.007h56.12c5.527,0,10.007,4.48,10.007,10.007v47.825
						C163.313,228.802,158.833,233.282,153.307,233.282z"/>
					<path style="fill:#590BB2;" d="M153.307,238.282h-56.12c-8.275,0-15.007-6.732-15.007-15.007V175.45
						c0-8.275,6.732-15.007,15.007-15.007h56.12c8.275,0,15.007,6.732,15.007,15.007v47.825
						C168.313,231.55,161.582,238.282,153.307,238.282z M97.187,170.443c-2.761,0-5.007,2.246-5.007,5.007v47.825
						c0,2.761,2.246,5.007,5.007,5.007h56.12c2.761,0,5.007-2.246,5.007-5.007V175.45c0-2.761-2.246-5.007-5.007-5.007H97.187z"/>
					<g>
						<g>
							<path style="fill:#FFC136;" d="M118.441,216.41c-0.834,0-1.678-0.209-2.455-0.647c-2.407-1.359-3.256-4.411-1.897-6.817
								l13.601-24.087c1.358-2.406,4.411-3.255,6.816-1.897c2.407,1.359,3.256,4.411,1.897,6.817l-13.601,24.087
								C121.883,215.494,120.188,216.41,118.441,216.41z"/>
						</g>
					</g>
				</g>
			</g>
		</g>
		<path style="fill:#C182F9;" d="M446.373,318.718L446.373,318.718c-1.326,0-2.598-0.527-3.535-1.464l-11.023-11.024
			c-1.953-1.953-1.953-5.119,0-7.071l11.023-11.023c1.951-1.952,5.117-1.952,7.07,0l11.024,11.023
			c0.938,0.938,1.465,2.209,1.465,3.536s-0.526,2.598-1.465,3.536l-11.024,11.024C448.971,318.191,447.699,318.718,446.373,318.718z
			 M442.421,302.694l3.952,3.953l3.953-3.953l-3.953-3.953L442.421,302.694z"/>
		<path style="fill:#FFE783;" d="M63.626,315.609c-1.28,0-2.559-0.488-3.536-1.464l-11.023-11.023c-1.953-1.953-1.953-5.119,0-7.071
			l11.023-11.024c0.938-0.938,2.209-1.464,3.536-1.464s2.598,0.527,3.536,1.464l11.024,11.024c0.938,0.938,1.464,2.209,1.464,3.536
			s-0.527,2.598-1.464,3.536l-11.024,11.023C66.186,315.121,64.906,315.609,63.626,315.609z M59.674,299.585l3.953,3.953
			l3.953-3.953l-3.953-3.953L59.674,299.585z"/>
		<path style="fill:#C182F9;" d="M91.18,356.059c-1.28,0-2.559-0.488-3.536-1.464l-11.023-11.023c-1.953-1.953-1.953-5.119,0-7.071
			l11.023-11.024c0.938-0.938,2.209-1.464,3.536-1.464s2.598,0.527,3.536,1.464L105.74,336.5c0.938,0.938,1.464,2.209,1.464,3.536
			s-0.527,2.598-1.464,3.536l-11.024,11.023C93.739,355.57,92.459,356.059,91.18,356.059z M87.228,340.035l3.953,3.953l3.953-3.953
			l-3.953-3.953L87.228,340.035z"/>
		<path style="fill:#FFA052;" d="M319.002,60.452c-1.279,0-2.56-0.488-3.535-1.464l-11.023-11.023c-1.953-1.953-1.953-5.119,0-7.071
			l11.023-11.024c0.938-0.938,2.209-1.464,3.535-1.464s2.598,0.527,3.535,1.464l11.023,11.024c1.953,1.953,1.953,5.119,0,7.071
			l-11.023,11.023C321.562,59.963,320.281,60.452,319.002,60.452z M315.05,44.428l3.952,3.952l3.952-3.952l-3.952-3.953
			L315.05,44.428z"/>
	</g>
</g>
<g>
</g>
<g>
</g>
<g>
</g>
<g>
</g>
<g>
</g>
<g>
</g>
<g>
</g>
<g>
</g>
<g>
</g>
<g>
</g>
<g>
</g>
<g>
</g>
<g>
</g>
<g>
</g>
<g>
</g>
</svg>
