<?xml version="1.0" encoding="iso-8859-1"?>
<!-- Generator: Adobe Illustrator 23.0.3, SVG Export Plug-In . SVG Version: 6.00 Build 0)  -->
<svg version="1.1" id="Capa_1" xmlns="http://www.w3.org/2000/svg" xmlns:xlink="http://www.w3.org/1999/xlink" x="0px" y="0px"
	 viewBox="0 0 512 512" style="enable-background:new 0 0 512 512;" xml:space="preserve">
<g>
	<linearGradient id="SVGID_1_" gradientUnits="userSpaceOnUse" x1="215.7087" y1="253.5001" x2="852.3452" y2="253.5001">
		<stop  offset="7.011211e-04" style="stop-color:#FFF0D5"/>
		<stop  offset="0.5112" style="stop-color:#FFDFFF"/>
		<stop  offset="1" style="stop-color:#D9CEFF"/>
	</linearGradient>
	<path style="fill:url(#SVGID_1_);" d="M408.228,151.762c-23.697-9.236-43.717-26.089-55.961-48.381
		c-20.59-37.487-60.43-62.898-106.221-62.898c-47.53,0-88.646,27.377-108.477,67.219c-12.146,24.401-32.814,43.56-58.09,53.762
		c-37.349,15.074-68.703,49.524-78.653,103.382c-1.092,5.91-1.108,11.986-0.016,17.896c15.448,83.573,82.399,120.435,143.334,110.66
		c34.126-5.474,68.672,5.909,93.967,29.462c51.434,47.892,133.884,62.907,213.923,11.57c9.377-6.014,21.957-18.634,27.966-28.015
		C548.967,298.748,497.879,186.704,408.228,151.762z"/>
	<g>
		<g>
			<path style="opacity:0.1;fill:#590BB2;" d="M474.5,261.167h-43.52v-96c11.926,0,21.593-9.668,21.593-21.593
				c0-11.926-9.668-21.593-21.593-21.593c-7.991,0-14.951,4.351-18.685,10.803l-21.745-12.553l-2.624-1.515
				c1.625-1.778,2.624-4.137,2.624-6.736V64.184c0-5.523-4.478-10.001-10.001-10.001h-56.086c-5.523,0-10.001,4.477-10.001,10.001
				v12.118l-0.002-0.001l-39.605-22.863c1.839-3.177,2.908-6.855,2.908-10.79c0-11.926-9.668-21.593-21.593-21.593
				c-11.926,0-21.593,9.668-21.593,21.593c0,3.935,1.069,7.613,2.908,10.79l-137.44,79.346
				c-3.734-6.451-10.694-10.803-18.685-10.803c-11.926,0-21.593,9.668-21.593,21.593c0,11.926,9.667,21.593,21.593,21.593v34.202
				H44.536c-5.523,0-10.001,4.478-10.001,10.001v47.796c0,5.523,4.477,10.001,10.001,10.001h36.825v56.666
				c-11.926,0-21.593,9.668-21.593,21.593c0,11.926,9.668,21.593,21.593,21.593c7.99,0,14.95-4.351,18.685-10.803l137.44,79.346
				c-1.839,3.177-2.908,6.855-2.908,10.79c0,11.926,9.668,21.593,21.593,21.593c11.926,0,21.593-9.668,21.593-21.593
				c0-3.935-1.069-7.613-2.908-10.79L344.25,395.5l25.983-15H474.5c5.523,0,10-4.477,10-10v-99.333
				C484.5,265.645,480.023,261.167,474.5,261.167z"/>
			<g>
				<polygon style="fill:#FFD5B8;" points="430.98,161.57 430.98,363.429 344.25,413.499 256.17,464.349 81.361,363.429 
					81.361,161.57 256.17,60.65 314.46,94.3 390.55,138.23 				"/>
				<path style="fill:#FFBE92;" d="M430.98,294.169v69.26l-86.73,50.07H300.5c-5.52,0-10-4.48-10-10v-99.33c0-5.53,4.48-10,10-10
					H430.98z"/>
				<path style="fill:#FFBE92;" d="M110.621,239.369v47.8c0,5.52-4.48,10-10,10h-19.26v-67.8h19.26
					C106.141,229.369,110.621,233.849,110.621,239.369z"/>
				<path style="fill:#FFBE92;" d="M390.55,138.23v3.75c0,5.52-4.48,10-10,10h-56.09c-5.52,0-10-4.48-10-10V94.3L390.55,138.23z"/>
				<polygon style="fill:#D6B0FF;" points="256.222,369.999 131.027,334.751 133.018,191.398 256.17,115.5 378.789,191.706 
					341.001,311.477 				"/>
				<circle style="fill:#FDD250;" cx="256.17" cy="60.647" r="21.593"/>
				<circle style="fill:#FDD250;" cx="256.17" cy="464.352" r="21.593"/>
				<circle style="fill:#FDD250;" cx="430.98" cy="161.573" r="21.593"/>
				<circle style="fill:#FDD250;" cx="81.361" cy="161.573" r="21.593"/>
				<circle style="fill:#FDD250;" cx="81.361" cy="363.426" r="21.593"/>
				<g>
					<g>
						<path style="fill:#F5F4F9;" d="M474.5,398.499H300.501c-5.523,0-10-4.477-10-10v-99.333c0-5.523,4.477-10,10-10H474.5
							c5.523,0,10,4.477,10,10v99.333C484.5,394.022,480.023,398.499,474.5,398.499z"/>
						<g>
							<g>
								<path style="fill:#D6B0FF;" d="M369.877,316.485h-46.742c-2.766,0-5.008-2.242-5.008-5.008c0-2.766,2.242-5.008,5.008-5.008
									h46.742c2.766,0,5.008,2.242,5.008,5.008C374.885,314.242,372.644,316.485,369.877,316.485z"/>
							</g>
							<g>
								<path style="fill:#DDD9E4;" d="M429.877,352.35H323.135c-2.766,0-5.008-2.242-5.008-5.008s2.242-5.008,5.008-5.008h106.742
									c2.766,0,5.008,2.242,5.008,5.008S432.643,352.35,429.877,352.35z"/>
							</g>
							<g>
								<path style="fill:#DDD9E4;" d="M429.877,372.634H323.135c-2.766,0-5.008-2.242-5.008-5.008c0-2.766,2.242-5.008,5.008-5.008
									h106.742c2.766,0,5.008,2.242,5.008,5.008C434.885,370.391,432.643,372.634,429.877,372.634z"/>
							</g>
						</g>
					</g>
					<path style="fill:#FFA052;" d="M412.837,324.254c-1.279,0-2.559-0.488-3.535-1.464c-2.34-2.339-6.146-2.339-8.486,0
						c-1.951,1.952-5.118,1.953-7.071,0c-0.976-0.976-1.464-2.256-1.464-3.536c0-1.279,0.488-2.559,1.465-3.535
						c1.133-1.133,1.757-2.64,1.757-4.242s-0.624-3.109-1.757-4.243c-0.977-0.977-1.465-2.256-1.465-3.536s0.488-2.559,1.465-3.536
						c1.951-1.952,5.119-1.952,7.07,0c2.34,2.34,6.146,2.34,8.486,0c1.951-1.952,5.119-1.952,7.07,0
						c0.977,0.977,1.465,2.256,1.465,3.536s-0.488,2.559-1.465,3.536c-1.133,1.133-1.757,2.64-1.757,4.243s0.624,3.109,1.757,4.242
						c0.977,0.976,1.465,2.256,1.465,3.535c0,1.28-0.488,2.56-1.464,3.536C415.396,323.766,414.116,324.254,412.837,324.254z"/>
					<path style="fill:#FFA052;" d="M453.503,324.254c-1.279,0-2.559-0.488-3.535-1.464c-2.34-2.339-6.146-2.339-8.486,0
						c-1.951,1.952-5.118,1.953-7.071,0c-0.976-0.976-1.464-2.256-1.464-3.536c0-1.279,0.488-2.559,1.465-3.535
						c1.133-1.133,1.757-2.64,1.757-4.242s-0.624-3.109-1.757-4.243c-0.977-0.977-1.465-2.256-1.465-3.536s0.488-2.559,1.465-3.536
						c1.951-1.952,5.119-1.952,7.07,0c2.34,2.34,6.146,2.34,8.486,0c1.951-1.952,5.119-1.952,7.07,0
						c0.977,0.977,1.465,2.256,1.465,3.536s-0.488,2.559-1.465,3.536c-1.133,1.133-1.757,2.64-1.757,4.243s0.624,3.109,1.757,4.242
						c0.977,0.976,1.465,2.256,1.465,3.535c0,1.28-0.488,2.56-1.464,3.536C456.063,323.766,454.782,324.254,453.503,324.254z"/>
				</g>
				<g>
					<path style="fill:#FFA052;" d="M100.622,285.166H44.536c-5.523,0-10.001-4.477-10.001-10.001v-47.796
						c0-5.523,4.477-10.001,10.001-10.001h56.086c5.523,0,10.001,4.477,10.001,10.001v47.796
						C110.623,280.689,106.145,285.166,100.622,285.166z"/>
					<g>
						<g>
							<path style="fill:#F5F4F9;" d="M65.778,268.304c-0.833,0-1.677-0.208-2.453-0.647c-2.405-1.358-3.254-4.408-1.896-6.813
								l13.593-24.072c1.358-2.404,4.409-3.253,6.812-1.896c2.405,1.358,3.254,4.408,1.896,6.813l-13.593,24.072
								C69.218,267.389,67.523,268.304,65.778,268.304z"/>
						</g>
					</g>
				</g>
				<g>
					<path style="fill:#C182F9;" d="M380.549,139.98h-56.086c-5.523,0-10.001-4.477-10.001-10.001V82.183
						c0-5.523,4.478-10.001,10.001-10.001h56.086c5.523,0,10.001,4.477,10.001,10.001v47.796
						C390.55,135.502,386.073,139.98,380.549,139.98z"/>
					<g>
						<g>
							<path style="fill:#F5F4F9;" d="M345.705,123.118c-0.833,0-1.677-0.209-2.453-0.647c-2.405-1.358-3.254-4.408-1.896-6.813
								l13.593-24.072c1.358-2.404,4.409-3.253,6.812-1.896c2.405,1.358,3.254,4.408,1.896,6.813l-13.593,24.072
								C349.145,122.203,347.45,123.118,345.705,123.118z"/>
						</g>
					</g>
				</g>
				<g>
					<circle style="fill:#F5F4F9;" cx="256.17" cy="262.499" r="11.232"/>
					<g>
						<path style="fill:#590BB2;" d="M251.17,196.401c0,2.761,2.238,5,5,5s5-2.239,5-5v-12.018c0-2.761-2.238-5-5-5s-5,2.239-5,5
							V196.401z"/>
						<path style="fill:#590BB2;" d="M256.17,129.294c2.762,0,5-2.239,5-5v-12.018c0-2.761-2.238-5-5-5s-5,2.239-5,5v12.018
							C251.17,127.055,253.408,129.294,256.17,129.294z"/>
						<path style="fill:#590BB2;" d="M251.17,160.348c0,2.761,2.238,5,5,5s5-2.239,5-5V148.33c0-2.761-2.238-5-5-5s-5,2.239-5,5
							V160.348z"/>
						<path style="fill:#590BB2;" d="M256.17,395.705c-2.762,0-5,2.239-5,5v12.018c0,2.761,2.238,5,5,5s5-2.239,5-5v-12.018
							C261.17,397.944,258.932,395.705,256.17,395.705z"/>
						<path style="fill:#590BB2;" d="M261.17,328.598c0-2.761-2.238-5-5-5s-5,2.239-5,5v12.018c0,2.761,2.238,5,5,5s5-2.239,5-5
							V328.598z"/>
						<path style="fill:#590BB2;" d="M261.17,292.544c0-2.761-2.238-5-5-5s-5,2.239-5,5v12.018c0,2.761,2.238,5,5,5s5-2.239,5-5
							V292.544z"/>
						<path style="fill:#590BB2;" d="M261.17,364.651c0-2.761-2.238-5-5-5s-5,2.239-5,5v12.018c0,2.761,2.238,5,5,5s5-2.239,5-5
							V364.651z"/>
						<path style="fill:#590BB2;" d="M251.17,232.455c0,2.761,2.238,5,5,5s5-2.239,5-5v-12.018c0-2.761-2.238-5-5-5s-5,2.239-5,5
							V232.455z"/>
						<path style="fill:#590BB2;" d="M122.291,339.795c0.926,1.604,2.606,2.501,4.335,2.501c0.848,0,1.708-0.216,2.495-0.671
							l10.28-5.936c2.392-1.381,3.211-4.439,1.83-6.83c-1.38-2.391-4.439-3.212-6.83-1.83l-10.28,5.936
							C121.729,334.346,120.91,337.403,122.291,339.795z"/>
						<path style="fill:#590BB2;" d="M342.514,217.653c0.848,0,1.708-0.216,2.495-0.671l10.28-5.936
							c2.392-1.381,3.211-4.438,1.83-6.83c-1.38-2.391-4.439-3.212-6.83-1.83l-10.28,5.936c-2.392,1.381-3.211,4.438-1.83,6.83
							C339.104,216.756,340.785,217.653,342.514,217.653z"/>
						<path style="fill:#590BB2;" d="M311.672,235.459c0.848,0,1.708-0.216,2.495-0.671l10.28-5.935
							c2.392-1.38,3.211-4.438,1.83-6.83c-1.38-2.391-4.438-3.212-6.83-1.83l-10.28,5.935c-2.392,1.38-3.211,4.438-1.83,6.83
							C308.263,234.562,309.943,235.459,311.672,235.459z"/>
						<path style="fill:#590BB2;" d="M280.831,253.265c0.848,0,1.708-0.216,2.495-0.671l10.28-5.935
							c2.392-1.38,3.211-4.438,1.83-6.83c-1.38-2.391-4.439-3.212-6.83-1.83l-10.28,5.935c-2.392,1.38-3.211,4.438-1.83,6.83
							C277.422,252.368,279.103,253.265,280.831,253.265z"/>
						<path style="fill:#590BB2;" d="M373.354,199.847c0.848,0,1.708-0.216,2.495-0.671l10.28-5.936
							c2.392-1.381,3.211-4.439,1.83-6.83c-1.38-2.391-4.438-3.212-6.83-1.83l-10.28,5.936c-2.392,1.381-3.211,4.438-1.83,6.83
							C369.945,198.95,371.626,199.847,373.354,199.847z"/>
						<path style="fill:#590BB2;" d="M214.813,286.377c0.926,1.604,2.606,2.501,4.335,2.501c0.848,0,1.708-0.216,2.495-0.671
							l10.281-5.936c2.392-1.38,3.211-4.438,1.83-6.83c-1.38-2.391-4.438-3.212-6.83-1.83l-10.281,5.936
							C214.252,280.927,213.433,283.985,214.813,286.377z"/>
						<path style="fill:#590BB2;" d="M153.132,321.989c0.926,1.604,2.606,2.501,4.335,2.501c0.848,0,1.708-0.216,2.495-0.671
							l10.28-5.936c2.392-1.381,3.211-4.439,1.83-6.83c-1.38-2.391-4.438-3.212-6.83-1.83l-10.28,5.936
							C152.57,316.54,151.751,319.597,153.132,321.989z"/>
						<path style="fill:#590BB2;" d="M183.973,304.183c0.926,1.604,2.606,2.501,4.335,2.501c0.848,0,1.708-0.216,2.495-0.671
							l10.28-5.936c2.392-1.381,3.211-4.439,1.83-6.83c-1.38-2.391-4.438-3.212-6.83-1.83l-10.28,5.936
							C183.411,298.733,182.592,301.791,183.973,304.183z"/>
						<path style="fill:#590BB2;" d="M217.603,246.006l10.32,5.958c0.788,0.455,1.647,0.671,2.495,0.671
							c1.729,0,3.409-0.897,4.335-2.501c1.381-2.392,0.562-5.45-1.83-6.83l-10.32-5.958c-2.396-1.382-5.451-0.561-6.83,1.83
							C214.392,241.567,215.211,244.626,217.603,246.006z"/>
						<path style="fill:#590BB2;" d="M124.723,192.381l10.32,5.958c0.787,0.455,1.647,0.671,2.495,0.671
							c1.729,0,3.409-0.897,4.335-2.501c1.381-2.392,0.562-5.449-1.83-6.83l-10.32-5.958c-2.393-1.382-5.45-0.56-6.83,1.83
							C121.512,187.943,122.331,191.001,124.723,192.381z"/>
						<path style="fill:#590BB2;" d="M186.643,228.131l10.32,5.958c0.787,0.455,1.647,0.671,2.495,0.671
							c1.729,0,3.409-0.897,4.335-2.501c1.381-2.392,0.562-5.449-1.83-6.83l-10.32-5.958c-2.393-1.381-5.45-0.561-6.83,1.83
							C183.432,223.692,184.251,226.75,186.643,228.131z"/>
						<path style="fill:#590BB2;" d="M155.683,210.256l10.32,5.958c0.788,0.455,1.647,0.671,2.495,0.671
							c1.729,0,3.409-0.897,4.335-2.501c1.381-2.392,0.562-5.45-1.83-6.83l-10.32-5.958c-2.396-1.381-5.451-0.561-6.83,1.83
							C152.472,205.818,153.291,208.876,155.683,210.256z"/>
						<path style="fill:#590BB2;" d="M474.5,274.166h-38.521v-86.478c12.281-2.347,21.594-13.161,21.594-26.115
							c0-14.664-11.93-26.593-26.594-26.593c-8.023,0-15.222,3.577-20.102,9.213l-16.16-9.33c0.53-1.533,0.833-3.172,0.833-4.884
							V82.183c0-8.271-6.729-15.001-15-15.001h-56.087c-8.271,0-15,6.729-15,15.001v3.458l-28.177-16.268
							c0.953-2.736,1.478-5.67,1.478-8.727c0-14.664-11.93-26.593-26.594-26.593c-14.663,0-26.593,11.93-26.593,26.593
							c0,3.056,0.525,5.991,1.478,8.727l-129.592,74.82c-4.88-5.637-12.079-9.214-20.102-9.214
							c-14.664,0-26.594,11.93-26.594,26.593c0,12.954,9.313,23.768,21.594,26.115v24.68H44.536
							c-8.271,0-15.001,6.729-15.001,15.001v47.796c0,8.271,6.729,15.001,15.001,15.001h56.086c8.271,0,15.001-6.729,15.001-15.001
							v-47.796c0-8.271-6.729-15.001-15.001-15.001H86.361v-24.68c5.985-1.144,11.262-4.3,15.102-8.735l2.619,1.512
							c0.787,0.455,1.646,0.671,2.495,0.671c1.728,0,3.409-0.897,4.335-2.5c1.381-2.392,0.562-5.45-1.83-6.831l-2.606-1.505
							c0.953-2.736,1.478-5.67,1.478-8.727s-0.525-5.991-1.478-8.727l129.592-74.82c3.84,4.436,9.117,7.591,15.102,8.735v1.479
							c0,2.761,2.238,5,5,5s5-2.239,5-5v-1.479c5.986-1.144,11.263-4.3,15.103-8.735l33.19,19.162v32.791
							c0,8.271,6.729,15.001,15,15.001h56.087c2.871,0,5.547-0.825,7.829-2.23l17.486,10.096c-0.953,2.736-1.478,5.67-1.478,8.727
							c0,3.056,0.525,5.991,1.478,8.727l-4.174,2.41c-2.392,1.38-3.211,4.438-1.83,6.83c0.926,1.604,2.606,2.501,4.335,2.501
							c0.848,0,1.708-0.216,2.495-0.671l4.187-2.417c3.84,4.436,9.117,7.591,15.102,8.735v91.478c0,2.761,2.238,5,5,5H474.5
							c2.757,0,5,2.243,5,5v99.333c0,2.757-2.243,5-5,5H300.501c-2.757,0-5-2.243-5-5v-99.333c0-2.757,2.243-5,5-5h102.94
							c2.762,0,5-2.239,5-5s-2.238-5-5-5h-102.94c-3.355,0-6.446,1.121-8.947,2.989l-7.032-4.059
							c-2.396-1.383-5.451-0.561-6.83,1.83c-1.381,2.392-0.562,5.45,1.83,6.83l6.455,3.727c-0.3,1.181-0.477,2.411-0.477,3.684
							v99.333c0,8.271,6.729,15,15,15h51.069l-75.297,43.473c-3.84-4.436-9.117-7.592-15.103-8.735v-1.478c0-2.761-2.238-5-5-5
							s-5,2.239-5,5v1.478c-5.986,1.144-11.262,4.3-15.102,8.736l-129.592-74.82c0.953-2.736,1.478-5.67,1.478-8.726
							c0-3.057-0.525-5.991-1.478-8.727l2.084-1.203c2.392-1.38,3.211-4.438,1.83-6.83c-1.381-2.391-4.439-3.212-6.83-1.83
							l-2.096,1.21c-3.84-4.436-9.116-7.591-15.102-8.735v-24.606c0-2.761-2.238-5-5-5s-5,2.239-5,5v24.606
							c-12.281,2.347-21.594,13.161-21.594,26.115c0,14.663,11.93,26.593,26.594,26.593c8.023,0,15.222-3.577,20.102-9.214
							l129.592,74.82c-0.953,2.736-1.478,5.67-1.478,8.727c0,14.663,11.93,26.593,26.593,26.593
							c14.664,0,26.594-11.93,26.594-26.593c0-3.057-0.525-5.991-1.478-8.727l89.694-51.785c0.172-0.099,0.318-0.225,0.473-0.341
							H474.5c8.271,0,15-6.729,15-15v-99.333C489.5,280.895,482.771,274.166,474.5,274.166z M105.623,227.369v47.796
							c0,2.757-2.243,5.001-5.001,5.001H44.536c-2.758,0-5.001-2.244-5.001-5.001v-47.796c0-2.757,2.243-5.001,5.001-5.001h56.086
							C103.38,222.368,105.623,224.612,105.623,227.369z M81.361,178.166c-9.149,0-16.594-7.443-16.594-16.593
							s7.444-16.593,16.594-16.593s16.593,7.444,16.593,16.593S90.511,178.166,81.361,178.166z M256.17,77.24
							c-9.149,0-16.593-7.443-16.593-16.593s7.443-16.593,16.593-16.593s16.594,7.444,16.594,16.593S265.319,77.24,256.17,77.24z
							 M380.55,134.98h-56.087c-2.757,0-5-2.244-5-5.001V82.183c0-2.757,2.243-5.001,5-5.001h56.087c2.757,0,5,2.244,5,5.001v47.796
							C385.55,132.736,383.307,134.98,380.55,134.98z M414.387,161.573c0-9.149,7.443-16.593,16.593-16.593
							s16.594,7.444,16.594,16.593s-7.444,16.593-16.594,16.593S414.387,170.723,414.387,161.573z M81.361,380.019
							c-9.149,0-16.594-7.443-16.594-16.593s7.444-16.593,16.594-16.593s16.593,7.444,16.593,16.593S90.511,380.019,81.361,380.019z
							 M256.17,480.945c-9.149,0-16.593-7.443-16.593-16.593s7.443-16.593,16.593-16.593s16.594,7.444,16.594,16.593
							S265.319,480.945,256.17,480.945z"/>
						<path style="fill:#590BB2;" d="M239.938,262.5c0,8.95,7.281,16.232,16.231,16.232s16.232-7.282,16.232-16.232
							c0-8.951-7.282-16.232-16.232-16.232S239.938,253.549,239.938,262.5z M256.17,256.267c3.437,0,6.232,2.796,6.232,6.232
							s-2.796,6.232-6.232,6.232c-3.436,0-6.231-2.795-6.231-6.232S252.734,256.267,256.17,256.267z"/>
					</g>
				</g>
			</g>
		</g>
		<path style="fill:#C182F9;" d="M38.517,332.502L38.517,332.502c-1.326,0-2.598-0.527-3.535-1.464L23.965,320.02
			c-1.953-1.953-1.953-5.119,0-7.071l11.017-11.017c0.938-0.938,2.209-1.464,3.535-1.464s2.598,0.527,3.535,1.464l11.018,11.017
			c0.938,0.938,1.465,2.209,1.465,3.536s-0.526,2.598-1.465,3.536l-11.018,11.017C41.114,331.975,39.843,332.502,38.517,332.502z
			 M34.571,316.484l3.945,3.946l3.946-3.946l-3.946-3.946L34.571,316.484z"/>
		<path style="fill:#FFA052;" d="M401.567,447.871c-1.326,0-2.598-0.527-3.535-1.464l-11.018-11.017
			c-0.938-0.938-1.465-2.209-1.465-3.536s0.526-2.598,1.465-3.536l11.018-11.017c0.938-0.938,2.209-1.464,3.535-1.464l0,0
			c1.326,0,2.598,0.527,3.535,1.464l11.017,11.017c1.953,1.953,1.953,5.119,0,7.071l-11.017,11.017
			C404.165,447.344,402.894,447.871,401.567,447.871z M397.621,431.854l3.946,3.946l3.945-3.946l-3.945-3.946L397.621,431.854z"/>
		<path style="fill:#FFA052;" d="M436.826,103.943c-0.848,0-1.708-0.216-2.495-0.671l-13.493-7.79
			c-2.392-1.38-3.211-4.438-1.83-6.83l7.79-13.493c1.38-2.391,4.438-3.212,6.83-1.83l13.493,7.79c2.392,1.38,3.211,4.438,1.83,6.83
			l-7.79,13.493C440.235,103.046,438.555,103.943,436.826,103.943z M430.168,89.322l4.833,2.79l2.79-4.833l-4.833-2.79
			L430.168,89.322z"/>
		<path style="fill:#FFE783;" d="M407.566,59.107c-2.762,0-5-2.239-5-5c0-3.318-2.699-6.017-6.017-6.017c-2.762,0-5-2.239-5-5
			s2.238-5,5-5c3.317,0,6.017-2.699,6.017-6.017c0-2.761,2.238-5,5-5s5,2.239,5,5c0,3.318,2.699,6.017,6.018,6.017
			c2.762,0,5,2.239,5,5s-2.238,5-5,5c-3.318,0-6.018,2.699-6.018,6.017C412.566,56.868,410.328,59.107,407.566,59.107z"/>
	</g>
</g>
<g>
</g>
<g>
</g>
<g>
</g>
<g>
</g>
<g>
</g>
<g>
</g>
<g>
</g>
<g>
</g>
<g>
</g>
<g>
</g>
<g>
</g>
<g>
</g>
<g>
</g>
<g>
</g>
<g>
</g>
</svg>
